<svg width="36" height="36" viewBox="0 0 36 36" fill="none" xmlns="http://www.w3.org/2000/svg">
<rect width="36" height="36" rx="12" fill="#3182CE" fill-opacity="0.1"/>
<path d="M18 9C13.0294 9 9 13.0294 9 18C9 18.0812 9 18.1218 9.0083 18.1796C9.04548 18.4387 9.25068 18.7083 9.49055 18.8131C9.54407 18.8365 9.59144 18.8495 9.68617 18.8757C9.83468 18.9167 9.96857 18.9526 10.0803 18.9817C10.7845 19.1423 11.5182 19.2272 12.2727 19.2272C14.9773 19.2272 17.4267 18.1341 19.2032 16.3636H18C17.5481 16.3636 17.1818 15.9973 17.1818 15.5455C17.1818 15.0936 17.5481 14.7273 18 14.7273H21.2727C21.7246 14.7273 22.0909 15.0936 22.0909 15.5455V18.8182C22.0909 19.2701 21.7246 19.6364 21.2727 19.6364C20.8209 19.6364 20.4545 19.2701 20.4545 18.8182V17.4255C18.3762 19.5462 15.4783 20.8636 12.2727 20.8636C12.0599 20.8636 11.848 20.858 11.6369 20.8466C10.8088 20.8018 10.3947 20.7794 10.1668 20.9337C9.97275 21.065 9.83807 21.288 9.81219 21.5209C9.78179 21.7944 9.94348 22.0652 10.2669 22.6069C11.8376 25.2379 14.713 27 18 27C22.9706 27 27 22.9706 27 18C27 13.0294 22.9706 9 18 9Z" fill="#3182CE"/>
</svg>
