<svg width="316" height="105" viewBox="0 0 316 105" fill="none" xmlns="http://www.w3.org/2000/svg">
<rect x="0.5" y="0.5" width="315" height="104" rx="11.5" fill="url(#paint0_linear_8030_301)"/>
<rect x="0.5" y="0.5" width="315" height="104" rx="11.5" stroke="#171923"/>
<g filter="url(#filter0_d_8030_301)">
<path d="M38 36.3246C38.0135 41.6125 32.1587 44.409 26.598 44.1169C19.7258 43.7558 16.5056 39.8316 16.0448 35.2682C15.6686 31.5435 17.7236 27.9602 19.8742 25.9319C19.7991 26.7432 19.8782 27.6049 20.3691 28.2868C20.8599 28.9689 21.8526 29.4014 22.6906 29.1069C23.7533 28.7335 24.0449 27.4515 23.7679 26.45C23.4908 25.4484 22.8248 24.5617 22.5571 23.5581C22.1225 21.9271 22.8225 20.1698 24.0347 18.9011C25.2468 17.6324 26.9133 16.7893 28.6204 16.1377C27.594 17.2277 27.4579 18.9307 28.3006 20.1432C29.1055 21.3016 30.5803 21.9029 31.7217 22.7997C33.6417 24.3083 34.5669 26.9489 33.4799 29.0297C33.1866 29.5912 32.7664 30.0924 32.4728 30.6537C32.1793 31.2151 32.0205 31.8807 32.283 32.4546C32.5455 33.0285 33.3487 33.4163 33.953 33.1225C34.6518 32.783 34.6624 31.7687 34.2616 30.7881C36.638 31.5952 37.9941 34.0051 38 36.3246Z" fill="#185FAB"/>
</g>
<path d="M33.9669 40.2378C33.1158 41.7656 31.5849 42.9446 29.8357 43.5919C29.651 43.6603 29.464 43.7229 29.2751 43.78C27.3714 44.355 25.2829 44.1992 23.5356 43.3053C22.2291 42.637 21.0281 41.5303 20.2646 39.6534C19.4717 37.704 19.9239 34.961 21.1386 33.2986C21.1474 34.1273 22.1294 34.7653 23.0396 34.6828C23.95 34.6005 24.7084 33.9546 25.0853 33.1997C25.4621 32.4447 25.5182 31.5928 25.5109 30.7642C25.5037 29.9355 25.4396 29.0997 25.598 28.2837C25.7562 27.4676 26.3061 26.1809 27.2211 25.4492C26.3694 26.9556 27.0643 28.4367 27.9296 29.6853C28.7949 30.934 29.9086 31.3692 30.4956 33.5046C30.9074 35.0028 30.0758 36.4384 31.739 36.84C33.0214 37.1498 34.0198 35.7928 33.9565 35.0028C34.7357 36.5618 34.8181 38.7099 33.9669 40.2378Z" fill="#71A0D2"/>
<path d="M30.217 42.6804C29.4576 43.6293 28.4444 44.1577 26.7221 44.095C24.9442 44.0304 23.8829 43.1219 23.1437 41.8594C22.4886 40.7403 22.3976 39.3317 22.7069 38.1318C23.2821 39.1211 24.0624 39.5234 25.127 39.6536C24.1047 38.017 24.9601 35.0904 27.3064 33.541C26.8381 34.2019 26.9346 35.0417 27.3209 35.7355C27.7072 36.4291 28.3488 37.0088 28.9751 37.5807C29.6015 38.1524 30.2329 38.7419 30.5914 39.4449C31.1231 40.4874 30.9765 41.7316 30.217 42.6804Z" fill="white" fill-opacity="0.4"/>
<path d="M69 72.5354C69.0086 75.557 65.2828 77.155 61.7442 76.9881C57.371 76.7818 55.3217 74.5394 55.0285 71.9317C54.7891 69.8033 56.0969 67.7557 57.4654 66.5967C57.4176 67.0603 57.4679 67.5527 57.7804 67.9424C58.0927 68.3321 58.7244 68.5792 59.2577 68.411C59.9339 68.1976 60.1195 67.465 59.9432 66.8928C59.7669 66.3204 59.3431 65.8137 59.1727 65.2402C58.8961 64.3082 59.3416 63.304 60.113 62.5791C60.8843 61.8541 61.9449 61.3724 63.0312 61C62.378 61.6229 62.2914 62.596 62.8276 63.2889C63.3399 63.9508 64.2784 64.2944 65.0047 64.8068C66.2265 65.6689 66.8153 67.1778 66.1236 68.3669C65.9369 68.6877 65.6695 68.9741 65.4827 69.2949C65.2959 69.6156 65.1949 69.996 65.3619 70.3239C65.5289 70.6519 66.0401 70.8735 66.4246 70.7056C66.8693 70.5116 66.8761 69.932 66.621 69.3717C68.1333 69.8328 68.9962 71.2099 69 72.5354Z" fill="url(#paint1_linear_8030_301)"/>
<path d="M53.4636 89V82.5948H54.3913L56.5841 87.9391H56.6551L58.8479 82.5948H59.7756V89H59.0299V84.1084H58.981L56.9569 89H56.2822L54.2581 84.1084H54.2093V89H53.4636ZM63.3183 89.0843C61.9556 89.0843 61.1122 88.1433 61.1122 86.6119V86.603C61.1122 85.0672 61.9556 84.1306 63.3183 84.1306C64.6811 84.1306 65.5244 85.0672 65.5244 86.603V86.6119C65.5244 88.1433 64.6811 89.0843 63.3183 89.0843ZM63.3183 88.4008C64.2239 88.4008 64.7343 87.7394 64.7343 86.6119V86.603C64.7343 85.4711 64.2239 84.8142 63.3183 84.8142C62.4128 84.8142 61.9023 85.4711 61.9023 86.603V86.6119C61.9023 87.7394 62.4128 88.4008 63.3183 88.4008ZM66.7634 89V84.2149H67.5358V84.934H67.6068C67.8465 84.428 68.2948 84.1306 69.0006 84.1306C70.0748 84.1306 70.674 84.7653 70.674 85.9017V89H69.9017V86.0881C69.9017 85.227 69.5466 84.8142 68.7831 84.8142C68.0196 84.8142 67.5358 85.3291 67.5358 86.168V89H66.7634Z" fill="#718096"/>
<path d="M107 72.5354C107.009 75.557 103.283 77.155 99.7442 76.9881C95.371 76.7818 93.3217 74.5394 93.0285 71.9317C92.7891 69.8033 94.0969 67.7557 95.4654 66.5967C95.4176 67.0603 95.4679 67.5527 95.7804 67.9424C96.0927 68.3321 96.7244 68.5792 97.2577 68.411C97.9339 68.1976 98.1195 67.465 97.9432 66.8928C97.7669 66.3204 97.3431 65.8137 97.1727 65.2402C96.8961 64.3082 97.3416 63.304 98.113 62.5791C98.8843 61.8541 99.9449 61.3724 101.031 61C100.378 61.6229 100.291 62.596 100.828 63.2889C101.34 63.9508 102.278 64.2944 103.005 64.8068C104.227 65.6689 104.815 67.1778 104.124 68.3669C103.937 68.6877 103.669 68.9741 103.483 69.2949C103.296 69.6156 103.195 69.996 103.362 70.3239C103.529 70.6519 104.04 70.8735 104.425 70.7056C104.869 70.5116 104.876 69.932 104.621 69.3717C106.133 69.8328 106.996 71.2099 107 72.5354Z" fill="url(#paint2_linear_8030_301)"/>
<path d="M94.6418 89V83.3138H92.5777V82.5948H97.5048V83.3138H95.4408V89H94.6418ZM99.6183 89.0843C98.5307 89.0843 97.9715 88.4451 97.9715 87.3132V84.2149H98.7438V87.1268C98.7438 87.9879 99.0545 88.4008 99.818 88.4008C100.661 88.4008 101.11 87.8859 101.11 87.0469V84.2149H101.882V89H101.11V88.2853H101.039C100.803 88.7958 100.32 89.0843 99.6183 89.0843ZM105.318 89.0843C103.951 89.0843 103.125 88.1255 103.125 86.6252V86.6208C103.125 85.1426 103.969 84.1306 105.269 84.1306C106.57 84.1306 107.36 85.0983 107.36 86.5276V86.8294H103.916C103.938 87.8193 104.484 88.3963 105.336 88.3963C105.984 88.3963 106.384 88.09 106.512 87.8015L106.53 87.7616H107.302L107.294 87.7971C107.129 88.4451 106.446 89.0843 105.318 89.0843ZM105.265 84.8186C104.555 84.8186 104.013 85.3024 103.929 86.2124H106.574C106.495 85.2669 105.971 84.8186 105.265 84.8186Z" fill="#718096"/>
<path d="M145 72.5354C145.009 75.557 141.283 77.155 137.744 76.9881C133.371 76.7818 131.322 74.5394 131.029 71.9317C130.789 69.8033 132.097 67.7557 133.465 66.5967C133.418 67.0603 133.468 67.5527 133.78 67.9424C134.093 68.3321 134.724 68.5792 135.258 68.411C135.934 68.1976 136.119 67.465 135.943 66.8928C135.767 66.3204 135.343 65.8137 135.173 65.2402C134.896 64.3082 135.342 63.304 136.113 62.5791C136.884 61.8541 137.945 61.3724 139.031 61C138.378 61.6229 138.291 62.596 138.828 63.2889C139.34 63.9508 140.278 64.2944 141.005 64.8068C142.227 65.6689 142.815 67.1778 142.124 68.3669C141.937 68.6877 141.669 68.9741 141.483 69.2949C141.296 69.6156 141.195 69.996 141.362 70.3239C141.529 70.6519 142.04 70.8735 142.425 70.7056C142.869 70.5116 142.876 69.932 142.621 69.3717C144.133 69.8328 144.996 71.2099 145 72.5354Z" fill="url(#paint3_linear_8030_301)"/>
<path d="M130.538 89L128.793 82.5948H129.628L130.902 87.8015H130.955L132.389 82.5948H133.197L134.63 87.8015H134.684L135.958 82.5948H136.792L135.048 89H134.293L132.819 83.9442H132.766L131.292 89H130.538ZM139.46 89.0843C138.093 89.0843 137.268 88.1255 137.268 86.6252V86.6208C137.268 85.1426 138.111 84.1306 139.412 84.1306C140.712 84.1306 141.502 85.0983 141.502 86.5276V86.8294H138.058C138.08 87.8193 138.626 88.3963 139.478 88.3963C140.126 88.3963 140.526 88.09 140.654 87.8015L140.672 87.7616H141.445L141.436 87.7971C141.271 88.4451 140.588 89.0843 139.46 89.0843ZM139.407 84.8186C138.697 84.8186 138.155 85.3024 138.071 86.2124H140.717C140.637 85.2669 140.113 84.8186 139.407 84.8186ZM144.508 89.0843C143.296 89.0843 142.502 88.1034 142.502 86.6119V86.603C142.502 85.1027 143.292 84.1306 144.508 84.1306C145.165 84.1306 145.737 84.4591 145.999 84.9695H146.07V82.3151H146.843V89H146.07V88.2365H145.999C145.706 88.7692 145.174 89.0843 144.508 89.0843ZM144.685 88.4008C145.555 88.4008 146.088 87.7172 146.088 86.6119V86.603C146.088 85.4978 145.555 84.8142 144.685 84.8142C143.811 84.8142 143.292 85.4889 143.292 86.603V86.6119C143.292 87.7261 143.811 88.4008 144.685 88.4008Z" fill="#718096"/>
<path d="M176.002 61.9463C175.927 62.4473 176.025 62.9687 176.311 63.4209L176.433 63.5947C176.749 64.0036 177.18 64.2947 177.579 64.5332C177.901 64.7253 178.186 64.8761 178.454 65.042L178.717 65.2158C179.744 65.9408 180.154 67.0776 179.777 67.9453L179.691 68.1152C179.615 68.2465 179.519 68.3752 179.402 68.5312C179.347 68.605 179.287 68.6857 179.227 68.7715L179.051 69.043C178.847 69.3936 178.659 69.9236 178.869 70.4463L178.916 70.5508C179.068 70.8491 179.349 71.059 179.633 71.168C179.884 71.2644 180.194 71.3024 180.496 71.2109L180.625 71.1641C181.043 70.9817 181.236 70.6125 181.279 70.2412C181.999 70.742 182.425 71.5329 182.491 72.3262L182.5 72.5371C182.503 73.806 181.733 74.8187 180.461 75.5195C179.264 76.179 177.677 76.5244 176.086 76.499L175.768 76.4883C173.661 76.3889 172.169 75.8027 171.177 74.9766C170.25 74.2047 169.726 73.1972 169.555 72.0967L169.525 71.876C169.352 70.3336 170.095 68.7924 171.076 67.6787C171.132 67.8406 171.207 68.0012 171.313 68.1533L171.391 68.2549C171.789 68.7516 172.55 69.0824 173.266 68.9258L173.408 68.8877C174.378 68.5817 174.617 67.6056 174.458 66.8857L174.421 66.7451C174.315 66.4007 174.137 66.0851 173.993 65.8252C173.878 65.6166 173.781 65.4387 173.712 65.2676L173.652 65.0977C173.462 64.4569 173.725 63.697 174.33 63.0674L174.455 62.9434C174.879 62.5454 175.41 62.2219 176.002 61.9463Z" stroke="#1A4D83"/>
<path d="M170.229 89V83.3138H168.165V82.5948H173.092V83.3138H171.028V89H170.229ZM174.313 89V82.3151H175.086V84.934H175.157C175.396 84.428 175.845 84.1306 176.55 84.1306C177.625 84.1306 178.224 84.7653 178.224 85.9017V89H177.451V86.0881C177.451 85.227 177.096 84.8142 176.333 84.8142C175.569 84.8142 175.086 85.3291 175.086 86.168V89H174.313ZM181.265 89.0843C180.177 89.0843 179.618 88.4451 179.618 87.3132V84.2149H180.391V87.1268C180.391 87.9879 180.701 88.4008 181.465 88.4008C182.308 88.4008 182.756 87.8859 182.756 87.0469V84.2149H183.529V89H182.756V88.2853H182.685C182.45 88.7958 181.966 89.0843 181.265 89.0843Z" fill="#718096"/>
<path d="M221 72.5354C221.009 75.557 217.283 77.155 213.744 76.9881C209.371 76.7818 207.322 74.5394 207.029 71.9317C206.789 69.8033 208.097 67.7557 209.465 66.5967C209.418 67.0603 209.468 67.5527 209.78 67.9424C210.093 68.3321 210.724 68.5792 211.258 68.411C211.934 68.1976 212.119 67.465 211.943 66.8928C211.767 66.3204 211.343 65.8137 211.173 65.2402C210.896 64.3082 211.342 63.304 212.113 62.5791C212.884 61.8541 213.945 61.3724 215.031 61C214.378 61.6229 214.291 62.596 214.828 63.2889C215.34 63.9508 216.278 64.2944 217.005 64.8068C218.227 65.6689 218.815 67.1778 218.124 68.3669C217.937 68.6877 217.669 68.9741 217.483 69.2949C217.296 69.6156 217.195 69.996 217.362 70.3239C217.529 70.6519 218.04 70.8735 218.425 70.7056C218.869 70.5116 218.876 69.932 218.621 69.3717C220.133 69.8328 220.996 71.2099 221 72.5354Z" fill="#2D3748"/>
<path d="M209.321 89V82.5948H213.209V83.3138H210.12V85.5155H212.956V86.2257H210.12V89H209.321ZM214.466 89V84.2149H215.238V84.9251H215.309C215.491 84.4236 215.94 84.1306 216.588 84.1306C216.734 84.1306 216.899 84.1483 216.974 84.1617V84.9118C216.814 84.8852 216.668 84.8674 216.499 84.8674C215.762 84.8674 215.238 85.3335 215.238 86.0349V89H214.466ZM218.377 83.2917C218.084 83.2917 217.845 83.052 217.845 82.759C217.845 82.466 218.084 82.2263 218.377 82.2263C218.67 82.2263 218.91 82.466 218.91 82.759C218.91 83.052 218.67 83.2917 218.377 83.2917ZM217.987 89V84.2149H218.759V89H217.987Z" fill="#718096"/>
<path d="M259 72.5354C259.009 75.557 255.283 77.155 251.744 76.9881C247.371 76.7818 245.322 74.5394 245.029 71.9317C244.789 69.8033 246.097 67.7557 247.465 66.5967C247.418 67.0603 247.468 67.5527 247.78 67.9424C248.093 68.3321 248.724 68.5792 249.258 68.411C249.934 68.1976 250.119 67.465 249.943 66.8928C249.767 66.3204 249.343 65.8137 249.173 65.2402C248.896 64.3082 249.342 63.304 250.113 62.5791C250.884 61.8541 251.945 61.3724 253.031 61C252.378 61.6229 252.291 62.596 252.828 63.2889C253.34 63.9508 254.278 64.2944 255.005 64.8068C256.227 65.6689 256.815 67.1778 256.124 68.3669C255.937 68.6877 255.669 68.9741 255.483 69.2949C255.296 69.6156 255.195 69.996 255.362 70.3239C255.529 70.6519 256.04 70.8735 256.425 70.7056C256.869 70.5116 256.876 69.932 256.621 69.3717C258.133 69.8328 258.996 71.2099 259 72.5354Z" fill="#2D3748"/>
<path d="M247.818 89.1509C246.415 89.1509 245.51 88.4141 245.417 87.3709L245.412 87.3221H246.211L246.216 87.3709C246.273 88.0101 246.939 88.4141 247.862 88.4141C248.732 88.4141 249.367 87.9658 249.367 87.3132V87.3088C249.367 86.7761 248.999 86.4122 248.12 86.2168L247.41 86.0615C246.127 85.7774 245.572 85.187 245.572 84.2593V84.2549C245.576 83.194 246.504 82.4438 247.827 82.4438C249.105 82.4438 249.998 83.1984 250.064 84.1528L250.069 84.2149H249.27L249.261 84.1572C249.172 83.5935 248.639 83.1762 247.805 83.1807C247.006 83.1851 246.389 83.5624 246.389 84.2327V84.2371C246.389 84.7476 246.739 85.0938 247.609 85.2847L248.32 85.4445C249.656 85.7419 250.184 86.279 250.184 87.2023V87.2067C250.184 88.4052 249.247 89.1509 247.818 89.1509ZM252.772 89.0843C251.862 89.0843 251.174 88.5339 251.174 87.6639V87.655C251.174 86.8028 251.805 86.3101 252.919 86.2435L254.29 86.1591V85.7241C254.29 85.1338 253.931 84.8142 253.216 84.8142C252.644 84.8142 252.266 85.0272 252.142 85.4001L252.138 85.4134H251.365L251.37 85.3868C251.494 84.6366 252.222 84.1306 253.243 84.1306C254.41 84.1306 255.063 84.7298 255.063 85.7241V89H254.29V88.2942H254.219C253.918 88.8047 253.416 89.0843 252.772 89.0843ZM251.964 87.6462C251.964 88.13 252.377 88.4141 252.932 88.4141C253.718 88.4141 254.29 87.8992 254.29 87.2156V86.7806L253.012 86.8605C252.284 86.9049 251.964 87.1623 251.964 87.6373V87.6462ZM258.215 89.0355C257.229 89.0355 256.817 88.6715 256.817 87.7571V84.8541H256.062V84.2149H256.817V82.9765H257.616V84.2149H258.663V84.8541H257.616V87.5618C257.616 88.1255 257.811 88.3519 258.308 88.3519C258.446 88.3519 258.521 88.3475 258.663 88.3342V88.9911C258.512 89.0178 258.366 89.0355 258.215 89.0355Z" fill="#718096"/>
<path d="M297 72.5354C297.009 75.557 293.283 77.155 289.744 76.9881C285.371 76.7818 283.322 74.5394 283.029 71.9317C282.789 69.8033 284.097 67.7557 285.465 66.5967C285.418 67.0603 285.468 67.5527 285.78 67.9424C286.093 68.3321 286.724 68.5792 287.258 68.411C287.934 68.1976 288.119 67.465 287.943 66.8928C287.767 66.3204 287.343 65.8137 287.173 65.2402C286.896 64.3082 287.342 63.304 288.113 62.5791C288.884 61.8541 289.945 61.3724 291.031 61C290.378 61.6229 290.291 62.596 290.828 63.2889C291.34 63.9508 292.278 64.2944 293.005 64.8068C294.227 65.6689 294.815 67.1778 294.124 68.3669C293.937 68.6877 293.669 68.9741 293.483 69.2949C293.296 69.6156 293.195 69.996 293.362 70.3239C293.529 70.6519 294.04 70.8735 294.425 70.7056C294.869 70.5116 294.876 69.932 294.621 69.3717C296.133 69.8328 296.996 71.2099 297 72.5354Z" fill="#2D3748"/>
<path d="M284.668 89.1509C283.266 89.1509 282.36 88.4141 282.267 87.3709L282.263 87.3221H283.062L283.066 87.3709C283.124 88.0101 283.79 88.4141 284.713 88.4141C285.583 88.4141 286.218 87.9658 286.218 87.3132V87.3088C286.218 86.7761 285.849 86.4122 284.97 86.2168L284.26 86.0615C282.977 85.7774 282.422 85.187 282.422 84.2593V84.2549C282.427 83.194 283.355 82.4438 284.677 82.4438C285.956 82.4438 286.848 83.1984 286.914 84.1528L286.919 84.2149H286.12L286.111 84.1572C286.022 83.5935 285.49 83.1762 284.655 83.1807C283.856 83.1851 283.239 83.5624 283.239 84.2327V84.2371C283.239 84.7476 283.59 85.0938 284.46 85.2847L285.17 85.4445C286.506 85.7419 287.034 86.279 287.034 87.2023V87.2067C287.034 88.4052 286.098 89.1509 284.668 89.1509ZM289.911 89.0843C288.824 89.0843 288.264 88.4451 288.264 87.3132V84.2149H289.037V87.1268C289.037 87.9879 289.347 88.4008 290.111 88.4008C290.954 88.4008 291.403 87.8859 291.403 87.0469V84.2149H292.175V89H291.403V88.2853H291.332C291.096 88.7958 290.613 89.0843 289.911 89.0843ZM293.658 89V84.2149H294.431V84.934H294.502C294.741 84.428 295.19 84.1306 295.895 84.1306C296.97 84.1306 297.569 84.7653 297.569 85.9017V89H296.796V86.0881C296.796 85.227 296.441 84.8142 295.678 84.8142C294.914 84.8142 294.431 85.3291 294.431 86.168V89H293.658Z" fill="#718096"/>
<path d="M53.5288 44.1826C51.8315 44.1826 50.7358 43.291 50.623 42.0288L50.6177 41.9697H51.5845L51.5898 42.0288C51.6597 42.8022 52.4653 43.291 53.5825 43.291C54.6353 43.291 55.4033 42.7485 55.4033 41.959V41.9536C55.4033 41.3091 54.9575 40.8687 53.894 40.6323L53.0347 40.4443C51.4824 40.1006 50.811 39.3862 50.811 38.2637V38.2583C50.8164 36.9746 51.939 36.0669 53.5396 36.0669C55.0864 36.0669 56.166 36.98 56.2466 38.1348L56.252 38.21H55.2852L55.2744 38.1401C55.167 37.458 54.5225 36.9531 53.5127 36.9585C52.5459 36.9639 51.7993 37.4204 51.7993 38.2314V38.2368C51.7993 38.8545 52.2236 39.2734 53.2764 39.5044L54.1357 39.6978C55.7524 40.0576 56.3916 40.7075 56.3916 41.8247V41.8301C56.3916 43.2803 55.2583 44.1826 53.5288 44.1826ZM60.3219 44.043C59.1295 44.043 58.63 43.6025 58.63 42.4961V38.9834H57.7169V38.21H58.63V36.7114H59.5968V38.21H60.8644V38.9834H59.5968V42.2598C59.5968 42.9419 59.8331 43.2158 60.4347 43.2158C60.6012 43.2158 60.6925 43.2104 60.8644 43.1943V43.9893C60.6818 44.0215 60.5045 44.043 60.3219 44.043ZM64.2307 44.1021C63.1296 44.1021 62.2971 43.436 62.2971 42.3833V42.3726C62.2971 41.3413 63.0598 40.7451 64.4079 40.6646L66.0676 40.5625V40.0361C66.0676 39.3218 65.6326 38.9351 64.7678 38.9351C64.0749 38.9351 63.6184 39.1929 63.468 39.644L63.4626 39.6602H62.5281L62.5334 39.6279C62.6838 38.7202 63.5647 38.1079 64.8 38.1079C66.2126 38.1079 67.0022 38.833 67.0022 40.0361V44H66.0676V43.146H65.9817C65.6164 43.7637 65.0095 44.1021 64.2307 44.1021ZM63.2532 42.3618C63.2532 42.9473 63.7527 43.291 64.4241 43.291C65.3747 43.291 66.0676 42.668 66.0676 41.8408V41.3145L64.5207 41.4111C63.6399 41.4648 63.2532 41.7764 63.2532 42.3511V42.3618ZM69.0902 44V38.21H70.0248V39.0693H70.1107C70.3309 38.4624 70.8734 38.1079 71.6576 38.1079C71.8348 38.1079 72.0336 38.1294 72.1249 38.1455V39.0532C71.9315 39.021 71.7543 38.9995 71.5502 38.9995C70.6586 38.9995 70.0248 39.5635 70.0248 40.4121V44H69.0902ZM75.8242 44.043C74.6318 44.043 74.1323 43.6025 74.1323 42.4961V38.9834H73.2192V38.21H74.1323V36.7114H75.0991V38.21H76.3667V38.9834H75.0991V42.2598C75.0991 42.9419 75.3354 43.2158 75.937 43.2158C76.1035 43.2158 76.1948 43.2104 76.3667 43.1943V43.9893C76.1841 44.0215 76.0068 44.043 75.8242 44.043ZM83.2068 44.1021C82.1057 44.1021 81.2732 43.436 81.2732 42.3833V42.3726C81.2732 41.3413 82.0359 40.7451 83.384 40.6646L85.0437 40.5625V40.0361C85.0437 39.3218 84.6086 38.9351 83.7439 38.9351C83.051 38.9351 82.5945 39.1929 82.4441 39.644L82.4387 39.6602H81.5041L81.5095 39.6279C81.6599 38.7202 82.5407 38.1079 83.7761 38.1079C85.1887 38.1079 85.9782 38.833 85.9782 40.0361V44H85.0437V43.146H84.9577C84.5925 43.7637 83.9856 44.1021 83.2068 44.1021ZM82.2292 42.3618C82.2292 42.9473 82.7287 43.291 83.4001 43.291C84.3508 43.291 85.0437 42.668 85.0437 41.8408V41.3145L83.4968 41.4111C82.6159 41.4648 82.2292 41.7764 82.2292 42.3511V42.3618ZM91.9267 44V38.9834H90.9653V38.21H91.9267V37.5654C91.9267 36.4106 92.5068 35.8574 93.6079 35.8574C93.8335 35.8574 94.0376 35.8735 94.2309 35.9111V36.6577C94.1181 36.6362 93.9624 36.6309 93.7959 36.6309C93.1298 36.6309 92.8613 36.9585 92.8613 37.5923V38.21H94.1772V38.9834H92.8613V44H91.9267ZM98.0377 44.1021C96.3887 44.1021 95.3682 42.9634 95.3682 41.1104V41.0996C95.3682 39.2412 96.3887 38.1079 98.0377 38.1079C99.6866 38.1079 100.707 39.2412 100.707 41.0996V41.1104C100.707 42.9634 99.6866 44.1021 98.0377 44.1021ZM98.0377 43.2749C99.1334 43.2749 99.7511 42.4746 99.7511 41.1104V41.0996C99.7511 39.73 99.1334 38.9351 98.0377 38.9351C96.942 38.9351 96.3243 39.73 96.3243 41.0996V41.1104C96.3243 42.4746 96.942 43.2749 98.0377 43.2749ZM104.906 44.1021C103.284 44.1021 102.247 42.9258 102.247 41.0889V41.0781C102.247 39.2788 103.279 38.1079 104.901 38.1079C106.308 38.1079 107.151 38.9189 107.323 39.9502L107.328 39.9824H106.399L106.394 39.9663C106.249 39.397 105.733 38.9351 104.901 38.9351C103.859 38.9351 103.203 39.7729 103.203 41.0781V41.0889C103.203 42.4209 103.869 43.2749 104.901 43.2749C105.679 43.2749 106.174 42.9312 106.388 42.2866L106.399 42.2544L107.323 42.249L107.312 42.3081C107.076 43.3555 106.297 44.1021 104.906 44.1021ZM111.012 44.1021C109.696 44.1021 109.019 43.3286 109.019 41.959V38.21H109.953V41.7334C109.953 42.7754 110.329 43.2749 111.253 43.2749C112.274 43.2749 112.816 42.6519 112.816 41.6367V38.21H113.751V44H112.816V43.1353H112.73C112.446 43.7529 111.86 44.1021 111.012 44.1021ZM117.864 44.1021C116.575 44.1021 115.688 43.479 115.581 42.5229H116.537C116.693 43.0063 117.155 43.3232 117.896 43.3232C118.675 43.3232 119.228 42.9526 119.228 42.4263V42.4155C119.228 42.0234 118.933 41.7495 118.218 41.5776L117.321 41.3628C116.236 41.105 115.747 40.6323 115.747 39.7998V39.7944C115.747 38.833 116.671 38.1079 117.901 38.1079C119.115 38.1079 119.958 38.7148 120.087 39.6602H119.169C119.045 39.2036 118.594 38.8867 117.896 38.8867C117.208 38.8867 116.704 39.2412 116.704 39.7515V39.7622C116.704 40.1543 116.994 40.4014 117.676 40.5679L118.567 40.7827C119.658 41.0459 120.184 41.5186 120.184 42.3457V42.3564C120.184 43.3877 119.18 44.1021 117.864 44.1021ZM127.475 44.1021C126.186 44.1021 125.3 43.479 125.193 42.5229H126.149C126.304 43.0063 126.766 43.3232 127.507 43.3232C128.286 43.3232 128.84 42.9526 128.84 42.4263V42.4155C128.84 42.0234 128.544 41.7495 127.83 41.5776L126.933 41.3628C125.848 41.105 125.359 40.6323 125.359 39.7998V39.7944C125.359 38.833 126.283 38.1079 127.513 38.1079C128.727 38.1079 129.57 38.7148 129.699 39.6602H128.78C128.657 39.2036 128.206 38.8867 127.507 38.8867C126.82 38.8867 126.315 39.2412 126.315 39.7515V39.7622C126.315 40.1543 126.605 40.4014 127.287 40.5679L128.179 40.7827C129.269 41.0459 129.796 41.5186 129.796 42.3457V42.3564C129.796 43.3877 128.791 44.1021 127.475 44.1021ZM133.989 44.1021C132.335 44.1021 131.336 42.9419 131.336 41.1265V41.1211C131.336 39.3325 132.356 38.1079 133.93 38.1079C135.504 38.1079 136.46 39.2788 136.46 41.0083V41.3735H132.292C132.319 42.5713 132.979 43.2695 134.011 43.2695C134.795 43.2695 135.278 42.8989 135.434 42.5498L135.455 42.5015H136.39L136.379 42.5444C136.18 43.3286 135.353 44.1021 133.989 44.1021ZM133.925 38.9404C133.065 38.9404 132.41 39.5259 132.308 40.627H135.509C135.412 39.4829 134.779 38.9404 133.925 38.9404ZM140.277 44.1021C138.988 44.1021 138.102 43.479 137.995 42.5229H138.951C139.106 43.0063 139.568 43.3232 140.309 43.3232C141.088 43.3232 141.642 42.9526 141.642 42.4263V42.4155C141.642 42.0234 141.346 41.7495 140.632 41.5776L139.735 41.3628C138.65 41.105 138.161 40.6323 138.161 39.7998V39.7944C138.161 38.833 139.085 38.1079 140.315 38.1079C141.529 38.1079 142.372 38.7148 142.501 39.6602H141.582C141.459 39.2036 141.008 38.8867 140.309 38.8867C139.622 38.8867 139.117 39.2412 139.117 39.7515V39.7622C139.117 40.1543 139.407 40.4014 140.089 40.5679L140.981 40.7827C142.071 41.0459 142.598 41.5186 142.598 42.3457V42.3564C142.598 43.3877 141.593 44.1021 140.277 44.1021ZM146.308 44.1021C145.019 44.1021 144.132 43.479 144.025 42.5229H144.981C145.137 43.0063 145.599 43.3232 146.34 43.3232C147.119 43.3232 147.672 42.9526 147.672 42.4263V42.4155C147.672 42.0234 147.377 41.7495 146.662 41.5776L145.765 41.3628C144.68 41.105 144.191 40.6323 144.191 39.7998V39.7944C144.191 38.833 145.115 38.1079 146.345 38.1079C147.559 38.1079 148.402 38.7148 148.531 39.6602H147.613C147.489 39.2036 147.038 38.8867 146.34 38.8867C145.652 38.8867 145.147 39.2412 145.147 39.7515V39.7622C145.147 40.1543 145.438 40.4014 146.12 40.5679L147.011 40.7827C148.102 41.0459 148.628 41.5186 148.628 42.3457V42.3564C148.628 43.3877 147.624 44.1021 146.308 44.1021ZM150.952 37.0928C150.598 37.0928 150.308 36.8027 150.308 36.4482C150.308 36.0938 150.598 35.8037 150.952 35.8037C151.307 35.8037 151.597 36.0938 151.597 36.4482C151.597 36.8027 151.307 37.0928 150.952 37.0928ZM150.48 44V38.21H151.414V44H150.48ZM155.935 44.1021C154.286 44.1021 153.266 42.9634 153.266 41.1104V41.0996C153.266 39.2412 154.286 38.1079 155.935 38.1079C157.584 38.1079 158.605 39.2412 158.605 41.0996V41.1104C158.605 42.9634 157.584 44.1021 155.935 44.1021ZM155.935 43.2749C157.031 43.2749 157.649 42.4746 157.649 41.1104V41.0996C157.649 39.73 157.031 38.9351 155.935 38.9351C154.84 38.9351 154.222 39.73 154.222 41.0996V41.1104C154.222 42.4746 154.84 43.2749 155.935 43.2749ZM160.435 44V38.21H161.37V39.0801H161.455C161.746 38.4678 162.288 38.1079 163.142 38.1079C164.442 38.1079 165.167 38.876 165.167 40.251V44H164.232V40.4766C164.232 39.4346 163.803 38.9351 162.879 38.9351C161.955 38.9351 161.37 39.5581 161.37 40.5732V44H160.435ZM172.77 44.043C171.577 44.043 171.078 43.6025 171.078 42.4961V38.9834H170.165V38.21H171.078V36.7114H172.045V38.21H173.312V38.9834H172.045V42.2598C172.045 42.9419 172.281 43.2158 172.882 43.2158C173.049 43.2158 173.14 43.2104 173.312 43.1943V43.9893C173.13 44.0215 172.952 44.043 172.77 44.043ZM177.382 44.1021C175.733 44.1021 174.713 42.9634 174.713 41.1104V41.0996C174.713 39.2412 175.733 38.1079 177.382 38.1079C179.031 38.1079 180.052 39.2412 180.052 41.0996V41.1104C180.052 42.9634 179.031 44.1021 177.382 44.1021ZM177.382 43.2749C178.478 43.2749 179.095 42.4746 179.095 41.1104V41.0996C179.095 39.73 178.478 38.9351 177.382 38.9351C176.286 38.9351 175.669 39.73 175.669 41.0996V41.1104C175.669 42.4746 176.286 43.2749 177.382 43.2749ZM187.724 44.1021C186.102 44.1021 185.065 42.9258 185.065 41.0889V41.0781C185.065 39.2788 186.097 38.1079 187.719 38.1079C189.126 38.1079 189.969 38.9189 190.141 39.9502L190.146 39.9824H189.217L189.212 39.9663C189.067 39.397 188.551 38.9351 187.719 38.9351C186.677 38.9351 186.021 39.7729 186.021 41.0781V41.0889C186.021 42.4209 186.688 43.2749 187.719 43.2749C188.498 43.2749 188.992 42.9312 189.207 42.2866L189.217 42.2544L190.141 42.249L190.13 42.3081C189.894 43.3555 189.115 44.1021 187.724 44.1021ZM194.27 44.1021C192.621 44.1021 191.601 42.9634 191.601 41.1104V41.0996C191.601 39.2412 192.621 38.1079 194.27 38.1079C195.919 38.1079 196.94 39.2412 196.94 41.0996V41.1104C196.94 42.9634 195.919 44.1021 194.27 44.1021ZM194.27 43.2749C195.366 43.2749 195.984 42.4746 195.984 41.1104V41.0996C195.984 39.73 195.366 38.9351 194.27 38.9351C193.174 38.9351 192.557 39.73 192.557 41.0996V41.1104C192.557 42.4746 193.174 43.2749 194.27 43.2749ZM198.77 44V38.21H199.704V39.0801H199.79C200.08 38.4678 200.623 38.1079 201.477 38.1079C202.777 38.1079 203.502 38.876 203.502 40.251V44H202.567V40.4766C202.567 39.4346 202.137 38.9351 201.214 38.9351C200.29 38.9351 199.704 39.5581 199.704 40.5732V44H198.77ZM207.631 44.043C206.438 44.043 205.939 43.6025 205.939 42.4961V38.9834H205.026V38.21H205.939V36.7114H206.906V38.21H208.173V38.9834H206.906V42.2598C206.906 42.9419 207.142 43.2158 207.744 43.2158C207.91 43.2158 208.001 43.2104 208.173 43.1943V43.9893C207.991 44.0215 207.813 44.043 207.631 44.043ZM210.444 37.0928C210.089 37.0928 209.799 36.8027 209.799 36.4482C209.799 36.0938 210.089 35.8037 210.444 35.8037C210.798 35.8037 211.088 36.0938 211.088 36.4482C211.088 36.8027 210.798 37.0928 210.444 37.0928ZM209.971 44V38.21H210.906V44H209.971ZM213.047 44V38.21H213.982V39.0801H214.068C214.358 38.4678 214.9 38.1079 215.754 38.1079C217.054 38.1079 217.779 38.876 217.779 40.251V44H216.845V40.4766C216.845 39.4346 216.415 38.9351 215.491 38.9351C214.567 38.9351 213.982 39.5581 213.982 40.5732V44H213.047ZM221.79 44.1021C220.474 44.1021 219.798 43.3286 219.798 41.959V38.21H220.732V41.7334C220.732 42.7754 221.108 43.2749 222.032 43.2749C223.052 43.2749 223.595 42.6519 223.595 41.6367V38.21H224.53V44H223.595V43.1353H223.509C223.224 43.7529 222.639 44.1021 221.79 44.1021ZM229.018 44.1021C227.364 44.1021 226.365 42.9419 226.365 41.1265V41.1211C226.365 39.3325 227.386 38.1079 228.959 38.1079C230.533 38.1079 231.489 39.2788 231.489 41.0083V41.3735H227.321C227.348 42.5713 228.009 43.2695 229.04 43.2695C229.824 43.2695 230.307 42.8989 230.463 42.5498L230.485 42.5015H231.419L231.409 42.5444C231.21 43.3286 230.383 44.1021 229.018 44.1021ZM228.954 38.9404C228.095 38.9404 227.439 39.5259 227.337 40.627H230.538C230.442 39.4829 229.808 38.9404 228.954 38.9404ZM237.287 46.0303C237.164 46.0303 237.003 46.0195 236.874 45.998V45.23C236.986 45.2515 237.131 45.2568 237.26 45.2568C237.792 45.2568 238.114 45.0151 238.324 44.3491L238.431 44.0054L236.288 38.21H237.287L238.877 42.9741H238.963L240.547 38.21H241.53L239.269 44.3545C238.791 45.6543 238.313 46.0303 237.287 46.0303ZM245.31 44.1021C243.661 44.1021 242.641 42.9634 242.641 41.1104V41.0996C242.641 39.2412 243.661 38.1079 245.31 38.1079C246.959 38.1079 247.98 39.2412 247.98 41.0996V41.1104C247.98 42.9634 246.959 44.1021 245.31 44.1021ZM245.31 43.2749C246.406 43.2749 247.024 42.4746 247.024 41.1104V41.0996C247.024 39.73 246.406 38.9351 245.31 38.9351C244.215 38.9351 243.597 39.73 243.597 41.0996V41.1104C243.597 42.4746 244.215 43.2749 245.31 43.2749ZM251.749 44.1021C250.433 44.1021 249.756 43.3286 249.756 41.959V38.21H250.691V41.7334C250.691 42.7754 251.067 43.2749 251.991 43.2749C253.011 43.2749 253.554 42.6519 253.554 41.6367V38.21H254.488V44H253.554V43.1353H253.468C253.183 43.7529 252.597 44.1021 251.749 44.1021ZM256.614 44V38.21H257.548V39.0693H257.634C257.854 38.4624 258.397 38.1079 259.181 38.1079C259.358 38.1079 259.557 38.1294 259.648 38.1455V39.0532C259.455 39.021 259.278 38.9995 259.074 38.9995C258.182 38.9995 257.548 39.5635 257.548 40.4121V44H256.614ZM266.644 44.1021C265.355 44.1021 264.469 43.479 264.362 42.5229H265.318C265.473 43.0063 265.935 43.3232 266.676 43.3232C267.455 43.3232 268.008 42.9526 268.008 42.4263V42.4155C268.008 42.0234 267.713 41.7495 266.999 41.5776L266.102 41.3628C265.017 41.105 264.528 40.6323 264.528 39.7998V39.7944C264.528 38.833 265.452 38.1079 266.682 38.1079C267.896 38.1079 268.739 38.7148 268.868 39.6602H267.949C267.826 39.2036 267.375 38.8867 266.676 38.8867C265.989 38.8867 265.484 39.2412 265.484 39.7515V39.7622C265.484 40.1543 265.774 40.4014 266.456 40.5679L267.348 40.7827C268.438 41.0459 268.965 41.5186 268.965 42.3457V42.3564C268.965 43.3877 267.96 44.1021 266.644 44.1021ZM272.798 44.043C271.606 44.043 271.106 43.6025 271.106 42.4961V38.9834H270.193V38.21H271.106V36.7114H272.073V38.21H273.341V38.9834H272.073V42.2598C272.073 42.9419 272.309 43.2158 272.911 43.2158C273.077 43.2158 273.169 43.2104 273.341 43.1943V43.9893C273.158 44.0215 272.981 44.043 272.798 44.043ZM275.117 44V38.21H276.052V39.0693H276.138C276.358 38.4624 276.9 38.1079 277.684 38.1079C277.862 38.1079 278.06 38.1294 278.152 38.1455V39.0532C277.958 39.021 277.781 38.9995 277.577 38.9995C276.685 38.9995 276.052 39.5635 276.052 40.4121V44H275.117ZM281.889 44.1021C280.234 44.1021 279.235 42.9419 279.235 41.1265V41.1211C279.235 39.3325 280.256 38.1079 281.83 38.1079C283.403 38.1079 284.359 39.2788 284.359 41.0083V41.3735H280.191C280.218 42.5713 280.879 43.2695 281.91 43.2695C282.694 43.2695 283.178 42.8989 283.334 42.5498L283.355 42.5015H284.29L284.279 42.5444C284.08 43.3286 283.253 44.1021 281.889 44.1021ZM281.824 38.9404C280.965 38.9404 280.31 39.5259 280.208 40.627H283.409C283.312 39.4829 282.678 38.9404 281.824 38.9404ZM287.779 44.1021C286.678 44.1021 285.846 43.436 285.846 42.3833V42.3726C285.846 41.3413 286.609 40.7451 287.957 40.6646L289.616 40.5625V40.0361C289.616 39.3218 289.181 38.9351 288.317 38.9351C287.624 38.9351 287.167 39.1929 287.017 39.644L287.011 39.6602H286.077L286.082 39.6279C286.233 38.7202 287.113 38.1079 288.349 38.1079C289.761 38.1079 290.551 38.833 290.551 40.0361V44H289.616V43.146H289.53C289.165 43.7637 288.558 44.1021 287.779 44.1021ZM286.802 42.3618C286.802 42.9473 287.301 43.291 287.973 43.291C288.923 43.291 289.616 42.668 289.616 41.8408V41.3145L288.069 41.4111C287.189 41.4648 286.802 41.7764 286.802 42.3511V42.3618ZM292.693 44V35.9111H293.627V40.7397H293.713L296.216 38.21H297.349L294.825 40.6431L297.516 44H296.34L294.17 41.2769L293.627 41.8032V44H292.693ZM299.384 41.4219L299.292 36.2441H300.367L300.275 41.4219H299.384ZM299.835 44.0967C299.4 44.0967 299.088 43.7852 299.088 43.3501C299.088 42.9097 299.4 42.5981 299.835 42.5981C300.27 42.5981 300.576 42.9097 300.576 43.3501C300.576 43.7852 300.27 44.0967 299.835 44.0967Z" fill="#718096"/>
<path d="M53.582 24.1094C53.0195 24.1094 52.5195 24.013 52.082 23.8203C51.6471 23.6276 51.3034 23.3594 51.0508 23.0156C50.7982 22.6719 50.6641 22.2747 50.6484 21.8242H52.1172C52.1302 22.0404 52.2018 22.2292 52.332 22.3906C52.4622 22.5495 52.6354 22.6732 52.8516 22.7617C53.0677 22.8503 53.3099 22.8945 53.5781 22.8945C53.8646 22.8945 54.1185 22.8451 54.3398 22.7461C54.5612 22.6445 54.7344 22.5039 54.8594 22.3242C54.9844 22.1445 55.0456 21.9375 55.043 21.7031C55.0456 21.4609 54.9831 21.2474 54.8555 21.0625C54.7279 20.8776 54.543 20.7331 54.3008 20.6289C54.0612 20.5247 53.7721 20.4727 53.4336 20.4727H52.7266V19.3555H53.4336C53.7122 19.3555 53.9557 19.3073 54.1641 19.2109C54.375 19.1146 54.5404 18.9792 54.6602 18.8047C54.7799 18.6276 54.8385 18.4232 54.8359 18.1914C54.8385 17.9648 54.7878 17.7682 54.6836 17.6016C54.582 17.4323 54.4375 17.3008 54.25 17.207C54.0651 17.1133 53.8477 17.0664 53.5977 17.0664C53.3529 17.0664 53.1263 17.1107 52.918 17.1992C52.7096 17.2878 52.5417 17.4141 52.4141 17.5781C52.2865 17.7396 52.2188 17.9323 52.2109 18.1562H50.8164C50.8268 17.7083 50.9557 17.3151 51.2031 16.9766C51.4531 16.6354 51.7865 16.3698 52.2031 16.1797C52.6198 15.987 53.0872 15.8906 53.6055 15.8906C54.1393 15.8906 54.6029 15.9909 54.9961 16.1914C55.3919 16.3893 55.6979 16.6562 55.9141 16.9922C56.1302 17.3281 56.2383 17.6992 56.2383 18.1055C56.2409 18.556 56.1081 18.9336 55.8398 19.2383C55.5742 19.543 55.2253 19.7422 54.793 19.8359V19.8984C55.3555 19.9766 55.7865 20.1849 56.0859 20.5234C56.388 20.8594 56.5378 21.2773 56.5352 21.7773C56.5352 22.2253 56.4076 22.6263 56.1523 22.9805C55.8997 23.332 55.5508 23.6081 55.1055 23.8086C54.6628 24.0091 54.1549 24.1094 53.582 24.1094ZM65.0303 18.1992C64.9938 17.8581 64.8402 17.5924 64.5693 17.4023C64.3011 17.2122 63.9521 17.1172 63.5225 17.1172C63.2204 17.1172 62.9613 17.1628 62.7451 17.2539C62.529 17.3451 62.3636 17.4687 62.249 17.625C62.1344 17.7812 62.0758 17.9596 62.0732 18.1602C62.0732 18.3268 62.111 18.4714 62.1865 18.5937C62.2646 18.7161 62.3701 18.8203 62.5029 18.9062C62.6357 18.9896 62.7829 19.0599 62.9443 19.1172C63.1058 19.1745 63.2686 19.2227 63.4326 19.2617L64.1826 19.4492C64.4847 19.5195 64.7751 19.6146 65.0537 19.7344C65.335 19.8542 65.5863 20.0052 65.8076 20.1875C66.0316 20.3698 66.2087 20.5898 66.3389 20.8477C66.4691 21.1055 66.5342 21.4076 66.5342 21.7539C66.5342 22.2227 66.4144 22.6354 66.1748 22.9922C65.9352 23.3464 65.5889 23.6237 65.1357 23.8242C64.6852 24.0221 64.1396 24.1211 63.499 24.1211C62.8766 24.1211 62.3363 24.0247 61.8779 23.832C61.4222 23.6393 61.0654 23.3581 60.8076 22.9883C60.5524 22.6185 60.4144 22.168 60.3936 21.6367H61.8193C61.8402 21.9154 61.9261 22.1471 62.0771 22.332C62.2282 22.5169 62.4248 22.6549 62.667 22.7461C62.9118 22.8372 63.1852 22.8828 63.4873 22.8828C63.8024 22.8828 64.0785 22.8359 64.3154 22.7422C64.555 22.6458 64.7425 22.513 64.8779 22.3437C65.0133 22.1719 65.0824 21.9714 65.085 21.7422C65.0824 21.5339 65.0212 21.362 64.9014 21.2266C64.7816 21.0885 64.6136 20.974 64.3975 20.8828C64.1839 20.7891 63.9339 20.7057 63.6475 20.6328L62.7373 20.3984C62.0785 20.2292 61.5576 19.9727 61.1748 19.6289C60.7946 19.2826 60.6045 18.8229 60.6045 18.25C60.6045 17.7786 60.7321 17.3659 60.9873 17.0117C61.2451 16.6576 61.5954 16.3828 62.0381 16.1875C62.4808 15.9896 62.9821 15.8906 63.542 15.8906C64.1097 15.8906 64.6071 15.9896 65.0342 16.1875C65.4639 16.3828 65.8011 16.6549 66.0459 17.0039C66.2907 17.3503 66.417 17.7487 66.4248 18.1992H65.0303ZM70.7598 18V19.0937H67.3105V18H70.7598ZM68.1621 16.5625H69.5762V22.1953C69.5762 22.3854 69.6048 22.5313 69.6621 22.6328C69.722 22.7318 69.8001 22.7995 69.8965 22.8359C69.9928 22.8724 70.0996 22.8906 70.2168 22.8906C70.3053 22.8906 70.3861 22.8841 70.459 22.8711C70.5345 22.8581 70.5918 22.8464 70.6309 22.8359L70.8691 23.9414C70.7936 23.9674 70.6855 23.9961 70.5449 24.0273C70.4069 24.0586 70.2376 24.0768 70.0371 24.082C69.6829 24.0924 69.3639 24.0391 69.0801 23.9219C68.7962 23.8021 68.571 23.6172 68.4043 23.3672C68.2402 23.1172 68.1595 22.8047 68.1621 22.4297V16.5625ZM71.9424 24V18H73.3135V19H73.376C73.4854 18.6536 73.6729 18.3867 73.9385 18.1992C74.2067 18.0091 74.5127 17.9141 74.8564 17.9141C74.9346 17.9141 75.0218 17.918 75.1182 17.9258C75.2171 17.931 75.2992 17.9401 75.3643 17.9531V19.2539C75.3044 19.2331 75.2093 19.2148 75.0791 19.1992C74.9515 19.181 74.8278 19.1719 74.708 19.1719C74.4502 19.1719 74.2184 19.2279 74.0127 19.3398C73.8096 19.4492 73.6494 19.6016 73.5322 19.7969C73.415 19.9922 73.3564 20.2174 73.3564 20.4727V24H71.9424ZM78.7129 24.1172C78.1113 24.1172 77.5918 23.9922 77.1543 23.7422C76.7194 23.4896 76.3848 23.1328 76.1504 22.6719C75.916 22.2083 75.7988 21.6628 75.7988 21.0352C75.7988 20.418 75.916 19.8763 76.1504 19.4102C76.3874 18.9414 76.7181 18.5768 77.1426 18.3164C77.5671 18.0534 78.0658 17.9219 78.6387 17.9219C79.0085 17.9219 79.3574 17.9818 79.6855 18.1016C80.0163 18.2187 80.3079 18.401 80.5605 18.6484C80.8158 18.8958 81.0163 19.2109 81.1621 19.5937C81.3079 19.974 81.3809 20.4271 81.3809 20.9531V21.3867H76.4629V20.4336H80.0254C80.0228 20.1628 79.9642 19.9219 79.8496 19.7109C79.735 19.4974 79.5749 19.3294 79.3691 19.207C79.166 19.0846 78.929 19.0234 78.6582 19.0234C78.3691 19.0234 78.1152 19.0937 77.8965 19.2344C77.6777 19.3724 77.5072 19.5547 77.3848 19.7812C77.265 20.0052 77.2038 20.2513 77.2012 20.5195V21.3516C77.2012 21.7005 77.265 22 77.3926 22.25C77.5202 22.4974 77.6986 22.6875 77.9277 22.8203C78.1569 22.9505 78.4251 23.0156 78.7324 23.0156C78.9382 23.0156 79.1243 22.987 79.291 22.9297C79.4577 22.8698 79.6022 22.7826 79.7246 22.668C79.847 22.5534 79.9395 22.4115 80.002 22.2422L81.3223 22.3906C81.2389 22.7396 81.0801 23.0443 80.8457 23.3047C80.6139 23.5625 80.3171 23.763 79.9551 23.9062C79.5931 24.0469 79.179 24.1172 78.7129 24.1172ZM84.3037 24.1211C83.9235 24.1211 83.5811 24.0534 83.2764 23.918C82.9743 23.7799 82.7347 23.5768 82.5576 23.3086C82.3831 23.0404 82.2959 22.7096 82.2959 22.3164C82.2959 21.9779 82.3584 21.6979 82.4834 21.4766C82.6084 21.2552 82.779 21.0781 82.9951 20.9453C83.2113 20.8125 83.4548 20.7122 83.7256 20.6445C83.999 20.5742 84.2816 20.5234 84.5732 20.4922C84.9248 20.4557 85.21 20.4232 85.4287 20.3945C85.6475 20.3633 85.8063 20.3164 85.9053 20.2539C86.0068 20.1888 86.0576 20.0885 86.0576 19.9531V19.9297C86.0576 19.6354 85.9704 19.4076 85.7959 19.2461C85.6214 19.0846 85.3701 19.0039 85.042 19.0039C84.6956 19.0039 84.4209 19.0794 84.2178 19.2305C84.0173 19.3815 83.8818 19.5599 83.8115 19.7656L82.4912 19.5781C82.5954 19.2135 82.7673 18.9089 83.0068 18.6641C83.2464 18.4167 83.5394 18.2318 83.8857 18.1094C84.2321 17.9844 84.6149 17.9219 85.0342 17.9219C85.3232 17.9219 85.611 17.9557 85.8975 18.0234C86.1839 18.0911 86.4456 18.2031 86.6826 18.3594C86.9196 18.513 87.1097 18.7227 87.2529 18.9883C87.3988 19.2539 87.4717 19.5859 87.4717 19.9844V24H86.1123V23.1758H86.0654C85.9795 23.3424 85.8584 23.4987 85.7021 23.6445C85.5485 23.7878 85.3545 23.9036 85.1201 23.9922C84.8883 24.0781 84.6162 24.1211 84.3037 24.1211ZM84.6709 23.082C84.9548 23.082 85.2008 23.026 85.4092 22.9141C85.6175 22.7995 85.7777 22.6484 85.8896 22.4609C86.0042 22.2734 86.0615 22.069 86.0615 21.8477V21.1406C86.0173 21.1771 85.9417 21.2109 85.835 21.2422C85.7308 21.2734 85.6136 21.3008 85.4834 21.3242C85.3532 21.3477 85.2243 21.3685 85.0967 21.3867C84.9691 21.4049 84.8584 21.4206 84.7646 21.4336C84.5537 21.4622 84.3649 21.5091 84.1982 21.5742C84.0316 21.6393 83.9001 21.7305 83.8037 21.8477C83.7074 21.9622 83.6592 22.1107 83.6592 22.293C83.6592 22.5534 83.7542 22.75 83.9443 22.8828C84.1344 23.0156 84.3766 23.082 84.6709 23.082ZM90.1826 22.1172L90.1787 20.4102H90.4053L92.5615 18H94.2139L91.5615 20.9531H91.2686L90.1826 22.1172ZM88.8936 24V16H90.3076V24H88.8936ZM92.6592 24L90.7061 21.2695L91.6592 20.2734L94.3506 24H92.6592Z" fill="#CBD5E0"/>
<defs>
<filter id="filter0_d_8030_301" x="5.7" y="5.8377" width="42.6" height="48.6" filterUnits="userSpaceOnUse" color-interpolation-filters="sRGB">
<feFlood flood-opacity="0" result="BackgroundImageFix"/>
<feColorMatrix in="SourceAlpha" type="matrix" values="0 0 0 0 0 0 0 0 0 0 0 0 0 0 0 0 0 0 127 0" result="hardAlpha"/>
<feOffset/>
<feGaussianBlur stdDeviation="5.15"/>
<feComposite in2="hardAlpha" operator="out"/>
<feColorMatrix type="matrix" values="0 0 0 0 0.180392 0 0 0 0 0.556863 0 0 0 0 0.964706 0 0 0 0.6 0"/>
<feBlend mode="normal" in2="BackgroundImageFix" result="effect1_dropShadow_8030_301"/>
<feBlend mode="normal" in="SourceGraphic" in2="effect1_dropShadow_8030_301" result="shape"/>
</filter>
<linearGradient id="paint0_linear_8030_301" x1="65.5" y1="-107.5" x2="116.5" y2="117" gradientUnits="userSpaceOnUse">
<stop offset="0.078185" stop-color="#1A202C"/>
<stop offset="0.896104" stop-color="#07080A"/>
</linearGradient>
<linearGradient id="paint1_linear_8030_301" x1="60.9798" y1="65.2254" x2="62.748" y2="77.2695" gradientUnits="userSpaceOnUse">
<stop stop-color="#5783B2"/>
<stop offset="1" stop-color="#175395"/>
</linearGradient>
<linearGradient id="paint2_linear_8030_301" x1="98.9798" y1="65.2254" x2="100.748" y2="77.2695" gradientUnits="userSpaceOnUse">
<stop stop-color="#5783B2"/>
<stop offset="1" stop-color="#175395"/>
</linearGradient>
<linearGradient id="paint3_linear_8030_301" x1="136.98" y1="65.2254" x2="138.748" y2="77.2695" gradientUnits="userSpaceOnUse">
<stop stop-color="#5783B2"/>
<stop offset="1" stop-color="#175395"/>
</linearGradient>
</defs>
</svg>
