<svg width="316" height="105" viewBox="0 0 316 105" fill="none" xmlns="http://www.w3.org/2000/svg">
<g clip-path="url(#clip0_7980_1100)">
<rect x="45" width="224" height="31" rx="7.2" fill="url(#paint0_linear_7980_1100)" fill-opacity="0.1"/>
<path d="M56.9545 19V11.3904H59.9182C61.4105 11.3904 62.4441 12.3924 62.4441 13.8848V13.8953C62.4441 15.3824 61.4105 16.4002 59.9182 16.4002H58.1357V19H56.9545ZM59.6229 12.3871H58.1357V15.4088H59.6229C60.6459 15.4088 61.2418 14.8551 61.2418 13.9006V13.89C61.2418 12.9408 60.6459 12.3871 59.6229 12.3871ZM63.8774 19V13.273H65.0217V14.1379H65.1061C65.3117 13.5314 65.8444 13.1729 66.609 13.1729C66.7936 13.1729 66.994 13.1992 67.11 13.2256V14.2803C66.9043 14.2381 66.7092 14.2117 66.493 14.2117C65.6176 14.2117 65.0217 14.7496 65.0217 15.5775V19H63.8774ZM70.5208 19.1107C68.8385 19.1107 67.8102 17.9875 67.8102 16.1418V16.1313C67.8102 14.2908 68.8438 13.1623 70.5208 13.1623C72.1924 13.1623 73.226 14.2855 73.226 16.1313V16.1418C73.226 17.9875 72.1977 19.1107 70.5208 19.1107ZM70.5208 18.1563C71.5016 18.1563 72.0606 17.4074 72.0606 16.1418V16.1313C72.0606 14.8604 71.5016 14.1168 70.5208 14.1168C69.5346 14.1168 68.9809 14.8604 68.9809 16.1313V16.1418C68.9809 17.4127 69.5346 18.1563 70.5208 18.1563ZM76.7212 19.0949C75.2815 19.0949 74.3481 17.94 74.3481 16.1418V16.1313C74.3481 14.3172 75.2657 13.1729 76.7212 13.1729C77.5069 13.1729 78.1766 13.5631 78.4825 14.1801H78.5721V11.0266H79.7112V19H78.5721V18.0982H78.4825C78.1503 18.7258 77.5227 19.0949 76.7212 19.0949ZM77.0481 18.1193C78.0026 18.1193 78.588 17.3652 78.588 16.1418V16.1313C78.588 14.9078 77.9973 14.1537 77.0481 14.1537C76.0884 14.1537 75.5135 14.9025 75.5135 16.1313V16.1418C75.5135 17.3705 76.0884 18.1193 77.0481 18.1193ZM83.3645 19.1107C82.0726 19.1107 81.4028 18.3355 81.4028 16.9803V13.273H82.5472V16.7113C82.5472 17.6605 82.8952 18.1299 83.7337 18.1299C84.6513 18.1299 85.1417 17.5551 85.1417 16.6322V13.273H86.2808V19H85.1417V18.1352H85.052C84.7778 18.7521 84.1978 19.1107 83.3645 19.1107ZM90.3823 19.1107C88.7107 19.1107 87.6876 17.9717 87.6876 16.1207V16.1102C87.6876 14.2961 88.7054 13.1623 90.3771 13.1623C91.8167 13.1623 92.6763 13.9744 92.8345 15.0871V15.1135L91.7376 15.1188L91.7323 15.1029C91.6058 14.5387 91.1417 14.1168 90.3823 14.1168C89.4279 14.1168 88.853 14.8762 88.853 16.1102V16.1207C88.853 17.3863 89.4384 18.1563 90.3823 18.1563C91.0995 18.1563 91.5425 17.8293 91.7271 17.2123L91.7376 17.1859H92.8345L92.8239 17.2334C92.6183 18.3461 91.8009 19.1107 90.3823 19.1107ZM96.4193 19.0369C95.1589 19.0369 94.6421 18.5939 94.6421 17.4918V14.1748H93.7456V13.273H94.6421V11.8281H95.8076V13.273H97.0363V14.1748H95.8076V17.2176C95.8076 17.8346 96.0396 18.0877 96.6039 18.0877C96.7779 18.0877 96.8781 18.0824 97.0363 18.0666V18.9789C96.8517 19.0105 96.6408 19.0369 96.4193 19.0369ZM101.537 19V11.3904H104.538C106.099 11.3904 107.069 12.2975 107.069 13.7107V13.7213C107.069 14.7443 106.521 15.5775 105.593 15.8887L107.301 19H105.936L104.385 16.0732H102.719V19H101.537ZM102.719 15.1135H104.422C105.329 15.1135 105.856 14.6178 105.856 13.7529V13.7424C105.856 12.8986 105.297 12.3818 104.385 12.3818H102.719V15.1135ZM110.918 19.1107C109.236 19.1107 108.207 17.9875 108.207 16.1418V16.1313C108.207 14.2908 109.241 13.1623 110.918 13.1623C112.589 13.1623 113.623 14.2855 113.623 16.1313V16.1418C113.623 17.9875 112.595 19.1107 110.918 19.1107ZM110.918 18.1563C111.899 18.1563 112.458 17.4074 112.458 16.1418V16.1313C112.458 14.8604 111.899 14.1168 110.918 14.1168C109.932 14.1168 109.378 14.8604 109.378 16.1313V16.1418C109.378 17.4127 109.932 18.1563 110.918 18.1563ZM116.601 19.0949C115.51 19.0949 114.703 18.4305 114.703 17.3916V17.3811C114.703 16.358 115.473 15.7621 116.839 15.6777L118.389 15.5881V15.0818C118.389 14.4543 117.994 14.1063 117.218 14.1063C116.586 14.1063 116.169 14.3383 116.032 14.7443L116.027 14.7654H114.924L114.93 14.7285C115.067 13.7898 115.969 13.1623 117.271 13.1623C118.711 13.1623 119.523 13.8795 119.523 15.0818V19H118.389V18.1879H118.299C117.962 18.768 117.361 19.0949 116.601 19.0949ZM115.842 17.3441C115.842 17.8715 116.29 18.1826 116.907 18.1826C117.762 18.1826 118.389 17.6236 118.389 16.8854V16.3949L116.992 16.4846C116.201 16.532 115.842 16.8168 115.842 17.3336V17.3441ZM123.266 19.0949C121.826 19.0949 120.893 17.94 120.893 16.1418V16.1313C120.893 14.3172 121.81 13.1729 123.266 13.1729C124.052 13.1729 124.721 13.5631 125.027 14.1801H125.117V11.0266H126.256V19H125.117V18.0982H125.027C124.695 18.7258 124.067 19.0949 123.266 19.0949ZM123.593 18.1193C124.547 18.1193 125.133 17.3652 125.133 16.1418V16.1313C125.133 14.9078 124.542 14.1537 123.593 14.1537C122.633 14.1537 122.058 14.9025 122.058 16.1313V16.1418C122.058 17.3705 122.633 18.1193 123.593 18.1193ZM128 19V13.273H129.145V14.1537H129.229C129.482 13.5262 130.041 13.1623 130.79 13.1623C131.57 13.1623 132.124 13.5684 132.377 14.1854H132.467C132.757 13.5684 133.416 13.1623 134.212 13.1623C135.367 13.1623 136.042 13.8584 136.042 15.0502V19H134.903V15.3244C134.903 14.5334 134.545 14.1432 133.796 14.1432C133.068 14.1432 132.588 14.6863 132.588 15.3771V19H131.449V15.2084C131.449 14.5545 131.022 14.1432 130.347 14.1432C129.656 14.1432 129.145 14.7338 129.145 15.4826V19H128ZM139.253 19.0949C138.161 19.0949 137.354 18.4305 137.354 17.3916V17.3811C137.354 16.358 138.124 15.7621 139.49 15.6777L141.04 15.5881V15.0818C141.04 14.4543 140.645 14.1063 139.87 14.1063C139.237 14.1063 138.82 14.3383 138.683 14.7443L138.678 14.7654H137.576L137.581 14.7285C137.718 13.7898 138.62 13.1623 139.922 13.1623C141.362 13.1623 142.174 13.8795 142.174 15.0818V19H141.04V18.1879H140.951C140.613 18.768 140.012 19.0949 139.253 19.0949ZM138.493 17.3441C138.493 17.8715 138.942 18.1826 139.559 18.1826C140.413 18.1826 141.04 17.6236 141.04 16.8854V16.3949L139.643 16.4846C138.852 16.532 138.493 16.8168 138.493 17.3336V17.3441ZM143.829 20.909V13.273H144.973V14.1748H145.058C145.39 13.5473 146.017 13.1729 146.819 13.1729C148.264 13.1729 149.192 14.3277 149.192 16.1313V16.1418C149.192 17.9559 148.274 19.0949 146.819 19.0949C146.033 19.0949 145.363 18.71 145.058 18.093H144.973V20.909H143.829ZM146.497 18.1193C147.452 18.1193 148.027 17.3705 148.027 16.1418V16.1313C148.027 14.8973 147.452 14.1537 146.497 14.1537C145.543 14.1537 144.952 14.9078 144.952 16.1313V16.1418C144.952 17.3652 145.543 18.1193 146.497 18.1193ZM153.735 19V11.3904H156.699C158.191 11.3904 159.225 12.3924 159.225 13.8848V13.8953C159.225 15.3824 158.191 16.4002 156.699 16.4002H154.917V19H153.735ZM156.404 12.3871H154.917V15.4088H156.404C157.427 15.4088 158.023 14.8551 158.023 13.9006V13.89C158.023 12.9408 157.427 12.3871 156.404 12.3871ZM160.711 19V11.0266H161.855V19H160.711ZM165.171 19.0949C164.08 19.0949 163.273 18.4305 163.273 17.3916V17.3811C163.273 16.358 164.043 15.7621 165.408 15.6777L166.959 15.5881V15.0818C166.959 14.4543 166.563 14.1063 165.788 14.1063C165.155 14.1063 164.739 14.3383 164.602 14.7443L164.596 14.7654H163.494L163.499 14.7285C163.637 13.7898 164.538 13.1623 165.841 13.1623C167.281 13.1623 168.093 13.8795 168.093 15.0818V19H166.959V18.1879H166.869C166.532 18.768 165.931 19.0949 165.171 19.0949ZM164.412 17.3441C164.412 17.8715 164.86 18.1826 165.477 18.1826C166.331 18.1826 166.959 17.6236 166.959 16.8854V16.3949L165.561 16.4846C164.77 16.532 164.412 16.8168 164.412 17.3336V17.3441ZM169.747 19V13.273H170.892V14.1432H170.976C171.256 13.5314 171.804 13.1623 172.637 13.1623C173.919 13.1623 174.625 13.927 174.625 15.2928V19H173.486V15.5617C173.486 14.6125 173.091 14.1432 172.252 14.1432C171.414 14.1432 170.892 14.718 170.892 15.6408V19H169.747ZM176.264 19V13.273H177.408V14.1432H177.493C177.772 13.5314 178.321 13.1623 179.154 13.1623C180.435 13.1623 181.142 13.927 181.142 15.2928V19H180.003V15.5617C180.003 14.6125 179.608 14.1432 178.769 14.1432C177.931 14.1432 177.408 14.718 177.408 15.6408V19H176.264ZM183.377 12.25C182.981 12.25 182.66 11.9283 182.66 11.5381C182.66 11.1426 182.981 10.8209 183.377 10.8209C183.767 10.8209 184.094 11.1426 184.094 11.5381C184.094 11.9283 183.767 12.25 183.377 12.25ZM182.802 19V13.273H183.941V19H182.802ZM185.649 19V13.273H186.793V14.1432H186.877C187.157 13.5314 187.705 13.1623 188.538 13.1623C189.82 13.1623 190.526 13.927 190.526 15.2928V19H189.387V15.5617C189.387 14.6125 188.992 14.1432 188.153 14.1432C187.315 14.1432 186.793 14.718 186.793 15.6408V19H185.649ZM194.586 21.0197C193.13 21.0197 192.234 20.3816 192.097 19.4271L192.107 19.4166H193.262L193.268 19.4271C193.362 19.8227 193.827 20.1021 194.602 20.1021C195.546 20.1021 196.105 19.6592 196.105 18.8787V17.7502H196.02C195.672 18.3725 195.039 18.7205 194.254 18.7205C192.782 18.7205 191.875 17.5867 191.875 15.973V15.9625C191.875 14.3277 192.788 13.1729 194.275 13.1729C195.076 13.1729 195.699 13.5684 196.031 14.2117H196.099V13.273H197.238V18.884C197.238 20.1865 196.21 21.0197 194.586 21.0197ZM194.57 17.7766C195.54 17.7766 196.126 17.0383 196.126 15.9678V15.9572C196.126 14.892 195.535 14.1432 194.57 14.1432C193.595 14.1432 193.046 14.892 193.046 15.9572V15.9678C193.046 17.033 193.595 17.7766 194.57 17.7766Z" fill="#00CED1"/>
<rect x="49" y="4" width="3" height="23" rx="1.5" fill="url(#paint1_linear_7980_1100)" fill-opacity="0.4"/>
</g>
<rect y="37" width="224" height="31" rx="7.2" fill="url(#paint2_linear_7980_1100)" fill-opacity="0.1"/>
<path d="M11.9545 56V48.3904H13.315L15.7408 54.4602H15.8252L18.251 48.3904H19.6115V56H18.5357V50.4154H18.4566L16.2207 56H15.3453L13.1146 50.4154H13.0303V56H11.9545ZM23.8555 56.1107C22.1733 56.1107 21.1449 54.9875 21.1449 53.1418V53.1313C21.1449 51.2908 22.1785 50.1623 23.8555 50.1623C25.5272 50.1623 26.5608 51.2855 26.5608 53.1313V53.1418C26.5608 54.9875 25.5324 56.1107 23.8555 56.1107ZM23.8555 55.1563C24.8364 55.1563 25.3953 54.4074 25.3953 53.1418V53.1313C25.3953 51.8604 24.8364 51.1168 23.8555 51.1168C22.8694 51.1168 22.3156 51.8604 22.3156 53.1313V53.1418C22.3156 54.4127 22.8694 55.1563 23.8555 55.1563ZM27.9676 56V50.273H29.112V51.1379H29.1963C29.402 50.5314 29.9346 50.1729 30.6993 50.1729C30.8838 50.1729 31.0842 50.1992 31.2002 50.2256V51.2803C30.9946 51.2381 30.7995 51.2117 30.5833 51.2117C29.7079 51.2117 29.112 51.7496 29.112 52.5775V56H27.9676ZM32.4173 56V50.273H33.5616V51.1432H33.646C33.9255 50.5314 34.4739 50.1623 35.3071 50.1623C36.5885 50.1623 37.2952 50.927 37.2952 52.2928V56H36.1561V52.5617C36.1561 51.6125 35.7606 51.1432 34.9221 51.1432C34.0837 51.1432 33.5616 51.718 33.5616 52.6408V56H32.4173ZM39.53 49.25C39.1345 49.25 38.8128 48.9283 38.8128 48.5381C38.8128 48.1426 39.1345 47.8209 39.53 47.8209C39.9202 47.8209 40.2472 48.1426 40.2472 48.5381C40.2472 48.9283 39.9202 49.25 39.53 49.25ZM38.9552 56V50.273H40.0942V56H38.9552ZM41.8017 56V50.273H42.946V51.1432H43.0304C43.3099 50.5314 43.8583 50.1623 44.6915 50.1623C45.973 50.1623 46.6796 50.927 46.6796 52.2928V56H45.5405V52.5617C45.5405 51.6125 45.145 51.1432 44.3066 51.1432C43.4681 51.1432 42.946 51.718 42.946 52.6408V56H41.8017ZM50.739 58.0197C49.2835 58.0197 48.3871 57.3816 48.2499 56.4271L48.2605 56.4166H49.4154L49.4207 56.4271C49.5156 56.8227 49.9796 57.1021 50.7548 57.1021C51.6988 57.1021 52.2578 56.6592 52.2578 55.8787V54.7502H52.1734C51.8253 55.3725 51.1925 55.7205 50.4068 55.7205C48.9355 55.7205 48.0285 54.5867 48.0285 52.973V52.9625C48.0285 51.3277 48.9408 50.1729 50.4279 50.1729C51.2294 50.1729 51.8517 50.5684 52.1839 51.2117H52.2525V50.273H53.3915V55.884C53.3915 57.1865 52.3632 58.0197 50.739 58.0197ZM50.7232 54.7766C51.6935 54.7766 52.2789 54.0383 52.2789 52.9678V52.9572C52.2789 51.892 51.6882 51.1432 50.7232 51.1432C49.7476 51.1432 49.1992 51.892 49.1992 52.9572V52.9678C49.1992 54.033 49.7476 54.7766 50.7232 54.7766ZM60.7773 56.1846C59.0582 56.1846 57.9561 55.3145 57.8506 54.033L57.8453 53.9645H59.0055L59.0107 54.0225C59.074 54.7133 59.807 55.1563 60.8248 55.1563C61.7951 55.1563 62.4859 54.6711 62.4859 53.9645V53.9592C62.4859 53.3738 62.0746 52.9941 61.0674 52.7779L60.2342 52.5986C58.6891 52.2717 58.0246 51.5545 58.0246 50.4313V50.426C58.0299 49.1129 59.1689 48.2059 60.7826 48.2059C62.3963 48.2059 63.451 49.1182 63.5353 50.2994L63.5406 50.3732H62.3963L62.3857 50.3047C62.2855 49.6824 61.6896 49.2289 60.7668 49.2342C59.8756 49.2342 59.2164 49.6508 59.2164 50.368V50.3732C59.2164 50.9375 59.6172 51.3066 60.6033 51.5176L61.4312 51.7021C63.0291 52.0449 63.683 52.6883 63.683 53.8168V53.8221C63.683 55.2775 62.5492 56.1846 60.7773 56.1846ZM67.31 56.0369C66.0496 56.0369 65.5328 55.5939 65.5328 54.4918V51.1748H64.6364V50.273H65.5328V48.8281H66.6983V50.273H67.927V51.1748H66.6983V54.2176C66.6983 54.8346 66.9303 55.0877 67.4946 55.0877C67.6686 55.0877 67.7688 55.0824 67.927 55.0666V55.9789C67.7424 56.0105 67.5315 56.0369 67.31 56.0369ZM70.8737 56.0949C69.7821 56.0949 68.9752 55.4305 68.9752 54.3916V54.3811C68.9752 53.358 69.7452 52.7621 71.111 52.6777L72.6614 52.5881V52.0818C72.6614 51.4543 72.2659 51.1063 71.4907 51.1063C70.8579 51.1063 70.4413 51.3383 70.3041 51.7443L70.2989 51.7654H69.1967L69.202 51.7285C69.3391 50.7898 70.2409 50.1623 71.5434 50.1623C72.9831 50.1623 73.7952 50.8795 73.7952 52.0818V56H72.6614V55.1879H72.5717C72.2342 55.768 71.6331 56.0949 70.8737 56.0949ZM70.1143 54.3441C70.1143 54.8715 70.5625 55.1826 71.1795 55.1826C72.0338 55.1826 72.6614 54.6236 72.6614 53.8854V53.3949L71.2639 53.4846C70.4729 53.532 70.1143 53.8168 70.1143 54.3336V54.3441ZM75.4499 56V50.273H76.5942V51.1432H76.6786C76.9581 50.5314 77.5065 50.1623 78.3397 50.1623C79.6212 50.1623 80.3278 50.927 80.3278 52.2928V56H79.1887V52.5617C79.1887 51.6125 78.7932 51.1432 77.9548 51.1432C77.1163 51.1432 76.5942 51.718 76.5942 52.6408V56H75.4499ZM84.055 56.0949C82.6153 56.0949 81.6819 54.94 81.6819 53.1418V53.1313C81.6819 51.3172 82.5995 50.1729 84.055 50.1729C84.8407 50.1729 85.5104 50.5631 85.8163 51.1801H85.9059V48.0266H87.045V56H85.9059V55.0982H85.8163C85.4841 55.7258 84.8565 56.0949 84.055 56.0949ZM84.3819 55.1193C85.3364 55.1193 85.9218 54.3652 85.9218 53.1418V53.1313C85.9218 51.9078 85.3311 51.1537 84.3819 51.1537C83.4222 51.1537 82.8474 51.9025 82.8474 53.1313V53.1418C82.8474 54.3705 83.4222 55.1193 84.3819 55.1193ZM90.6984 56.1107C89.4064 56.1107 88.7366 55.3355 88.7366 53.9803V50.273H89.881V53.7113C89.881 54.6605 90.229 55.1299 91.0675 55.1299C91.9851 55.1299 92.4755 54.5551 92.4755 53.6322V50.273H93.6146V56H92.4755V55.1352H92.3859C92.1116 55.7521 91.5316 56.1107 90.6984 56.1107ZM95.3062 57.909V50.273H96.4505V51.1748H96.5349C96.8671 50.5473 97.4947 50.1729 98.2962 50.1729C99.7412 50.1729 100.669 51.3277 100.669 53.1313V53.1418C100.669 54.9559 99.7517 56.0949 98.2962 56.0949C97.5105 56.0949 96.8408 55.71 96.5349 55.093H96.4505V57.909H95.3062ZM97.9746 55.1193C98.9291 55.1193 99.5039 54.3705 99.5039 53.1418V53.1313C99.5039 51.8973 98.9291 51.1537 97.9746 51.1537C97.0201 51.1537 96.4294 51.9078 96.4294 53.1313V53.1418C96.4294 54.3652 97.0201 55.1193 97.9746 55.1193ZM102.967 52.0924C102.53 52.0924 102.192 51.7549 102.192 51.3277C102.192 50.8953 102.53 50.5578 102.967 50.5578C103.405 50.5578 103.737 50.8953 103.737 51.3277C103.737 51.7549 103.405 52.0924 102.967 52.0924ZM102.967 56.0791C102.53 56.0791 102.192 55.7416 102.192 55.3145C102.192 54.882 102.53 54.5445 102.967 54.5445C103.405 54.5445 103.737 54.882 103.737 55.3145C103.737 55.7416 103.405 56.0791 102.967 56.0791ZM108.66 56V48.3904H111.624C113.116 48.3904 114.15 49.3924 114.15 50.8848V50.8953C114.15 52.3824 113.116 53.4002 111.624 53.4002H109.842V56H108.66ZM111.329 49.3871H109.842V52.4088H111.329C112.352 52.4088 112.948 51.8551 112.948 50.9006V50.89C112.948 49.9408 112.352 49.3871 111.329 49.3871ZM115.583 56V50.273H116.728V51.1379H116.812C117.018 50.5314 117.55 50.1729 118.315 50.1729C118.499 50.1729 118.7 50.1992 118.816 50.2256V51.2803C118.61 51.2381 118.415 51.2117 118.199 51.2117C117.323 51.2117 116.728 51.7496 116.728 52.5775V56H115.583ZM122.227 56.1107C120.544 56.1107 119.516 54.9875 119.516 53.1418V53.1313C119.516 51.2908 120.55 50.1623 122.227 50.1623C123.898 50.1623 124.932 51.2855 124.932 53.1313V53.1418C124.932 54.9875 123.904 56.1107 122.227 56.1107ZM122.227 55.1563C123.207 55.1563 123.766 54.4074 123.766 53.1418V53.1313C123.766 51.8604 123.207 51.1168 122.227 51.1168C121.24 51.1168 120.687 51.8604 120.687 53.1313V53.1418C120.687 54.4127 121.24 55.1563 122.227 55.1563ZM126.924 49.25C126.529 49.25 126.207 48.9283 126.207 48.5381C126.207 48.1426 126.529 47.8209 126.924 47.8209C127.32 47.8209 127.641 48.1426 127.641 48.5381C127.641 48.9283 127.32 49.25 126.924 49.25ZM125.637 57.9617C125.553 57.9617 125.453 57.9564 125.384 57.9564V57.0178C125.437 57.0178 125.49 57.0178 125.542 57.0178C126.128 57.0178 126.355 56.8174 126.355 56.2426V50.273H127.494V56.2479C127.494 57.4238 126.882 57.9617 125.637 57.9617ZM131.611 56.1107C129.934 56.1107 128.922 54.9664 128.922 53.1523V53.1471C128.922 51.3594 129.955 50.1623 131.553 50.1623C133.151 50.1623 134.132 51.3172 134.132 53.0363V53.4371H130.071C130.092 54.534 130.693 55.1721 131.637 55.1721C132.37 55.1721 132.808 54.8082 132.945 54.5129L132.966 54.4707L134.068 54.4654L134.058 54.5129C133.868 55.267 133.077 56.1107 131.611 56.1107ZM131.558 51.101C130.778 51.101 130.187 51.6336 130.087 52.6197H132.998C132.908 51.5967 132.334 51.101 131.558 51.101ZM137.943 56.1107C136.272 56.1107 135.249 54.9717 135.249 53.1207V53.1102C135.249 51.2961 136.266 50.1623 137.938 50.1623C139.378 50.1623 140.237 50.9744 140.395 52.0871V52.1135L139.299 52.1188L139.293 52.1029C139.167 51.5387 138.703 51.1168 137.943 51.1168C136.989 51.1168 136.414 51.8762 136.414 53.1102V53.1207C136.414 54.3863 136.999 55.1563 137.943 55.1563C138.66 55.1563 139.103 54.8293 139.288 54.2123L139.299 54.1859H140.395L140.385 54.2334C140.179 55.3461 139.362 56.1107 137.943 56.1107ZM143.98 56.0369C142.72 56.0369 142.203 55.5939 142.203 54.4918V51.1748H141.307V50.273H142.203V48.8281H143.369V50.273H144.597V51.1748H143.369V54.2176C143.369 54.8346 143.601 55.0877 144.165 55.0877C144.339 55.0877 144.439 55.0824 144.597 55.0666V55.9789C144.413 56.0105 144.202 56.0369 143.98 56.0369ZM152.173 56.1846C150.264 56.1846 149.088 55.0508 149.088 53.3791V48.3904H150.269V53.2895C150.269 54.3916 150.96 55.1404 152.173 55.1404C153.386 55.1404 154.071 54.3916 154.071 53.2895V48.3904H155.253V53.3791C155.253 55.0508 154.087 56.1846 152.173 56.1846ZM157.065 57.909V50.273H158.21V51.1748H158.294C158.626 50.5473 159.254 50.1729 160.056 50.1729C161.5 50.1729 162.429 51.3277 162.429 53.1313V53.1418C162.429 54.9559 161.511 56.0949 160.056 56.0949C159.27 56.0949 158.6 55.71 158.294 55.093H158.21V57.909H157.065ZM159.734 55.1193C160.688 55.1193 161.263 54.3705 161.263 53.1418V53.1313C161.263 51.8973 160.688 51.1537 159.734 51.1537C158.779 51.1537 158.189 51.9078 158.189 53.1313V53.1418C158.189 54.3652 158.779 55.1193 159.734 55.1193ZM165.934 56.0949C164.495 56.0949 163.561 54.94 163.561 53.1418V53.1313C163.561 51.3172 164.479 50.1729 165.934 50.1729C166.72 50.1729 167.39 50.5631 167.696 51.1801H167.785V48.0266H168.924V56H167.785V55.0982H167.696C167.363 55.7258 166.736 56.0949 165.934 56.0949ZM166.261 55.1193C167.216 55.1193 167.801 54.3652 167.801 53.1418V53.1313C167.801 51.9078 167.21 51.1537 166.261 51.1537C165.301 51.1537 164.727 51.9025 164.727 53.1313V53.1418C164.727 54.3705 165.301 55.1193 166.261 55.1193ZM172.24 56.0949C171.149 56.0949 170.342 55.4305 170.342 54.3916V54.3811C170.342 53.358 171.112 52.7621 172.477 52.6777L174.028 52.5881V52.0818C174.028 51.4543 173.632 51.1063 172.857 51.1063C172.224 51.1063 171.808 51.3383 171.671 51.7443L171.665 51.7654H170.563L170.568 51.7285C170.706 50.7898 171.607 50.1623 172.91 50.1623C174.349 50.1623 175.162 50.8795 175.162 52.0818V56H174.028V55.1879H173.938C173.601 55.768 172.999 56.0949 172.24 56.0949ZM171.481 54.3441C171.481 54.8715 171.929 55.1826 172.546 55.1826C173.4 55.1826 174.028 54.6236 174.028 53.8854V53.3949L172.63 53.4846C171.839 53.532 171.481 53.8168 171.481 54.3336V54.3441ZM178.978 56.0369C177.718 56.0369 177.201 55.5939 177.201 54.4918V51.1748H176.305V50.273H177.201V48.8281H178.367V50.273H179.595V51.1748H178.367V54.2176C178.367 54.8346 178.599 55.0877 179.163 55.0877C179.337 55.0877 179.437 55.0824 179.595 55.0666V55.9789C179.411 56.0105 179.2 56.0369 178.978 56.0369ZM183.312 56.1107C181.635 56.1107 180.623 54.9664 180.623 53.1523V53.1471C180.623 51.3594 181.656 50.1623 183.254 50.1623C184.852 50.1623 185.833 51.3172 185.833 53.0363V53.4371H181.772C181.793 54.534 182.394 55.1721 183.338 55.1721C184.071 55.1721 184.509 54.8082 184.646 54.5129L184.667 54.4707L185.769 54.4654L185.759 54.5129C185.569 55.267 184.778 56.1107 183.312 56.1107ZM183.259 51.101C182.479 51.101 181.888 51.6336 181.788 52.6197H184.699C184.609 51.5967 184.035 51.101 183.259 51.101Z" fill="#1E90FF"/>
<rect x="4" y="41" width="3" height="23" rx="1.5" fill="#1E90FF" fill-opacity="0.4"/>
<rect x="92" y="74" width="224" height="31" rx="7.2" fill="url(#paint3_linear_7980_1100)" fill-opacity="0.1"/>
<path d="M103.954 93V85.3904H105.315L107.741 91.4602H107.825L110.251 85.3904H111.612V93H110.536V87.4154H110.457L108.221 93H107.345L105.115 87.4154H105.03V93H103.954ZM115.001 93.0949C113.91 93.0949 113.103 92.4305 113.103 91.3916V91.3811C113.103 90.358 113.873 89.7621 115.239 89.6777L116.789 89.5881V89.0818C116.789 88.4543 116.393 88.1063 115.618 88.1063C114.985 88.1063 114.569 88.3383 114.432 88.7443L114.426 88.7654H113.324L113.33 88.7285C113.467 87.7898 114.368 87.1623 115.671 87.1623C117.111 87.1623 117.923 87.8795 117.923 89.0818V93H116.789V92.1879H116.699C116.362 92.768 115.761 93.0949 115.001 93.0949ZM114.242 91.3441C114.242 91.8715 114.69 92.1826 115.307 92.1826C116.161 92.1826 116.789 91.6236 116.789 90.8854V90.3949L115.391 90.4846C114.6 90.532 114.242 90.8168 114.242 91.3336V91.3441ZM119.577 93V87.273H120.722V88.1379H120.806C121.012 87.5314 121.544 87.1729 122.309 87.1729C122.494 87.1729 122.694 87.1992 122.81 87.2256V88.2803C122.604 88.2381 122.409 88.2117 122.193 88.2117C121.318 88.2117 120.722 88.7496 120.722 89.5775V93H119.577ZM123.995 93V85.0266H125.14V89.6883H125.224L127.497 87.273H128.836L126.448 89.6883L128.995 93H127.602L125.63 90.4266L125.14 90.917V93H123.995ZM132.189 93.1107C130.512 93.1107 129.5 91.9664 129.5 90.1523V90.1471C129.5 88.3594 130.533 87.1623 132.131 87.1623C133.729 87.1623 134.71 88.3172 134.71 90.0363V90.4371H130.649C130.67 91.534 131.272 92.1721 132.216 92.1721C132.949 92.1721 133.386 91.8082 133.523 91.5129L133.544 91.4707L134.647 91.4654L134.636 91.5129C134.446 92.267 133.655 93.1107 132.189 93.1107ZM132.136 88.101C131.356 88.101 130.765 88.6336 130.665 89.6197H133.576C133.486 88.5967 132.912 88.101 132.136 88.101ZM138.274 93.0369C137.013 93.0369 136.496 92.5939 136.496 91.4918V88.1748H135.6V87.273H136.496V85.8281H137.662V87.273H138.891V88.1748H137.662V91.2176C137.662 91.8346 137.894 92.0877 138.458 92.0877C138.632 92.0877 138.732 92.0824 138.891 92.0666V92.9789C138.706 93.0105 138.495 93.0369 138.274 93.0369ZM140.862 86.25C140.466 86.25 140.144 85.9283 140.144 85.5381C140.144 85.1426 140.466 84.8209 140.862 84.8209C141.252 84.8209 141.579 85.1426 141.579 85.5381C141.579 85.9283 141.252 86.25 140.862 86.25ZM140.287 93V87.273H141.426V93H140.287ZM143.133 93V87.273H144.278V88.1432H144.362C144.642 87.5314 145.19 87.1623 146.023 87.1623C147.305 87.1623 148.011 87.927 148.011 89.2928V93H146.872V89.5617C146.872 88.6125 146.477 88.1432 145.638 88.1432C144.8 88.1432 144.278 88.718 144.278 89.6408V93H143.133ZM152.071 95.0197C150.615 95.0197 149.719 94.3816 149.582 93.4271L149.592 93.4166H150.747L150.752 93.4271C150.847 93.8227 151.311 94.1021 152.087 94.1021C153.03 94.1021 153.589 93.6592 153.589 92.8787V91.7502H153.505C153.157 92.3725 152.524 92.7205 151.738 92.7205C150.267 92.7205 149.36 91.5867 149.36 89.973V89.9625C149.36 88.3277 150.272 87.1729 151.76 87.1729C152.561 87.1729 153.183 87.5684 153.516 88.2117H153.584V87.273H154.723V92.884C154.723 94.1865 153.695 95.0197 152.071 95.0197ZM152.055 91.7766C153.025 91.7766 153.611 91.0383 153.611 89.9678V89.9572C153.611 88.892 153.02 88.1432 152.055 88.1432C151.079 88.1432 150.531 88.892 150.531 89.9572V89.9678C150.531 91.033 151.079 91.7766 152.055 91.7766ZM162.109 93.1846C160.39 93.1846 159.288 92.3145 159.182 91.033L159.177 90.9645H160.337L160.342 91.0225C160.406 91.7133 161.139 92.1563 162.156 92.1563C163.127 92.1563 163.818 91.6711 163.818 90.9645V90.9592C163.818 90.3738 163.406 89.9941 162.399 89.7779L161.566 89.5986C160.021 89.2717 159.356 88.5545 159.356 87.4313V87.426C159.362 86.1129 160.501 85.2059 162.114 85.2059C163.728 85.2059 164.783 86.1182 164.867 87.2994L164.872 87.3732H163.728L163.717 87.3047C163.617 86.6824 163.021 86.2289 162.098 86.2342C161.207 86.2342 160.548 86.6508 160.548 87.368V87.3732C160.548 87.9375 160.949 88.3066 161.935 88.5176L162.763 88.7021C164.361 89.0449 165.015 89.6883 165.015 90.8168V90.8221C165.015 92.2775 163.881 93.1846 162.109 93.1846ZM168.642 93.0369C167.381 93.0369 166.865 92.5939 166.865 91.4918V88.1748H165.968V87.273H166.865V85.8281H168.03V87.273H169.259V88.1748H168.03V91.2176C168.03 91.8346 168.262 92.0877 168.826 92.0877C169 92.0877 169.1 92.0824 169.259 92.0666V92.9789C169.074 93.0105 168.863 93.0369 168.642 93.0369ZM170.634 93V87.273H171.778V88.1379H171.863C172.068 87.5314 172.601 87.1729 173.366 87.1729C173.55 87.1729 173.75 87.1992 173.866 87.2256V88.2803C173.661 88.2381 173.466 88.2117 173.25 88.2117C172.374 88.2117 171.778 88.7496 171.778 89.5775V93H170.634ZM176.528 93.0949C175.437 93.0949 174.63 92.4305 174.63 91.3916V91.3811C174.63 90.358 175.4 89.7621 176.766 89.6777L178.316 89.5881V89.0818C178.316 88.4543 177.921 88.1063 177.145 88.1063C176.513 88.1063 176.096 88.3383 175.959 88.7443L175.954 88.7654H174.851L174.857 88.7285C174.994 87.7898 175.896 87.1623 177.198 87.1623C178.638 87.1623 179.45 87.8795 179.45 89.0818V93H178.316V92.1879H178.226C177.889 92.768 177.288 93.0949 176.528 93.0949ZM175.769 91.3441C175.769 91.8715 176.217 92.1826 176.834 92.1826C177.689 92.1826 178.316 91.6236 178.316 90.8854V90.3949L176.919 90.4846C176.128 90.532 175.769 90.8168 175.769 91.3336V91.3441ZM183.267 93.0369C182.006 93.0369 181.49 92.5939 181.49 91.4918V88.1748H180.593V87.273H181.49V85.8281H182.655V87.273H183.884V88.1748H182.655V91.2176C182.655 91.8346 182.887 92.0877 183.451 92.0877C183.625 92.0877 183.726 92.0824 183.884 92.0666V92.9789C183.699 93.0105 183.488 93.0369 183.267 93.0369ZM187.6 93.1107C185.923 93.1107 184.911 91.9664 184.911 90.1523V90.1471C184.911 88.3594 185.945 87.1623 187.542 87.1623C189.14 87.1623 190.121 88.3172 190.121 90.0363V90.4371H186.061C186.082 91.534 186.683 92.1721 187.627 92.1721C188.36 92.1721 188.797 91.8082 188.935 91.5129L188.956 91.4707L190.058 91.4654L190.047 91.5129C189.857 92.267 189.066 93.1107 187.6 93.1107ZM187.548 88.101C186.767 88.101 186.177 88.6336 186.076 89.6197H188.987C188.898 88.5967 188.323 88.101 187.548 88.101ZM193.943 95.0197C192.488 95.0197 191.591 94.3816 191.454 93.4271L191.465 93.4166H192.62L192.625 93.4271C192.72 93.8227 193.184 94.1021 193.959 94.1021C194.903 94.1021 195.462 93.6592 195.462 92.8787V91.7502H195.378C195.029 92.3725 194.397 92.7205 193.611 92.7205C192.14 92.7205 191.233 91.5867 191.233 89.973V89.9625C191.233 88.3277 192.145 87.1729 193.632 87.1729C194.434 87.1729 195.056 87.5684 195.388 88.2117H195.457V87.273H196.596V92.884C196.596 94.1865 195.567 95.0197 193.943 95.0197ZM193.927 91.7766C194.898 91.7766 195.483 91.0383 195.483 89.9678V89.9572C195.483 88.892 194.892 88.1432 193.927 88.1432C192.952 88.1432 192.403 88.892 192.403 89.9572V89.9678C192.403 91.033 192.952 91.7766 193.927 91.7766ZM198.841 95.0145C198.699 95.0145 198.53 95.0039 198.382 94.9881V94.0863C198.493 94.1021 198.635 94.1074 198.767 94.1074C199.3 94.1074 199.616 93.8807 199.79 93.3006L199.875 93.0053L197.797 87.273H199.031L200.465 91.8504H200.565L201.995 87.273H203.197L201.066 93.2215C200.581 94.5926 200.001 95.0145 198.841 95.0145ZM207.524 93V85.3904H210.583C212.012 85.3904 212.871 86.1182 212.871 87.2836V87.2941C212.871 88.0852 212.286 88.7971 211.537 88.9236V89.0133C212.565 89.124 213.251 89.8518 213.251 90.8432V90.8537C213.251 92.1879 212.275 93 210.651 93H207.524ZM210.308 86.3555H208.705V88.6283H210.108C211.152 88.6283 211.695 88.2381 211.695 87.4998V87.4893C211.695 86.7721 211.184 86.3555 210.308 86.3555ZM210.345 89.5301H208.705V92.035H210.414C211.479 92.035 212.043 91.5973 212.043 90.7799V90.7693C212.043 89.952 211.458 89.5301 210.345 89.5301ZM214.679 93V87.273H215.823V88.1379H215.908C216.113 87.5314 216.646 87.1729 217.411 87.1729C217.595 87.1729 217.796 87.1992 217.912 87.2256V88.2803C217.706 88.2381 217.511 88.2117 217.295 88.2117C216.419 88.2117 215.823 88.7496 215.823 89.5775V93H214.679ZM220.574 93.0949C219.482 93.0949 218.675 92.4305 218.675 91.3916V91.3811C218.675 90.358 219.445 89.7621 220.811 89.6777L222.361 89.5881V89.0818C222.361 88.4543 221.966 88.1063 221.191 88.1063C220.558 88.1063 220.141 88.3383 220.004 88.7443L219.999 88.7654H218.897L218.902 88.7285C219.039 87.7898 219.941 87.1623 221.243 87.1623C222.683 87.1623 223.495 87.8795 223.495 89.0818V93H222.361V92.1879H222.272C221.934 92.768 221.333 93.0949 220.574 93.0949ZM219.814 91.3441C219.814 91.8715 220.262 92.1826 220.879 92.1826C221.734 92.1826 222.361 91.6236 222.361 90.8854V90.3949L220.964 90.4846C220.173 90.532 219.814 90.8168 219.814 91.3336V91.3441ZM225.746 86.25C225.35 86.25 225.028 85.9283 225.028 85.5381C225.028 85.1426 225.35 84.8209 225.746 84.8209C226.136 84.8209 226.463 85.1426 226.463 85.5381C226.463 85.9283 226.136 86.25 225.746 86.25ZM225.171 93V87.273H226.31V93H225.171ZM228.017 93V87.273H229.162V88.1432H229.246C229.526 87.5314 230.074 87.1623 230.907 87.1623C232.189 87.1623 232.895 87.927 232.895 89.2928V93H231.756V89.5617C231.756 88.6125 231.361 88.1432 230.522 88.1432C229.684 88.1432 229.162 88.718 229.162 89.6408V93H228.017ZM236.617 93.1107C235.236 93.1107 234.36 92.4621 234.249 91.5023V91.4971H235.394L235.399 91.5023C235.541 91.9348 235.958 92.2248 236.638 92.2248C237.345 92.2248 237.835 91.9031 237.835 91.4338V91.4232C237.835 91.0646 237.566 90.8221 236.902 90.6691L235.99 90.4582C234.909 90.2104 234.408 89.7199 234.408 88.8814V88.8762C234.408 87.8795 235.336 87.1623 236.633 87.1623C237.941 87.1623 238.779 87.8162 238.879 88.7496V88.7549H237.788V88.7443C237.677 88.3436 237.271 88.043 236.628 88.043C236 88.043 235.547 88.3541 235.547 88.8129V88.8234C235.547 89.182 235.81 89.4035 236.454 89.5564L237.361 89.7621C238.463 90.0205 238.99 90.4898 238.99 91.3178V91.3283C238.99 92.3883 237.978 93.1107 236.617 93.1107ZM242.517 93.0369C241.257 93.0369 240.74 92.5939 240.74 91.4918V88.1748H239.843V87.273H240.74V85.8281H241.905V87.273H243.134V88.1748H241.905V91.2176C241.905 91.8346 242.137 92.0877 242.702 92.0877C242.876 92.0877 242.976 92.0824 243.134 92.0666V92.9789C242.949 93.0105 242.738 93.0369 242.517 93.0369ZM246.872 93.1107C245.189 93.1107 244.161 91.9875 244.161 90.1418V90.1313C244.161 88.2908 245.195 87.1623 246.872 87.1623C248.543 87.1623 249.577 88.2855 249.577 90.1313V90.1418C249.577 91.9875 248.549 93.1107 246.872 93.1107ZM246.872 92.1563C247.853 92.1563 248.412 91.4074 248.412 90.1418V90.1313C248.412 88.8604 247.853 88.1168 246.872 88.1168C245.886 88.1168 245.332 88.8604 245.332 90.1313V90.1418C245.332 91.4127 245.886 92.1563 246.872 92.1563ZM250.984 93V87.273H252.128V88.1379H252.213C252.418 87.5314 252.951 87.1729 253.715 87.1729C253.9 87.1729 254.1 87.1992 254.216 87.2256V88.2803C254.011 88.2381 253.816 88.2117 253.599 88.2117C252.724 88.2117 252.128 88.7496 252.128 89.5775V93H250.984ZM255.433 93V87.273H256.578V88.1537H256.662C256.915 87.5262 257.474 87.1623 258.223 87.1623C259.004 87.1623 259.557 87.5684 259.81 88.1854H259.9C260.19 87.5684 260.849 87.1623 261.646 87.1623C262.8 87.1623 263.475 87.8584 263.475 89.0502V93H262.336V89.3244C262.336 88.5334 261.978 88.1432 261.229 88.1432C260.501 88.1432 260.021 88.6863 260.021 89.3771V93H258.882V89.2084C258.882 88.5545 258.455 88.1432 257.78 88.1432C257.089 88.1432 256.578 88.7338 256.578 89.4826V93H255.433Z" fill="#87CEEB"/>
<rect x="96" y="78" width="3" height="23" rx="1.5" fill="#87CEEB" fill-opacity="0.4"/>
<defs>
<linearGradient id="paint0_linear_7980_1100" x1="157" y1="0" x2="157" y2="31" gradientUnits="userSpaceOnUse">
<stop stop-color="#00CED1"/>
<stop offset="1" stop-color="#00CED1" stop-opacity="0.4"/>
</linearGradient>
<linearGradient id="paint1_linear_7980_1100" x1="50.5" y1="4" x2="50.5" y2="27" gradientUnits="userSpaceOnUse">
<stop stop-color="#00CED1"/>
<stop offset="1" stop-color="#00CED1"/>
</linearGradient>
<linearGradient id="paint2_linear_7980_1100" x1="112" y1="37" x2="112" y2="68" gradientUnits="userSpaceOnUse">
<stop stop-color="#1E90FF"/>
<stop offset="1" stop-color="#1E90FF" stop-opacity="0.4"/>
</linearGradient>
<linearGradient id="paint3_linear_7980_1100" x1="204" y1="74" x2="204" y2="105" gradientUnits="userSpaceOnUse">
<stop stop-color="#87CEEB"/>
<stop offset="1" stop-color="#87CEEB" stop-opacity="0.4"/>
</linearGradient>
<clipPath id="clip0_7980_1100">
<rect width="224" height="31" fill="white" transform="translate(45)"/>
</clipPath>
</defs>
</svg>
