<svg width="16" height="18" viewBox="0 0 16 18" fill="none" xmlns="http://www.w3.org/2000/svg">
<path d="M14.2479 15.749C13.5009 16.8649 12.709 17.9538 11.503 17.9718C10.2971 17.9988 9.91015 17.2609 8.54224 17.2609C7.16534 17.2609 6.74236 17.9538 5.59941 17.9988C4.42049 18.0438 3.52955 16.8109 2.7736 15.722C1.2347 13.4991 0.0557816 9.40438 1.63968 6.65056C2.42262 5.28265 3.82653 4.41871 5.34743 4.39171C6.49938 4.37371 7.59731 5.17466 8.30826 5.17466C9.01021 5.17466 10.3421 4.21172 11.737 4.35571C12.322 4.38271 13.9599 4.58969 15.0128 6.13759C14.9318 6.19159 13.0599 7.28952 13.0779 9.56636C13.1049 12.2842 15.4628 13.1931 15.4898 13.2021C15.4628 13.2651 15.1118 14.498 14.2479 15.749ZM9.10921 1.34991C9.76616 0.60296 10.8551 0.0359976 11.755 0C11.872 1.05293 11.4491 2.11486 10.8191 2.87081C10.1981 3.63576 9.1722 4.22972 8.16427 4.14872C8.02928 3.11379 8.53324 2.03386 9.10921 1.34991Z" fill="#171923"/>
</svg>
