<svg width="16" height="18" viewBox="0 0 16 18" fill="none" xmlns="http://www.w3.org/2000/svg">
<path d="M14.2479 15.749C13.5009 16.8649 12.709 17.9538 11.5031 17.9718C10.2972 17.9988 9.91018 17.2609 8.54227 17.2609C7.16537 17.2609 6.74239 17.9538 5.59944 17.9988C4.42052 18.0438 3.52958 16.8109 2.77363 15.722C1.23473 13.4991 0.0558121 9.40438 1.63971 6.65056C2.42265 5.28265 3.82656 4.41871 5.34746 4.39171C6.49941 4.37371 7.59734 5.17466 8.30829 5.17466C9.01024 5.17466 10.3422 4.21172 11.7371 4.35571C12.322 4.38271 13.9599 4.58969 15.0128 6.13759C14.9318 6.19159 13.06 7.28952 13.078 9.56636C13.105 12.2842 15.4628 13.1931 15.4898 13.2021C15.4628 13.2651 15.1118 14.498 14.2479 15.749ZM9.10924 1.34991C9.76619 0.60296 10.8551 0.0359976 11.7551 0C11.8721 1.05293 11.4491 2.11486 10.8191 2.87081C10.1982 3.63576 9.17223 4.22972 8.1643 4.14872C8.02931 3.11379 8.53328 2.03386 9.10924 1.34991Z" fill="#E2E8F0"/>
</svg>
