<svg width="221" height="28" viewBox="0 0 221 28" fill="none" xmlns="http://www.w3.org/2000/svg">
<path d="M138.229 20.244C138.229 16.4054 136.168 14.5871 130.43 13.3346C127.238 12.6477 126.471 11.9204 126.471 10.9103C126.471 9.65773 127.602 9.09206 129.703 9.09206C132.249 9.09206 134.754 9.85975 137.138 10.9507V5.90003C135.481 5.05152 132.895 4.40503 129.865 4.40503C124.167 4.40503 121.218 6.86976 121.218 10.9507C121.218 14.1831 122.713 16.769 128.612 17.9004C132.127 18.6277 132.855 19.1934 132.855 20.3652C132.855 21.4965 132.127 22.2238 129.622 22.2238C126.753 22.2238 123.319 21.2541 121.097 19.9207V25.2138C122.875 26.1027 125.218 27.0725 129.582 27.0725C135.764 27.0725 138.229 24.3248 138.229 20.244Z" fill="white"/>
<path d="M200.373 4.72852V26.7494H205.06V9.98122L207.04 14.4257L213.666 26.7494H219.566V4.72852H214.878V18.9512L213.1 14.8299L207.768 4.72852H200.373Z" fill="white"/>
<path d="M170.595 4.72827H165.464V26.7088H170.595V4.72827Z" fill="white"/>
<path d="M159.522 20.244C159.522 16.4054 157.462 14.5871 151.724 13.3346C148.532 12.6477 147.764 11.9204 147.764 10.9103C147.764 9.65773 148.895 9.09206 150.996 9.09206C153.542 9.09206 156.048 9.85975 158.432 10.9507V5.90003C156.774 5.05152 154.188 4.40503 151.159 4.40503C145.461 4.40503 142.511 6.86976 142.511 10.9507C142.511 14.1831 144.006 16.769 149.906 17.9004C153.421 18.6277 154.148 19.1934 154.148 20.3652C154.148 21.4965 153.421 22.2238 150.915 22.2238C148.047 22.2238 144.612 21.2541 142.391 19.9207V25.2138C144.169 26.1027 146.512 27.0725 150.876 27.0725C157.098 27.0725 159.522 24.3248 159.522 20.244Z" fill="white"/>
<path d="M81.4604 4.72827V26.7491H91.9658L93.6224 21.9813H86.5919V4.72827H81.4604Z" fill="white"/>
<path d="M60.6528 4.72852V9.49634H66.35V26.7495H71.4815V9.49634H77.5828V4.72852H60.6528Z" fill="white"/>
<path d="M53.1772 4.72827H46.4295L38.7524 26.7491H44.6113L45.7022 23.0319C46.9951 23.3956 48.3689 23.6379 49.8235 23.6379C51.2376 23.6379 52.6115 23.4359 53.9448 23.0319L55.0358 26.7491H60.8946L53.1772 4.72827ZM49.7832 19.0722C48.8134 19.0722 47.8436 18.9105 46.9548 18.6681L49.7832 9.05165L52.6115 18.6681C51.7226 18.9105 50.7933 19.0722 49.7832 19.0722Z" fill="white"/>
<path d="M110.148 4.72827H103.4L95.7231 26.7087H101.582L102.673 22.9914C103.966 23.3552 105.34 23.5975 106.794 23.5975C108.208 23.5975 109.582 23.3955 110.916 22.9914L112.006 26.7087H117.865L110.148 4.72827ZM106.754 19.0721C105.784 19.0721 104.814 18.9106 103.925 18.6681L106.754 9.05164L109.582 18.6681C108.693 18.9106 107.724 19.0721 106.754 19.0721Z" fill="white"/>
<path d="M189.019 4.72852H182.271L174.593 26.709H180.452L181.544 22.9917C182.836 23.3554 184.21 23.5977 185.664 23.5977C187.078 23.5977 188.453 23.3957 189.786 22.9917L190.877 26.709H196.736L189.019 4.72852ZM185.664 19.0724C184.696 19.0724 183.725 18.9108 182.836 18.6683L185.664 9.05188L188.494 18.6683C187.564 18.9108 186.635 19.0724 185.664 19.0724Z" fill="white"/>
<path d="M9.33428 12.3642C8.93023 11.9197 8.32415 11.9601 8.04131 12.4854L1.45524 25.6171C1.21281 26.1423 1.57646 26.7484 2.14213 26.7484H11.2737C11.5566 26.7484 11.8394 26.5868 11.9606 26.304C13.9809 22.223 12.7687 16.0411 9.33428 12.3642Z" fill="white"/>
<path d="M14.1425 0.404595C10.4656 6.22296 10.708 12.6474 13.1323 17.4961C15.5567 22.3447 17.4153 26.0215 17.5365 26.3045C17.6578 26.5873 17.9406 26.7488 18.2234 26.7488H27.355C27.9206 26.7488 28.3248 26.1428 28.0419 25.6175C28.0419 25.6175 15.7587 1.05108 15.4354 0.445C15.193 -0.120675 14.5061 -0.161081 14.1425 0.404595Z" fill="white"/>
</svg>
