<svg width="116" height="16" viewBox="0 0 116 16" fill="none" xmlns="http://www.w3.org/2000/svg">
<g clip-path="url(#clip0_8083_361)">
<path d="M72.4431 11.2702C72.4431 9.25956 71.3617 8.30711 68.3512 7.65104C66.6763 7.29124 66.2734 6.91027 66.2734 6.38115C66.2734 5.72505 66.867 5.42874 67.9695 5.42874C69.3052 5.42874 70.6197 5.83087 71.8706 6.40232V3.75673C71.0013 3.31227 69.6444 2.97363 68.0543 2.97363C65.0649 2.97363 63.5172 4.26468 63.5172 6.40232C63.5172 8.09547 64.3016 9.45001 67.3971 10.0426C69.2417 10.4236 69.6233 10.7199 69.6233 11.3337C69.6233 11.9263 69.2417 12.3073 67.9271 12.3073C66.4218 12.3073 64.6197 11.7993 63.4536 11.1009V13.8735C64.3865 14.3391 65.6161 14.847 67.9059 14.847C71.1497 14.847 72.4431 13.4078 72.4431 11.2702Z" fill="white"/>
<path d="M105.052 3.14355V14.6783H107.512V5.89497L108.55 8.22305L112.027 14.6783H115.123V3.14355H112.664V10.5936L111.731 8.43477L108.932 3.14355H105.052Z" fill="white"/>
<path d="M89.4272 3.14307H86.7349V14.6567H89.4272V3.14307Z" fill="white"/>
<path d="M83.6159 11.2707C83.6159 9.26005 82.5345 8.3076 79.5241 7.65153C77.8492 7.29172 77.4459 6.91076 77.4459 6.38164C77.4459 5.72554 78.0395 5.42923 79.1421 5.42923C80.4776 5.42923 81.7926 5.83136 83.0436 6.40281V3.75722C82.1738 3.31276 80.817 2.97412 79.2273 2.97412C76.2375 2.97412 74.6896 4.26517 74.6896 6.40281C74.6896 8.09596 75.4742 9.4505 78.5698 10.0431C80.4144 10.4241 80.7957 10.7204 80.7957 11.3342C80.7957 11.9268 80.4144 12.3078 79.0995 12.3078C77.5943 12.3078 75.7923 11.7998 74.6265 11.1014V13.874C75.5594 14.3396 76.7891 14.8475 79.0789 14.8475C82.3435 14.8475 83.6159 13.4083 83.6159 11.2707Z" fill="white"/>
<path d="M42.6558 3.14307V14.6778H48.1681L49.0374 12.1804H45.3483V3.14307H42.6558Z" fill="white"/>
<path d="M31.7378 3.14355V5.64099H34.7272V14.6784H37.4198V5.64099H40.6213V3.14355H31.7378Z" fill="white"/>
<path d="M27.8146 3.14307H24.2739L20.2456 14.6778H23.3199L23.8923 12.7307C24.5707 12.9212 25.2915 13.0481 26.0548 13.0481C26.7968 13.0481 27.5177 12.9423 28.2173 12.7307L28.7898 14.6778H31.864L27.8146 3.14307ZM26.0337 10.6566C25.5248 10.6566 25.0159 10.5719 24.5495 10.4449L26.0337 5.4077L27.5177 10.4449C27.0513 10.5719 26.5637 10.6566 26.0337 10.6566Z" fill="white"/>
<path d="M57.708 3.14307H54.1674L50.1392 14.6566H53.2133L53.7857 12.7095C54.4642 12.9 55.1851 13.0269 55.9484 13.0269C56.6904 13.0269 57.4113 12.9211 58.1109 12.7095L58.6833 14.6566H61.7576L57.708 3.14307ZM55.9271 10.6565C55.4183 10.6565 54.9095 10.5719 54.443 10.4449L55.9271 5.40769L57.4113 10.4449C56.9448 10.5719 56.436 10.6565 55.9271 10.6565Z" fill="white"/>
<path d="M99.0943 3.14355H95.5535L91.5249 14.6571H94.5992L95.1722 12.71C95.8503 12.9005 96.5709 13.0274 97.3342 13.0274C98.0761 13.0274 98.7975 12.9216 99.4969 12.71L100.069 14.6571H103.143L99.0943 3.14355ZM97.3342 10.657C96.8258 10.657 96.3168 10.5724 95.8503 10.4454L97.3342 5.40818L98.8188 10.4454C98.331 10.5724 97.8433 10.657 97.3342 10.657Z" fill="white"/>
<path d="M4.80959 7.14297C4.59758 6.91016 4.27956 6.93132 4.13115 7.20647L0.675309 14.085C0.5481 14.3601 0.738914 14.6776 1.03573 14.6776H5.82727C5.97568 14.6776 6.12408 14.5929 6.18769 14.4448C7.24777 12.3071 6.61172 9.06896 4.80959 7.14297Z" fill="white"/>
<path d="M7.33313 0.878434C5.40379 3.92615 5.531 7.29134 6.80309 9.83112C8.07519 12.3709 9.05045 14.2968 9.11407 14.445C9.17768 14.5932 9.32607 14.6778 9.47446 14.6778H14.266C14.5628 14.6778 14.7749 14.3603 14.6264 14.0852C14.6264 14.0852 8.18119 1.21707 8.01157 0.899599C7.88436 0.603293 7.52394 0.582128 7.33313 0.878434Z" fill="white"/>
</g>
<defs>
<clipPath id="clip0_8083_361">
<rect width="115.333" height="14.6667" fill="white" transform="translate(0.269043 0.666504)"/>
</clipPath>
</defs>
</svg>
