<svg width="174" height="22" viewBox="0 0 174 22" fill="none" xmlns="http://www.w3.org/2000/svg">
<g clip-path="url(#clip0_7755_8655)">
<path d="M109.195 15.9061C109.195 12.8901 107.573 11.4614 103.057 10.4773C100.544 9.93759 99.9401 9.36614 99.9401 8.57246C99.9401 7.5883 100.831 7.14385 102.484 7.14385C104.488 7.14385 106.46 7.74703 108.336 8.60421V4.63583C107.032 3.96914 104.997 3.46118 102.611 3.46118C98.1274 3.46118 95.8059 5.39775 95.8059 8.60421C95.8059 11.1439 96.9825 13.1757 101.626 14.0647C104.393 14.6361 104.965 15.0806 104.965 16.0013C104.965 16.8902 104.393 17.4617 102.421 17.4617C100.163 17.4617 97.4596 16.6997 95.7104 15.6521V19.8109C97.1098 20.5093 98.9543 21.2713 102.389 21.2713C107.255 21.2713 109.195 19.1124 109.195 15.9061Z" fill="white"/>
<path d="M158.108 3.71533V21.0174H161.797V7.84246L163.355 11.3346L168.571 21.0174H173.214V3.71533H169.525V14.8903L168.125 11.6522L163.928 3.71533H158.108Z" fill="white"/>
<path d="M134.67 3.71509H130.631V20.9855H134.67V3.71509Z" fill="white"/>
<path d="M125.954 15.9061C125.954 12.8901 124.332 11.4614 119.817 10.4773C117.304 9.93759 116.699 9.36614 116.699 8.57246C116.699 7.5883 117.59 7.14385 119.244 7.14385C121.247 7.14385 123.219 7.74703 125.096 8.60421V4.63583C123.791 3.96914 121.756 3.46118 119.371 3.46118C114.887 3.46118 112.565 5.39775 112.565 8.60421C112.565 11.1439 113.742 13.1757 118.385 14.0647C121.152 14.6361 121.724 15.0806 121.724 16.0013C121.724 16.8902 121.152 17.4617 119.18 17.4617C116.922 17.4617 114.219 16.6997 112.47 15.6521V19.8109C113.87 20.5093 115.714 21.2713 119.149 21.2713C124.046 21.2713 125.954 19.1124 125.954 15.9061Z" fill="white"/>
<path d="M64.5142 3.71509V21.0172H72.7827L74.0866 17.271H68.553V3.71509H64.5142Z" fill="white"/>
<path d="M48.1362 3.71533V7.46148H52.6203V21.0175H56.6593V7.46148H61.4614V3.71533H48.1362Z" fill="white"/>
<path d="M42.2524 3.71509H36.9414L30.8989 21.0172H35.5103L36.3689 18.0965C37.3865 18.3823 38.4678 18.5727 39.6127 18.5727C40.7258 18.5727 41.8071 18.4139 42.8565 18.0965L43.7153 21.0172H48.3265L42.2524 3.71509ZM39.581 14.9853C38.8177 14.9853 38.0544 14.8583 37.3548 14.6678L39.581 7.11203L41.8071 14.6678C41.1075 14.8583 40.376 14.9853 39.581 14.9853Z" fill="white"/>
<path d="M87.0931 3.71509H81.7821L75.7397 20.9854H80.351L81.2096 18.0647C82.2274 18.3505 83.3087 18.5409 84.4535 18.5409C85.5666 18.5409 86.6479 18.3822 87.6974 18.0647L88.556 20.9854H93.1673L87.0931 3.71509ZM84.4217 14.9853C83.6584 14.9853 82.8952 14.8583 82.1955 14.6678L84.4217 7.11202L86.6479 14.6678C85.9482 14.8583 85.185 14.9853 84.4217 14.9853Z" fill="white"/>
<path d="M149.171 3.71533H143.86L137.817 20.9857H142.428L143.288 18.065C144.305 18.3507 145.386 18.5412 146.531 18.5412C147.644 18.5412 148.726 18.3824 149.775 18.065L150.633 20.9857H155.245L149.171 3.71533ZM146.531 14.9855C145.768 14.9855 145.005 14.8586 144.305 14.6681L146.531 7.11226L148.758 14.6681C148.026 14.8586 147.294 14.9855 146.531 14.9855Z" fill="white"/>
<path d="M7.74442 9.7147C7.4264 9.36548 6.94937 9.39722 6.72675 9.80994L1.54299 20.1277C1.35218 20.5404 1.6384 21.0166 2.08363 21.0166H9.27093C9.49355 21.0166 9.71616 20.8897 9.81157 20.6675C11.4017 17.461 10.4476 12.6037 7.74442 9.7147Z" fill="white"/>
<path d="M11.5292 0.317896C8.63523 4.88947 8.82604 9.93726 10.7342 13.7469C12.6423 17.5565 14.1052 20.4455 14.2006 20.6678C14.2961 20.89 14.5187 21.0169 14.7412 21.0169H21.9286C22.3737 21.0169 22.6919 20.5407 22.4692 20.128C22.4692 20.128 12.8013 0.825848 12.5469 0.349643C12.3561 -0.0948163 11.8154 -0.126564 11.5292 0.317896Z" fill="white"/>
</g>
<defs>
<clipPath id="clip0_7755_8655">
<rect width="173" height="22" fill="white" transform="translate(0.933105)"/>
</clipPath>
</defs>
</svg>
