<svg width="48" height="48" viewBox="0 0 48 48" fill="none" xmlns="http://www.w3.org/2000/svg">
<rect x="0.00390625" width="48" height="48" rx="16" fill="#38A169" fill-opacity="0.1"/>
<path fill-rule="evenodd" clip-rule="evenodd" d="M28.0039 13.002C28.5562 13.0021 29.0039 13.4498 29.0038 14.0021L29.0037 15.0037C29.4792 15.007 29.8948 15.0169 30.2556 15.0464C30.8177 15.0924 31.3344 15.191 31.8197 15.4383C32.5723 15.8219 33.1842 16.4338 33.5676 17.1865C33.8148 17.6719 33.9134 18.1886 33.9593 18.7507C34.0034 19.2919 34.0034 19.9562 34.0033 20.7612L34.0026 29.2438C34.0026 30.0488 34.0025 30.7131 33.9583 31.2543C33.9123 31.8164 33.8137 32.3331 33.5663 32.8184C33.1828 33.5711 32.5708 34.1829 31.8181 34.5664C31.3328 34.8136 30.8161 34.9121 30.254 34.958C29.7128 35.0022 29.0484 35.0021 28.2435 35.0021L19.7608 35.0014C18.9559 35.0013 18.2915 35.0013 17.7503 34.957C17.1882 34.911 16.6715 34.8124 16.1862 34.5651C15.4336 34.1816 14.8217 33.5696 14.4383 32.8169C14.191 32.3316 14.0925 31.8148 14.0466 31.2527C14.0025 30.7115 14.0025 30.0472 14.0026 29.2422L14.0033 20.7596C14.0033 19.9547 14.0034 19.2903 14.0476 18.7491C14.0936 18.187 14.1922 17.6703 14.4395 17.185C14.8231 16.4324 15.4351 15.8205 16.1878 15.4371C16.6731 15.1898 17.1898 15.0913 17.7519 15.0454C18.1127 15.016 18.5283 15.0062 19.0037 15.0029L19.0038 14.0013C19.0039 13.449 19.4516 13.0014 20.0039 13.0014C20.5562 13.0014 21.0039 13.4492 21.0038 14.0015L21.0037 15.0015L27.0037 15.002L27.0038 14.002C27.0039 13.4497 27.4516 13.002 28.0039 13.002ZM19.0036 17.0031L19.0035 18.0013C19.0035 18.5536 19.4511 19.0014 20.0034 19.0014C20.5557 19.0014 21.0035 18.5538 21.0035 18.0015L21.0036 17.0015L27.0036 17.002L27.0035 18.002C27.0035 18.5542 27.4511 19.002 28.0034 19.002C28.5557 19.0021 29.0035 18.5544 29.0035 18.0021L29.0036 17.0039C29.4491 17.007 29.799 17.0157 30.0925 17.0398C30.531 17.0756 30.7552 17.1406 30.9115 17.2203C31.2879 17.412 31.5938 17.718 31.7855 18.0944C31.8652 18.2508 31.9301 18.475 31.9659 18.9134C32.0026 19.3635 32.0033 19.9458 32.0033 20.8024L32.0033 21.0024L16.0033 21.0011L16.0033 20.8011C16.0034 19.9445 16.0042 19.3622 16.041 18.9121C16.0768 18.4737 16.1418 18.2495 16.2215 18.0931C16.4133 17.7168 16.7192 17.4109 17.0956 17.2192C17.252 17.1395 17.4762 17.0746 17.9146 17.0388C18.2082 17.0148 18.5581 17.0062 19.0036 17.0031Z" fill="#38A169"/>
</svg>
