<svg width="36" height="36" viewBox="0 0 36 36" fill="none" xmlns="http://www.w3.org/2000/svg">
<rect width="36" height="36" rx="12" fill="#38A169" fill-opacity="0.1"/>
<path fill-rule="evenodd" clip-rule="evenodd" d="M21.4545 9.00092C21.9064 9.00095 22.2727 9.36729 22.2727 9.81916L22.2726 10.6387C22.6616 10.6414 23.0016 10.6494 23.2968 10.6736C23.7567 10.7112 24.1795 10.7919 24.5765 10.9942C25.1923 11.3081 25.6929 11.8088 26.0067 12.4246C26.209 12.8217 26.2896 13.2445 26.3271 13.7044C26.3632 14.1472 26.3632 14.6907 26.3631 15.3493L26.3626 22.2897C26.3625 22.9483 26.3625 23.4918 26.3263 23.9346C26.2887 24.3945 26.208 24.8173 26.0056 25.2143C25.6918 25.8301 25.1911 26.3307 24.5753 26.6445C24.1782 26.8468 23.7554 26.9274 23.2955 26.9649C22.8527 27.001 22.3092 27.001 21.6506 27.0009L14.7102 27.0004C14.0516 27.0003 13.508 27.0003 13.0653 26.9641C12.6054 26.9265 12.1826 26.8458 11.7855 26.6434C11.1698 26.3296 10.6691 25.8289 10.3554 25.2131C10.1531 24.816 10.0725 24.3932 10.035 23.9333C9.99882 23.4905 9.99888 22.947 9.99894 22.2883L9.99949 15.348C9.99954 14.6894 9.99957 14.1458 10.0358 13.7031C10.0734 13.2432 10.1541 12.8204 10.3564 12.4233C10.6703 11.8076 11.171 11.3069 11.7868 10.9932C12.1839 10.7909 12.6067 10.7103 13.0666 10.6728C13.3618 10.6487 13.7018 10.6407 14.0908 10.638L14.0908 9.81851C14.0909 9.36664 14.4572 9.00036 14.9091 9.00039C15.361 9.00043 15.7272 9.36677 15.7272 9.81864L15.7271 10.6368L20.6362 10.6372L20.6363 9.81903C20.6363 9.36716 21.0027 9.00088 21.4545 9.00092ZM14.0906 12.2745L14.0906 13.0912C14.0905 13.5431 14.4568 13.9094 14.9087 13.9095C15.3606 13.9095 15.7269 13.5432 15.7269 13.0914L15.727 12.2732L20.6361 12.2736L20.636 13.0918C20.636 13.5436 21.0023 13.91 21.4542 13.91C21.906 13.91 22.2724 13.5438 22.2724 13.0919L22.2725 12.2752C22.637 12.2777 22.9232 12.2849 23.1634 12.3045C23.5221 12.3338 23.7056 12.387 23.8335 12.4522C24.1414 12.6091 24.3917 12.8594 24.5486 13.1674C24.6138 13.2953 24.6669 13.4788 24.6962 13.8375C24.7262 14.2057 24.7268 14.6822 24.7268 15.383L24.7268 15.5466L11.6358 15.5456L11.6359 15.3819C11.6359 14.6811 11.6366 14.2047 11.6667 13.8364C11.696 13.4777 11.7492 13.2943 11.8144 13.1663C11.9713 12.8585 12.2216 12.6081 12.5296 12.4513C12.6575 12.3861 12.841 12.333 13.1997 12.3037C13.4399 12.2841 13.7261 12.277 14.0906 12.2745Z" fill="#38A169"/>
</svg>
