<svg width="53" height="54" viewBox="0 0 53 54" fill="none" xmlns="http://www.w3.org/2000/svg">
<rect x="0.00537109" y="5.71198" width="48" height="48" rx="16" transform="rotate(-5.75458 0.00537109 5.71198)" fill="#38A169" fill-opacity="0.06"/>
<path fill-rule="evenodd" clip-rule="evenodd" d="M29.1682 15.839C29.7177 15.7836 30.2081 16.1842 30.2634 16.7337L30.3639 17.7302C30.8373 17.6858 31.2517 17.6539 31.6137 17.6471C32.1775 17.6364 32.7015 17.6827 33.2092 17.88C33.9965 18.1861 34.6667 18.7336 35.1237 19.444C35.4184 19.9021 35.5683 20.4063 35.6704 20.961C35.7686 21.495 35.8352 22.156 35.9159 22.9569L36.7665 31.3968C36.8472 32.1977 36.9138 32.8587 36.9241 33.4016C36.9347 33.9655 36.8885 34.4895 36.6911 34.9972C36.385 35.7845 35.8375 36.4547 35.1271 36.9117C34.669 37.2064 34.1648 37.3563 33.6102 37.4583C33.0761 37.5566 32.4151 37.6232 31.6142 37.7039L23.1743 38.5544C22.3734 38.6352 21.7124 38.7018 21.1695 38.712C20.6056 38.7227 20.0817 38.6765 19.574 38.4791C18.7867 38.173 18.1165 37.6255 17.6594 36.9151C17.3647 36.457 17.2149 35.9528 17.1128 35.3981C17.0145 34.8641 16.9479 34.2031 16.8672 33.4022L16.0167 24.9623C15.936 24.1614 15.8694 23.5004 15.8591 22.9575C15.8484 22.3936 15.8947 21.8696 16.0921 21.3619C16.3982 20.5746 16.9456 19.9044 17.6561 19.4474C18.1141 19.1527 18.6184 19.0028 19.173 18.9008C19.5291 18.8353 19.9415 18.7838 20.4143 18.7329L20.3138 17.7363C20.2585 17.1868 20.659 16.6965 21.2085 16.6411C21.758 16.5857 22.2484 16.9863 22.3038 17.5358L22.404 18.5308L28.3738 17.9291L28.2735 16.9342C28.2181 16.3847 28.6187 15.8943 29.1682 15.839ZM20.6148 20.723L20.7149 21.7162C20.7703 22.2657 21.2606 22.6662 21.8101 22.6109C22.3596 22.5555 22.7602 22.0651 22.7048 21.5156L22.6046 20.5207L28.5743 19.9191L28.6746 20.914C28.73 21.4635 29.2203 21.8641 29.7698 21.8087C30.3193 21.7533 30.7199 21.263 30.6645 20.7135L30.5644 19.7203C31.008 19.6787 31.357 19.6523 31.6515 19.6467C32.0913 19.6384 32.3209 19.6805 32.4845 19.7441C32.8781 19.8972 33.2132 20.1709 33.4417 20.5261C33.5367 20.6737 33.6238 20.8903 33.7034 21.3229C33.7851 21.767 33.8443 22.3463 33.9301 23.1986L33.9502 23.3976L18.0308 25.0019L18.0108 24.8029C17.9249 23.9506 17.8673 23.3712 17.8587 22.9197C17.8504 22.4799 17.8925 22.2503 17.9561 22.0867C18.1092 21.693 18.3829 21.3579 18.7381 21.1294C18.8858 21.0344 19.1023 20.9474 19.5349 20.8678C19.8246 20.8145 20.1719 20.7708 20.6148 20.723Z" fill="#38A169"/>
</svg>
