<svg width="316" height="105" viewBox="0 0 316 105" fill="none" xmlns="http://www.w3.org/2000/svg">
<path d="M240.45 78V68.8403H243.757C246.474 68.8403 248.067 70.5161 248.067 73.3916V73.4043C248.067 76.3115 246.487 78 243.757 78H240.45ZM241.872 76.7749H243.598C245.515 76.7749 246.62 75.5498 246.62 73.4233V73.4106C246.62 71.3032 245.496 70.0654 243.598 70.0654H241.872V76.7749ZM250.605 69.875C250.129 69.875 249.742 69.4878 249.742 69.0181C249.742 68.542 250.129 68.1548 250.605 68.1548C251.075 68.1548 251.468 68.542 251.468 69.0181C251.468 69.4878 251.075 69.875 250.605 69.875ZM249.913 78V71.1064H251.284V78H249.913ZM255.847 78.1333C254.184 78.1333 253.13 77.3525 252.997 76.1973V76.1909H254.374L254.38 76.1973C254.552 76.7178 255.053 77.0669 255.872 77.0669C256.723 77.0669 257.313 76.6797 257.313 76.1147V76.1021C257.313 75.6704 256.989 75.3784 256.189 75.1943L255.091 74.9404C253.79 74.6421 253.187 74.0518 253.187 73.0425V73.0361C253.187 71.8364 254.304 70.9731 255.866 70.9731C257.44 70.9731 258.449 71.7603 258.57 72.8838V72.8901H257.256V72.8774C257.123 72.395 256.634 72.0332 255.859 72.0332C255.104 72.0332 254.558 72.4077 254.558 72.96V72.9727C254.558 73.4043 254.875 73.6709 255.65 73.855L256.742 74.1025C258.068 74.4136 258.703 74.9785 258.703 75.9751V75.9878C258.703 77.2637 257.484 78.1333 255.847 78.1333ZM262.948 78.0444C261.431 78.0444 260.809 77.5112 260.809 76.1846V72.1919H259.73V71.1064H260.809V69.3672H262.212V71.1064H263.691V72.1919H262.212V75.8545C262.212 76.5972 262.491 76.9019 263.17 76.9019C263.38 76.9019 263.501 76.8955 263.691 76.8765V77.9746C263.469 78.0127 263.215 78.0444 262.948 78.0444ZM265.346 78V71.1064H266.724V72.1475H266.825C267.073 71.4175 267.714 70.9858 268.634 70.9858C268.857 70.9858 269.098 71.0176 269.237 71.0493V72.3188C268.99 72.2681 268.755 72.2363 268.495 72.2363C267.441 72.2363 266.724 72.8838 266.724 73.8804V78H265.346ZM272.442 78.1143C271.128 78.1143 270.156 77.3145 270.156 76.064V76.0513C270.156 74.8198 271.083 74.1025 272.727 74.001L274.593 73.8931V73.2837C274.593 72.5283 274.117 72.1094 273.184 72.1094C272.423 72.1094 271.921 72.3887 271.756 72.8774L271.75 72.9028H270.423L270.429 72.8584C270.594 71.7285 271.68 70.9731 273.248 70.9731C274.981 70.9731 275.958 71.8364 275.958 73.2837V78H274.593V77.0225H274.486C274.079 77.7207 273.356 78.1143 272.442 78.1143ZM271.528 76.0068C271.528 76.6416 272.067 77.0161 272.81 77.0161C273.838 77.0161 274.593 76.3433 274.593 75.4546V74.8643L272.911 74.9722C271.959 75.0293 271.528 75.3721 271.528 75.9941V76.0068ZM280.851 78.1333C278.839 78.1333 277.607 76.7622 277.607 74.5342V74.5215C277.607 72.3379 278.832 70.9731 280.845 70.9731C282.577 70.9731 283.612 71.9507 283.803 73.29V73.3218L282.482 73.3281L282.476 73.3091C282.324 72.6299 281.765 72.1221 280.851 72.1221C279.702 72.1221 279.01 73.0361 279.01 74.5215V74.5342C279.01 76.0576 279.715 76.9844 280.851 76.9844C281.714 76.9844 282.247 76.5908 282.47 75.8481L282.482 75.8164H283.803L283.79 75.8735C283.542 77.2129 282.558 78.1333 280.851 78.1333ZM288.118 78.0444C286.6 78.0444 285.978 77.5112 285.978 76.1846V72.1919H284.899V71.1064H285.978V69.3672H287.381V71.1064H288.86V72.1919H287.381V75.8545C287.381 76.5972 287.661 76.9019 288.34 76.9019C288.549 76.9019 288.67 76.8955 288.86 76.8765V77.9746C288.638 78.0127 288.384 78.0444 288.118 78.0444ZM291.233 69.875C290.757 69.875 290.37 69.4878 290.37 69.0181C290.37 68.542 290.757 68.1548 291.233 68.1548C291.703 68.1548 292.096 68.542 292.096 69.0181C292.096 69.4878 291.703 69.875 291.233 69.875ZM290.541 78V71.1064H291.912V78H290.541ZM296.887 78.1333C294.862 78.1333 293.625 76.7812 293.625 74.5596V74.5469C293.625 72.3315 294.869 70.9731 296.887 70.9731C298.899 70.9731 300.144 72.3252 300.144 74.5469V74.5596C300.144 76.7812 298.906 78.1333 296.887 78.1333ZM296.887 76.9844C298.068 76.9844 298.741 76.083 298.741 74.5596V74.5469C298.741 73.0171 298.068 72.1221 296.887 72.1221C295.7 72.1221 295.034 73.0171 295.034 74.5469V74.5596C295.034 76.0894 295.7 76.9844 296.887 76.9844ZM301.837 78V71.1064H303.214V72.1538H303.316C303.652 71.4175 304.313 70.9731 305.316 70.9731C306.858 70.9731 307.709 71.8936 307.709 73.5376V78H306.338V73.8613C306.338 72.7188 305.861 72.1538 304.852 72.1538C303.843 72.1538 303.214 72.8457 303.214 73.9565V78H301.837ZM312.189 78.1333C310.526 78.1333 309.472 77.3525 309.339 76.1973V76.1909H310.716L310.722 76.1973C310.894 76.7178 311.395 77.0669 312.214 77.0669C313.065 77.0669 313.655 76.6797 313.655 76.1147V76.1021C313.655 75.6704 313.331 75.3784 312.531 75.1943L311.433 74.9404C310.132 74.6421 309.529 74.0518 309.529 73.0425V73.0361C309.529 71.8364 310.646 70.9731 312.208 70.9731C313.782 70.9731 314.791 71.7603 314.912 72.8838V72.8901H313.598V72.8774C313.465 72.395 312.976 72.0332 312.201 72.0332C311.446 72.0332 310.9 72.4077 310.9 72.96V72.9727C310.9 73.4043 311.217 73.6709 311.992 73.855L313.084 74.1025C314.41 74.4136 315.045 74.9785 315.045 75.9751V75.9878C315.045 77.2637 313.826 78.1333 312.189 78.1333Z" fill="#A0AEC0"/>
<path d="M268.043 94V86.1099H267.942L265.612 87.7983V86.5923L268.05 84.8403H269.186V94H268.043ZM271.914 87.4175C271.914 86.605 272.189 85.9364 272.739 85.4116C273.294 84.8869 273.996 84.6245 274.847 84.6245C275.668 84.6245 276.355 84.8721 276.91 85.3672C277.468 85.8581 277.748 86.4674 277.748 87.1953C277.748 87.6735 277.612 88.1432 277.341 88.6045C277.07 89.0658 276.561 89.6984 275.812 90.5024L273.609 92.8701V92.9717H277.9V94H271.971V93.2129L275.139 89.7534C275.727 89.1144 276.118 88.6278 276.313 88.2935C276.508 87.9591 276.605 87.6079 276.605 87.2397C276.605 86.7827 276.431 86.3997 276.084 86.0908C275.742 85.7777 275.319 85.6211 274.815 85.6211C274.278 85.6211 273.844 85.7861 273.514 86.1162C273.184 86.4463 273.019 86.88 273.019 87.4175V87.4238H271.914V87.4175ZM279.885 94V87.1572H280.926V88.2363H281.028C281.184 87.8555 281.428 87.5614 281.758 87.354C282.088 87.1424 282.482 87.0366 282.939 87.0366C283.387 87.0366 283.772 87.1445 284.094 87.3604C284.42 87.5762 284.665 87.8682 284.83 88.2363H284.932C285.118 87.8682 285.397 87.5762 285.77 87.3604C286.142 87.1445 286.561 87.0366 287.026 87.0366C287.725 87.0366 288.262 87.2313 288.639 87.6206C289.015 88.0057 289.204 88.5558 289.204 89.271V94H288.112V89.5249C288.112 88.522 287.632 88.0205 286.671 88.0205C286.205 88.0205 285.825 88.1729 285.528 88.4775C285.232 88.7822 285.084 89.1567 285.084 89.6011V94H283.992V89.3535C283.992 88.9473 283.861 88.6235 283.599 88.3823C283.341 88.1411 282.996 88.0205 282.564 88.0205C282.12 88.0205 281.743 88.1898 281.434 88.5283C281.129 88.8669 280.977 89.2773 280.977 89.7598V94H279.885Z" fill="#718096"/>
<path d="M110.06 78.2222C107.515 78.2222 105.928 76.3813 105.928 73.4297V73.417C105.928 70.459 107.508 68.6182 110.054 68.6182C112.072 68.6182 113.621 69.894 113.862 71.7158L113.856 71.7476H112.447V71.7285C112.18 70.605 111.26 69.875 110.054 69.875C108.41 69.875 107.382 71.2397 107.382 73.417V73.4297C107.382 75.6006 108.41 76.9653 110.06 76.9653C111.273 76.9653 112.18 76.3179 112.441 75.2832L112.453 75.2578H113.862V75.2959C113.596 77.0542 112.104 78.2222 110.06 78.2222ZM118.546 78.1333C116.521 78.1333 115.283 76.7812 115.283 74.5596V74.5469C115.283 72.3315 116.527 70.9731 118.546 70.9731C120.558 70.9731 121.802 72.3252 121.802 74.5469V74.5596C121.802 76.7812 120.564 78.1333 118.546 78.1333ZM118.546 76.9844C119.726 76.9844 120.399 76.083 120.399 74.5596V74.5469C120.399 73.0171 119.726 72.1221 118.546 72.1221C117.359 72.1221 116.692 73.0171 116.692 74.5469V74.5596C116.692 76.0894 117.359 76.9844 118.546 76.9844ZM123.559 78V68.4023H124.936V78H123.559ZM127.1 78V68.4023H128.477V78H127.1ZM132.468 78.1143C131.154 78.1143 130.183 77.3145 130.183 76.064V76.0513C130.183 74.8198 131.11 74.1025 132.754 74.001L134.62 73.8931V73.2837C134.62 72.5283 134.144 72.1094 133.211 72.1094C132.449 72.1094 131.948 72.3887 131.783 72.8774L131.776 72.9028H130.45L130.456 72.8584C130.621 71.7285 131.707 70.9731 133.274 70.9731C135.007 70.9731 135.985 71.8364 135.985 73.2837V78H134.62V77.0225H134.512C134.106 77.7207 133.382 78.1143 132.468 78.1143ZM131.554 76.0068C131.554 76.6416 132.094 77.0161 132.836 77.0161C133.865 77.0161 134.62 76.3433 134.62 75.4546V74.8643L132.938 74.9722C131.986 75.0293 131.554 75.3721 131.554 75.9941V76.0068ZM141.639 78.1143C140.674 78.1143 139.919 77.6699 139.519 76.9146H139.418V78H138.04V68.4023H139.418V72.1982H139.519C139.887 71.4556 140.693 70.9858 141.639 70.9858C143.391 70.9858 144.496 72.3633 144.496 74.5469V74.5596C144.496 76.7241 143.379 78.1143 141.639 78.1143ZM141.252 76.9399C142.401 76.9399 143.093 76.0386 143.093 74.5596V74.5469C143.093 73.0679 142.401 72.1665 141.252 72.1665C140.103 72.1665 139.392 73.0742 139.392 74.5469V74.5596C139.392 76.0322 140.103 76.9399 141.252 76.9399ZM149.109 78.1333C147.084 78.1333 145.846 76.7812 145.846 74.5596V74.5469C145.846 72.3315 147.091 70.9731 149.109 70.9731C151.121 70.9731 152.365 72.3252 152.365 74.5469V74.5596C152.365 76.7812 151.128 78.1333 149.109 78.1333ZM149.109 76.9844C150.29 76.9844 150.963 76.083 150.963 74.5596V74.5469C150.963 73.0171 150.29 72.1221 149.109 72.1221C147.922 72.1221 147.256 73.0171 147.256 74.5469V74.5596C147.256 76.0894 147.922 76.9844 149.109 76.9844ZM154.059 78V71.1064H155.436V72.1475H155.538C155.785 71.4175 156.427 70.9858 157.347 70.9858C157.569 70.9858 157.81 71.0176 157.95 71.0493V72.3188C157.702 72.2681 157.468 72.2363 157.207 72.2363C156.154 72.2363 155.436 72.8838 155.436 73.8804V78H154.059ZM161.154 78.1143C159.84 78.1143 158.869 77.3145 158.869 76.064V76.0513C158.869 74.8198 159.796 74.1025 161.44 74.001L163.306 73.8931V73.2837C163.306 72.5283 162.83 72.1094 161.897 72.1094C161.135 72.1094 160.634 72.3887 160.469 72.8774L160.462 72.9028H159.136L159.142 72.8584C159.307 71.7285 160.392 70.9731 161.96 70.9731C163.693 70.9731 164.671 71.8364 164.671 73.2837V78H163.306V77.0225H163.198C162.792 77.7207 162.068 78.1143 161.154 78.1143ZM160.24 76.0068C160.24 76.6416 160.78 77.0161 161.522 77.0161C162.551 77.0161 163.306 76.3433 163.306 75.4546V74.8643L161.624 74.9722C160.672 75.0293 160.24 75.3721 160.24 75.9941V76.0068ZM169.265 78.0444C167.748 78.0444 167.126 77.5112 167.126 76.1846V72.1919H166.047V71.1064H167.126V69.3672H168.529V71.1064H170.008V72.1919H168.529V75.8545C168.529 76.5972 168.808 76.9019 169.487 76.9019C169.697 76.9019 169.817 76.8955 170.008 76.8765V77.9746C169.786 78.0127 169.532 78.0444 169.265 78.0444ZM172.38 69.875C171.904 69.875 171.517 69.4878 171.517 69.0181C171.517 68.542 171.904 68.1548 172.38 68.1548C172.85 68.1548 173.244 68.542 173.244 69.0181C173.244 69.4878 172.85 69.875 172.38 69.875ZM171.689 78V71.1064H173.06V78H171.689ZM178.035 78.1333C176.01 78.1333 174.772 76.7812 174.772 74.5596V74.5469C174.772 72.3315 176.016 70.9731 178.035 70.9731C180.047 70.9731 181.291 72.3252 181.291 74.5469V74.5596C181.291 76.7812 180.053 78.1333 178.035 78.1333ZM178.035 76.9844C179.215 76.9844 179.888 76.083 179.888 74.5596V74.5469C179.888 73.0171 179.215 72.1221 178.035 72.1221C176.848 72.1221 176.181 73.0171 176.181 74.5469V74.5596C176.181 76.0894 176.848 76.9844 178.035 76.9844ZM182.985 78V71.1064H184.362V72.1538H184.464C184.8 71.4175 185.46 70.9731 186.463 70.9731C188.006 70.9731 188.856 71.8936 188.856 73.5376V78H187.485V73.8613C187.485 72.7188 187.009 72.1538 186 72.1538C184.99 72.1538 184.362 72.8457 184.362 73.9565V78H182.985ZM193.336 78.1333C191.673 78.1333 190.619 77.3525 190.486 76.1973V76.1909H191.864L191.87 76.1973C192.041 76.7178 192.543 77.0669 193.362 77.0669C194.212 77.0669 194.803 76.6797 194.803 76.1147V76.1021C194.803 75.6704 194.479 75.3784 193.679 75.1943L192.581 74.9404C191.28 74.6421 190.677 74.0518 190.677 73.0425V73.0361C190.677 71.8364 191.794 70.9731 193.355 70.9731C194.929 70.9731 195.939 71.7603 196.059 72.8838V72.8901H194.745V72.8774C194.612 72.395 194.123 72.0332 193.349 72.0332C192.594 72.0332 192.048 72.4077 192.048 72.96V72.9727C192.048 73.4043 192.365 73.6709 193.139 73.855L194.231 74.1025C195.558 74.4136 196.193 74.9785 196.193 75.9751V75.9878C196.193 77.2637 194.974 78.1333 193.336 78.1333Z" fill="#A0AEC0"/>
<path d="M147.694 93.4731C147.08 93.9683 146.289 94.2158 145.32 94.2158C144.35 94.2158 143.557 93.9683 142.939 93.4731C142.326 92.9738 142.019 92.3327 142.019 91.5498C142.019 90.9531 142.192 90.4411 142.539 90.0137C142.886 89.5863 143.348 89.3197 143.923 89.2139V89.1123C143.458 88.9854 143.085 88.7378 142.806 88.3696C142.531 88.0015 142.393 87.5677 142.393 87.0684C142.393 86.3532 142.666 85.7671 143.212 85.3101C143.762 84.853 144.465 84.6245 145.32 84.6245C146.174 84.6245 146.875 84.853 147.421 85.3101C147.971 85.7671 148.246 86.3532 148.246 87.0684C148.246 87.5719 148.108 88.0057 147.833 88.3696C147.562 88.7336 147.19 88.9811 146.716 89.1123V89.2139C147.292 89.3197 147.753 89.5863 148.1 90.0137C148.447 90.4411 148.62 90.9531 148.62 91.5498C148.62 92.3327 148.311 92.9738 147.694 93.4731ZM143.771 92.7495C144.168 93.0754 144.685 93.2383 145.32 93.2383C145.954 93.2383 146.471 93.0754 146.868 92.7495C147.266 92.4194 147.465 91.992 147.465 91.4673C147.465 90.9425 147.266 90.5173 146.868 90.1914C146.471 89.8613 145.954 89.6963 145.32 89.6963C144.685 89.6963 144.168 89.8613 143.771 90.1914C143.373 90.5173 143.174 90.9425 143.174 91.4673C143.174 91.992 143.373 92.4194 143.771 92.7495ZM144.012 88.3062C144.342 88.5897 144.778 88.7314 145.32 88.7314C145.861 88.7314 146.297 88.5897 146.627 88.3062C146.957 88.0184 147.122 87.6418 147.122 87.1763C147.122 86.7023 146.957 86.3215 146.627 86.0337C146.297 85.7459 145.861 85.6021 145.32 85.6021C144.778 85.6021 144.342 85.7459 144.012 86.0337C143.682 86.3215 143.517 86.7023 143.517 87.1763C143.517 87.6418 143.682 88.0184 144.012 88.3062ZM150.549 94V87.1572H151.59V88.2363H151.691C151.848 87.8555 152.091 87.5614 152.421 87.354C152.751 87.1424 153.145 87.0366 153.602 87.0366C154.05 87.0366 154.436 87.1445 154.757 87.3604C155.083 87.5762 155.328 87.8682 155.493 88.2363H155.595C155.781 87.8682 156.061 87.5762 156.433 87.3604C156.805 87.1445 157.224 87.0366 157.69 87.0366C158.388 87.0366 158.925 87.2313 159.302 87.6206C159.679 88.0057 159.867 88.5558 159.867 89.271V94H158.775V89.5249C158.775 88.522 158.295 88.0205 157.334 88.0205C156.869 88.0205 156.488 88.1729 156.192 88.4775C155.895 88.7822 155.747 89.1567 155.747 89.6011V94H154.656V89.3535C154.656 88.9473 154.524 88.6235 154.262 88.3823C154.004 88.1411 153.659 88.0205 153.227 88.0205C152.783 88.0205 152.406 88.1898 152.097 88.5283C151.793 88.8669 151.64 89.2773 151.64 89.7598V94H150.549Z" fill="#718096"/>
<path d="M6.24837 78V68.8403H11.9676V70.0654H7.67024V72.9663H11.6058V74.166H7.67024V78H6.24837ZM16.6254 78.1333C14.6005 78.1333 13.3627 76.7812 13.3627 74.5596V74.5469C13.3627 72.3315 14.6068 70.9731 16.6254 70.9731C18.6376 70.9731 19.8818 72.3252 19.8818 74.5469V74.5596C19.8818 76.7812 18.644 78.1333 16.6254 78.1333ZM16.6254 76.9844C17.8061 76.9844 18.4789 76.083 18.4789 74.5596V74.5469C18.4789 73.0171 17.8061 72.1221 16.6254 72.1221C15.4384 72.1221 14.7719 73.0171 14.7719 74.5469V74.5596C14.7719 76.0894 15.4384 76.9844 16.6254 76.9844ZM24.4761 78.1333C22.4639 78.1333 21.2324 76.7622 21.2324 74.5342V74.5215C21.2324 72.3379 22.4575 70.9731 24.4697 70.9731C26.2026 70.9731 27.2373 71.9507 27.4277 73.29V73.3218L26.1074 73.3281L26.1011 73.3091C25.9487 72.6299 25.3901 72.1221 24.4761 72.1221C23.3271 72.1221 22.6353 73.0361 22.6353 74.5215V74.5342C22.6353 76.0576 23.3398 76.9844 24.4761 76.9844C25.3394 76.9844 25.8726 76.5908 26.0947 75.8481L26.1074 75.8164H27.4277L27.415 75.8735C27.1675 77.2129 26.1836 78.1333 24.4761 78.1333ZM31.3365 78.1333C29.7813 78.1333 28.9752 77.2002 28.9752 75.5688V71.1064H30.3526V75.2451C30.3526 76.3877 30.7716 76.9526 31.7808 76.9526C32.8853 76.9526 33.4757 76.2607 33.4757 75.1499V71.1064H34.8468V78H33.4757V76.959H33.3678C33.0377 77.7017 32.3394 78.1333 31.3365 78.1333ZM39.3903 78.1333C37.7272 78.1333 36.6735 77.3525 36.5402 76.1973V76.1909H37.9176L37.924 76.1973C38.0954 76.7178 38.5968 77.0669 39.4157 77.0669C40.2663 77.0669 40.8566 76.6797 40.8566 76.1147V76.1021C40.8566 75.6704 40.5329 75.3784 39.7331 75.1943L38.6349 74.9404C37.3337 74.6421 36.7306 74.0518 36.7306 73.0425V73.0361C36.7306 71.8364 37.8478 70.9731 39.4093 70.9731C40.9836 70.9731 41.9928 71.7603 42.1134 72.8838V72.8901H40.7995V72.8774C40.6662 72.395 40.1774 72.0332 39.403 72.0332C38.6476 72.0332 38.1017 72.4077 38.1017 72.96V72.9727C38.1017 73.4043 38.4191 73.6709 39.1935 73.855L40.2853 74.1025C41.612 74.4136 42.2467 74.9785 42.2467 75.9751V75.9878C42.2467 77.2637 41.028 78.1333 39.3903 78.1333Z" fill="#A0AEC0"/>
<path d="M1.30423 87.4175C1.30423 86.605 1.5793 85.9364 2.12943 85.4116C2.68379 84.8869 3.38626 84.6245 4.23685 84.6245C5.05781 84.6245 5.74548 84.8721 6.29984 85.3672C6.85843 85.8581 7.13773 86.4674 7.13773 87.1953C7.13773 87.6735 7.00231 88.1432 6.73148 88.6045C6.46065 89.0658 5.95072 89.6984 5.20169 90.5024L2.99906 92.8701V92.9717H7.29007V94H1.36136V93.2129L4.52884 89.7534C5.11706 89.1144 5.5085 88.6278 5.70316 88.2935C5.89782 87.9591 5.99515 87.6079 5.99515 87.2397C5.99515 86.7827 5.82165 86.3997 5.47464 86.0908C5.13187 85.7777 4.70869 85.6211 4.20511 85.6211C3.66768 85.6211 3.23392 85.7861 2.90384 86.1162C2.57376 86.4463 2.40873 86.88 2.40873 87.4175V87.4238H1.30423V87.4175ZM9.33899 94V84.4404H10.4308V88.2363H10.5323C10.7058 87.8512 10.9703 87.555 11.3258 87.3477C11.6855 87.1403 12.1235 87.0366 12.6398 87.0366C13.3676 87.0366 13.9432 87.2609 14.3663 87.7095C14.7895 88.1538 15.0011 88.7738 15.0011 89.5693V94H13.9093V89.8359C13.9093 88.6257 13.3824 88.0205 12.3287 88.0205C11.7278 88.0205 11.2602 88.1961 10.9259 88.5474C10.5958 88.8944 10.4308 89.362 10.4308 89.9502V94H9.33899ZM24.9388 94V92.1021H20.4764V91.061C21.3142 89.5715 22.6219 87.4979 24.3992 84.8403H26.0559V91.0801H27.3572V92.1021H26.0559V94H24.9388ZM21.6443 91.0103V91.0864H24.9451V85.9004H24.8689C23.8787 87.3392 22.8038 89.0425 21.6443 91.0103ZM31.0438 89.7788V88.8013H32.1547C32.6752 88.8013 33.1005 88.6489 33.4305 88.3442C33.7649 88.0396 33.932 87.6502 33.932 87.1763C33.932 86.7108 33.7712 86.3363 33.4496 86.0527C33.128 85.765 32.7027 85.6211 32.1737 85.6211C31.6447 85.6211 31.2173 85.7607 30.8915 86.04C30.5656 86.3151 30.3794 86.6981 30.3329 87.189H29.222C29.2813 86.3934 29.5775 85.7671 30.1107 85.3101C30.6439 84.853 31.3464 84.6245 32.2181 84.6245C32.7429 84.6245 33.2253 84.7324 33.6654 84.9482C34.1097 85.1598 34.4589 85.4497 34.7128 85.8179C34.9667 86.186 35.0936 86.5881 35.0936 87.0239C35.0936 87.5698 34.9519 88.0311 34.6683 88.4077C34.3848 88.7843 33.9913 89.034 33.4877 89.1567V89.2583C34.1097 89.3387 34.5985 89.582 34.954 89.9883C35.3095 90.3903 35.4872 90.9045 35.4872 91.5308C35.4872 92.284 35.1761 92.9209 34.5541 93.4414C33.932 93.9577 33.1682 94.2158 32.2626 94.2158C31.3316 94.2158 30.572 93.9788 29.9838 93.5049C29.3956 93.0267 29.0803 92.3962 29.038 91.6133H30.1425C30.1932 92.0999 30.4091 92.4893 30.7899 92.7812C31.1708 93.0732 31.6574 93.2192 32.2499 93.2192C32.8508 93.2192 33.3438 93.0584 33.7289 92.7368C34.1182 92.4152 34.3129 92.0026 34.3129 91.499C34.3129 90.9701 34.1246 90.5511 33.7479 90.2422C33.3713 89.9333 32.8571 89.7788 32.2054 89.7788H31.0438ZM37.3774 94V87.1572H38.4184V88.2363H38.52C38.6766 87.8555 38.9199 87.5614 39.25 87.354C39.58 87.1424 39.9736 87.0366 40.4306 87.0366C40.8792 87.0366 41.2643 87.1445 41.5859 87.3604C41.9117 87.5762 42.1572 87.8682 42.3222 88.2363H42.4238C42.61 87.8682 42.8893 87.5762 43.2617 87.3604C43.6341 87.1445 44.053 87.0366 44.5185 87.0366C45.2168 87.0366 45.7542 87.2313 46.1308 87.6206C46.5075 88.0057 46.6958 88.5558 46.6958 89.271V94H45.604V89.5249C45.604 88.522 45.1237 88.0205 44.1631 88.0205C43.6976 88.0205 43.3167 88.1729 43.0205 88.4775C42.7242 88.7822 42.5761 89.1567 42.5761 89.6011V94H41.4843V89.3535C41.4843 88.9473 41.3532 88.6235 41.0908 88.3823C40.8326 88.1411 40.4878 88.0205 40.0561 88.0205C39.6118 88.0205 39.2352 88.1898 38.9262 88.5283C38.6215 88.8669 38.4692 89.2773 38.4692 89.7598V94H37.3774Z" fill="#718096"/>
<path d="M273.451 37V35.1021H268.989V34.061C269.827 32.5715 271.134 30.4979 272.912 27.8403H274.568V34.0801H275.87V35.1021H274.568V37H273.451ZM270.157 34.0103V34.0864H273.457V28.9004H273.381C272.391 30.3392 271.316 32.0425 270.157 34.0103ZM280.4 28.2974C280.764 28.7078 280.946 29.2368 280.946 29.8843C280.946 30.5317 280.764 31.0628 280.4 31.4775C280.036 31.888 279.568 32.0933 278.997 32.0933C278.426 32.0933 277.956 31.888 277.588 31.4775C277.224 31.0628 277.042 30.5317 277.042 29.8843C277.042 29.241 277.224 28.7142 277.588 28.3037C277.956 27.889 278.426 27.6816 278.997 27.6816C279.568 27.6816 280.036 27.8869 280.4 28.2974ZM278.997 31.2808C279.276 31.2808 279.501 31.1538 279.67 30.8999C279.843 30.6418 279.93 30.3032 279.93 29.8843C279.93 29.4569 279.846 29.1183 279.676 28.8687C279.511 28.619 279.285 28.4941 278.997 28.4941C278.714 28.4941 278.485 28.6211 278.312 28.875C278.142 29.1247 278.058 29.4611 278.058 29.8843C278.058 30.3075 278.142 30.646 278.312 30.8999C278.485 31.1538 278.714 31.2808 278.997 31.2808ZM278.896 37H277.728L281.225 32.2266L284.437 27.8403H285.592L282.038 32.7026L278.896 37ZM285.7 33.3628C286.064 33.7733 286.246 34.3022 286.246 34.9497C286.246 35.5972 286.064 36.1283 285.7 36.543C285.336 36.9535 284.869 37.1587 284.297 37.1587C283.726 37.1587 283.256 36.9535 282.888 36.543C282.524 36.1283 282.342 35.5972 282.342 34.9497C282.342 34.3065 282.524 33.7796 282.888 33.3691C283.256 32.9544 283.726 32.7471 284.297 32.7471C284.869 32.7471 285.336 32.9523 285.7 33.3628ZM284.297 36.3462C284.577 36.3462 284.801 36.2192 284.97 35.9653C285.144 35.7072 285.231 35.3687 285.231 34.9497C285.231 34.5223 285.146 34.1838 284.977 33.9341C284.812 33.6844 284.585 33.5596 284.297 33.5596C284.014 33.5596 283.785 33.6865 283.612 33.9404C283.443 34.1901 283.358 34.5265 283.358 34.9497C283.358 35.3729 283.443 35.7114 283.612 35.9653C283.785 36.2192 284.014 36.3462 284.297 36.3462Z" fill="#718096"/>
<path d="M282.852 11.208C283.212 9.93207 284.543 9.17766 285.777 9.66236C290.55 11.5378 294.619 14.9033 297.358 19.2893C300.522 24.3569 301.682 30.4223 300.612 36.2998C299.541 42.1773 296.317 47.4444 291.57 51.0712C286.823 54.6981 280.893 56.424 274.941 55.9115C268.989 55.3991 263.442 52.6851 259.385 48.3002C255.327 43.9153 253.051 38.1747 253.001 32.2007C252.951 26.2268 255.131 20.4489 259.114 15.9967C262.562 12.1434 267.147 9.52286 272.17 8.49091C273.469 8.22421 274.652 9.1951 274.787 10.5136C274.923 11.8321 273.959 12.9961 272.667 13.2952C268.832 14.1834 265.342 16.235 262.692 19.1974C259.505 22.7591 257.761 27.3814 257.801 32.1606C257.841 36.9398 259.662 41.5322 262.908 45.0402C266.154 48.5481 270.591 50.7193 275.353 51.1292C280.115 51.5392 284.858 50.1585 288.656 47.257C292.454 44.3555 295.033 40.1419 295.889 35.4398C296.746 30.7378 295.817 25.8855 293.286 21.8314C291.181 18.4596 288.093 15.8417 284.466 14.311C283.245 13.7956 282.493 12.4839 282.852 11.208Z" fill="#171923"/>
<path d="M276.245 10.4132C276.199 9.08852 277.237 7.9646 278.56 8.05075C278.97 8.07744 279.379 8.11464 279.787 8.16232C281.103 8.31621 281.922 9.60906 281.637 10.9036C281.353 12.1982 280.059 12.999 278.739 12.8789C277.419 12.7589 276.291 11.7379 276.245 10.4132Z" fill="#E94646" fill-opacity="0.6"/>
<path d="M143.625 37L147.738 28.9512V28.8623H142.838V27.8403H148.9V28.9004L144.825 37H143.625ZM153.424 28.2974C153.788 28.7078 153.97 29.2368 153.97 29.8843C153.97 30.5317 153.788 31.0628 153.424 31.4775C153.06 31.888 152.592 32.0933 152.021 32.0933C151.45 32.0933 150.98 31.888 150.612 31.4775C150.248 31.0628 150.066 30.5317 150.066 29.8843C150.066 29.241 150.248 28.7142 150.612 28.3037C150.98 27.889 151.45 27.6816 152.021 27.6816C152.592 27.6816 153.06 27.8869 153.424 28.2974ZM152.021 31.2808C152.3 31.2808 152.525 31.1538 152.694 30.8999C152.867 30.6418 152.954 30.3032 152.954 29.8843C152.954 29.4569 152.87 29.1183 152.7 28.8687C152.535 28.619 152.309 28.4941 152.021 28.4941C151.738 28.4941 151.509 28.6211 151.336 28.875C151.166 29.1247 151.082 29.4611 151.082 29.8843C151.082 30.3075 151.166 30.646 151.336 30.8999C151.509 31.1538 151.738 31.2808 152.021 31.2808ZM151.919 37H150.752L154.249 32.2266L157.461 27.8403H158.616L155.062 32.7026L151.919 37ZM158.724 33.3628C159.088 33.7733 159.27 34.3022 159.27 34.9497C159.27 35.5972 159.088 36.1283 158.724 36.543C158.36 36.9535 157.893 37.1587 157.321 37.1587C156.75 37.1587 156.28 36.9535 155.912 36.543C155.548 36.1283 155.366 35.5972 155.366 34.9497C155.366 34.3065 155.548 33.7796 155.912 33.3691C156.28 32.9544 156.75 32.7471 157.321 32.7471C157.893 32.7471 158.36 32.9523 158.724 33.3628ZM157.321 36.3462C157.601 36.3462 157.825 36.2192 157.994 35.9653C158.168 35.7072 158.254 35.3687 158.254 34.9497C158.254 34.5223 158.17 34.1838 158.001 33.9341C157.836 33.6844 157.609 33.5596 157.321 33.5596C157.038 33.5596 156.809 33.6865 156.636 33.9404C156.467 34.1901 156.382 34.5265 156.382 34.9497C156.382 35.3729 156.467 35.7114 156.636 35.9653C156.809 36.2192 157.038 36.3462 157.321 36.3462Z" fill="#718096"/>
<path d="M161.721 13.2484C162.379 12.0977 163.853 11.6888 164.933 12.4582C168.901 15.2873 171.93 19.2707 173.589 23.8931C175.52 29.2717 175.467 35.1626 173.442 40.5061C171.417 45.8496 167.551 50.2951 162.541 53.043C157.53 55.7909 151.704 56.6609 146.109 55.4964C140.515 54.3319 135.519 51.2094 132.021 46.6906C128.524 42.1717 126.753 36.5531 127.028 30.8452C127.303 25.1373 129.605 19.7149 133.521 15.5532C136.887 11.9765 141.254 9.53278 146.022 8.52198C147.318 8.24705 148.507 9.21043 148.651 10.5281C148.796 11.8457 147.838 13.0157 146.549 13.323C142.918 14.1883 139.599 16.0987 137.017 18.8425C133.884 22.1719 132.042 26.5099 131.822 31.0762C131.602 35.6424 133.019 40.1374 135.817 43.7525C138.615 47.3676 142.612 49.8655 147.087 50.7971C151.563 51.7287 156.224 51.0328 160.233 48.8344C164.241 46.6361 167.333 43.0797 168.954 38.8049C170.574 34.5301 170.616 29.8174 169.071 25.5145C167.799 21.9684 165.518 18.8924 162.534 16.6501C161.474 15.8539 161.063 14.3991 161.721 13.2484Z" fill="#171923"/>
<path d="M150.711 10.4019C150.694 9.07656 151.756 7.97532 153.077 8.09001C154.99 8.25621 156.877 8.65157 158.696 9.26755C159.952 9.69262 160.483 11.1278 159.935 12.3346C159.386 13.5413 157.966 14.0594 156.701 13.6658C155.54 13.3048 154.347 13.055 153.139 12.9195C151.822 12.7718 150.729 11.7273 150.711 10.4019Z" fill="#E9B846" fill-opacity="0.6"/>
<path d="M16.6971 36.4731C16.0835 36.9683 15.2922 37.2158 14.3231 37.2158C13.354 37.2158 12.5606 36.9683 11.9427 36.4731C11.3291 35.9738 11.0223 35.3327 11.0223 34.5498C11.0223 33.9531 11.1958 33.4411 11.5428 33.0137C11.8898 32.5863 12.3511 32.3197 12.9266 32.2139V32.1123C12.4611 31.9854 12.0887 31.7378 11.8094 31.3696C11.5344 31.0015 11.3968 30.5677 11.3968 30.0684C11.3968 29.3532 11.6698 28.7671 12.2157 28.3101C12.7658 27.853 13.4683 27.6245 14.3231 27.6245C15.1779 27.6245 15.8783 27.853 16.4242 28.3101C16.9743 28.7671 17.2494 29.3532 17.2494 30.0684C17.2494 30.5719 17.1119 31.0057 16.8368 31.3696C16.566 31.7336 16.1936 31.9811 15.7196 32.1123V32.2139C16.2951 32.3197 16.7564 32.5863 17.1034 33.0137C17.4504 33.4411 17.6239 33.9531 17.6239 34.5498C17.6239 35.3327 17.315 35.9738 16.6971 36.4731ZM12.7743 35.7495C13.1721 36.0754 13.6884 36.2383 14.3231 36.2383C14.9579 36.2383 15.4742 36.0754 15.8719 35.7495C16.2697 35.4194 16.4686 34.992 16.4686 34.4673C16.4686 33.9425 16.2697 33.5173 15.8719 33.1914C15.4742 32.8613 14.9579 32.6963 14.3231 32.6963C13.6884 32.6963 13.1721 32.8613 12.7743 33.1914C12.3765 33.5173 12.1776 33.9425 12.1776 34.4673C12.1776 34.992 12.3765 35.4194 12.7743 35.7495ZM13.0155 31.3062C13.3456 31.5897 13.7815 31.7314 14.3231 31.7314C14.8648 31.7314 15.3007 31.5897 15.6307 31.3062C15.9608 31.0184 16.1259 30.6418 16.1259 30.1763C16.1259 29.7023 15.9608 29.3215 15.6307 29.0337C15.3007 28.7459 14.8648 28.6021 14.3231 28.6021C13.7815 28.6021 13.3456 28.7459 13.0155 29.0337C12.6854 29.3215 12.5204 29.7023 12.5204 30.1763C12.5204 30.6418 12.6854 31.0184 13.0155 31.3062ZM22.3447 37.2095C21.5661 37.2095 20.9059 36.9958 20.3643 36.5684C19.8268 36.1367 19.4862 35.5527 19.3423 34.8164H20.5166C20.6393 35.2438 20.8636 35.5802 21.1895 35.8257C21.5195 36.0711 21.9089 36.1938 22.3574 36.1938C23.1022 36.1938 23.6799 35.8722 24.0903 35.229C24.505 34.5858 24.7272 33.6548 24.7568 32.436H24.7061H24.6807H24.6553C24.431 32.8804 24.1051 33.2274 23.6777 33.4771C23.2503 33.7225 22.7637 33.8452 22.2178 33.8452C21.346 33.8452 20.6266 33.5575 20.0596 32.9819C19.4925 32.4022 19.209 31.668 19.209 30.7793C19.209 29.8568 19.5094 29.1014 20.1104 28.5132C20.7113 27.9207 21.4814 27.6245 22.4209 27.6245C23.1064 27.6245 23.7074 27.8022 24.2236 28.1577C24.7399 28.5132 25.1398 29.0295 25.4233 29.7065C25.7196 30.4006 25.8677 31.2511 25.8677 32.2583C25.8677 33.8325 25.5609 35.0513 24.9473 35.9146C24.3337 36.7778 23.4661 37.2095 22.3447 37.2095ZM20.9355 32.271C21.3206 32.6603 21.8158 32.855 22.4209 32.855C23.026 32.855 23.5233 32.6603 23.9126 32.271C24.3062 31.8817 24.5029 31.3844 24.5029 30.7793C24.5029 30.1657 24.304 29.6536 23.9062 29.2432C23.5127 28.8327 23.0218 28.6274 22.4336 28.6274C21.8454 28.6274 21.3524 28.8306 20.9546 29.2368C20.561 29.6388 20.3643 30.1403 20.3643 30.7412C20.3643 31.3675 20.5547 31.8774 20.9355 32.271ZM30.4742 28.2974C30.8382 28.7078 31.0201 29.2368 31.0201 29.8843C31.0201 30.5317 30.8382 31.0628 30.4742 31.4775C30.1103 31.888 29.6427 32.0933 29.0714 32.0933C28.5001 32.0933 28.0304 31.888 27.6622 31.4775C27.2983 31.0628 27.1163 30.5317 27.1163 29.8843C27.1163 29.241 27.2983 28.7142 27.6622 28.3037C28.0304 27.889 28.5001 27.6816 29.0714 27.6816C29.6427 27.6816 30.1103 27.8869 30.4742 28.2974ZM29.0714 31.2808C29.3507 31.2808 29.575 31.1538 29.7443 30.8999C29.9178 30.6418 30.0045 30.3032 30.0045 29.8843C30.0045 29.4569 29.9199 29.1183 29.7506 28.8687C29.5856 28.619 29.3592 28.4941 29.0714 28.4941C28.7879 28.4941 28.5594 28.6211 28.3859 28.875C28.2166 29.1247 28.132 29.4611 28.132 29.8843C28.132 30.3075 28.2166 30.646 28.3859 30.8999C28.5594 31.1538 28.7879 31.2808 29.0714 31.2808ZM28.9699 37H27.8019L31.2994 32.2266L34.5114 27.8403H35.6666L32.1119 32.7026L28.9699 37ZM35.7745 33.3628C36.1385 33.7733 36.3204 34.3022 36.3204 34.9497C36.3204 35.5972 36.1385 36.1283 35.7745 36.543C35.4106 36.9535 34.943 37.1587 34.3717 37.1587C33.8004 37.1587 33.3307 36.9535 32.9625 36.543C32.5986 36.1283 32.4166 35.5972 32.4166 34.9497C32.4166 34.3065 32.5986 33.7796 32.9625 33.3691C33.3307 32.9544 33.8004 32.7471 34.3717 32.7471C34.943 32.7471 35.4106 32.9523 35.7745 33.3628ZM34.3717 36.3462C34.651 36.3462 34.8753 36.2192 35.0446 35.9653C35.2181 35.7072 35.3048 35.3687 35.3048 34.9497C35.3048 34.5223 35.2202 34.1838 35.0509 33.9341C34.8859 33.6844 34.6595 33.5596 34.3717 33.5596C34.0882 33.5596 33.8597 33.6865 33.6862 33.9404C33.5169 34.1901 33.4323 34.5265 33.4323 34.9497C33.4323 35.3729 33.5169 35.7114 33.6862 35.9653C33.8597 36.2192 34.0882 36.3462 34.3717 36.3462Z" fill="#718096"/>
<path d="M24 10.4C24 9.07452 25.0773 7.98756 26.3961 8.11988C31.0548 8.58727 35.4945 10.41 39.1525 13.3881C43.4333 16.8733 46.3819 21.7276 47.5013 27.1331C48.6208 32.5386 47.8426 38.1647 45.2979 43.0634C42.7533 47.9621 38.5977 51.8338 33.5315 54.0261C28.4654 56.2184 22.7983 56.5973 17.4854 55.0989C12.1725 53.6005 7.53853 50.3164 4.3644 45.8001C1.19028 41.2838 -0.329941 35.8113 0.0599334 30.3049C0.39308 25.5998 2.1035 21.1156 4.95188 17.3996C5.75825 16.3476 7.28805 16.3064 8.25428 17.2138C9.22052 18.1211 9.25411 19.6324 8.4743 20.7043C6.36783 23.5995 5.10307 27.0407 4.84795 30.644C4.53605 35.0491 5.75222 39.427 8.29152 43.0401C10.8308 46.6532 14.538 49.2804 18.7883 50.4791C23.0387 51.6779 27.5723 51.3747 31.6252 49.6209C35.6782 47.867 39.0026 44.7696 41.0383 40.8507C43.0741 36.9318 43.6966 32.4309 42.8011 28.1065C41.9055 23.7821 39.5467 19.8986 36.122 17.1105C33.3207 14.8299 29.9464 13.3962 26.3938 12.9498C25.0787 12.7845 24 11.7255 24 10.4Z" fill="#4697E9" fill-opacity="0.6"/>
<path d="M9.71806 15.7955C8.84165 14.8011 8.93108 13.2734 10.008 12.5006C12.8024 10.4955 15.9959 9.11406 19.3707 8.45067C20.6713 8.19501 21.8459 9.17594 21.9704 10.4956C22.095 11.8152 21.1206 12.9709 19.8268 13.259C17.4566 13.7868 15.2075 14.7596 13.1999 16.1256C12.104 16.8712 10.5945 16.7899 9.71806 15.7955Z" fill="#171923"/>
</svg>
