<svg width="200" height="194" viewBox="0 0 200 194" fill="none" xmlns="http://www.w3.org/2000/svg">
<g opacity="0.3">
<path d="M99.8174 26.7755C139.81 26.7755 172.221 58.2217 172.221 97.0001C172.221 135.778 139.81 167.225 99.8174 167.225C59.8248 167.225 27.4151 135.778 27.415 97.0001C27.415 58.2218 59.8247 26.7756 99.8174 26.7755Z" stroke="#4CB5DD" stroke-width="0.399828"/>
<mask id="path-2-inside-1_7765_10085" fill="white">
<path d="M185.846 96.9997C185.846 142.988 147.412 180.269 100.001 180.269C52.5903 180.269 14.1562 142.988 14.1562 96.9997C14.1562 51.0113 52.5903 13.7303 100.001 13.7303C147.412 13.7303 185.846 51.0113 185.846 96.9997Z"/>
</mask>
<g clip-path="url(#paint0_diamond_7765_10085_clip_path)" data-figma-skip-parse="true" mask="url(#path-2-inside-1_7765_10085)"><g transform="matrix(0 0.146785 -0.151325 0 100.001 87.2554)"><rect x="0" y="0" width="636.398" height="569.931" fill="url(#paint0_diamond_7765_10085)" opacity="1" shape-rendering="crispEdges"/><rect x="0" y="0" width="636.398" height="569.931" transform="scale(1 -1)" fill="url(#paint0_diamond_7765_10085)" opacity="1" shape-rendering="crispEdges"/><rect x="0" y="0" width="636.398" height="569.931" transform="scale(-1 1)" fill="url(#paint0_diamond_7765_10085)" opacity="1" shape-rendering="crispEdges"/><rect x="0" y="0" width="636.398" height="569.931" transform="scale(-1)" fill="url(#paint0_diamond_7765_10085)" opacity="1" shape-rendering="crispEdges"/></g></g><path d="M185.846 96.9997H185.446C185.446 142.756 147.202 179.869 100.001 179.869V180.269V180.669C147.621 180.669 186.246 143.22 186.246 96.9997H185.846ZM100.001 180.269V179.869C52.7995 179.869 14.5561 142.756 14.5561 96.9997H14.1562H13.7564C13.7564 143.22 52.381 180.669 100.001 180.669V180.269ZM14.1562 96.9997H14.5561C14.5561 51.2435 52.7995 14.1301 100.001 14.1301V13.7303V13.3305C52.381 13.3305 13.7564 50.7791 13.7564 96.9997H14.1562ZM100.001 13.7303V14.1301C147.202 14.1301 185.446 51.2435 185.446 96.9997H185.846H186.246C186.246 50.7791 147.621 13.3305 100.001 13.3305V13.7303Z" data-figma-gradient-fill="{&#34;type&#34;:&#34;GRADIENT_DIAMOND&#34;,&#34;stops&#34;:[{&#34;color&#34;:{&#34;r&#34;:0.29803922772407532,&#34;g&#34;:0.70980393886566162,&#34;b&#34;:0.86666667461395264,&#34;a&#34;:1.0},&#34;position&#34;:0.0},{&#34;color&#34;:{&#34;r&#34;:0.29803922772407532,&#34;g&#34;:0.70980393886566162,&#34;b&#34;:0.86666667461395264,&#34;a&#34;:0.45991230010986328},&#34;position&#34;:0.87976944446563721},{&#34;color&#34;:{&#34;r&#34;:0.29803922772407532,&#34;g&#34;:0.70980393886566162,&#34;b&#34;:0.86666667461395264,&#34;a&#34;:0.0},&#34;position&#34;:1.0}],&#34;stopsVar&#34;:[],&#34;transform&#34;:{&#34;m00&#34;:-4.5698786145216899e-14,&#34;m01&#34;:-302.64913940429688,&#34;m02&#34;:251.32556152343750,&#34;m10&#34;:293.56970214843750,&#34;m11&#34;:1.3680130975506771e-13,&#34;m12&#34;:-59.529407501220703},&#34;opacity&#34;:1.0,&#34;blendMode&#34;:&#34;NORMAL&#34;,&#34;visible&#34;:true}" mask="url(#path-2-inside-1_7765_10085)"/>
<mask id="path-4-inside-2_7765_10085" fill="white">
<path d="M200 97C200 150.572 155.228 194 100 194C44.7715 194 0 150.572 0 97C0 43.4284 44.7715 0 100 0C155.228 0 200 43.4284 200 97Z"/>
</mask>
<g clip-path="url(#paint1_diamond_7765_10085_clip_path)" data-figma-skip-parse="true" mask="url(#path-4-inside-2_7765_10085)"><g transform="matrix(0 0.154415 -0.159191 0 100 85.6489)"><rect x="0" y="0" width="704.277" height="630.689" fill="url(#paint1_diamond_7765_10085)" opacity="1" shape-rendering="crispEdges"/><rect x="0" y="0" width="704.277" height="630.689" transform="scale(1 -1)" fill="url(#paint1_diamond_7765_10085)" opacity="1" shape-rendering="crispEdges"/><rect x="0" y="0" width="704.277" height="630.689" transform="scale(-1 1)" fill="url(#paint1_diamond_7765_10085)" opacity="1" shape-rendering="crispEdges"/><rect x="0" y="0" width="704.277" height="630.689" transform="scale(-1)" fill="url(#paint1_diamond_7765_10085)" opacity="1" shape-rendering="crispEdges"/></g></g><path d="M200 97H199.6C199.6 150.339 155.019 193.6 100 193.6V194V194.4C155.438 194.4 200.4 150.804 200.4 97H200ZM100 194V193.6C44.9808 193.6 0.399828 150.339 0.399828 97H0H-0.399828C-0.399828 150.804 44.5623 194.4 100 194.4V194ZM0 97H0.399828C0.399828 43.6606 44.9808 0.399828 100 0.399828V0V-0.399828C44.5623 -0.399828 -0.399828 43.1962 -0.399828 97H0ZM100 0V0.399828C155.019 0.399828 199.6 43.6606 199.6 97H200H200.4C200.4 43.1962 155.438 -0.399828 100 -0.399828V0Z" data-figma-gradient-fill="{&#34;type&#34;:&#34;GRADIENT_DIAMOND&#34;,&#34;stops&#34;:[{&#34;color&#34;:{&#34;r&#34;:0.29803922772407532,&#34;g&#34;:0.70980393886566162,&#34;b&#34;:0.86666667461395264,&#34;a&#34;:1.0},&#34;position&#34;:0.0},{&#34;color&#34;:{&#34;r&#34;:0.29803922772407532,&#34;g&#34;:0.70980393886566162,&#34;b&#34;:0.86666667461395264,&#34;a&#34;:0.45991230010986328},&#34;position&#34;:0.87976944446563721},{&#34;color&#34;:{&#34;r&#34;:0.29803922772407532,&#34;g&#34;:0.70980393886566162,&#34;b&#34;:0.86666667461395264,&#34;a&#34;:0.0},&#34;position&#34;:1.0}],&#34;stopsVar&#34;:[],&#34;transform&#34;:{&#34;m00&#34;:1.4763253011577937e-13,&#34;m01&#34;:-318.38143920898438,&#34;m02&#34;:259.19073486328125,&#34;m10&#34;:308.82998657226562,&#34;m11&#34;:5.9951799384269644e-13,&#34;m12&#34;:-68.766052246093750},&#34;opacity&#34;:1.0,&#34;blendMode&#34;:&#34;NORMAL&#34;,&#34;visible&#34;:true}" mask="url(#path-4-inside-2_7765_10085)"/>
</g>
<g filter="url(#filter0_i_7765_10085)">
<rect x="176.711" y="51.8214" width="21.4612" height="20.8174" rx="10.4087" fill="black" fill-opacity="0.36"/>
<rect x="176.911" y="52.0213" width="21.0614" height="20.4175" rx="10.2088" stroke="white" stroke-opacity="0.36" stroke-width="0.399828"/>
<path d="M186.969 59.6338C187.122 59.6113 187.28 59.5991 187.442 59.5991C189.361 59.5991 190.62 61.2922 191.043 61.962C191.094 62.043 191.119 62.0836 191.134 62.1461C191.145 62.193 191.145 62.2671 191.134 62.314C191.119 62.3766 191.094 62.4174 191.042 62.499C190.929 62.6773 190.758 62.928 190.53 63.1999M185.459 60.2437C184.646 60.795 184.095 61.5608 183.842 61.9614C183.79 62.0428 183.765 62.0835 183.75 62.146C183.739 62.193 183.739 62.267 183.75 62.314C183.765 62.3765 183.79 62.417 183.841 62.4981C184.264 63.1678 185.523 64.8609 187.442 64.8609C188.216 64.8609 188.882 64.5856 189.43 64.2132M184.059 58.8475L190.825 65.6126M186.645 61.4327C186.441 61.6368 186.314 61.9187 186.314 62.23C186.314 62.8527 186.819 63.3575 187.442 63.3575C187.753 63.3575 188.035 63.2313 188.239 63.0273" stroke="white" stroke-opacity="0.64" stroke-width="0.751677" stroke-linecap="round" stroke-linejoin="round"/>
</g>
<g filter="url(#filter1_i_7765_10085)">
<rect x="142.999" y="145.721" width="26.6686" height="26.5753" rx="13.2877" fill="black" fill-opacity="0.36"/>
<rect x="143.199" y="145.921" width="26.2688" height="26.1755" rx="13.0878" stroke="white" stroke-opacity="0.36" stroke-width="0.399828"/>
<path d="M158.932 157.969V156.929C158.932 155.494 157.769 154.331 156.334 154.331C154.898 154.331 153.735 155.494 153.735 156.929V157.969M156.334 160.308V161.347M154.67 163.686H157.997C158.87 163.686 159.307 163.686 159.64 163.517C159.934 163.367 160.172 163.128 160.322 162.835C160.492 162.502 160.492 162.065 160.492 161.192V160.464C160.492 159.591 160.492 159.154 160.322 158.82C160.172 158.527 159.934 158.288 159.64 158.139C159.307 157.969 158.87 157.969 157.997 157.969H154.67C153.797 157.969 153.36 157.969 153.027 158.139C152.733 158.288 152.495 158.527 152.345 158.82C152.175 159.154 152.175 159.591 152.175 160.464V161.192C152.175 162.065 152.175 162.502 152.345 162.835C152.495 163.128 152.733 163.367 153.027 163.517C153.36 163.686 153.797 163.686 154.67 163.686Z" stroke="white" stroke-opacity="0.64" stroke-width="1.03955" stroke-linecap="round" stroke-linejoin="round"/>
</g>
<g filter="url(#filter2_i_7765_10085)">
<rect x="13.6943" y="96.1137" width="27.1131" height="27.0183" rx="13.5091" fill="black" fill-opacity="0.36"/>
<rect x="13.8942" y="96.3136" width="26.7133" height="26.6184" rx="13.3092" stroke="white" stroke-opacity="0.36" stroke-width="0.399828"/>
<path d="M22.7951 109.623H31.7066M24.4367 111.499H26.3128M25.8281 105.871H28.6736C29.1787 105.871 29.4312 105.871 29.6542 105.948C29.8514 106.016 30.0309 106.127 30.18 106.272C30.3484 106.437 30.4614 106.663 30.6873 107.115L31.7034 109.147C31.7921 109.325 31.8364 109.413 31.8677 109.506C31.8954 109.589 31.9155 109.674 31.9275 109.76C31.9411 109.857 31.9411 109.956 31.9411 110.154V111.124C31.9411 111.912 31.9411 112.306 31.7878 112.607C31.6529 112.872 31.4376 113.087 31.1728 113.222C30.8719 113.375 30.4778 113.375 29.6898 113.375H24.8119C24.0238 113.375 23.6298 113.375 23.3288 113.222C23.0641 113.087 22.8488 112.872 22.7139 112.607C22.5605 112.306 22.5605 111.912 22.5605 111.124V110.154C22.5605 109.956 22.5605 109.857 22.5741 109.76C22.5862 109.674 22.6062 109.589 22.634 109.506C22.6653 109.413 22.7096 109.325 22.7982 109.147L23.8144 107.115C24.0403 106.663 24.1532 106.437 24.3217 106.272C24.4707 106.127 24.6503 106.016 24.8475 105.948C25.0704 105.871 25.323 105.871 25.8281 105.871Z" stroke="white" stroke-opacity="0.64" stroke-width="0.938058" stroke-linecap="round" stroke-linejoin="round"/>
</g>
<g filter="url(#filter3_i_7765_10085)">
<rect x="53.4229" y="22.1459" width="25.7797" height="25.6895" rx="12.8447" fill="black" fill-opacity="0.36"/>
<rect x="53.6228" y="22.3458" width="25.3798" height="25.2897" rx="12.6448" stroke="white" stroke-opacity="0.36" stroke-width="0.399828"/>
<path d="M70.4019 34.1728V33.0278C70.4019 32.5698 70.4019 32.3408 70.3128 32.1658C70.2344 32.012 70.1093 31.8868 69.9554 31.8084C69.7804 31.7193 69.5514 31.7193 69.0934 31.7193H63.5322C63.0741 31.7193 62.8451 31.7193 62.6702 31.8084C62.5163 31.8868 62.3912 32.012 62.3128 32.1658C62.2236 32.3408 62.2236 32.5698 62.2236 33.0278V34.4999C62.2236 34.9579 62.2236 35.187 62.3128 35.3619C62.3912 35.5158 62.5163 35.6409 62.6702 35.7193C62.8451 35.8085 63.0741 35.8084 63.5322 35.8084H65.9039M66.3128 33.7639H66.3148M68.3574 33.7639H68.3594M64.2682 33.7639H64.2703M69.2774 36.6263V35.9107C69.2774 35.5155 68.957 35.1951 68.5618 35.1951C68.1666 35.1951 67.8462 35.5155 67.8462 35.9107V36.6263M66.415 33.7639C66.415 33.8203 66.3692 33.8661 66.3128 33.8661C66.2563 33.8661 66.2106 33.8203 66.2106 33.7639C66.2106 33.7074 66.2563 33.6616 66.3128 33.6616C66.3692 33.6616 66.415 33.7074 66.415 33.7639ZM68.4596 33.7639C68.4596 33.8203 68.4138 33.8661 68.3574 33.8661C68.3009 33.8661 68.2551 33.8203 68.2551 33.7639C68.2551 33.7074 68.3009 33.6616 68.3574 33.6616C68.4138 33.6616 68.4596 33.7074 68.4596 33.7639ZM64.3704 33.7639C64.3704 33.8203 64.3247 33.8661 64.2682 33.8661C64.2117 33.8661 64.166 33.8203 64.166 33.7639C64.166 33.7074 64.2117 33.6616 64.2682 33.6616C64.3247 33.6616 64.3704 33.7074 64.3704 33.7639ZM67.7849 38.2619H69.3388C69.5678 38.2619 69.6823 38.2619 69.7697 38.2174C69.8467 38.1782 69.9092 38.1156 69.9485 38.0387C69.993 37.9512 69.993 37.8367 69.993 37.6077V37.2805C69.993 37.0515 69.993 36.937 69.9485 36.8496C69.9092 36.7726 69.8467 36.7101 69.7697 36.6708C69.6823 36.6263 69.5678 36.6263 69.3388 36.6263H67.7849C67.5559 36.6263 67.4414 36.6263 67.3539 36.6708C67.2769 36.7101 67.2144 36.7726 67.1752 36.8496C67.1306 36.937 67.1306 37.0515 67.1306 37.2805V37.6077C67.1306 37.8367 67.1306 37.9512 67.1752 38.0387C67.2144 38.1156 67.2769 38.1782 67.3539 38.2174C67.4414 38.2619 67.5559 38.2619 67.7849 38.2619Z" stroke="white" stroke-opacity="0.64" stroke-width="0.72696" stroke-linecap="round" stroke-linejoin="round"/>
</g>
<g filter="url(#filter4_di_7765_10085)">
<path d="M98.5636 52.6702C97.7578 52.5547 96.9393 52.5547 96.1334 52.6702C95.2047 52.8034 94.3405 53.1275 93.6543 53.3848L93.4704 53.4536L70.1381 62.1369C67.5137 63.1094 65.2089 63.9635 63.434 65.516C61.8813 66.8741 60.6852 68.5871 59.9491 70.507C59.1077 72.7015 59.1112 75.1432 59.1153 77.9236L59.1159 98.6753C59.1159 110.593 65.6464 120.529 72.7057 127.828C79.8123 135.176 87.9433 140.366 92.2428 142.856L92.4168 142.957C93.2014 143.414 94.2199 144.008 95.5671 144.294C96.6692 144.529 98.0278 144.529 99.13 144.294C100.477 144.008 101.496 143.414 102.28 142.957L102.454 142.856C106.754 140.366 114.885 135.176 121.991 127.828C129.051 120.529 135.581 110.593 135.581 98.6753L135.582 77.9236C135.586 75.1432 135.589 72.7015 134.748 70.507C134.012 68.5871 132.816 66.8741 131.263 65.516C129.488 63.9635 127.183 63.1094 124.559 62.1369L101.227 53.4536L101.043 53.3848C100.357 53.1275 99.4924 52.8034 98.5636 52.6702Z" fill="url(#paint2_radial_7765_10085)"/>
<path d="M98.5636 52.6702C97.7578 52.5547 96.9393 52.5547 96.1334 52.6702C95.2047 52.8034 94.3405 53.1275 93.6543 53.3848L93.4704 53.4536L70.1381 62.1369C67.5137 63.1094 65.2089 63.9635 63.434 65.516C61.8813 66.8741 60.6852 68.5871 59.9491 70.507C59.1077 72.7015 59.1112 75.1432 59.1153 77.9236L59.1159 98.6753C59.1159 110.593 65.6464 120.529 72.7057 127.828C79.8123 135.176 87.9433 140.366 92.2428 142.856L92.4168 142.957C93.2014 143.414 94.2199 144.008 95.5671 144.294C96.6692 144.529 98.0278 144.529 99.13 144.294C100.477 144.008 101.496 143.414 102.28 142.957L102.454 142.856C106.754 140.366 114.885 135.176 121.991 127.828C129.051 120.529 135.581 110.593 135.581 98.6753L135.582 77.9236C135.586 75.1432 135.589 72.7015 134.748 70.507C134.012 68.5871 132.816 66.8741 131.263 65.516C129.488 63.9635 127.183 63.1094 124.559 62.1369L101.227 53.4536L101.043 53.3848C100.357 53.1275 99.4924 52.8034 98.5636 52.6702Z" stroke="#2CFF85" stroke-width="0.399828"/>
</g>
<path d="M92.5926 98.5882C92.5926 99.3679 92.1155 100 91.5268 100C90.938 100 90.461 99.3679 90.461 98.5882C90.461 97.8086 90.938 97.1765 91.5268 97.1765C92.1155 97.1765 92.5926 97.8086 92.5926 98.5882Z" fill="white"/>
<path d="M103.606 100C104.194 100 104.672 99.3679 104.672 98.5882C104.672 97.8086 104.194 97.1765 103.606 97.1765C103.017 97.1765 102.54 97.8086 102.54 98.5882C102.54 99.3679 103.017 100 103.606 100Z" fill="white"/>
<path fill-rule="evenodd" clip-rule="evenodd" d="M84 88C85.6455 88.7059 87.4628 89.0588 90.0957 89.0588C93.3475 89.0588 96.5994 91.1265 97.4698 93.5593L97.5 93.5988L97.5302 93.5593C98.4006 91.1265 101.652 89.0588 104.904 89.0588C107.537 89.0588 109.354 88.7059 111 88C110.945 88.1299 110.893 88.2694 110.838 88.4152C110.423 89.5303 109.87 91.0129 106.742 91.4214C106.823 91.4548 106.902 91.4896 106.981 91.5258L107.106 91.5847C107.158 91.6099 107.21 91.6357 107.262 91.6621C107.309 91.6861 107.355 91.7105 107.401 91.7355C108.525 92.3266 109.406 93.1542 110.043 94.2183C110.681 95.2823 111 96.4899 111 97.841C111 99.1923 110.681 100.4 110.043 101.464C109.406 102.528 108.525 103.364 107.401 103.972C106.276 104.563 105.001 104.859 103.575 104.859C102.149 104.859 100.865 104.563 99.7239 103.972C99.5032 103.853 99.2916 103.724 99.0897 103.587C98.4582 104.758 97.5 106 97.5 106C97.5 106 96.5418 104.758 95.9103 103.587C95.7771 103.678 95.6394 103.764 95.4978 103.847C95.425 103.89 95.3511 103.931 95.2761 103.972C94.1517 104.563 92.8764 104.859 91.4501 104.859C90.0239 104.859 88.7402 104.563 87.5991 103.972C86.475 103.364 85.5942 102.528 84.9565 101.464C84.3188 100.4 84 99.1923 84 97.841C84 96.4899 84.3188 95.2823 84.9565 94.2183C85.5942 93.1542 86.475 92.3266 87.5991 91.7355C87.8156 91.6201 88.0373 91.5158 88.2642 91.4222C85.1303 91.015 84.5776 89.5312 84.1617 88.4152L84.1017 88.2549C84.068 88.1666 84.0347 88.0815 84 88ZM96.0789 97.8824C96.0789 100.611 94.0112 102.118 91.4605 102.118C88.9098 102.118 86.8421 100.611 86.8421 97.8824C86.8421 95.1534 88.9098 93.6471 91.4605 93.6471C94.0112 93.6471 96.0789 95.1534 96.0789 97.8824ZM103.539 102.118C106.09 102.118 108.158 100.611 108.158 97.8824C108.158 95.1534 106.09 93.6471 103.539 93.6471C100.989 93.6471 98.9211 95.1534 98.9211 97.8824C98.9211 100.611 100.989 102.118 103.539 102.118Z" fill="white"/>
<g opacity="0.48">
<path d="M87.2964 56.1343V62.3352L98.8528 69.422V81.1594" stroke="url(#paint3_linear_7765_10085)" stroke-width="0.159931"/>
<path d="M117.964 60.1205V69.4219L106.407 76.5087V85.1457" stroke="url(#paint4_linear_7765_10085)" stroke-width="0.159931"/>
<path d="M130.457 117.006L124.412 112.607V101.312L111.744 93.1182" stroke="url(#paint5_linear_7765_10085)" stroke-width="0.159931"/>
<path d="M135.309 73.3562L128.634 79.6091V99.3192L124.411 101.312M126.856 63.4425V75.4014L115.966 84.4813" stroke="url(#paint6_linear_7765_10085)" stroke-width="0.159931"/>
<path d="M58.627 80.495H61.7383L65.7386 84.0384M65.7386 84.0384V97.769L71.9613 105.52M65.7386 84.0384H71.9613L77.7395 88.6891M71.9613 105.52H78.8507M71.9613 105.52L63.1221 115.187" stroke="url(#paint7_linear_7765_10085)" stroke-width="0.159931"/>
<path d="M63.5151 65.4359L80.4053 72.9656L84.85 80.2738" stroke="url(#paint8_linear_7765_10085)" stroke-width="0.159931"/>
<path d="M77.5171 132.601V119.251L83.2953 113.05" stroke="url(#paint9_linear_7765_10085)" stroke-width="0.159931"/>
<path d="M97.2959 144.766V129.659M97.2959 129.659L86.6284 122.573L89.5175 115.486M97.2959 129.659L109.297 122.573L104.63 115.486M120.447 129.738L117.52 113.936L109.297 108.621" stroke="url(#paint10_linear_7765_10085)" stroke-width="0.159931"/>
</g>
<defs>
<clipPath id="paint0_diamond_7765_10085_clip_path"><path d="M185.846 96.9997H185.446C185.446 142.756 147.202 179.869 100.001 179.869V180.269V180.669C147.621 180.669 186.246 143.22 186.246 96.9997H185.846ZM100.001 180.269V179.869C52.7995 179.869 14.5561 142.756 14.5561 96.9997H14.1562H13.7564C13.7564 143.22 52.381 180.669 100.001 180.669V180.269ZM14.1562 96.9997H14.5561C14.5561 51.2435 52.7995 14.1301 100.001 14.1301V13.7303V13.3305C52.381 13.3305 13.7564 50.7791 13.7564 96.9997H14.1562ZM100.001 13.7303V14.1301C147.202 14.1301 185.446 51.2435 185.446 96.9997H185.846H186.246C186.246 50.7791 147.621 13.3305 100.001 13.3305V13.7303Z" mask="url(#path-2-inside-1_7765_10085)"/></clipPath><clipPath id="paint1_diamond_7765_10085_clip_path"><path d="M200 97H199.6C199.6 150.339 155.019 193.6 100 193.6V194V194.4C155.438 194.4 200.4 150.804 200.4 97H200ZM100 194V193.6C44.9808 193.6 0.399828 150.339 0.399828 97H0H-0.399828C-0.399828 150.804 44.5623 194.4 100 194.4V194ZM0 97H0.399828C0.399828 43.6606 44.9808 0.399828 100 0.399828V0V-0.399828C44.5623 -0.399828 -0.399828 43.1962 -0.399828 97H0ZM100 0V0.399828C155.019 0.399828 199.6 43.6606 199.6 97H200H200.4C200.4 43.1962 155.438 -0.399828 100 -0.399828V0Z" mask="url(#path-4-inside-2_7765_10085)"/></clipPath><filter id="filter0_i_7765_10085" x="175.112" y="50.222" width="24.6601" height="24.016" filterUnits="userSpaceOnUse" color-interpolation-filters="sRGB">
<feFlood flood-opacity="0" result="BackgroundImageFix"/>
<feBlend mode="normal" in="SourceGraphic" in2="BackgroundImageFix" result="shape"/>
<feColorMatrix in="SourceAlpha" type="matrix" values="0 0 0 0 0 0 0 0 0 0 0 0 0 0 0 0 0 0 127 0" result="hardAlpha"/>
<feOffset dy="0.799656"/>
<feGaussianBlur stdDeviation="0.99957"/>
<feComposite in2="hardAlpha" operator="arithmetic" k2="-1" k3="1"/>
<feColorMatrix type="matrix" values="0 0 0 0 1 0 0 0 0 1 0 0 0 0 1 0 0 0 0.25 0"/>
<feBlend mode="normal" in2="shape" result="effect1_innerShadow_7765_10085"/>
</filter>
<filter id="filter1_i_7765_10085" x="141.4" y="144.122" width="29.8671" height="29.7739" filterUnits="userSpaceOnUse" color-interpolation-filters="sRGB">
<feFlood flood-opacity="0" result="BackgroundImageFix"/>
<feBlend mode="normal" in="SourceGraphic" in2="BackgroundImageFix" result="shape"/>
<feColorMatrix in="SourceAlpha" type="matrix" values="0 0 0 0 0 0 0 0 0 0 0 0 0 0 0 0 0 0 127 0" result="hardAlpha"/>
<feOffset dy="0.799656"/>
<feGaussianBlur stdDeviation="0.99957"/>
<feComposite in2="hardAlpha" operator="arithmetic" k2="-1" k3="1"/>
<feColorMatrix type="matrix" values="0 0 0 0 1 0 0 0 0 1 0 0 0 0 1 0 0 0 0.25 0"/>
<feBlend mode="normal" in2="shape" result="effect1_innerShadow_7765_10085"/>
</filter>
<filter id="filter2_i_7765_10085" x="12.095" y="94.5144" width="30.3119" height="30.2169" filterUnits="userSpaceOnUse" color-interpolation-filters="sRGB">
<feFlood flood-opacity="0" result="BackgroundImageFix"/>
<feBlend mode="normal" in="SourceGraphic" in2="BackgroundImageFix" result="shape"/>
<feColorMatrix in="SourceAlpha" type="matrix" values="0 0 0 0 0 0 0 0 0 0 0 0 0 0 0 0 0 0 127 0" result="hardAlpha"/>
<feOffset dy="0.799656"/>
<feGaussianBlur stdDeviation="0.99957"/>
<feComposite in2="hardAlpha" operator="arithmetic" k2="-1" k3="1"/>
<feColorMatrix type="matrix" values="0 0 0 0 1 0 0 0 0 1 0 0 0 0 1 0 0 0 0.25 0"/>
<feBlend mode="normal" in2="shape" result="effect1_innerShadow_7765_10085"/>
</filter>
<filter id="filter3_i_7765_10085" x="51.8235" y="20.5466" width="28.9784" height="28.8881" filterUnits="userSpaceOnUse" color-interpolation-filters="sRGB">
<feFlood flood-opacity="0" result="BackgroundImageFix"/>
<feBlend mode="normal" in="SourceGraphic" in2="BackgroundImageFix" result="shape"/>
<feColorMatrix in="SourceAlpha" type="matrix" values="0 0 0 0 0 0 0 0 0 0 0 0 0 0 0 0 0 0 127 0" result="hardAlpha"/>
<feOffset dy="0.799656"/>
<feGaussianBlur stdDeviation="0.99957"/>
<feComposite in2="hardAlpha" operator="arithmetic" k2="-1" k3="1"/>
<feColorMatrix type="matrix" values="0 0 0 0 1 0 0 0 0 1 0 0 0 0 1 0 0 0 0.25 0"/>
<feBlend mode="normal" in2="shape" result="effect1_innerShadow_7765_10085"/>
</filter>
<filter id="filter4_di_7765_10085" x="57.3157" y="52.3836" width="80.0658" height="95.4852" filterUnits="userSpaceOnUse" color-interpolation-filters="sRGB">
<feFlood flood-opacity="0" result="BackgroundImageFix"/>
<feColorMatrix in="SourceAlpha" type="matrix" values="0 0 0 0 0 0 0 0 0 0 0 0 0 0 0 0 0 0 127 0" result="hardAlpha"/>
<feOffset dy="1.59931"/>
<feGaussianBlur stdDeviation="0.799656"/>
<feComposite in2="hardAlpha" operator="out"/>
<feColorMatrix type="matrix" values="0 0 0 0 0 0 0 0 0 0 0 0 0 0 0 0 0 0 0.25 0"/>
<feBlend mode="normal" in2="BackgroundImageFix" result="effect1_dropShadow_7765_10085"/>
<feBlend mode="normal" in="SourceGraphic" in2="effect1_dropShadow_7765_10085" result="shape"/>
<feColorMatrix in="SourceAlpha" type="matrix" values="0 0 0 0 0 0 0 0 0 0 0 0 0 0 0 0 0 0 127 0" result="hardAlpha"/>
<feOffset/>
<feGaussianBlur stdDeviation="3.99828"/>
<feComposite in2="hardAlpha" operator="arithmetic" k2="-1" k3="1"/>
<feColorMatrix type="matrix" values="0 0 0 0 0.172549 0 0 0 0 1 0 0 0 0 0.521569 0 0 0 0.25 0"/>
<feBlend mode="normal" in2="shape" result="effect2_innerShadow_7765_10085"/>
</filter>
<linearGradient id="paint0_diamond_7765_10085" x1="0" y1="0" x2="500" y2="500" gradientUnits="userSpaceOnUse">
<stop stop-color="#4CB5DD"/>
<stop offset="0.879769" stop-color="#4CB5DD" stop-opacity="0.459912"/>
<stop offset="1" stop-color="#4CB5DD" stop-opacity="0"/>
</linearGradient>
<linearGradient id="paint1_diamond_7765_10085" x1="0" y1="0" x2="500" y2="500" gradientUnits="userSpaceOnUse">
<stop stop-color="#4CB5DD"/>
<stop offset="0.879769" stop-color="#4CB5DD" stop-opacity="0.459912"/>
<stop offset="1" stop-color="#4CB5DD" stop-opacity="0"/>
</linearGradient>
<radialGradient id="paint2_radial_7765_10085" cx="0" cy="0" r="1" gradientUnits="userSpaceOnUse" gradientTransform="translate(97.3485 98.5269) rotate(90) scale(45.9434 38.2338)">
<stop stop-color="#242424"/>
<stop offset="0.443893" stop-color="#1C1C1C"/>
<stop offset="1" stop-color="#111111"/>
</radialGradient>
<linearGradient id="paint3_linear_7765_10085" x1="93.0746" y1="56.1343" x2="94.8401" y2="90.9043" gradientUnits="userSpaceOnUse">
<stop stop-color="#2CFF85"/>
<stop offset="1" stop-color="#1A9950" stop-opacity="0"/>
</linearGradient>
<linearGradient id="paint4_linear_7765_10085" x1="112.186" y1="60.1205" x2="102.028" y2="93.581" gradientUnits="userSpaceOnUse">
<stop stop-color="#2CFF85"/>
<stop offset="1" stop-color="#1A9950" stop-opacity="0"/>
</linearGradient>
<linearGradient id="paint5_linear_7765_10085" x1="134.19" y1="109.506" x2="100.021" y2="90.803" gradientUnits="userSpaceOnUse">
<stop stop-color="#2CFF85"/>
<stop offset="1" stop-color="#1A9950" stop-opacity="0"/>
</linearGradient>
<linearGradient id="paint6_linear_7765_10085" x1="147.139" y1="82.45" x2="99.342" y2="97.6843" gradientUnits="userSpaceOnUse">
<stop stop-color="#2CFF85"/>
<stop offset="1" stop-color="#1A9950" stop-opacity="0"/>
</linearGradient>
<linearGradient id="paint7_linear_7765_10085" x1="56.4046" y1="97.5475" x2="88.4022" y2="92.8648" gradientUnits="userSpaceOnUse">
<stop stop-color="#2CFF85"/>
<stop offset="1" stop-color="#1A9950" stop-opacity="0"/>
</linearGradient>
<linearGradient id="paint8_linear_7765_10085" x1="67.6068" y1="71.2259" x2="94.344" y2="90.1062" gradientUnits="userSpaceOnUse">
<stop stop-color="#2CFF85"/>
<stop offset="1" stop-color="#1A9950" stop-opacity="0"/>
</linearGradient>
<linearGradient id="paint9_linear_7765_10085" x1="78.1838" y1="132.317" x2="92.7679" y2="101.494" gradientUnits="userSpaceOnUse">
<stop stop-color="#2CFF85"/>
<stop offset="1" stop-color="#1A9950" stop-opacity="0"/>
</linearGradient>
<linearGradient id="paint10_linear_7765_10085" x1="101.518" y1="147.598" x2="96.6629" y2="99.9802" gradientUnits="userSpaceOnUse">
<stop stop-color="#2CFF85"/>
<stop offset="1" stop-color="#1A9950" stop-opacity="0"/>
</linearGradient>
</defs>
</svg>
