<svg width="364" height="193" viewBox="0 0 364 193" fill="none" xmlns="http://www.w3.org/2000/svg">
<g opacity="0.3">
<path d="M336.5 177C336.5 258.999 267.791 325.5 183 325.5C98.2086 325.5 29.5 258.999 29.5 177C29.5 95.0011 98.2086 28.5 183 28.5C267.791 28.5 336.5 95.0011 336.5 177Z" stroke="#FEA900" stroke-opacity="0.14"/>
<path d="M363.5 176C363.5 272.91 282.256 351.5 182 351.5C81.7444 351.5 0.5 272.91 0.5 176C0.5 79.0897 81.7444 0.5 182 0.5C282.256 0.5 363.5 79.0897 363.5 176Z" stroke="#FEA900" stroke-opacity="0.1"/>
<path d="M307.5 174C307.5 242.192 250.431 297.5 180 297.5C109.569 297.5 52.5 242.192 52.5 174C52.5 105.808 109.569 50.5 180 50.5C250.431 50.5 307.5 105.808 307.5 174Z" stroke="#FEA900" stroke-opacity="0.25"/>
<path d="M279.5 172.5C279.5 226.61 234.295 270.5 178.5 270.5C122.705 270.5 77.5 226.61 77.5 172.5C77.5 118.39 122.705 74.5 178.5 74.5C234.295 74.5 279.5 118.39 279.5 172.5Z" stroke="#FEA900" stroke-opacity="0.3"/>
<path d="M255.5 172.5C255.5 213.906 220.818 247.5 178 247.5C135.182 247.5 100.5 213.906 100.5 172.5C100.5 131.094 135.182 97.5 178 97.5C220.818 97.5 255.5 131.094 255.5 172.5Z" stroke="#FEA900" stroke-opacity="0.4"/>
<path d="M237.5 171.5C237.5 203.517 210.653 229.5 177.5 229.5C144.347 229.5 117.5 203.517 117.5 171.5C117.5 139.483 144.347 113.5 177.5 113.5C210.653 113.5 237.5 139.483 237.5 171.5Z" stroke="#FEA900" stroke-opacity="0.6"/>
<path d="M222.5 171.5C222.5 195.79 202.363 215.5 177.5 215.5C152.637 215.5 132.5 195.79 132.5 171.5C132.5 147.21 152.637 127.5 177.5 127.5C202.363 127.5 222.5 147.21 222.5 171.5Z" stroke="#FEA900" stroke-opacity="0.8"/>
<path d="M208.5 171.5C208.5 188.053 194.636 201.5 177.5 201.5C160.364 201.5 146.5 188.053 146.5 171.5C146.5 154.947 160.364 141.5 177.5 141.5C194.636 141.5 208.5 154.947 208.5 171.5Z" stroke="#FEA900"/>
</g>
<path d="M178 182.18C163.23 182.18 161 174.843 161 169.918C161 164.993 164.993 161 169.918 161C173.494 161 176.578 163.105 178 166.143C179.422 163.105 182.506 161 186.082 161C191.007 161 195 164.993 195 169.918C195 174.843 192.77 182.18 178 182.18Z" fill="white"/>
<circle cx="170.197" cy="171.312" r="5.21639" fill="black" stroke="black" stroke-width="0.157377"/>
<circle cx="186.361" cy="171.312" r="5.21639" fill="black" stroke="black" stroke-width="0.157377"/>
<circle cx="170.197" cy="172.426" r="1.39344" fill="white"/>
<circle cx="186.361" cy="172.426" r="1.39344" fill="white"/>
</svg>
