<svg width="380" height="233" viewBox="0 0 380 233" fill="none" xmlns="http://www.w3.org/2000/svg">
<rect x="32.5" y="113.5" width="315" height="71" rx="11.5" fill="url(#paint0_linear_8024_138)"/>
<rect x="32.5" y="113.5" width="315" height="71" rx="11.5" stroke="url(#paint1_linear_8024_138)"/>
<g filter="url(#filter0_d_8024_138)">
<circle cx="286.5" cy="162.5" r="0.5" fill="#D9D9D9"/>
</g>
<g filter="url(#filter1_d_8024_138)">
<circle cx="90.5" cy="133.5" r="0.5" fill="#D9D9D9" fill-opacity="0.01" shape-rendering="crispEdges"/>
</g>
<g filter="url(#filter2_i_8024_138)">
<rect x="32" y="113" width="316" height="72" rx="12" fill="url(#paint2_linear_8024_138)"/>
</g>
<rect x="32.5" y="113.5" width="315" height="71" rx="11.5" stroke="url(#paint3_linear_8024_138)"/>
<g filter="url(#filter3_d_8024_138)">
<path fill-rule="evenodd" clip-rule="evenodd" d="M307.927 95.1128C308.488 95.3539 308.822 95.9322 308.746 96.5328L307.561 105.909L316.099 105.909C316.431 105.909 316.768 105.909 317.043 105.934C317.303 105.957 317.8 106.018 318.232 106.364C318.726 106.759 319.009 107.357 319 107.985C318.991 108.534 318.721 108.952 318.572 109.165C318.415 109.389 318.2 109.645 317.987 109.898L305.681 124.509C305.289 124.974 304.634 125.128 304.073 124.887C303.512 124.646 303.178 124.068 303.254 123.467L304.439 114.091L295.901 114.091C295.569 114.091 295.232 114.091 294.957 114.066C294.697 114.043 294.2 113.982 293.768 113.636C293.274 113.241 292.991 112.643 293 112.015C293.009 111.466 293.279 111.048 293.428 110.835C293.585 110.611 293.8 110.355 294.013 110.102C294.023 110.09 294.034 110.077 294.044 110.065L306.319 95.4907C306.711 95.0257 307.366 94.8718 307.927 95.1128Z" fill="url(#paint4_linear_8024_138)" fill-opacity="0.7"/>
</g>
<path d="M72.3082 131.818H74.3913L76.8821 136.322H76.9815L79.4723 131.818H81.5554L77.8516 138.202V142H76.0121V138.202L72.3082 131.818ZM84.6912 142.149C83.9455 142.149 83.2992 141.985 82.7523 141.657C82.2054 141.329 81.7812 140.87 81.4796 140.28C81.1813 139.69 81.0321 139 81.0321 138.212C81.0321 137.423 81.1813 136.732 81.4796 136.138C81.7812 135.545 82.2054 135.085 82.7523 134.756C83.2992 134.428 83.9455 134.264 84.6912 134.264C85.437 134.264 86.0833 134.428 86.6301 134.756C87.177 135.085 87.5996 135.545 87.8979 136.138C88.1995 136.732 88.3503 137.423 88.3503 138.212C88.3503 139 88.1995 139.69 87.8979 140.28C87.5996 140.87 87.177 141.329 86.6301 141.657C86.0833 141.985 85.437 142.149 84.6912 142.149ZM84.7012 140.707C85.1055 140.707 85.4436 140.596 85.7154 140.374C85.9872 140.149 86.1893 139.847 86.3219 139.469C86.4578 139.092 86.5257 138.671 86.5257 138.207C86.5257 137.739 86.4578 137.317 86.3219 136.939C86.1893 136.558 85.9872 136.254 85.7154 136.029C85.4436 135.804 85.1055 135.691 84.7012 135.691C84.2869 135.691 83.9422 135.804 83.6671 136.029C83.3953 136.254 83.1915 136.558 83.0556 136.939C82.923 137.317 82.8567 137.739 82.8567 138.207C82.8567 138.671 82.923 139.092 83.0556 139.469C83.1915 139.847 83.3953 140.149 83.6671 140.374C83.9422 140.596 84.2869 140.707 84.7012 140.707ZM94.745 138.788V134.364H96.5447V142H94.7997V140.643H94.7202C94.5478 141.07 94.2644 141.42 93.87 141.692C93.4789 141.964 92.9967 142.099 92.4233 142.099C91.9228 142.099 91.4804 141.988 91.0959 141.766C90.7147 141.541 90.4164 141.214 90.201 140.787C89.9856 140.356 89.8778 139.836 89.8778 139.226V134.364H91.6776V138.947C91.6776 139.431 91.8101 139.816 92.0753 140.101C92.3404 140.386 92.6884 140.528 93.1193 140.528C93.3845 140.528 93.6413 140.464 93.8899 140.335C94.1385 140.205 94.3423 140.013 94.5014 139.758C94.6638 139.499 94.745 139.176 94.745 138.788ZM97.3166 133.364V131.818H105.44V133.364H102.293V142H100.464V133.364H97.3166ZM110.755 138.788V134.364H112.555V142H110.809V140.643H110.73C110.558 141.07 110.274 141.42 109.88 141.692C109.489 141.964 109.006 142.099 108.433 142.099C107.933 142.099 107.49 141.988 107.106 141.766C106.724 141.541 106.426 141.214 106.211 140.787C105.995 140.356 105.888 139.836 105.888 139.226V134.364H107.687V138.947C107.687 139.431 107.82 139.816 108.085 140.101C108.35 140.386 108.698 140.528 109.129 140.528C109.394 140.528 109.651 140.464 109.9 140.335C110.148 140.205 110.352 140.013 110.511 139.758C110.674 139.499 110.755 139.176 110.755 138.788ZM114.485 142V131.818H116.284V135.626H116.359C116.452 135.441 116.583 135.244 116.752 135.035C116.921 134.823 117.15 134.642 117.438 134.493C117.726 134.34 118.094 134.264 118.542 134.264C119.132 134.264 119.663 134.415 120.137 134.717C120.615 135.015 120.993 135.457 121.271 136.044C121.553 136.627 121.694 137.343 121.694 138.192C121.694 139.03 121.556 139.743 121.281 140.33C121.006 140.916 120.631 141.364 120.157 141.672C119.683 141.98 119.146 142.134 118.547 142.134C118.109 142.134 117.746 142.061 117.458 141.915C117.169 141.77 116.937 141.594 116.762 141.388C116.589 141.18 116.455 140.982 116.359 140.797H116.255V142H114.485ZM116.25 138.182C116.25 138.676 116.319 139.108 116.458 139.479C116.601 139.851 116.805 140.141 117.07 140.349C117.338 140.555 117.663 140.658 118.044 140.658C118.442 140.658 118.775 140.552 119.044 140.339C119.312 140.124 119.514 139.831 119.65 139.46C119.789 139.085 119.859 138.659 119.859 138.182C119.859 137.708 119.791 137.287 119.655 136.919C119.519 136.551 119.317 136.263 119.049 136.054C118.78 135.845 118.445 135.741 118.044 135.741C117.66 135.741 117.333 135.842 117.065 136.044C116.797 136.246 116.593 136.53 116.453 136.894C116.318 137.259 116.25 137.688 116.25 138.182ZM126.604 142.149C125.839 142.149 125.177 141.99 124.621 141.672C124.067 141.35 123.641 140.896 123.343 140.31C123.045 139.72 122.895 139.025 122.895 138.227C122.895 137.441 123.045 136.752 123.343 136.158C123.644 135.562 124.065 135.098 124.606 134.766C125.146 134.432 125.781 134.264 126.51 134.264C126.98 134.264 127.425 134.34 127.842 134.493C128.263 134.642 128.634 134.874 128.956 135.189C129.281 135.504 129.536 135.905 129.721 136.392C129.907 136.876 130 137.453 130 138.122V138.674H123.741V137.461H128.275C128.271 137.116 128.197 136.81 128.051 136.541C127.905 136.269 127.701 136.056 127.439 135.9C127.181 135.744 126.879 135.666 126.535 135.666C126.167 135.666 125.844 135.756 125.565 135.935C125.287 136.11 125.07 136.342 124.914 136.631C124.761 136.916 124.684 137.229 124.68 137.57V138.629C124.68 139.073 124.761 139.455 124.924 139.773C125.086 140.088 125.313 140.33 125.605 140.499C125.897 140.664 126.238 140.747 126.629 140.747C126.891 140.747 127.128 140.711 127.34 140.638C127.552 140.562 127.736 140.451 127.892 140.305C128.048 140.159 128.165 139.978 128.245 139.763L129.925 139.952C129.819 140.396 129.617 140.784 129.319 141.115C129.024 141.443 128.646 141.698 128.185 141.881C127.724 142.06 127.198 142.149 126.604 142.149ZM138.326 142.149C137.564 142.149 136.909 141.982 136.362 141.647C135.819 141.312 135.399 140.85 135.104 140.26C134.813 139.667 134.667 138.984 134.667 138.212C134.667 137.436 134.816 136.752 135.114 136.158C135.413 135.562 135.834 135.098 136.377 134.766C136.924 134.432 137.57 134.264 138.316 134.264C138.936 134.264 139.484 134.379 139.962 134.607C140.442 134.833 140.825 135.152 141.11 135.567C141.395 135.978 141.558 136.458 141.597 137.009H139.877C139.808 136.641 139.642 136.334 139.38 136.089C139.121 135.84 138.775 135.716 138.341 135.716C137.973 135.716 137.65 135.815 137.371 136.014C137.093 136.21 136.876 136.491 136.72 136.859C136.568 137.227 136.491 137.668 136.491 138.182C136.491 138.702 136.568 139.15 136.72 139.524C136.873 139.895 137.086 140.182 137.362 140.384C137.64 140.583 137.966 140.683 138.341 140.683C138.606 140.683 138.843 140.633 139.052 140.533C139.264 140.431 139.441 140.283 139.584 140.091C139.726 139.899 139.824 139.665 139.877 139.39H141.597C141.554 139.93 141.395 140.409 141.12 140.827C140.845 141.241 140.47 141.566 139.996 141.801C139.522 142.033 138.966 142.149 138.326 142.149ZM145.273 142.154C144.789 142.154 144.353 142.068 143.965 141.896C143.581 141.72 143.276 141.461 143.05 141.12C142.828 140.779 142.717 140.358 142.717 139.857C142.717 139.426 142.797 139.07 142.956 138.788C143.115 138.507 143.332 138.281 143.607 138.112C143.882 137.943 144.192 137.816 144.537 137.729C144.885 137.64 145.244 137.575 145.616 137.536C146.063 137.489 146.426 137.448 146.704 137.411C146.983 137.371 147.185 137.312 147.311 137.232C147.44 137.149 147.505 137.022 147.505 136.849V136.82C147.505 136.445 147.394 136.155 147.172 135.95C146.95 135.744 146.63 135.641 146.212 135.641C145.771 135.641 145.422 135.737 145.163 135.93C144.908 136.122 144.736 136.349 144.646 136.611L142.966 136.372C143.098 135.908 143.317 135.52 143.622 135.209C143.927 134.894 144.3 134.659 144.741 134.503C145.181 134.344 145.669 134.264 146.202 134.264C146.57 134.264 146.936 134.307 147.301 134.393C147.666 134.48 147.999 134.622 148.3 134.821C148.602 135.017 148.844 135.283 149.026 135.621C149.212 135.96 149.305 136.382 149.305 136.889V142H147.574V140.951H147.515C147.405 141.163 147.251 141.362 147.052 141.548C146.857 141.73 146.61 141.877 146.312 141.99C146.017 142.099 145.67 142.154 145.273 142.154ZM145.74 140.832C146.101 140.832 146.414 140.76 146.68 140.618C146.945 140.472 147.148 140.28 147.291 140.041C147.437 139.803 147.51 139.542 147.51 139.261V138.361C147.453 138.407 147.357 138.45 147.221 138.49C147.089 138.53 146.94 138.565 146.774 138.594C146.608 138.624 146.444 138.651 146.282 138.674C146.119 138.697 145.979 138.717 145.859 138.734C145.591 138.77 145.35 138.83 145.138 138.913C144.926 138.996 144.759 139.112 144.636 139.261C144.514 139.406 144.452 139.595 144.452 139.827C144.452 140.159 144.573 140.409 144.815 140.578C145.057 140.747 145.365 140.832 145.74 140.832ZM152.914 137.526V142H151.114V134.364H152.834V135.661H152.924C153.099 135.234 153.38 134.894 153.764 134.642C154.152 134.39 154.631 134.264 155.201 134.264C155.728 134.264 156.187 134.377 156.578 134.602C156.972 134.828 157.277 135.154 157.493 135.582C157.711 136.009 157.819 136.528 157.816 137.138V142H156.016V137.416C156.016 136.906 155.884 136.506 155.618 136.218C155.357 135.93 154.994 135.786 154.53 135.786C154.215 135.786 153.935 135.855 153.689 135.994C153.448 136.13 153.257 136.327 153.118 136.586C152.982 136.844 152.914 137.158 152.914 137.526ZM164.694 142L162.536 134.364H164.371L165.713 139.733H165.783L167.155 134.364H168.97L170.342 139.703H170.416L171.739 134.364H173.578L171.416 142H169.541L168.11 136.839H168.005L166.573 142H164.694ZM177.032 142.154C176.548 142.154 176.113 142.068 175.725 141.896C175.34 141.72 175.035 141.461 174.81 141.12C174.588 140.779 174.477 140.358 174.477 139.857C174.477 139.426 174.556 139.07 174.716 138.788C174.875 138.507 175.092 138.281 175.367 138.112C175.642 137.943 175.952 137.816 176.297 137.729C176.645 137.64 177.004 137.575 177.375 137.536C177.823 137.489 178.186 137.448 178.464 137.411C178.743 137.371 178.945 137.312 179.071 137.232C179.2 137.149 179.265 137.022 179.265 136.849V136.82C179.265 136.445 179.154 136.155 178.931 135.95C178.709 135.744 178.39 135.641 177.972 135.641C177.531 135.641 177.181 135.737 176.923 135.93C176.668 136.122 176.495 136.349 176.406 136.611L174.725 136.372C174.858 135.908 175.077 135.52 175.382 135.209C175.687 134.894 176.06 134.659 176.5 134.503C176.941 134.344 177.428 134.264 177.962 134.264C178.33 134.264 178.696 134.307 179.061 134.393C179.425 134.48 179.758 134.622 180.06 134.821C180.362 135.017 180.604 135.283 180.786 135.621C180.971 135.96 181.064 136.382 181.064 136.889V142H179.334V140.951H179.275C179.165 141.163 179.011 141.362 178.812 141.548C178.617 141.73 178.37 141.877 178.071 141.99C177.776 142.099 177.43 142.154 177.032 142.154ZM177.5 140.832C177.861 140.832 178.174 140.76 178.439 140.618C178.704 140.472 178.908 140.28 179.051 140.041C179.197 139.803 179.27 139.542 179.27 139.261V138.361C179.213 138.407 179.117 138.45 178.981 138.49C178.849 138.53 178.699 138.565 178.534 138.594C178.368 138.624 178.204 138.651 178.042 138.674C177.879 138.697 177.738 138.717 177.619 138.734C177.35 138.77 177.11 138.83 176.898 138.913C176.686 138.996 176.519 139.112 176.396 139.261C176.273 139.406 176.212 139.595 176.212 139.827C176.212 140.159 176.333 140.409 176.575 140.578C176.817 140.747 177.125 140.832 177.5 140.832ZM182.874 142V134.364H184.674V142H182.874ZM183.779 133.28C183.494 133.28 183.248 133.185 183.043 132.996C182.837 132.804 182.735 132.574 182.735 132.305C182.735 132.034 182.837 131.803 183.043 131.614C183.248 131.422 183.494 131.326 183.779 131.326C184.067 131.326 184.312 131.422 184.515 131.614C184.72 131.803 184.823 132.034 184.823 132.305C184.823 132.574 184.72 132.804 184.515 132.996C184.312 133.185 184.067 133.28 183.779 133.28ZM190.338 134.364V135.756H185.948V134.364H190.338ZM187.031 132.534H188.831V139.703C188.831 139.945 188.868 140.131 188.941 140.26C189.017 140.386 189.116 140.472 189.239 140.518C189.361 140.565 189.497 140.588 189.646 140.588C189.759 140.588 189.862 140.58 189.955 140.563C190.051 140.547 190.124 140.532 190.173 140.518L190.477 141.925C190.381 141.959 190.243 141.995 190.064 142.035C189.888 142.075 189.673 142.098 189.418 142.104C188.967 142.118 188.561 142.05 188.2 141.901C187.838 141.748 187.552 141.513 187.34 141.195C187.131 140.876 187.028 140.479 187.031 140.001V132.534ZM194.045 131.818L193.881 139.007H192.28L192.121 131.818H194.045ZM193.081 142.109C192.779 142.109 192.52 142.003 192.305 141.791C192.093 141.579 191.987 141.321 191.987 141.016C191.987 140.717 192.093 140.462 192.305 140.25C192.52 140.038 192.779 139.932 193.081 139.932C193.376 139.932 193.631 140.038 193.846 140.25C194.065 140.462 194.174 140.717 194.174 141.016C194.174 141.218 194.123 141.402 194.02 141.567C193.921 141.733 193.788 141.866 193.623 141.965C193.46 142.061 193.279 142.109 193.081 142.109Z" fill="#CBD5E0"/>
<g opacity="0.6">
<ellipse cx="55.9997" cy="136.467" rx="4.8" ry="4.26667" fill="white"/>
<path d="M63.6653 132.893C63.4813 132.201 62.9393 131.655 62.2507 131.469C61.0033 131.133 56 131.133 56 131.133C56 131.133 50.9967 131.133 49.7487 131.469C49.0607 131.655 48.5187 132.2 48.3347 132.893C48 134.149 48 136.769 48 136.769C48 136.769 48 139.389 48.3347 140.645C48.5187 141.338 49.0607 141.884 49.7493 142.069C50.9967 142.405 56 142.405 56 142.405C56 142.405 61.0033 142.405 62.2513 142.069C62.9393 141.884 63.4813 141.339 63.666 140.645C64 139.389 64 136.769 64 136.769C64 136.769 64 134.149 63.6653 132.893ZM54.364 139.149V134.39L58.5453 136.769L54.364 139.149Z" fill="#FF0F1C"/>
</g>
<path d="M73.1489 170V160.84H74.5708V168.775H78.8618V170H73.1489ZM83.463 170.133C81.4445 170.133 80.2257 168.756 80.2257 166.572V166.566C80.2257 164.414 81.4698 162.973 83.3932 162.973C85.3165 162.973 86.4972 164.363 86.4972 166.433V166.915H81.6095C81.6349 168.235 82.3585 169.003 83.4947 169.003C84.3771 169.003 84.9039 168.565 85.069 168.21L85.0944 168.159L86.421 168.153L86.4083 168.21C86.1798 169.118 85.2277 170.133 83.463 170.133ZM83.3995 164.103C82.4601 164.103 81.7491 164.744 81.6285 165.931H85.1324C85.0245 164.7 84.3326 164.103 83.3995 164.103ZM91.1174 170.044C89.6003 170.044 88.9783 169.511 88.9783 168.185V164.192H87.8992V163.106H88.9783V161.367H90.3811V163.106H91.8601V164.192H90.3811V167.854C90.3811 168.597 90.6604 168.902 91.3396 168.902C91.5491 168.902 91.6697 168.896 91.8601 168.876V169.975C91.6379 170.013 91.384 170.044 91.1174 170.044ZM94.3602 164.566L94.2079 160.84H95.598L95.4457 164.566H94.3602ZM100.834 170.133C99.1709 170.133 98.1172 169.353 97.9839 168.197V168.191H99.3613L99.3677 168.197C99.539 168.718 100.041 169.067 100.859 169.067C101.71 169.067 102.3 168.68 102.3 168.115V168.102C102.3 167.67 101.977 167.378 101.177 167.194L100.079 166.94C98.7773 166.642 98.1743 166.052 98.1743 165.042V165.036C98.1743 163.836 99.2915 162.973 100.853 162.973C102.427 162.973 103.437 163.76 103.557 164.884V164.89H102.243V164.877C102.11 164.395 101.621 164.033 100.847 164.033C100.091 164.033 99.5454 164.408 99.5454 164.96V164.973C99.5454 165.404 99.8628 165.671 100.637 165.855L101.729 166.103C103.056 166.414 103.69 166.979 103.69 167.975V167.988C103.69 169.264 102.472 170.133 100.834 170.133ZM110.138 170V164.192H109.002V163.106H110.138V162.383C110.138 161.012 110.83 160.339 112.271 160.339C112.575 160.339 112.842 160.358 113.083 160.402V161.412C112.956 161.393 112.772 161.38 112.556 161.38C111.795 161.38 111.496 161.748 111.496 162.446V163.106H113.026V164.192H111.509V170H110.138ZM117.608 170.133C115.583 170.133 114.346 168.781 114.346 166.56V166.547C114.346 164.332 115.59 162.973 117.608 162.973C119.62 162.973 120.865 164.325 120.865 166.547V166.56C120.865 168.781 119.627 170.133 117.608 170.133ZM117.608 168.984C118.789 168.984 119.462 168.083 119.462 166.56V166.547C119.462 165.017 118.789 164.122 117.608 164.122C116.421 164.122 115.755 165.017 115.755 166.547V166.56C115.755 168.089 116.421 168.984 117.608 168.984ZM125.79 170.133C123.777 170.133 122.546 168.762 122.546 166.534V166.521C122.546 164.338 123.771 162.973 125.783 162.973C127.516 162.973 128.551 163.951 128.741 165.29V165.322L127.421 165.328L127.415 165.309C127.262 164.63 126.704 164.122 125.79 164.122C124.641 164.122 123.949 165.036 123.949 166.521V166.534C123.949 168.058 124.653 168.984 125.79 168.984C126.653 168.984 127.186 168.591 127.408 167.848L127.421 167.816H128.741L128.728 167.874C128.481 169.213 127.497 170.133 125.79 170.133ZM132.981 170.133C131.425 170.133 130.619 169.2 130.619 167.569V163.106H131.997V167.245C131.997 168.388 132.416 168.953 133.425 168.953C134.529 168.953 135.12 168.261 135.12 167.15V163.106H136.491V170H135.12V168.959H135.012C134.682 169.702 133.983 170.133 132.981 170.133ZM141.365 170.133C139.702 170.133 138.648 169.353 138.515 168.197V168.191H139.892L139.899 168.197C140.07 168.718 140.571 169.067 141.39 169.067C142.241 169.067 142.831 168.68 142.831 168.115V168.102C142.831 167.67 142.508 167.378 141.708 167.194L140.61 166.94C139.308 166.642 138.705 166.052 138.705 165.042V165.036C138.705 163.836 139.822 162.973 141.384 162.973C142.958 162.973 143.967 163.76 144.088 164.884V164.89H142.774V164.877C142.641 164.395 142.152 164.033 141.378 164.033C140.622 164.033 140.076 164.408 140.076 164.96V164.973C140.076 165.404 140.394 165.671 141.168 165.855L142.26 166.103C143.587 166.414 144.221 166.979 144.221 167.975V167.988C144.221 169.264 143.003 170.133 141.365 170.133ZM153.1 170.133C151.075 170.133 149.837 168.781 149.837 166.56V166.547C149.837 164.332 151.081 162.973 153.1 162.973C155.112 162.973 156.356 164.325 156.356 166.547V166.56C156.356 168.781 155.119 170.133 153.1 170.133ZM153.1 168.984C154.281 168.984 154.954 168.083 154.954 166.56V166.547C154.954 165.017 154.281 164.122 153.1 164.122C151.913 164.122 151.247 165.017 151.247 166.547V166.56C151.247 168.089 151.913 168.984 153.1 168.984ZM158.38 170V163.106H159.758V164.154H159.859C160.196 163.417 160.856 162.973 161.859 162.973C163.401 162.973 164.252 163.894 164.252 165.538V170H162.881V165.861C162.881 164.719 162.405 164.154 161.396 164.154C160.386 164.154 159.758 164.846 159.758 165.957V170H158.38ZM173.093 170.044C171.575 170.044 170.953 169.511 170.953 168.185V164.192H169.874V163.106H170.953V161.367H172.356V163.106H173.835V164.192H172.356V167.854C172.356 168.597 172.636 168.902 173.315 168.902C173.524 168.902 173.645 168.896 173.835 168.876V169.975C173.613 170.013 173.359 170.044 173.093 170.044ZM175.885 170V160.402H177.262V164.154H177.364C177.7 163.417 178.36 162.973 179.363 162.973C180.906 162.973 181.756 163.894 181.756 165.538V170H180.385V165.861C180.385 164.719 179.909 164.154 178.9 164.154C177.891 164.154 177.262 164.846 177.262 165.957V170H175.885ZM186.954 170.133C184.936 170.133 183.717 168.756 183.717 166.572V166.566C183.717 164.414 184.961 162.973 186.884 162.973C188.808 162.973 189.988 164.363 189.988 166.433V166.915H185.101C185.126 168.235 185.85 169.003 186.986 169.003C187.868 169.003 188.395 168.565 188.56 168.21L188.585 168.159L189.912 168.153L189.899 168.21C189.671 169.118 188.719 170.133 186.954 170.133ZM186.891 164.103C185.951 164.103 185.24 164.744 185.12 165.931H188.624C188.516 164.7 187.824 164.103 186.891 164.103ZM198.543 170.044C197.026 170.044 196.404 169.511 196.404 168.185V164.192H195.325V163.106H196.404V161.367H197.807V163.106H199.286V164.192H197.807V167.854C197.807 168.597 198.086 168.902 198.765 168.902C198.975 168.902 199.095 168.896 199.286 168.876V169.975C199.064 170.013 198.81 170.044 198.543 170.044ZM203.163 170.114C201.85 170.114 200.878 169.314 200.878 168.064V168.051C200.878 166.82 201.805 166.103 203.449 166.001L205.315 165.893V165.284C205.315 164.528 204.839 164.109 203.906 164.109C203.144 164.109 202.643 164.389 202.478 164.877L202.472 164.903H201.145L201.151 164.858C201.316 163.729 202.402 162.973 203.97 162.973C205.703 162.973 206.68 163.836 206.68 165.284V170H205.315V169.022H205.207C204.801 169.721 204.078 170.114 203.163 170.114ZM202.249 168.007C202.249 168.642 202.789 169.016 203.532 169.016C204.56 169.016 205.315 168.343 205.315 167.455V166.864L203.633 166.972C202.681 167.029 202.249 167.372 202.249 167.994V168.007ZM211.51 170.133C209.847 170.133 208.793 169.353 208.66 168.197V168.191H210.037L210.043 168.197C210.215 168.718 210.716 169.067 211.535 169.067C212.386 169.067 212.976 168.68 212.976 168.115V168.102C212.976 167.67 212.652 167.378 211.853 167.194L210.754 166.94C209.453 166.642 208.85 166.052 208.85 165.042V165.036C208.85 163.836 209.967 162.973 211.529 162.973C213.103 162.973 214.112 163.76 214.233 164.884V164.89H212.919V164.877C212.786 164.395 212.297 164.033 211.522 164.033C210.767 164.033 210.221 164.408 210.221 164.96V164.973C210.221 165.404 210.539 165.671 211.313 165.855L212.405 166.103C213.731 166.414 214.366 166.979 214.366 167.975V167.988C214.366 169.264 213.147 170.133 211.51 170.133ZM216.454 170V160.402H217.831V166.014H217.933L220.669 163.106H222.281L219.405 166.014L222.471 170H220.796L218.422 166.902L217.831 167.493V170H216.454ZM226.349 170.133C224.686 170.133 223.632 169.353 223.499 168.197V168.191H224.876L224.883 168.197C225.054 168.718 225.555 169.067 226.374 169.067C227.225 169.067 227.815 168.68 227.815 168.115V168.102C227.815 167.67 227.491 167.378 226.692 167.194L225.594 166.94C224.292 166.642 223.689 166.052 223.689 165.042V165.036C223.689 163.836 224.806 162.973 226.368 162.973C227.942 162.973 228.951 163.76 229.072 164.884V164.89H227.758V164.877C227.625 164.395 227.136 164.033 226.362 164.033C225.606 164.033 225.06 164.408 225.06 164.96V164.973C225.06 165.404 225.378 165.671 226.152 165.855L227.244 166.103C228.571 166.414 229.205 166.979 229.205 167.975V167.988C229.205 169.264 227.987 170.133 226.349 170.133ZM237.767 170.044C236.25 170.044 235.627 169.511 235.627 168.185V164.192H234.548V163.106H235.627V161.367H237.03V163.106H238.509V164.192H237.03V167.854C237.03 168.597 237.31 168.902 237.989 168.902C238.198 168.902 238.319 168.896 238.509 168.876V169.975C238.287 170.013 238.033 170.044 237.767 170.044ZM240.559 170V160.402H241.936V164.154H242.038C242.374 163.417 243.034 162.973 244.037 162.973C245.58 162.973 246.43 163.894 246.43 165.538V170H245.059V165.861C245.059 164.719 244.583 164.154 243.574 164.154C242.565 164.154 241.936 164.846 241.936 165.957V170H240.559ZM250.625 170.114C249.311 170.114 248.34 169.314 248.34 168.064V168.051C248.34 166.82 249.267 166.103 250.911 166.001L252.777 165.893V165.284C252.777 164.528 252.301 164.109 251.368 164.109C250.606 164.109 250.105 164.389 249.94 164.877L249.933 164.903H248.607L248.613 164.858C248.778 163.729 249.864 162.973 251.431 162.973C253.164 162.973 254.142 163.836 254.142 165.284V170H252.777V169.022H252.669C252.263 169.721 251.539 170.114 250.625 170.114ZM249.711 168.007C249.711 168.642 250.251 169.016 250.993 169.016C252.022 169.016 252.777 168.343 252.777 167.455V166.864L251.095 166.972C250.143 167.029 249.711 167.372 249.711 167.994V168.007ZM259.067 170.044C257.55 170.044 256.928 169.511 256.928 168.185V164.192H255.848V163.106H256.928V161.367H258.33V163.106H259.809V164.192H258.33V167.854C258.33 168.597 258.61 168.902 259.289 168.902C259.498 168.902 259.619 168.896 259.809 168.876V169.975C259.587 170.013 259.333 170.044 259.067 170.044ZM265.73 170V163.106H267.108V164.167H267.209C267.514 163.411 268.187 162.973 269.088 162.973C270.027 162.973 270.694 163.462 270.999 164.205H271.107C271.456 163.462 272.249 162.973 273.208 162.973C274.598 162.973 275.41 163.811 275.41 165.246V170H274.039V165.576C274.039 164.624 273.608 164.154 272.706 164.154C271.83 164.154 271.253 164.808 271.253 165.639V170H269.881V165.436C269.881 164.649 269.367 164.154 268.555 164.154C267.723 164.154 267.108 164.865 267.108 165.766V170H265.73ZM279.605 170.114C278.291 170.114 277.32 169.314 277.32 168.064V168.051C277.32 166.82 278.247 166.103 279.891 166.001L281.757 165.893V165.284C281.757 164.528 281.281 164.109 280.348 164.109C279.586 164.109 279.085 164.389 278.92 164.877L278.913 164.903H277.587L277.593 164.858C277.758 163.729 278.843 162.973 280.411 162.973C282.144 162.973 283.122 163.836 283.122 165.284V170H281.757V169.022H281.649C281.243 169.721 280.519 170.114 279.605 170.114ZM278.691 168.007C278.691 168.642 279.231 169.016 279.973 169.016C281.002 169.016 281.757 168.343 281.757 167.455V166.864L280.075 166.972C279.123 167.029 278.691 167.372 278.691 167.994V168.007ZM288.047 170.044C286.53 170.044 285.908 169.511 285.908 168.185V164.192H284.828V163.106H285.908V161.367H287.31V163.106H288.789V164.192H287.31V167.854C287.31 168.597 287.59 168.902 288.269 168.902C288.478 168.902 288.599 168.896 288.789 168.876V169.975C288.567 170.013 288.313 170.044 288.047 170.044ZM293.403 170.044C291.886 170.044 291.264 169.511 291.264 168.185V164.192H290.185V163.106H291.264V161.367H292.667V163.106H294.146V164.192H292.667V167.854C292.667 168.597 292.946 168.902 293.625 168.902C293.835 168.902 293.956 168.896 294.146 168.876V169.975C293.924 170.013 293.67 170.044 293.403 170.044ZM298.95 170.133C296.932 170.133 295.713 168.756 295.713 166.572V166.566C295.713 164.414 296.957 162.973 298.88 162.973C300.804 162.973 301.984 164.363 301.984 166.433V166.915H297.097C297.122 168.235 297.846 169.003 298.982 169.003C299.864 169.003 300.391 168.565 300.556 168.21L300.582 168.159L301.908 168.153L301.896 168.21C301.667 169.118 300.715 170.133 298.95 170.133ZM298.887 164.103C297.947 164.103 297.236 164.744 297.116 165.931H300.62C300.512 164.7 299.82 164.103 298.887 164.103ZM304.002 170V163.106H305.38V164.147H305.481C305.729 163.417 306.37 162.986 307.29 162.986C307.512 162.986 307.754 163.018 307.893 163.049V164.319C307.646 164.268 307.411 164.236 307.151 164.236C306.097 164.236 305.38 164.884 305.38 165.88V170H304.002ZM309.721 170.095C309.194 170.095 308.787 169.689 308.787 169.175C308.787 168.654 309.194 168.248 309.721 168.248C310.247 168.248 310.647 168.654 310.647 169.175C310.647 169.689 310.247 170.095 309.721 170.095Z" fill="#718096"/>
<defs>
<filter id="filter0_d_8024_138" x="153" y="29" width="267" height="267" filterUnits="userSpaceOnUse" color-interpolation-filters="sRGB">
<feFlood flood-opacity="0" result="BackgroundImageFix"/>
<feColorMatrix in="SourceAlpha" type="matrix" values="0 0 0 0 0 0 0 0 0 0 0 0 0 0 0 0 0 0 127 0" result="hardAlpha"/>
<feMorphology radius="53" operator="dilate" in="SourceAlpha" result="effect1_dropShadow_8024_138"/>
<feOffset/>
<feGaussianBlur stdDeviation="40"/>
<feComposite in2="hardAlpha" operator="out"/>
<feColorMatrix type="matrix" values="0 0 0 0 0.0173359 0 0 0 0 0.214125 0 0 0 0 0.607704 0 0 0 0.32 0"/>
<feBlend mode="normal" in2="BackgroundImageFix" result="effect1_dropShadow_8024_138"/>
<feBlend mode="normal" in="SourceGraphic" in2="effect1_dropShadow_8024_138" result="shape"/>
</filter>
<filter id="filter1_d_8024_138" x="-43" y="0" width="267" height="267" filterUnits="userSpaceOnUse" color-interpolation-filters="sRGB">
<feFlood flood-opacity="0" result="BackgroundImageFix"/>
<feColorMatrix in="SourceAlpha" type="matrix" values="0 0 0 0 0 0 0 0 0 0 0 0 0 0 0 0 0 0 127 0" result="hardAlpha"/>
<feMorphology radius="53" operator="dilate" in="SourceAlpha" result="effect1_dropShadow_8024_138"/>
<feOffset/>
<feGaussianBlur stdDeviation="40"/>
<feComposite in2="hardAlpha" operator="out"/>
<feColorMatrix type="matrix" values="0 0 0 0 0.596078 0 0 0 0 0.180392 0 0 0 0 0.180392 0 0 0 0.32 0"/>
<feBlend mode="normal" in2="BackgroundImageFix" result="effect1_dropShadow_8024_138"/>
<feBlend mode="normal" in="SourceGraphic" in2="effect1_dropShadow_8024_138" result="shape"/>
</filter>
<filter id="filter2_i_8024_138" x="32" y="113" width="316" height="76" filterUnits="userSpaceOnUse" color-interpolation-filters="sRGB">
<feFlood flood-opacity="0" result="BackgroundImageFix"/>
<feBlend mode="normal" in="SourceGraphic" in2="BackgroundImageFix" result="shape"/>
<feColorMatrix in="SourceAlpha" type="matrix" values="0 0 0 0 0 0 0 0 0 0 0 0 0 0 0 0 0 0 127 0" result="hardAlpha"/>
<feOffset dy="4"/>
<feGaussianBlur stdDeviation="5.5"/>
<feComposite in2="hardAlpha" operator="arithmetic" k2="-1" k3="1"/>
<feColorMatrix type="matrix" values="0 0 0 0 0.596078 0 0 0 0 0.439216 0 0 0 0 0.180392 0 0 0 0.3 0"/>
<feBlend mode="normal" in2="shape" result="effect1_innerShadow_8024_138"/>
</filter>
<filter id="filter3_d_8024_138" x="264.776" y="66.776" width="82.448" height="86.448" filterUnits="userSpaceOnUse" color-interpolation-filters="sRGB">
<feFlood flood-opacity="0" result="BackgroundImageFix"/>
<feColorMatrix in="SourceAlpha" type="matrix" values="0 0 0 0 0 0 0 0 0 0 0 0 0 0 0 0 0 0 127 0" result="hardAlpha"/>
<feOffset/>
<feGaussianBlur stdDeviation="14.112"/>
<feColorMatrix type="matrix" values="0 0 0 0 0.984314 0 0 0 0 0.576471 0 0 0 0 0.290196 0 0 0 1 0"/>
<feBlend mode="normal" in2="BackgroundImageFix" result="effect1_dropShadow_8024_138"/>
<feBlend mode="normal" in="SourceGraphic" in2="effect1_dropShadow_8024_138" result="shape"/>
</filter>
<linearGradient id="paint0_linear_8024_138" x1="296.927" y1="113" x2="288.692" y2="194.92" gradientUnits="userSpaceOnUse">
<stop stop-color="#07080A" stop-opacity="0.9"/>
<stop offset="1" stop-color="#07080A"/>
</linearGradient>
<linearGradient id="paint1_linear_8024_138" x1="34.921" y1="113" x2="64.738" y2="205.981" gradientUnits="userSpaceOnUse">
<stop stop-color="#98CAFF"/>
<stop offset="0.259615" stop-color="#2E8EF6"/>
<stop offset="1" stop-color="#1A202C"/>
</linearGradient>
<linearGradient id="paint2_linear_8024_138" x1="189.616" y1="81.1143" x2="189.616" y2="217.211" gradientUnits="userSpaceOnUse">
<stop stop-color="#102A39"/>
<stop offset="0.771278" stop-color="#102A39" stop-opacity="0.0531842"/>
<stop offset="0.881977" stop-color="#102A39" stop-opacity="0"/>
</linearGradient>
<linearGradient id="paint3_linear_8024_138" x1="199.995" y1="51.9714" x2="199.995" y2="237.8" gradientUnits="userSpaceOnUse">
<stop stop-color="#FDB33C"/>
<stop offset="0.709229" stop-color="#24221E"/>
</linearGradient>
<linearGradient id="paint4_linear_8024_138" x1="297.971" y1="103.25" x2="313.988" y2="126.418" gradientUnits="userSpaceOnUse">
<stop stop-color="#FFF200"/>
<stop offset="1" stop-color="#FF2F00"/>
</linearGradient>
</defs>
</svg>
