<svg width="731" height="100" viewBox="0 0 731 100" fill="none" xmlns="http://www.w3.org/2000/svg">
<path d="M34.3324 3.21539C41.758 -1.0718 50.9067 -1.0718 58.3324 3.21539L80.6647 16.109C88.0903 20.3962 92.6647 28.3192 92.6647 36.8936V62.6808C92.6647 71.2551 88.0903 79.1782 80.6647 83.4654L58.3324 96.359C50.9067 100.646 41.758 100.646 34.3324 96.359L12 83.4654C4.57438 79.1782 0 71.2552 0 62.6808V36.8936C0 28.3192 4.57437 20.3962 12 16.109L34.3324 3.21539Z" fill="url(#paint0_linear_4768_66)"/>
<path d="M161.997 3.21539C169.423 -1.0718 178.572 -1.0718 185.997 3.21539L208.33 16.109C215.755 20.3962 220.33 28.3192 220.33 36.8936V62.6808C220.33 71.2551 215.755 79.1782 208.33 83.4654L185.997 96.359C178.572 100.646 169.423 100.646 161.997 96.359L139.665 83.4654C132.239 79.1782 127.665 71.2552 127.665 62.6808V36.8936C127.665 28.3192 132.239 20.3962 139.665 16.109L161.997 3.21539Z" fill="url(#paint1_linear_4768_66)"/>
<path d="M289.662 3.21539C297.088 -1.0718 306.237 -1.0718 313.662 3.21539L335.995 16.109C343.42 20.3962 347.995 28.3192 347.995 36.8936V62.6808C347.995 71.2551 343.42 79.1782 335.995 83.4654L313.662 96.359C306.237 100.646 297.088 100.646 289.662 96.359L267.33 83.4654C259.904 79.1782 255.33 71.2552 255.33 62.6808V36.8936C255.33 28.3192 259.904 20.3962 267.33 16.109L289.662 3.21539Z" fill="url(#paint2_linear_4768_66)"/>
<path d="M417.327 3.21539C424.753 -1.0718 433.902 -1.0718 441.327 3.21539L463.66 16.109C471.085 20.3962 475.66 28.3192 475.66 36.8936V62.6808C475.66 71.2551 471.085 79.1782 463.66 83.4654L441.327 96.359C433.902 100.646 424.753 100.646 417.327 96.359L394.995 83.4654C387.569 79.1782 382.995 71.2552 382.995 62.6808V36.8936C382.995 28.3192 387.569 20.3962 394.995 16.109L417.327 3.21539Z" fill="url(#paint3_linear_4768_66)"/>
<path d="M544.993 3.21539C552.418 -1.0718 561.567 -1.0718 568.993 3.21539L591.325 16.109C598.751 20.3962 603.325 28.3192 603.325 36.8936V62.6808C603.325 71.2551 598.751 79.1782 591.325 83.4654L568.993 96.359C561.567 100.646 552.418 100.646 544.993 96.359L522.66 83.4654C515.235 79.1782 510.66 71.2552 510.66 62.6808V36.8936C510.66 28.3192 515.235 20.3962 522.66 16.109L544.993 3.21539Z" fill="url(#paint4_linear_4768_66)"/>
<path d="M672.658 3.21539C680.083 -1.0718 689.232 -1.0718 696.658 3.21539L718.99 16.109C726.416 20.3962 730.99 28.3192 730.99 36.8936V62.6808C730.99 71.2551 726.416 79.1782 718.99 83.4654L696.658 96.359C689.232 100.646 680.083 100.646 672.658 96.359L650.325 83.4654C642.9 79.1782 638.325 71.2552 638.325 62.6808V36.8936C638.325 28.3192 642.9 20.3962 650.325 16.109L672.658 3.21539Z" fill="url(#paint5_linear_4768_66)"/>
<defs>
<linearGradient id="paint0_linear_4768_66" x1="92.6647" y1="49.7872" x2="0" y2="49.7872" gradientUnits="userSpaceOnUse">
<stop stop-color="#13151B" stop-opacity="0.3"/>
<stop offset="1" stop-color="#13151B" stop-opacity="0.05"/>
</linearGradient>
<linearGradient id="paint1_linear_4768_66" x1="220.33" y1="49.7872" x2="127.665" y2="49.7872" gradientUnits="userSpaceOnUse">
<stop stop-color="#13151B" stop-opacity="0.35"/>
<stop offset="1" stop-color="#13151B" stop-opacity="0.3"/>
</linearGradient>
<linearGradient id="paint2_linear_4768_66" x1="347.995" y1="49.7872" x2="255.33" y2="49.7872" gradientUnits="userSpaceOnUse">
<stop stop-color="#13151B" stop-opacity="0.5"/>
<stop offset="1" stop-color="#13151B" stop-opacity="0.35"/>
</linearGradient>
<linearGradient id="paint3_linear_4768_66" x1="475.66" y1="49.7872" x2="382.995" y2="49.7872" gradientUnits="userSpaceOnUse">
<stop stop-color="#13151B" stop-opacity="0.65"/>
<stop offset="1" stop-color="#13151B" stop-opacity="0.5"/>
</linearGradient>
<linearGradient id="paint4_linear_4768_66" x1="603.325" y1="49.7872" x2="510.66" y2="49.7872" gradientUnits="userSpaceOnUse">
<stop stop-color="#13151B" stop-opacity="0.8"/>
<stop offset="1" stop-color="#13151B" stop-opacity="0.65"/>
</linearGradient>
<linearGradient id="paint5_linear_4768_66" x1="730.99" y1="49.7872" x2="638.325" y2="49.7872" gradientUnits="userSpaceOnUse">
<stop stop-color="#13151B" stop-opacity="0.95"/>
<stop offset="1" stop-color="#13151B" stop-opacity="0.8"/>
</linearGradient>
</defs>
</svg>
