<svg width="9" height="8" viewBox="0 0 9 8" fill="none" xmlns="http://www.w3.org/2000/svg">
<path d="M7.848 0.647999C7.528 0.967999 7.232 1.352 6.96 1.8C6.704 2.248 6.536 2.696 6.456 3.144C7.048 3.144 7.536 3.312 7.92 3.648C8.32 3.984 8.52 4.456 8.52 5.064C8.52 5.656 8.336 6.152 7.968 6.552C7.616 6.936 7.152 7.128 6.576 7.128C6 7.128 5.528 6.928 5.16 6.528C4.808 6.112 4.632 5.608 4.632 5.016C4.632 4.024 4.872 3.072 5.352 2.16C5.832 1.232 6.44 0.512 7.176 0L7.848 0.647999ZM3.216 0.647999C2.896 0.967999 2.6 1.352 2.328 1.8C2.072 2.248 1.904 2.696 1.824 3.144C2.416 3.144 2.904 3.312 3.288 3.648C3.688 3.984 3.888 4.456 3.888 5.064C3.888 5.656 3.704 6.152 3.336 6.552C2.984 6.936 2.52 7.128 1.944 7.128C1.368 7.128 0.896 6.928 0.528 6.528C0.176 6.112 0 5.608 0 5.016C0 4.024 0.24 3.072 0.72 2.16C1.2 1.232 1.808 0.512 2.544 0L3.216 0.647999Z" fill="#EDF2F7"/>
</svg>
