<svg width="168" height="32" viewBox="0 0 168 32" fill="none" xmlns="http://www.w3.org/2000/svg">
<g clip-path="url(#clip0_4734_171)">
<path d="M9.85775 0.409912L0.613281 6.28896L9.85775 12.168L19.1038 6.28896L28.3483 12.168L37.5927 6.28896L28.3483 0.409912L19.1038 6.28896L9.85775 0.409912Z" fill="white"/>
<path d="M9.85775 23.9265L0.613281 18.0473L9.85775 12.1682L19.1038 18.0473L9.85775 23.9265Z" fill="white"/>
<path d="M19.103 18.0469L28.3476 12.1677L37.592 18.0469L28.3476 23.926L19.103 18.0469Z" fill="white"/>
<path d="M19.1044 31.7649L9.8584 25.8859L19.1044 20.0068L28.3489 25.8859L19.1044 31.7649Z" fill="white"/>
</g>
<g clip-path="url(#clip1_4734_171)">
<path fill-rule="evenodd" clip-rule="evenodd" d="M149.765 25.8505L155.949 17.5298L150.245 9.66797H155.131L158.435 14.5733L161.767 9.66797H166.625L160.835 17.5017L166.936 25.8505H162.134L158.378 20.5709L154.735 25.8505H149.765Z" fill="white"/>
<path fill-rule="evenodd" clip-rule="evenodd" d="M134.213 18.0825C134.213 23.4234 137.131 26.2627 142.299 26.2627C147.134 26.2627 150.412 23.4234 150.412 18.0825V17.6327C150.412 12.2354 147.078 9.25562 142.299 9.25562C137.631 9.25562 134.213 12.1791 134.213 17.6327V18.0825ZM146.201 18.0836C146.201 21.0466 144.724 22.6551 142.299 22.6551C139.902 22.6551 138.425 21.0184 138.425 18.0836V17.6886C138.425 14.5281 139.986 12.8632 142.327 12.8632C144.696 12.8632 146.201 14.641 146.201 17.6886V18.0836Z" fill="white"/>
<path fill-rule="evenodd" clip-rule="evenodd" d="M120.085 22.8903C120.962 24.9697 122.714 26.2622 125.4 26.2622C129.556 26.2622 132.27 23.2275 132.27 17.8326V17.3549C132.27 11.9599 129.386 9.29048 125.513 9.26239C122.94 9.26239 121.131 10.4144 120.227 12.5219V4.20459H116.071V25.8407H119.746L120.085 22.8903ZM128.058 17.8712C128.058 21.0789 126.576 22.6547 124.142 22.6547C121.821 22.6547 120.283 20.9101 120.283 17.8712V17.5335C120.283 14.748 121.877 12.8627 124.198 12.8627C126.436 12.8627 128.058 14.4947 128.058 17.4773V17.8712Z" fill="white"/>
<path fill-rule="evenodd" clip-rule="evenodd" d="M97.6035 9.68696V31.4164H101.752V23.2788C102.627 25.1693 104.348 26.3261 106.945 26.3261C110.783 26.3261 113.803 23.5327 113.803 18.1718V17.7204C113.803 12.2465 111.093 9.25562 106.945 9.25562C104.264 9.25562 102.458 10.6382 101.583 12.7261L101.159 9.68696H97.6035ZM109.591 18.0686C109.591 21.0513 108.052 22.6551 105.647 22.6551C103.326 22.6551 101.815 20.8543 101.815 17.9843V17.6747C101.815 14.664 103.382 12.8632 105.731 12.8632C107.941 12.8632 109.591 14.467 109.591 17.7028V18.0686Z" fill="white"/>
<path fill-rule="evenodd" clip-rule="evenodd" d="M79.1372 18.0827C79.1372 23.4236 82.0825 26.2629 87.2506 26.2629C92.0853 26.2629 95.3361 23.4236 95.3361 18.0827V17.6329C95.3361 12.2356 92.0296 9.25586 87.2506 9.25586C82.5826 9.25586 79.1372 12.1794 79.1372 17.6329V18.0827ZM91.1244 18.0839C91.1244 21.0468 89.6195 22.6554 87.2227 22.6554C84.826 22.6554 83.3489 21.0187 83.3489 18.0839V17.6889C83.3489 14.5283 84.9096 12.8634 87.2506 12.8634C89.6195 12.8634 91.1244 14.6412 91.1244 17.6889V18.0839Z" fill="white"/>
<path fill-rule="evenodd" clip-rule="evenodd" d="M67.7979 25.8506H72.0468V18.4164C72.0468 14.9811 72.8966 13.7703 76.409 13.7703H78.1652V9.46191H77.1171C74.0864 9.46191 72.4151 10.7854 71.7635 13.376L71.2253 9.66711H67.7979V25.8506Z" fill="white"/>
<path fill-rule="evenodd" clip-rule="evenodd" d="M49.0063 5.85449V25.8507H56.7209C61.7462 25.8507 65.5294 22.9317 65.5294 16.4763V15.101C65.5294 8.67367 61.5204 5.85449 56.608 5.85449H49.0063ZM53.2181 9.46204H56.432C59.3346 9.46204 61.3176 11.296 61.3176 15.3306V16.3745C61.3176 20.4092 59.3921 22.2431 56.5757 22.2431H53.2181V9.46204Z" fill="white"/>
</g>
<defs>
<clipPath id="clip0_4734_171">
<rect width="38.4" height="32" fill="white" transform="translate(0.000976562)"/>
</clipPath>
<clipPath id="clip1_4734_171">
<rect width="119.04" height="28.16" fill="white" transform="translate(48.6416 3.8396)"/>
</clipPath>
</defs>
</svg>
