<svg width="16" height="16" viewBox="0 0 16 16" fill="none" xmlns="http://www.w3.org/2000/svg">
<path d="M8 0L9.0412 4.16479C9.24437 4.97748 9.34596 5.38382 9.55753 5.71447C9.74468 6.00694 9.99306 6.25532 10.2855 6.44247C10.6162 6.65404 11.0225 6.75563 11.8352 6.9588L16 8L11.8352 9.0412C11.0225 9.24437 10.6162 9.34596 10.2855 9.55753C9.99306 9.74468 9.74468 9.99306 9.55753 10.2855C9.34596 10.6162 9.24437 11.0225 9.0412 11.8352L8 16L6.9588 11.8352C6.75563 11.0225 6.65405 10.6162 6.44247 10.2855C6.25532 9.99306 6.00694 9.74468 5.71447 9.55753C5.38382 9.34596 4.97748 9.24437 4.16479 9.0412L0 8L4.16479 6.9588C4.97748 6.75563 5.38382 6.65404 5.71447 6.44247C6.00694 6.25532 6.25532 6.00694 6.44247 5.71447C6.65404 5.38382 6.75563 4.97748 6.9588 4.16479L8 0Z" fill="#67E0F9"/>
<path d="M8 0L9.0412 4.16479C9.24437 4.97748 9.34596 5.38382 9.55753 5.71447C9.74468 6.00694 9.99306 6.25532 10.2855 6.44247C10.6162 6.65404 11.0225 6.75563 11.8352 6.9588L16 8L11.8352 9.0412C11.0225 9.24437 10.6162 9.34596 10.2855 9.55753C9.99306 9.74468 9.74468 9.99306 9.55753 10.2855C9.34596 10.6162 9.24437 11.0225 9.0412 11.8352L8 16L6.9588 11.8352C6.75563 11.0225 6.65405 10.6162 6.44247 10.2855C6.25532 9.99306 6.00694 9.74468 5.71447 9.55753C5.38382 9.34596 4.97748 9.24437 4.16479 9.0412L0 8L4.16479 6.9588C4.97748 6.75563 5.38382 6.65404 5.71447 6.44247C6.00694 6.25532 6.25532 6.00694 6.44247 5.71447C6.65404 5.38382 6.75563 4.97748 6.9588 4.16479L8 0Z" fill="#67E0F9"/>
</svg>
