<svg xmlns="http://www.w3.org/2000/svg" width="96" height="96" viewBox="0 0 96 96" fill="none">
<rect width="96" height="96" fill="#07080A"/>
<path d="M33.4595 52.3726C33.4595 54.6826 32.0461 56.5556 30.3016 56.5556C28.5572 56.5556 27.1437 54.6826 27.1437 52.3726C27.1437 50.0625 28.5572 48.1895 30.3016 48.1895C32.0461 48.1895 33.4595 50.0625 33.4595 52.3726Z" fill="#C8F900"/>
<path d="M66.0911 56.5556C67.8355 56.5556 69.249 54.6826 69.249 52.3726C69.249 50.0625 67.8355 48.1895 66.0911 48.1895C64.3466 48.1895 62.9332 50.0625 62.9332 52.3726C62.9332 54.6826 64.3466 56.5556 66.0911 56.5556Z" fill="#C8F900"/>
<path fill-rule="evenodd" clip-rule="evenodd" d="M8 21C12.8756 23.0915 18.2601 24.1373 26.0613 24.1373C35.6963 24.1373 45.3314 30.2637 47.9106 37.4721L48 37.5891L48.0894 37.4721C50.6686 30.2637 60.3037 24.1373 69.9387 24.1373C77.7399 24.1373 83.1244 23.0915 88 21C87.8366 21.385 87.6824 21.7981 87.521 22.2301C86.2895 25.5343 84.653 29.9272 75.3849 31.1374C75.6223 31.2364 75.8577 31.3396 76.0911 31.4468L76.4632 31.6214C76.6174 31.696 76.7716 31.7726 76.9248 31.8507C77.0625 31.9217 77.1992 31.9942 77.3359 32.0682C80.6665 33.8196 83.2765 36.2717 85.1659 39.4247C87.0553 42.5773 88 46.1552 88 50.1585C88 54.1623 87.0553 57.7402 85.1659 60.8928C83.2765 64.0453 80.6665 66.5229 77.3359 68.3244C74.0043 70.0758 70.2255 70.9515 65.9996 70.9515C61.7736 70.9515 57.9702 70.0758 54.5892 68.3244C53.9354 67.9705 53.3084 67.5911 52.7101 67.1852C50.8392 70.6543 48 74.3333 48 74.3333C48 74.3333 45.1608 70.6543 43.2899 67.1852C42.8951 67.4532 42.487 67.7096 42.0676 67.9547C41.8518 68.0808 41.6328 68.2038 41.4108 68.3244C38.0792 70.0758 34.3004 70.9515 30.0744 70.9515C25.8485 70.9515 22.045 70.0758 18.6641 68.3244C15.3335 66.5229 12.7235 64.0453 10.8341 60.8928C8.9447 57.7402 8 54.1623 8 50.1585C8 46.1552 8.9447 42.5773 10.8341 39.4247C12.7235 36.2717 15.3335 33.8196 18.6641 32.0682C19.3055 31.7261 19.9624 31.4172 20.6347 31.1399C11.3491 29.9333 9.71155 25.5369 8.47903 22.2301L8.30119 21.7552C8.20148 21.4938 8.1028 21.2415 8 21ZM43.7895 50.281C43.7895 58.3667 37.6628 62.8301 30.1053 62.8301C22.5477 62.8301 16.4211 58.3667 16.4211 50.281C16.4211 42.1954 22.5477 37.732 30.1053 37.732C37.6628 37.732 43.7895 42.1954 43.7895 50.281ZM65.8947 62.8301C73.4523 62.8301 79.5789 58.3667 79.5789 50.281C79.5789 42.1954 73.4523 37.732 65.8947 37.732C58.3372 37.732 52.2105 42.1954 52.2105 50.281C52.2105 58.3667 58.3372 62.8301 65.8947 62.8301Z" fill="#C8F900"/>
</svg>