<svg width="32" height="32" viewBox="0 0 32 32" fill="none" xmlns="http://www.w3.org/2000/svg">
<path d="M1.5625 15.5938C1.5625 10.6933 1.5625 8.24306 2.51619 6.37133C3.35508 4.72492 4.69367 3.38633 6.34008 2.54744C8.21181 1.59375 10.662 1.59375 15.5625 1.59375H16.4375C21.338 1.59375 23.7882 1.59375 25.6599 2.54744C27.3063 3.38633 28.6449 4.72492 29.4838 6.37133C30.4375 8.24306 30.4375 10.6933 30.4375 15.5938V16.4688C30.4375 21.3692 30.4375 23.8194 29.4838 25.6912C28.6449 27.3376 27.3063 28.6762 25.6599 29.5151C23.7882 30.4687 21.338 30.4688 16.4375 30.4688H15.5625C10.662 30.4688 8.21181 30.4687 6.34008 29.5151C4.69367 28.6762 3.35508 27.3376 2.51619 25.6912C1.5625 23.8194 1.5625 21.3692 1.5625 16.4688V15.5938Z" fill="url(#paint0_linear_1891_1472)"/>
<path fill-rule="evenodd" clip-rule="evenodd" d="M16.6824 13.8491L15.6608 14.8844L17.0551 14.4985L24.0991 10.0833L25.2655 10.3744L28.4693 8.36109L27.1598 7.74956L27.2197 6.29766L23.9192 8.33317L23.686 9.47437L16.6824 13.8491Z" fill="white"/>
<path fill-rule="evenodd" clip-rule="evenodd" d="M22.4513 14.9579C23.7289 19.9403 22.8117 24.7702 19.0525 26.6358C14.5347 28.8777 7.88296 25.97 4.95917 20.0783C2.03544 14.1865 3.32959 7.58299 7.84737 5.34105C11.5806 3.48843 16.3543 5.19005 19.5495 9.16128C17.1464 6.88148 13.0835 5.64003 10.2505 7.04586C6.4989 8.90758 5.81938 14.3456 7.92277 18.5842C10.0262 22.8228 15.1402 25.3626 18.8918 23.5008C21.7437 22.0856 22.8404 18.274 22.4513 14.9579Z" fill="white"/>
<path fill-rule="evenodd" clip-rule="evenodd" d="M9.90808 7.66504L10.3965 8.47152Z" fill="white"/>
<path d="M9.90808 7.66504L10.3965 8.47152" stroke="#34397B" stroke-width="0.00600688" stroke-miterlimit="1.5" stroke-linecap="round" stroke-linejoin="round"/>
<path fill-rule="evenodd" clip-rule="evenodd" d="M7.78149 12.9141L8.84635 13.041Z" fill="white"/>
<path d="M7.78149 12.9141L8.84635 13.041" stroke="#34397B" stroke-width="0.00600688" stroke-miterlimit="1.5" stroke-linecap="round" stroke-linejoin="round"/>
<path fill-rule="evenodd" clip-rule="evenodd" d="M9.42285 18.9458L10.3013 18.3307Z" fill="white"/>
<path d="M9.42285 18.9458L10.3013 18.3307" stroke="#34397B" stroke-width="0.00600688" stroke-miterlimit="1.5" stroke-linecap="round" stroke-linejoin="round"/>
<path fill-rule="evenodd" clip-rule="evenodd" d="M13.3867 22.7534L13.66 21.7164Z" fill="white"/>
<path d="M13.3867 22.7534L13.66 21.7164" stroke="#34397B" stroke-width="0.00600688" stroke-miterlimit="1.5" stroke-linecap="round" stroke-linejoin="round"/>
<path fill-rule="evenodd" clip-rule="evenodd" d="M17.731 22.46L18.1954 23.3358Z" fill="white"/>
<path d="M17.731 22.46L18.1954 23.3358" stroke="#34397B" stroke-width="0.00600688" stroke-miterlimit="1.5" stroke-linecap="round" stroke-linejoin="round"/>
<path fill-rule="evenodd" clip-rule="evenodd" d="M13.8262 15.2655C13.8262 15.2655 12.1872 14.0391 11.5798 13.3858C10.9723 12.7325 9.47083 10.6694 9.47083 10.6694C9.47083 10.6694 11.7631 12.6752 12.1299 13.0649C12.4967 13.4546 13.8262 15.2655 13.8262 15.2655ZM10.5826 11.8614C10.5826 11.8614 11.9236 13.5004 12.9437 14.3371C12.9437 14.3371 11.4995 12.5377 10.5826 11.8614Z" fill="white"/>
<defs>
<linearGradient id="paint0_linear_1891_1472" x1="16" y1="1.59375" x2="16" y2="30.4687" gradientUnits="userSpaceOnUse">
<stop stop-color="#58C2FE"/>
<stop offset="0.926871" stop-color="#235CE7"/>
</linearGradient>
</defs>
</svg>
