<svg width="253" height="46" viewBox="0 0 253 46" fill="none" xmlns="http://www.w3.org/2000/svg">
<path d="M21.3052 18.6942L21.3052 27.4628" stroke="#6F4C05" stroke-width="0.665789" stroke-linecap="round"/>
<path d="M144.065 18.6942L144.065 27.4628" stroke="#6F4C05" stroke-width="0.665789" stroke-linecap="round"/>
<path d="M231.75 18.6942L231.75 27.4628" stroke="#6F4C05" stroke-width="0.665789" stroke-linecap="round"/>
<path d="M73.917 16.5022L73.917 29.6551" stroke="#6F4C05" stroke-width="0.665789" stroke-linecap="round"/>
<path d="M100.222 16.5022L100.222 29.6551" stroke="#6F4C05" stroke-width="0.665789" stroke-linecap="round"/>
<path d="M30.0737 9.92578L30.0737 36.2315" stroke="#6F4C05" stroke-width="0.665789" stroke-linecap="round"/>
<path d="M56.3794 9.92578L56.3794 36.2315" stroke="#6F4C05" stroke-width="0.665789" stroke-linecap="round"/>
<path d="M65.1479 9.92578L65.1479 36.2315" stroke="#6F4C05" stroke-width="0.665789" stroke-linecap="round"/>
<path d="M126.528 9.92578L126.528 36.2315" stroke="#6F4C05" stroke-width="0.665789" stroke-linecap="round"/>
<path d="M205.445 9.92578L205.445 36.2315" stroke="#6F4C05" stroke-width="0.665789" stroke-linecap="round"/>
<path d="M91.4536 14.3099L91.4536 31.8471" stroke="#6F4C05" stroke-width="0.665789" stroke-linecap="round"/>
<path d="M135.296 14.3099L135.296 31.8471" stroke="#6F4C05" stroke-width="0.665789" stroke-linecap="round"/>
<path d="M187.908 14.3099L187.908 31.8471" stroke="#6F4C05" stroke-width="0.665789" stroke-linecap="round"/>
<path d="M214.213 14.3099L214.213 31.8471" stroke="#6F4C05" stroke-width="0.665789" stroke-linecap="round"/>
<path d="M196.676 14.3099L196.676 31.8471" stroke="#6F4C05" stroke-width="0.665789" stroke-linecap="round"/>
<path d="M38.8423 1.1571L38.8423 45" stroke="#6F4C05" stroke-width="0.665789" stroke-linecap="round"/>
<path d="M117.76 1.1571L117.76 45" stroke="#6F4C05" stroke-width="0.665789" stroke-linecap="round"/>
<path d="M222.982 3.34924L222.982 42.8078" stroke="#6F4C05" stroke-width="0.665789" stroke-linecap="round"/>
<path d="M47.6108 7.73352L47.6108 38.4235" stroke="#6F4C05" stroke-width="0.665789" stroke-linecap="round"/>
<path d="M82.6851 3.34924L82.6851 42.8078" stroke="#6F4C05" stroke-width="0.665789" stroke-linecap="round"/>
<path d="M152.833 3.34924L152.833 42.8078" stroke="#6F4C05" stroke-width="0.665789" stroke-linecap="round"/>
<path d="M161.602 3.34924L161.602 42.8078" stroke="#6F4C05" stroke-width="0.665789" stroke-linecap="round"/>
<path d="M170.371 3.34924L170.371 42.8078" stroke="#6F4C05" stroke-width="0.665789" stroke-linecap="round"/>
<path d="M179.139 3.34924L179.139 42.8078" stroke="#6F4C05" stroke-width="0.665789" stroke-linecap="round"/>
<path d="M108.991 3.34924L108.991 42.8078" stroke="#6F4C05" stroke-width="0.665789" stroke-linecap="round"/>
<rect y="1.05786" width="253" height="43.9421" fill="url(#paint0_linear_4141_484)"/>
<defs>
<linearGradient id="paint0_linear_4141_484" x1="0" y1="23.0289" x2="253" y2="23.0289" gradientUnits="userSpaceOnUse">
<stop stop-color="#07080A" stop-opacity="0.7"/>
<stop offset="0.5" stop-color="#07080A" stop-opacity="0.2"/>
<stop offset="1" stop-color="#07080A" stop-opacity="0.7"/>
</linearGradient>
</defs>
</svg>
