<svg width="36" height="36" viewBox="0 0 36 36" fill="none" xmlns="http://www.w3.org/2000/svg">
<rect width="36" height="36" rx="12" fill="white" fill-opacity="0.06"/>
<path fill-rule="evenodd" clip-rule="evenodd" d="M17.8093 11.0137C17.9358 10.9954 18.0642 10.9954 18.1907 11.0137C18.3364 11.0348 18.4721 11.086 18.5797 11.1267L18.6086 11.1376L22.2701 12.5105C22.682 12.6643 23.0436 12.7993 23.3222 13.0448C23.5659 13.2595 23.7536 13.5304 23.8691 13.834C24.0011 14.1809 24.0005 14.567 23.9999 15.0066L23.9998 18.2878C23.9998 20.1721 22.975 21.7432 21.8672 22.8973C20.7519 24.0591 19.476 24.8797 18.8012 25.2733L18.7739 25.2893C18.6508 25.3616 18.491 25.4555 18.2796 25.5008C18.1066 25.5379 17.8934 25.5379 17.7204 25.5008C17.509 25.4555 17.3492 25.3616 17.2261 25.2893L17.1988 25.2733C16.524 24.8797 15.2481 24.0591 14.1328 22.8973C13.025 21.7432 12.0002 20.1721 12.0002 18.2878L12.0001 15.0066C11.9995 14.567 11.9989 14.181 12.1309 13.834C12.2464 13.5304 12.4341 13.2595 12.6778 13.0448C12.9564 12.7993 13.318 12.6643 13.7299 12.5105L17.3914 11.1376L17.4203 11.1267C17.5279 11.086 17.6636 11.0348 17.8093 11.0137ZM20.8046 16.7593C21.065 16.499 21.065 16.0769 20.8046 15.8165C20.5443 15.5562 20.1222 15.5562 19.8619 15.8165L17.3333 18.3451L16.4714 17.4832C16.2111 17.2228 15.789 17.2228 15.5287 17.4832C15.2683 17.7435 15.2683 18.1656 15.5287 18.4259L16.8619 19.7592C17.1223 20.0196 17.5444 20.0196 17.8047 19.7592L20.8046 16.7593Z" fill="#4A5568"/>
</svg>
