<svg width="36" height="36" viewBox="0 0 36 36" fill="none" xmlns="http://www.w3.org/2000/svg">
<rect width="36" height="36" rx="12" fill="#E53E3E" fill-opacity="0.1"/>
<path fill-rule="evenodd" clip-rule="evenodd" d="M23.8583 9.01108C24.1179 9.05321 24.3414 9.21758 24.459 9.45281L25.1552 10.8453L26.5476 11.5415C26.7828 11.6592 26.9472 11.8827 26.9893 12.1423C27.0314 12.4019 26.9462 12.6659 26.7602 12.8519L24.3056 15.3063C24.1521 15.4598 23.944 15.546 23.727 15.546L21.6114 15.5459L18.5782 18.5789C18.2587 18.8984 17.7406 18.8984 17.4211 18.5788C17.1016 18.2593 17.1016 17.7413 17.4212 17.4217L20.4543 14.3888L20.4544 12.2731C20.4544 12.0561 20.5406 11.848 20.694 11.6946L23.1487 9.24013C23.3346 9.05417 23.5987 8.96894 23.8583 9.01108Z" fill="#E53E3E"/>
<path d="M10.6361 18.0001C10.6362 13.9332 13.9331 10.6365 17.9999 10.6367C18.4518 10.6367 18.8181 10.2704 18.8182 9.81851C18.8182 9.36664 18.4519 9.00032 18 9.0003C13.0294 9.00014 8.99986 13.0294 8.9997 18C8.99953 22.9706 13.0288 27.0001 17.9994 27.0003C22.97 27.0005 26.9995 22.9712 26.9997 18.0006C26.9997 17.5487 26.6334 17.1824 26.1815 17.1824C25.7297 17.1824 25.3633 17.5487 25.3633 18.0006C25.3632 22.0674 22.0663 25.3641 17.9994 25.3639C13.9326 25.3638 10.6359 22.0669 10.6361 18.0001Z" fill="#E53E3E"/>
<path d="M14.727 18.0002C14.727 16.1927 16.1923 14.7275 17.9998 14.7276C18.4517 14.7276 18.818 14.3613 18.818 13.9094C18.818 13.4576 18.4517 13.0912 17.9999 13.0912C15.2886 13.0911 13.0907 15.2889 13.0906 18.0001C13.0905 20.7114 15.2883 22.9093 17.9995 22.9094C20.7107 22.9095 22.9087 20.7117 22.9088 18.0005C22.9088 17.5486 22.5425 17.1823 22.0906 17.1823C21.6388 17.1822 21.2724 17.5485 21.2724 18.0004C21.2724 19.8079 19.8071 21.2731 17.9996 21.273C16.1921 21.273 14.7269 19.8077 14.727 18.0002Z" fill="#E53E3E"/>
</svg>
