<svg width="51" height="51" viewBox="0 0 51 51" fill="none" xmlns="http://www.w3.org/2000/svg">
<rect x="2.87012" y="0.0680542" width="48" height="48" rx="16" transform="rotate(2.82806 2.87012 0.0680542)" fill="#E53E3E" fill-opacity="0.06"/>
<path fill-rule="evenodd" clip-rule="evenodd" d="M33.3503 14.6025C33.6646 14.6696 33.9276 14.8837 34.057 15.178L34.8229 16.9198L36.4807 17.8536C36.7608 18.0114 36.9479 18.2942 36.9837 18.6136C37.0195 18.9331 36.8995 19.2502 36.6613 19.466L33.5169 22.3144C33.3203 22.4924 33.0611 22.5851 32.7962 22.572L30.2136 22.4444L26.3281 25.9641C25.9188 26.3349 25.2864 26.3036 24.9156 25.8943C24.5449 25.485 24.5761 24.8526 24.9854 24.4818L28.8708 20.9622L28.9984 18.3795C29.0115 18.1146 29.1293 17.8658 29.3258 17.6877L32.4702 14.8394C32.7084 14.6236 33.0359 14.5355 33.3503 14.6025Z" fill="#E53E3E"/>
<path d="M16.6677 24.7789C16.913 19.8144 21.1363 15.9887 26.1008 16.2339C26.6524 16.2612 27.1217 15.8361 27.1489 15.2845C27.1762 14.7329 26.7511 14.2636 26.1995 14.2364C20.1318 13.9366 14.9699 18.6125 14.6702 24.6802C14.3704 30.748 19.0463 35.9098 25.114 36.2096C31.1818 36.5093 36.3436 31.8334 36.6434 25.7657C36.6706 25.2141 36.2455 24.7448 35.6939 24.7176C35.1423 24.6903 34.6731 25.1154 34.6458 25.667C34.4006 30.6315 30.1772 34.4572 25.2127 34.212C20.2482 33.9668 16.4225 29.7434 16.6677 24.7789Z" fill="#E53E3E"/>
<path d="M21.6616 25.0256C21.7706 22.8192 23.6477 21.1188 25.8541 21.2278C26.4057 21.2551 26.875 20.83 26.9022 20.2784C26.9295 19.7268 26.5044 19.2575 25.9528 19.2303C22.6431 19.0668 19.8276 21.6173 19.6641 24.9269C19.5006 28.2366 22.0511 31.0522 25.3607 31.2157C28.6704 31.3792 31.486 28.8287 31.6495 25.519C31.6767 24.9674 31.2516 24.4981 30.7 24.4709C30.1484 24.4436 29.6791 24.8687 29.6519 25.4203C29.5429 27.6268 27.6659 29.3271 25.4594 29.2181C23.253 29.1091 21.5526 27.2321 21.6616 25.0256Z" fill="#E53E3E"/>
</svg>
