<svg width="48" height="48" viewBox="0 0 48 48" fill="none" xmlns="http://www.w3.org/2000/svg">
<rect x="0.00146484" width="48" height="48" rx="16" fill="#E53E3E" fill-opacity="0.1"/>
<path fill-rule="evenodd" clip-rule="evenodd" d="M31.1616 13.014C31.4789 13.0655 31.7521 13.2664 31.8958 13.5539L32.7467 15.2558L34.4485 16.1067C34.736 16.2505 34.9369 16.5237 34.9884 16.841C35.0398 17.1583 34.9357 17.481 34.7084 17.7083L31.7083 20.7082C31.5207 20.8957 31.2663 21.0011 31.0011 21.001L28.4154 21.001L24.7082 24.7079C24.3176 25.0984 23.6845 25.0984 23.294 24.7079C22.9035 24.3173 22.9035 23.6842 23.294 23.2937L27.0012 19.5867L27.0013 17.0009C27.0013 16.7357 27.1066 16.4813 27.2942 16.2938L30.2943 13.2939C30.5216 13.0666 30.8443 12.9625 31.1616 13.014Z" fill="#E53E3E"/>
<path d="M15.0011 24.0005C15.0013 19.0299 19.0308 15.0006 24.0014 15.0008C24.5537 15.0008 25.0014 14.5531 25.0014 14.0008C25.0014 13.4485 24.5538 13.0008 24.0015 13.0008C17.9263 13.0006 13.0013 17.9253 13.0011 24.0004C13.0009 30.0756 17.9256 35.0006 24.0007 35.0008C30.0759 35.001 35.0009 30.0763 35.0011 24.0012C35.0011 23.4489 34.5534 23.0012 34.0011 23.0011C33.4488 23.0011 33.0011 23.4488 33.0011 24.0011C33.0009 28.9717 28.9714 33.001 24.0008 33.0008C19.0302 33.0006 15.0009 28.9711 15.0011 24.0005Z" fill="#E53E3E"/>
<path d="M20.0011 24.0007C20.0012 21.7915 21.7921 20.0007 24.0012 20.0008C24.5535 20.0008 25.0012 19.5531 25.0013 19.0008C25.0013 18.4485 24.5536 18.0008 24.0013 18.0008C20.6876 18.0007 18.0012 20.6869 18.0011 24.0006C18.001 27.3143 20.6872 30.0007 24.0009 30.0008C27.3146 30.0009 30.001 27.3147 30.0011 24.001C30.0011 23.4487 29.5534 23.001 29.0011 23.001C28.4488 23.001 28.0011 23.4487 28.0011 24.0009C28.001 26.2101 26.2101 28.0009 24.001 28.0008C21.7918 28.0007 20.001 26.2098 20.0011 24.0007Z" fill="#E53E3E"/>
</svg>
