<svg width="75" height="50" viewBox="0 0 75 50" fill="none" xmlns="http://www.w3.org/2000/svg">
<path d="M23.8683 29.4118C23.8683 31.5774 22.5432 33.3333 20.9078 33.3333C19.2723 33.3333 17.9472 31.5774 17.9472 29.4118C17.9472 27.2461 19.2723 25.4902 20.9078 25.4902C22.5432 25.4902 23.8683 27.2461 23.8683 29.4118Z" fill="white"/>
<path d="M54.4604 33.3333C56.0958 33.3333 57.4209 31.5774 57.4209 29.4118C57.4209 27.2461 56.0958 25.4902 54.4604 25.4902C52.825 25.4902 51.4999 27.2461 51.4999 29.4118C51.4999 31.5774 52.825 33.3333 54.4604 33.3333Z" fill="white"/>
<path fill-rule="evenodd" clip-rule="evenodd" d="M0 0C4.57089 1.96078 9.61882 2.94118 16.9324 2.94118C25.9653 2.94118 34.9982 8.6847 37.4162 15.4426L37.5 15.5522L37.5838 15.4426C40.0018 8.6847 49.0347 2.94118 58.0676 2.94118C65.3812 2.94118 70.4291 1.96078 75 0C74.8468 0.360945 74.7022 0.748219 74.5509 1.15321C73.3964 4.25092 71.8621 8.36924 63.1733 9.50377C63.3959 9.59664 63.6166 9.69334 63.8354 9.79387L64.1842 9.95759C64.3288 10.0275 64.4734 10.0993 64.617 10.1725C64.7461 10.2391 64.8743 10.307 65.0024 10.3765C68.1249 12.0184 70.5717 14.3172 72.343 17.2732C74.1143 20.2287 75 23.583 75 27.3361C75 31.0896 74.1143 34.4439 72.343 37.3995C70.5717 40.355 68.1249 42.6777 65.0024 44.3666C61.879 46.0085 58.3364 46.8295 54.3746 46.8295C50.4128 46.8295 46.847 46.0085 43.6774 44.3666C43.0645 44.0348 42.4766 43.6792 41.9157 43.2986C40.1618 46.5509 37.5 50 37.5 50C37.5 50 34.8382 46.5509 33.0843 43.2986C32.7142 43.5499 32.3316 43.7902 31.9384 44.02C31.736 44.1382 31.5308 44.2536 31.3226 44.3666C28.1992 46.0085 24.6566 46.8295 20.6948 46.8295C16.7329 46.8295 13.1672 46.0085 9.99756 44.3666C6.87513 42.6777 4.42826 40.355 2.65696 37.3995C0.885652 34.4439 0 31.0896 0 27.3361C0 23.583 0.885652 20.2287 2.65696 17.2732C4.42826 14.3172 6.87513 12.0184 9.99756 10.3765C10.5989 10.0557 11.2147 9.7661 11.845 9.50617C3.13978 8.37498 1.60458 4.25331 0.44909 1.15321L0.282368 0.708008C0.188888 0.46291 0.0963713 0.226428 0 0ZM33.5526 27.451C33.5526 35.0313 27.8089 39.2157 20.7237 39.2157C13.6385 39.2157 7.89474 35.0313 7.89474 27.451C7.89474 19.8707 13.6385 15.6863 20.7237 15.6863C27.8089 15.6863 33.5526 19.8707 33.5526 27.451ZM54.2763 39.2157C61.3615 39.2157 67.1053 35.0313 67.1053 27.451C67.1053 19.8707 61.3615 15.6863 54.2763 15.6863C47.1911 15.6863 41.4474 19.8707 41.4474 27.451C41.4474 35.0313 47.1911 39.2157 54.2763 39.2157Z" fill="white"/>
</svg>
