<svg width="161" height="44" viewBox="0 0 161 44" fill="none" xmlns="http://www.w3.org/2000/svg">
<g clip-path="url(#clip0_4023_519)">
<path d="M24.2023 37.873C3.17238 37.873 -0.00195312 27.4267 -0.00195312 20.4141C-0.00195312 13.4016 5.68284 7.7168 12.6954 7.7168C17.7868 7.7168 22.1783 10.7135 24.2023 15.0393C26.2264 10.7135 30.6179 7.7168 35.7093 7.7168C42.7218 7.7168 48.4066 13.4016 48.4066 20.4141C48.4066 27.4267 45.2323 37.873 24.2023 37.873Z" fill="white"/>
<path d="M20.5168 22.3979C20.5168 26.4998 17.1916 29.8249 13.0898 29.8249C8.988 29.8249 5.66282 26.4998 5.66282 22.3979C5.66282 18.2961 8.988 14.9709 13.0898 14.9709C17.1916 14.9709 20.5168 18.2961 20.5168 22.3979Z" fill="black" stroke="black" stroke-width="0.224071"/>
<path d="M43.5344 22.3974C43.5344 26.4993 40.2092 29.8244 36.1074 29.8244C32.0056 29.8244 28.6804 26.4993 28.6804 22.3974C28.6804 18.2956 32.0056 14.9704 36.1074 14.9704C40.2092 14.9704 43.5344 18.2956 43.5344 22.3974Z" fill="black" stroke="black" stroke-width="0.224071"/>
<circle cx="13.0943" cy="23.9854" r="1.98396" fill="white"/>
<circle cx="36.1051" cy="23.9844" r="1.98396" fill="white"/>
<path d="M139.853 32.1252C139.329 32.5125 138.68 32.8087 137.905 33.0137C137.153 33.1959 136.356 33.287 135.513 33.287C133.326 33.287 131.629 32.7289 130.422 31.6127C129.237 30.4964 128.645 28.8562 128.645 26.6921V19.1403H125.809V15.0398H128.645V10.5635H133.975V15.0398H138.554V19.1403H133.975V26.6237C133.975 27.3983 134.169 28.002 134.556 28.4348C134.966 28.8448 135.557 28.9997 136.265 29.0499C136.475 29.0647 138.554 29.0499 139.853 28.4348V32.1252Z" fill="white"/>
<path d="M113.593 33.7656C111.657 33.7656 109.914 33.3669 108.365 32.5696C106.839 31.7495 105.643 30.6219 104.777 29.1867C103.911 27.7515 103.479 26.1227 103.479 24.3003C103.479 22.4778 103.911 20.849 104.777 19.4138C105.643 17.9787 106.839 16.8624 108.365 16.0651C109.914 15.245 111.657 14.835 113.593 14.835C115.529 14.835 117.261 15.245 118.787 16.0651C120.313 16.8624 121.509 17.9787 122.375 19.4138C123.241 20.849 123.673 22.4778 123.673 24.3003C123.673 26.1227 123.241 27.7515 122.375 29.1867C121.509 30.6219 120.313 31.7495 118.787 32.5696C117.261 33.3669 115.529 33.7656 113.593 33.7656ZM113.593 29.3917C114.96 29.3917 116.076 28.9361 116.942 28.0249C117.83 27.0909 118.279 25.8451 118.274 24.3003C118.27 22.768 117.83 21.521 116.942 20.6098C116.076 19.6758 114.96 19.2088 113.593 19.2088C112.226 19.2088 111.099 19.6758 110.21 20.6098C109.322 21.521 108.882 22.768 108.877 24.3003C108.873 25.8451 109.322 27.0909 110.21 28.0249C111.099 28.9361 112.226 29.3917 113.593 29.3917Z" fill="white"/>
<path d="M91.262 33.7656C89.3257 33.7656 87.583 33.3669 86.0339 32.5696C84.5076 31.7495 83.3116 30.6219 82.446 29.1867C81.5803 27.7515 81.1475 26.1227 81.1475 24.3003C81.1475 22.4778 81.5803 20.849 82.446 19.4138C83.3116 17.9787 84.5076 16.8624 86.0339 16.0651C87.583 15.245 89.3257 14.835 91.262 14.835C93.1984 14.835 94.9297 15.245 96.456 16.0651C97.9823 16.8624 99.1782 17.9787 100.044 19.4138C100.91 20.849 101.342 22.4778 101.342 24.3003C101.342 26.1227 100.91 27.7515 100.044 29.1867C99.1782 30.6219 97.9823 31.7495 96.456 32.5696C94.9297 33.3669 93.1984 33.7656 91.262 33.7656ZM91.262 29.3917C92.6288 29.3917 93.7451 28.9361 94.6107 28.0249C95.4992 27.0909 95.9479 25.8451 95.9434 24.3003C95.9389 22.768 95.4992 21.521 94.6107 20.6098C93.7451 19.6758 92.6288 19.2088 91.262 19.2088C89.8952 19.2088 88.7675 19.6758 87.8791 20.6098C86.9907 21.521 86.5509 22.768 86.5464 24.3003C86.5419 25.8451 86.9907 27.0909 87.8791 28.0249C88.7675 28.9361 89.8952 29.3917 91.262 29.3917Z" fill="white"/>
<path d="M160.205 29.1183V33.2188C160.205 33.2188 158.069 31.7951 152.004 31.7951C145.938 31.7951 143.803 33.2188 143.803 33.2188V30.0068L153.166 18.9355H144.042V14.835H159.897V18.047L150.534 29.1183H160.205Z" fill="white"/>
<path d="M77.5886 10.5635V33.287H72.0627V23.8847H65.3246V33.287H59.7988V10.5635H65.3246V19.4584H72.0627V10.5635H77.5886Z" fill="white"/>
</g>
<defs>
<clipPath id="clip0_4023_519">
<rect width="160.205" height="44" fill="white"/>
</clipPath>
</defs>
</svg>
