<svg width="255" height="90" viewBox="0 0 255 90" fill="none" xmlns="http://www.w3.org/2000/svg">
<g clip-path="url(#clip0_5093_3689)">
<path d="M201.167 70.7681C199.766 71.8004 198.03 72.5897 195.959 73.1362C193.949 73.622 191.817 73.8649 189.563 73.8649C183.715 73.8649 179.177 72.3772 175.949 69.4018C172.781 66.4265 171.198 62.0545 171.198 56.2859V36.1565H163.614V25.2266H171.198V13.2947H185.451V25.2266H197.695V36.1565H185.451V56.1037C185.451 58.1683 185.969 59.7774 187.005 60.9311C188.101 62.0241 189.682 62.437 191.573 62.5706C192.135 62.6103 197.695 62.5706 201.167 60.9311V70.7681Z" fill="white"/>
<path d="M254 62.7864V73.8647C254 73.8647 248.243 70.0181 231.892 70.0181C215.541 70.0181 209.784 73.8647 209.784 73.8647V65.1867L235.024 35.2754H210.429V24.1971H253.171V32.8751L227.931 62.7864H254Z" fill="white"/>
<path d="M47.5476 13.2947V73.8649H32.7785V37.9H14.7691V73.8649H0V13.2947H14.7691V48.274H32.7785V13.2947H47.5476Z" fill="white"/>
<path d="M88.2803 50.8406C88.2803 53.7006 86.5418 56.0194 84.3962 56.0194C82.2506 56.0194 80.5122 53.7006 80.5122 50.8406C80.5122 47.9807 82.2506 45.6619 84.3962 45.6619C86.5418 45.6619 88.2803 47.9807 88.2803 50.8406Z" fill="white"/>
<path d="M128.416 56.0194C130.561 56.0194 132.3 53.7006 132.3 50.8406C132.3 47.9807 130.561 45.6619 128.416 45.6619C126.27 45.6619 124.532 47.9807 124.532 50.8406C124.532 53.7006 126.27 56.0194 128.416 56.0194Z" fill="white"/>
<path fill-rule="evenodd" clip-rule="evenodd" d="M56.9663 12C62.9631 14.5894 69.5857 15.8841 79.1808 15.8841C91.0315 15.8841 102.882 23.4689 106.054 32.3932L106.164 32.538L106.274 32.3932C109.447 23.4689 121.297 15.8841 133.148 15.8841C142.743 15.8841 149.366 14.5894 155.363 12C155.162 12.4767 154.972 12.9881 154.773 13.5229C153.259 17.6137 151.246 23.0523 139.847 24.5505C140.139 24.6732 140.428 24.8009 140.715 24.9336L141.173 25.1498C141.363 25.2421 141.552 25.3369 141.741 25.4337C141.91 25.5215 142.078 25.6113 142.246 25.703C146.343 27.8713 149.553 30.907 151.877 34.8107C154.201 38.7137 155.363 43.1433 155.363 48.0995C155.363 53.0564 154.201 57.486 151.877 61.3891C149.553 65.2921 146.343 68.3594 142.246 70.5897C138.149 72.758 133.501 73.8422 128.303 73.8422C123.105 73.8422 118.427 72.758 114.269 70.5897C113.465 70.1516 112.694 69.6819 111.958 69.1793C109.657 73.4743 106.164 78.0291 106.164 78.0291C106.164 78.0291 102.672 73.4743 100.371 69.1793C99.8857 69.5112 99.3838 69.8286 98.8679 70.132C98.6024 70.2882 98.3331 70.4405 98.06 70.5897C93.9622 72.758 89.3145 73.8422 84.1168 73.8422C78.9191 73.8422 74.241 72.758 70.0826 70.5897C65.9861 68.3594 62.7759 65.2921 60.4521 61.3891C58.1282 57.486 56.9663 53.0564 56.9663 48.0995C56.9663 43.1433 58.1282 38.7137 60.4521 34.8107C62.7759 30.907 65.9861 27.8713 70.0826 25.703C70.8715 25.2794 71.6795 24.8969 72.5063 24.5537C61.0855 23.0598 59.0714 17.6168 57.5555 13.5229L57.3367 12.935C57.2141 12.6113 57.0927 12.299 56.9663 12ZM100.986 48.2513C100.986 58.2617 93.4502 63.7875 84.1547 63.7875C74.8593 63.7875 67.3238 58.2617 67.3238 48.2513C67.3238 38.2408 74.8593 32.715 84.1547 32.715C93.4502 32.715 100.986 38.2408 100.986 48.2513ZM128.174 63.7875C137.47 63.7875 145.005 58.2617 145.005 48.2513C145.005 38.2408 137.47 32.715 128.174 32.715C118.879 32.715 111.343 38.2408 111.343 48.2513C111.343 58.2617 118.879 63.7875 128.174 63.7875Z" fill="white"/>
</g>
<defs>
<clipPath id="clip0_5093_3689">
<rect width="254.25" height="90" fill="white" transform="translate(0.375)"/>
</clipPath>
</defs>
</svg>
