<svg width="99" height="26" viewBox="0 0 99 26" fill="none" xmlns="http://www.w3.org/2000/svg">
<path d="M77.6894 22.9458C77.1484 23.3445 76.4779 23.6494 75.6781 23.8604C74.9018 24.048 74.0784 24.1418 73.208 24.1418C70.9496 24.1418 69.1971 23.5673 67.9503 22.4182C66.727 21.2691 66.1153 19.5807 66.1153 17.3529V9.57909H63.1865V5.35801H66.1153V0.75H71.6201V5.35801H76.3485V9.57909H71.6201V17.2826C71.6201 18.0799 71.8201 18.7013 72.22 19.1469C72.6434 19.569 73.2538 19.7284 73.9843 19.78C74.2012 19.7953 76.3485 19.78 77.6894 19.1469V22.9458Z" fill="white"/>
<path d="M98.0931 19.8634V24.1417C98.0931 24.1417 95.8697 22.6562 89.5551 22.6562C83.2405 22.6562 81.0171 24.1417 81.0171 24.1417V20.7904L90.7647 9.2388H81.2661V4.96045H97.7729V8.31183L88.0254 19.8634H98.0931Z" fill="white"/>
<path d="M18.3626 0.75V24.1418H12.6588V10.2524H5.70375V24.1418H0V0.75H5.70375V14.2588H12.6588V0.75H18.3626Z" fill="white"/>
<path d="M34.0933 15.25C34.0933 16.3545 33.4219 17.25 32.5933 17.25C31.7646 17.25 31.0933 16.3545 31.0933 15.25C31.0933 14.1455 31.7646 13.25 32.5933 13.25C33.4219 13.25 34.0933 14.1455 34.0933 15.25Z" fill="white"/>
<path d="M49.5933 17.25C50.4219 17.25 51.0933 16.3545 51.0933 15.25C51.0933 14.1455 50.4219 13.25 49.5933 13.25C48.7646 13.25 48.0933 14.1455 48.0933 15.25C48.0933 16.3545 48.7646 17.25 49.5933 17.25Z" fill="white"/>
<path fill-rule="evenodd" clip-rule="evenodd" d="M22 0.25C24.3159 1.25 26.8735 1.75 30.5791 1.75C35.1558 1.75 39.7324 4.6792 40.9575 8.12573L41 8.18164L41.0425 8.12573C42.2676 4.6792 46.8442 1.75 51.4209 1.75C55.1265 1.75 57.6841 1.25 60 0.25C59.9224 0.434082 59.8491 0.631592 59.7725 0.838135C59.1875 2.41797 58.4102 4.51831 54.0078 5.09692C54.1206 5.14429 54.2324 5.1936 54.3433 5.24487L54.52 5.32837C54.5933 5.36401 54.6665 5.40063 54.7393 5.43799C54.8047 5.47192 54.8696 5.50659 54.9346 5.54199C56.5166 6.37939 57.7563 7.55176 58.6538 9.05933C59.5513 10.5667 60 12.2773 60 14.1914C60 16.1057 59.5513 17.8164 58.6538 19.3237C57.7563 20.8311 56.5166 22.0156 54.9346 22.877C53.3521 23.7144 51.5571 24.1331 49.5498 24.1331C47.5425 24.1331 45.7358 23.7144 44.1299 22.877C43.8193 22.7078 43.5215 22.5264 43.2373 22.3323C42.3486 23.991 41 25.75 41 25.75C41 25.75 39.6514 23.991 38.7627 22.3323C38.5752 22.4604 38.3813 22.583 38.1821 22.7002C38.0796 22.7605 37.9756 22.8193 37.8701 22.877C36.2876 23.7144 34.4927 24.1331 32.4854 24.1331C30.478 24.1331 28.6714 23.7144 27.0654 22.877C25.4834 22.0156 24.2437 20.8311 23.3462 19.3237C22.4487 17.8164 22 16.1057 22 14.1914C22 12.2773 22.4487 10.5667 23.3462 9.05933C24.2437 7.55176 25.4834 6.37939 27.0654 5.54199C27.3701 5.37842 27.6821 5.23071 28.0015 5.09814C23.5908 4.52124 22.813 2.41919 22.2275 0.838135L22.1431 0.611084C22.0957 0.486084 22.0488 0.365479 22 0.25ZM39 14.25C39 18.116 36.0898 20.25 32.5 20.25C28.9102 20.25 26 18.116 26 14.25C26 10.384 28.9102 8.25 32.5 8.25C36.0898 8.25 39 10.384 39 14.25ZM49.5 20.25C53.0898 20.25 56 18.116 56 14.25C56 10.384 53.0898 8.25 49.5 8.25C45.9102 8.25 43 10.384 43 14.25C43 18.116 45.9102 20.25 49.5 20.25Z" fill="white"/>
</svg>
