<svg width="75" height="12" viewBox="0 0 75 12" fill="none" xmlns="http://www.w3.org/2000/svg">
<g clip-path="url(#clip0_4841_683)">
<path d="M28.9301 6.435L27.9341 6.3435C27.2811 6.2865 27.0181 6.0575 27.0181 5.6565C27.0181 5.187 27.4186 4.878 28.1971 4.878C28.9301 4.878 29.2966 5.198 29.3536 5.7135H31.6896C31.5406 4.191 30.4646 3.1145 28.2661 3.1145C25.9761 3.1145 24.7161 4.2825 24.7161 5.828C24.7161 7.271 25.5061 8.061 27.4646 8.2215L28.4496 8.3015C29.2161 8.359 29.4911 8.622 29.4911 9.08C29.4911 9.561 29.0906 9.916 28.2661 9.916C27.4986 9.916 27.0411 9.5725 26.9611 8.966H24.4986C24.7161 10.626 25.8841 11.725 28.2546 11.725C30.5561 11.725 31.8271 10.546 31.8271 8.954C31.8271 7.4085 30.9796 6.6185 28.9301 6.435ZM20.8691 3.1145C19.4036 3.1145 18.5331 3.8815 18.1211 5.4505H17.9721V3.252H15.6591V11.588H18.1211V6.733C18.1211 5.622 18.6936 5.0155 19.7241 5.0155C20.7431 5.0155 21.2471 5.6455 21.2471 6.7215V11.588H23.7086V6.2865C23.7086 4.271 22.6556 3.1145 20.8691 3.1145ZM13.2661 0C12.4301 0 11.8001 0.55 11.8001 1.3855C11.8001 2.2215 12.4186 2.771 13.2546 2.771C14.0906 2.771 14.7086 2.221 14.7086 1.3855C14.7086 0.561 14.0906 0 13.2661 0ZM14.4911 3.252H12.0291V11.588H14.4911V3.252ZM35.6971 1.4885H34.1286C34.0826 2.8285 33.5101 3.412 32.2276 3.515V5.21H33.2356V8.874C33.2356 10.7175 34.2886 11.725 36.3841 11.725C36.7781 11.725 37.1706 11.675 37.5521 11.5765V9.595C37.3555 9.62764 37.1564 9.64286 36.9571 9.6405C36.0751 9.6405 35.6971 9.3085 35.6971 8.381V5.21H37.8616V3.252H35.6971V1.4885ZM74.7431 5.21V3.252H72.5791V1.4885H71.0331C70.9986 2.416 70.7241 2.954 70.1171 3.252V8.874C70.1171 10.7175 71.1706 11.725 73.2661 11.725C73.6601 11.725 74.0526 11.675 74.4341 11.5765V9.595C74.2374 9.62765 74.0381 9.64288 73.8386 9.6405C72.9566 9.6405 72.5791 9.3085 72.5791 8.381V5.21H74.7431ZM66.6821 5.5765H66.5331V3.2515H64.2546V11.588H66.7166V7.0765C66.7166 5.828 67.2776 5.3015 68.5601 5.3015C68.7776 5.3015 69.0181 5.3245 69.3501 5.3815V3.229C69.1258 3.15026 68.8894 3.11151 68.6516 3.1145C67.6551 3.1145 66.9681 3.687 66.6821 5.5765ZM50.9606 9.6185C49.8041 9.6185 48.9681 8.851 48.9681 7.3625C48.9681 6.0345 49.7466 5.21 50.9376 5.21C51.9566 5.21 52.5406 5.7825 52.7126 6.6985H55.2086C54.9681 4.557 53.4341 3.1145 50.9721 3.1145C48.2696 3.1145 46.4951 4.9465 46.4951 7.4545C46.4951 10.0535 48.2011 11.725 50.9376 11.725C53.4226 11.725 55.0371 10.34 55.2661 8.095H52.7696C52.6326 9.0115 52.0026 9.6185 50.9606 9.6185ZM42.1326 3.1145C39.9911 3.1145 38.6976 4.168 38.4681 6.057H40.8271C40.9071 5.4045 41.3311 5.061 42.0751 5.061C42.8306 5.061 43.1741 5.4045 43.1741 5.897C43.1741 6.309 42.9111 6.527 42.2356 6.6525L41.1131 6.859C39.1326 7.225 38.3766 8.038 38.3766 9.332C38.3766 10.809 39.4186 11.737 40.8616 11.737C42.0406 11.737 42.8081 11.187 43.1631 9.813H43.3116V11.588H45.6366V6.149C45.6366 4.2595 44.5026 3.1145 42.1326 3.1145ZM41.8576 10.0535C41.1936 10.0535 40.8156 9.6985 40.8156 9.1715C40.8156 8.7365 41.0791 8.439 41.7316 8.29L42.1896 8.187C42.5846 8.0955 42.8911 7.9735 43.1746 7.7285V8.6105C43.1746 9.6295 42.6361 10.0535 41.8576 10.0535ZM59.6286 3.1145C57.4871 3.1145 56.1936 4.168 55.9646 6.057H58.3231C58.4036 5.4045 58.8271 5.061 59.5711 5.061C60.3271 5.061 60.6706 5.4045 60.6706 5.897C60.6706 6.309 60.4071 6.527 59.7316 6.6525L58.6096 6.859C56.6286 7.225 55.8726 8.038 55.8726 9.332C55.8726 10.809 56.9146 11.737 58.3576 11.737C59.5371 11.737 60.3041 11.187 60.6591 9.813H60.8081V11.588H63.1326V6.149C63.1326 4.2595 61.9986 3.1145 59.6286 3.1145ZM59.3536 10.0535C58.6896 10.0535 58.3116 9.6985 58.3116 9.1715C58.3116 8.7365 58.5751 8.439 59.2276 8.29L59.6856 8.187C60.0806 8.0955 60.3876 7.9735 60.6706 7.7285V8.6105C60.6706 9.6295 60.1326 10.0535 59.3536 10.0535Z" fill="#E2E8F0"/>
<path d="M7.88501 1.99445C7.37901 1.99445 7.01801 2.21495 6.68501 2.69395L5.72501 4.07245V0.137451H3.43501V4.07245L2.47501 2.69395C2.14251 2.21495 1.78151 1.99445 1.27501 1.99445C0.511011 1.99445 0.00251062 2.55845 1.06182e-05 3.25345C-0.00198938 3.84845 0.278511 4.23645 0.870011 4.61745L4.58001 7.00745L8.29001 4.61745C8.88151 4.23645 9.16201 3.84845 9.16001 3.25345C9.15801 2.55845 8.64901 1.99445 7.88501 1.99445Z" fill="#E2E8F0"/>
<path d="M4.58011 7.58008C6.78511 7.58008 8.59261 9.22608 8.58761 11.5881H0.57261C0.56811 9.22708 2.37511 7.58008 4.58011 7.58008Z" fill="#E2E8F0"/>
</g>
<defs>
<clipPath id="clip0_4841_683">
<rect width="75" height="12" fill="white"/>
</clipPath>
</defs>
</svg>
