<svg width="175" height="28" viewBox="0 0 175 28" fill="none" xmlns="http://www.w3.org/2000/svg">
<g clip-path="url(#clip0_4734_90)">
<path d="M67.5032 15.015L65.1792 14.8015C63.6555 14.6685 63.0419 14.1342 63.0419 13.1985C63.0419 12.103 63.9764 11.382 65.7929 11.382C67.5032 11.382 68.3584 12.1287 68.4914 13.3315H73.942C73.5944 9.779 71.0837 7.26717 65.9539 7.26717C60.6105 7.26717 57.6705 9.9925 57.6705 13.5987C57.6705 16.9657 59.5139 18.809 64.0837 19.1835L66.382 19.3702C68.1705 19.5043 68.8122 20.118 68.8122 21.1867C68.8122 22.309 67.8777 23.1373 65.9539 23.1373C64.163 23.1373 63.0955 22.3358 62.9089 20.9207H57.163C57.6705 24.794 60.3959 27.3583 65.927 27.3583C71.2972 27.3583 74.2629 24.6073 74.2629 20.8927C74.2629 17.2865 72.2854 15.4432 67.5032 15.015ZM48.6942 7.26717C45.2747 7.26717 43.2435 9.05683 42.2822 12.7178H41.9345V7.588H36.5375V27.0387H42.2822V15.7103C42.2822 13.118 43.618 11.7028 46.0225 11.7028C48.4002 11.7028 49.5762 13.1728 49.5762 15.6835V27.0387H55.3197V14.6685C55.3197 9.96567 52.8627 7.26717 48.6942 7.26717ZM30.9539 0C29.0032 0 27.5332 1.28333 27.5332 3.23283C27.5332 5.1835 28.9764 6.46567 30.927 6.46567C32.8777 6.46567 34.3197 5.18233 34.3197 3.23283C34.3197 1.309 32.8777 0 30.9539 0ZM33.8122 7.588H28.0675V27.0387H33.8122V7.588ZM83.2929 3.47317H79.633C79.5257 6.59983 78.1899 7.96133 75.1974 8.20167V12.1567H77.5494V20.706C77.5494 25.0075 80.0064 27.3583 84.8959 27.3583C85.8152 27.3583 86.731 27.2417 87.6212 27.0118V22.3883C87.1624 22.4645 86.6979 22.5 86.2329 22.4945C84.1749 22.4945 83.2929 21.7198 83.2929 19.5557V12.1567H88.3434V7.588H83.2929V3.47317ZM174.4 12.1567V7.588H169.351V3.47317H165.744C165.663 5.63733 165.023 6.89267 163.606 7.588V20.706C163.606 25.0075 166.064 27.3583 170.954 27.3583C171.873 27.3583 172.789 27.2417 173.679 27.0118V22.3883C173.22 22.4645 172.755 22.5001 172.29 22.4945C170.232 22.4945 169.351 21.7198 169.351 19.5557V12.1567H174.4ZM155.591 13.0118H155.244V7.58683H149.927V27.0387H155.672V16.5118C155.672 13.5987 156.981 12.3702 159.973 12.3702C160.481 12.3702 161.042 12.4238 161.817 12.5568V7.53433C161.293 7.35061 160.741 7.26019 160.187 7.26717C157.862 7.26717 156.259 8.603 155.591 13.0118ZM118.908 22.4432C116.209 22.4432 114.259 20.6523 114.259 17.1792C114.259 14.0805 116.075 12.1567 118.854 12.1567C121.232 12.1567 122.594 13.4925 122.996 15.6298H128.82C128.259 10.633 124.679 7.26717 118.935 7.26717C112.629 7.26717 108.488 11.5418 108.488 17.3938C108.488 23.4582 112.469 27.3583 118.854 27.3583C124.652 27.3583 128.42 24.1267 128.954 18.8883H123.129C122.809 21.0268 121.339 22.4432 118.908 22.4432ZM98.309 7.26717C93.3122 7.26717 90.294 9.72533 89.7585 14.133H95.2629C95.4495 12.6105 96.4389 11.809 98.1749 11.809C99.9377 11.809 100.739 12.6105 100.739 13.7597C100.739 14.721 100.126 15.2297 98.5494 15.5225L95.9302 16.0043C91.309 16.8583 89.545 18.7553 89.545 21.7747C89.545 25.221 91.9764 27.3863 95.3434 27.3863C98.0944 27.3863 99.8852 26.103 100.714 22.897H101.06V27.0387H106.485V14.3477C106.485 9.93883 103.839 7.26717 98.309 7.26717ZM97.6674 23.4582C96.118 23.4582 95.236 22.6298 95.236 21.4002C95.236 20.3852 95.8509 19.691 97.3734 19.3433L98.442 19.103C99.3637 18.8895 100.079 18.6048 100.74 18.0332V20.0912C100.74 22.4688 99.4839 23.4582 97.6674 23.4582ZM139.133 7.26717C134.136 7.26717 131.118 9.72533 130.584 14.133H136.087C136.275 12.6105 137.263 11.809 138.999 11.809C140.763 11.809 141.564 12.6105 141.564 13.7597C141.564 14.721 140.95 15.2297 139.373 15.5225L136.755 16.0043C132.133 16.8583 130.369 18.7553 130.369 21.7747C130.369 25.221 132.8 27.3863 136.167 27.3863C138.92 27.3863 140.709 26.103 141.538 22.897H141.885V27.0387H147.309V14.3477C147.309 9.93883 144.663 7.26717 139.133 7.26717ZM138.491 23.4582C136.942 23.4582 136.06 22.6298 136.06 21.4002C136.06 20.3852 136.675 19.691 138.197 19.3433L139.266 19.103C140.188 18.8895 140.904 18.6048 141.564 18.0332V20.0912C141.564 22.4688 140.309 23.4582 138.491 23.4582Z" fill="white"/>
<path d="M18.3984 4.6538C17.2177 4.6538 16.3754 5.1683 15.5984 6.28597L13.3584 9.50247V0.320801H8.01503V9.50247L5.77503 6.28597C4.99919 5.1683 4.15686 4.6538 2.97502 4.6538C1.19236 4.6538 0.00585811 5.9698 2.47758e-05 7.59147C-0.00464189 8.9798 0.649858 9.88513 2.03003 10.7741L10.6867 16.3508L19.3434 10.7741C20.7235 9.88513 21.378 8.9798 21.3734 7.59147C21.3687 5.9698 20.181 4.6538 18.3984 4.6538Z" fill="white"/>
<path d="M10.6868 17.6868C15.8318 17.6868 20.0493 21.5274 20.0376 27.0388H1.33596C1.32546 21.5298 5.54179 17.6868 10.6868 17.6868Z" fill="white"/>
</g>
<defs>
<clipPath id="clip0_4734_90">
<rect width="175" height="28" fill="white"/>
</clipPath>
</defs>
</svg>
