<svg width="93" height="16" viewBox="0 0 93 16" fill="none" xmlns="http://www.w3.org/2000/svg">
<g clip-path="url(#clip0_8083_343)">
<path d="M35.755 8.53199L34.5332 8.42016C33.7322 8.35049 33.4096 8.0706 33.4096 7.58049C33.4096 7.00666 33.9009 6.62899 34.8558 6.62899C35.755 6.62899 36.2046 7.0201 36.2745 7.65016H39.14C38.9572 5.78933 37.6373 4.4736 34.9405 4.4736C32.1314 4.4736 30.5858 5.90116 30.5858 7.7901C30.5858 9.55377 31.5549 10.5193 33.9573 10.7155L35.1656 10.8133C36.1058 10.8835 36.4431 11.205 36.4431 11.7648C36.4431 12.3527 35.9519 12.7865 34.9405 12.7865C33.999 12.7865 33.4378 12.3667 33.3397 11.6254H30.319C30.5858 13.6543 32.0186 14.9975 34.9264 14.9975C37.7495 14.9975 39.3086 13.5565 39.3086 11.6108C39.3086 9.72183 38.269 8.75627 35.755 8.53199ZM25.8668 4.4736C24.0691 4.4736 23.0013 5.41105 22.4959 7.32871H22.3132V4.64166H19.4759V14.8301H22.4959V8.89621C22.4959 7.53833 23.1982 6.79705 24.4623 6.79705C25.7123 6.79705 26.3305 7.56705 26.3305 8.88216V14.8301H29.3499V8.35049C29.3499 5.8871 28.0583 4.4736 25.8668 4.4736ZM16.5405 0.666992C15.515 0.666992 14.7422 1.33921 14.7422 2.36038C14.7422 3.38216 15.5009 4.05377 16.5264 4.05377C17.5519 4.05377 18.3099 3.38155 18.3099 2.36038C18.3099 1.35266 17.5519 0.666992 16.5405 0.666992ZM18.0431 4.64166H15.0231V14.8301H18.0431V4.64166ZM44.0558 2.48627H42.1318C42.0754 4.12405 41.3731 4.83721 39.7999 4.9631V7.03477H41.0364V11.513C41.0364 13.7662 42.3281 14.9975 44.8986 14.9975C45.3819 14.9975 45.8633 14.9364 46.3313 14.816V12.3942C46.0901 12.4341 45.8459 12.4527 45.6014 12.4498C44.5195 12.4498 44.0558 12.044 44.0558 10.9104V7.03477H46.711V4.64166H44.0558V2.48627ZM91.9523 7.03477V4.64166H89.2978V2.48627H87.4013C87.359 3.61988 87.0223 4.27744 86.2777 4.64166V11.513C86.2777 13.7662 87.57 14.9975 90.1405 14.9975C90.6238 14.9975 91.1052 14.9364 91.5732 14.816V12.3942C91.3318 12.4341 91.0874 12.4527 90.8427 12.4498C89.7608 12.4498 89.2978 12.044 89.2978 10.9104V7.03477H91.9523ZM82.0641 7.48272H81.8813V4.64105H79.0864V14.8301H82.1064V9.31605C82.1064 7.7901 82.7946 7.1466 84.3678 7.1466C84.6346 7.1466 84.9296 7.17471 85.3368 7.24438V4.61355C85.0617 4.51731 84.7716 4.46995 84.48 4.4736C83.2576 4.4736 82.4149 5.17333 82.0641 7.48272ZM62.7791 12.4229C61.3604 12.4229 60.3349 11.4849 60.3349 9.6656C60.3349 8.04249 61.2899 7.03477 62.7509 7.03477C64.0008 7.03477 64.7172 7.73449 64.9282 8.85405H67.9899C67.6949 6.23666 65.8132 4.4736 62.7932 4.4736C59.4781 4.4736 57.3014 6.71272 57.3014 9.77805C57.3014 12.9546 59.3941 14.9975 62.7509 14.9975C65.7991 14.9975 67.7796 13.3048 68.0605 10.5609H64.9981C64.8301 11.681 64.0573 12.4229 62.7791 12.4229ZM51.9501 4.4736C49.3231 4.4736 47.7365 5.76122 47.4549 8.06999H50.3486C50.4468 7.27249 50.9669 6.85266 51.8795 6.85266C52.8063 6.85266 53.2276 7.27249 53.2276 7.87444C53.2276 8.37799 52.905 8.64444 52.0764 8.79783L50.6995 9.05022C48.2701 9.49755 47.3427 10.4912 47.3427 12.0728C47.3427 13.878 48.6209 15.0122 50.391 15.0122C51.8372 15.0122 52.7787 14.34 53.2141 12.6607H53.3963V14.8301H56.2483V8.18244C56.2483 5.87305 54.8573 4.4736 51.9501 4.4736ZM51.6127 12.9546C50.7982 12.9546 50.3345 12.5207 50.3345 11.8766C50.3345 11.3449 50.6578 10.9813 51.4582 10.7992L52.02 10.6733C52.5045 10.5615 52.8805 10.4124 53.2282 10.1129V11.1909C53.2282 12.4364 52.5677 12.9546 51.6127 12.9546ZM73.4118 4.4736C70.7849 4.4736 69.1982 5.76122 68.9173 8.06999H71.8104C71.9091 7.27249 72.4286 6.85266 73.3413 6.85266C74.2686 6.85266 74.69 7.27249 74.69 7.87444C74.69 8.37799 74.3668 8.64444 73.5382 8.79783L72.1618 9.05022C69.7318 9.49755 68.8045 10.4912 68.8045 12.0728C68.8045 13.878 70.0826 15.0122 71.8527 15.0122C73.2996 15.0122 74.2404 14.34 74.6759 12.6607H74.8587V14.8301H77.71V8.18244C77.71 5.87305 76.319 4.4736 73.4118 4.4736ZM73.0745 12.9546C72.26 12.9546 71.7963 12.5207 71.7963 11.8766C71.7963 11.3449 72.1195 10.9813 72.9199 10.7992L73.4817 10.6733C73.9663 10.5615 74.3429 10.4124 74.69 10.1129V11.1909C74.69 12.4364 74.0301 12.9546 73.0745 12.9546Z" fill="white"/>
<path d="M9.94083 3.10463C9.32014 3.10463 8.87731 3.37413 8.46883 3.95957L7.29123 5.64441V0.834961H4.48217V5.64441L3.30457 3.95957C2.8967 3.37413 2.45387 3.10463 1.83257 3.10463C0.895394 3.10463 0.271634 3.79396 0.268568 4.64341C0.266114 5.37063 0.610194 5.84485 1.33577 6.31052L5.8867 9.23163L10.4376 6.31052C11.1632 5.84485 11.5073 5.37063 11.5048 4.64341C11.5024 3.79396 10.878 3.10463 9.94083 3.10463Z" fill="white"/>
<path d="M5.88756 9.93115C8.59236 9.93115 10.8096 11.9429 10.8034 14.8298H0.97169C0.96617 11.9442 3.18276 9.93115 5.88756 9.93115Z" fill="white"/>
</g>
<defs>
<clipPath id="clip0_8083_343">
<rect width="92" height="14.6667" fill="white" transform="translate(0.268555 0.666504)"/>
</clipPath>
</defs>
</svg>
