<svg width="32" height="32" viewBox="0 0 32 32" fill="none" xmlns="http://www.w3.org/2000/svg">
<g filter="url(#filter0_i_4143_261)">
<rect y="-0.000488281" width="32" height="32" rx="16" fill="#07080A"/>
</g>
<path d="M19.7899 13.0522C21.13 13.0522 22.4151 13.5846 23.3627 14.5321C24.3102 15.4797 24.8426 16.7648 24.8426 18.1049V23.9996H21.4741V18.1049C21.4741 17.6582 21.2967 17.2298 20.9809 16.914C20.665 16.5981 20.2366 16.4207 19.7899 16.4207C19.3433 16.4207 18.9149 16.5981 18.599 16.914C18.2832 17.2298 18.1057 17.6582 18.1057 18.1049V23.9996H14.7373V18.1049C14.7373 16.7648 15.2696 15.4797 16.2172 14.5321C17.1647 13.5846 18.4499 13.0522 19.7899 13.0522Z" fill="white"/>
<path d="M11.3684 13.894H8V23.9993H11.3684V13.894Z" fill="white"/>
<path d="M9.68421 11.3679C10.6144 11.3679 11.3684 10.6139 11.3684 9.68372C11.3684 8.75356 10.6144 7.99951 9.68421 7.99951C8.75405 7.99951 8 8.75356 8 9.68372C8 10.6139 8.75405 11.3679 9.68421 11.3679Z" fill="white"/>
<defs>
<filter id="filter0_i_4143_261" x="0" y="-0.000488281" width="32" height="32" filterUnits="userSpaceOnUse" color-interpolation-filters="sRGB">
<feFlood flood-opacity="0" result="BackgroundImageFix"/>
<feBlend mode="normal" in="SourceGraphic" in2="BackgroundImageFix" result="shape"/>
<feColorMatrix in="SourceAlpha" type="matrix" values="0 0 0 0 0 0 0 0 0 0 0 0 0 0 0 0 0 0 127 0" result="hardAlpha"/>
<feMorphology radius="1" operator="dilate" in="SourceAlpha" result="effect1_innerShadow_4143_261"/>
<feOffset dx="1" dy="2"/>
<feGaussianBlur stdDeviation="0.5"/>
<feComposite in2="hardAlpha" operator="arithmetic" k2="-1" k3="1"/>
<feColorMatrix type="matrix" values="0 0 0 0 1 0 0 0 0 1 0 0 0 0 1 0 0 0 0.15 0"/>
<feBlend mode="normal" in2="shape" result="effect1_innerShadow_4143_261"/>
</filter>
</defs>
</svg>
