<svg width="70" height="20" viewBox="0 0 70 20" fill="none" xmlns="http://www.w3.org/2000/svg">
<path d="M0.481445 16.1517H8.03724V13.6709H3.2163V4.20701H0.481445V16.1517ZM11.8627 16.1517V7.92445H9.12808V16.1517H11.8627ZM10.4956 6.80136C11.4491 6.80136 12.0426 6.16956 12.0426 5.37957C12.0249 4.57237 11.4491 3.9585 10.5138 3.9585C9.57827 3.9585 8.96654 4.57261 8.96654 5.37957C8.96654 6.16956 9.56011 6.80136 10.4777 6.80136H10.4956ZM13.1323 16.1517H15.8669V11.5571C15.8669 11.3112 15.8846 11.0653 15.957 10.8901C16.1543 10.3988 16.6043 9.88987 17.3599 9.88987C18.3496 9.88987 18.7456 10.6445 18.7456 11.7499V16.1515H21.4797V11.4342C21.4797 8.90704 20.1306 7.73114 18.3312 7.73114C16.8562 7.73114 16.2084 8.55578 15.8485 9.11756H15.8669V7.92445H13.1323C13.1684 8.69652 13.1323 16.1517 13.1323 16.1517ZM25.3377 4.20701H22.6031V16.1517H25.3377V13.4843L26.0211 12.6238L28.1621 16.1517H31.5262L27.9284 11.0445L31.0765 7.57008H27.7846C27.7846 7.57008 25.5358 10.6784 25.3377 11.0474V4.20701Z" fill="white"/>
<path d="M38.8393 12.7196C38.8753 12.5084 38.9293 12.1031 38.9293 11.6448C38.9293 9.51806 37.8497 7.35886 35.0073 7.35886C31.9669 7.35886 30.5635 9.76347 30.5635 11.9444C30.5635 14.6418 32.2727 16.3262 35.259 16.3262C36.4466 16.3262 37.5436 16.1513 38.4435 15.7825L38.0837 13.9765C37.3458 14.2212 36.5902 14.3438 35.6549 14.3438C34.3777 14.3438 33.2625 13.8193 33.1724 12.7019L38.8393 12.7191V12.7196ZM33.1545 10.8696C33.2264 10.1675 33.6945 9.13167 34.8637 9.13167C36.1049 9.13167 36.3931 10.2376 36.3931 10.8696H33.1545ZM45.6791 4.20678V8.34168H45.6431C45.2471 7.76293 44.4196 7.37678 43.3228 7.37678C41.2176 7.37678 39.3647 9.06142 39.3824 11.9394C39.3824 14.6071 41.0558 16.3446 43.1424 16.3446C44.276 16.3446 45.3551 15.8528 45.8952 14.9051H45.9489L46.0572 16.1515H48.4857C48.4498 15.5723 48.4135 14.572 48.4135 13.5892V4.20654H45.6789L45.6791 4.20678ZM45.6791 12.3432C45.6791 12.5535 45.6612 12.7645 45.6249 12.9394C45.4636 13.6945 44.8158 14.2205 44.0241 14.2205C42.891 14.2205 42.1531 13.3082 42.1531 11.8692C42.1531 10.5181 42.7832 9.42989 44.0423 9.42989C44.8877 9.42989 45.4813 10.0089 45.6433 10.7281C45.6791 10.8866 45.6791 11.0622 45.6791 11.2199V12.3432Z" fill="white"/>
<path d="M67.9307 0.890137C68.6696 0.8902 69.2684 1.47457 69.2686 2.19482V17.8052C69.2685 18.5257 68.6696 19.1098 67.9307 19.1099H52.502C51.7631 19.1099 51.1631 18.5256 51.1631 17.8052V2.19482C51.1633 1.47453 51.7632 0.890137 52.502 0.890137H67.9307ZM53.918 16.1421H56.6523V7.91455H53.918V16.1421ZM63.3652 7.72217C61.9136 7.72217 61.2637 8.52097 60.9004 9.08154V7.91553H58.166C58.2015 8.68653 58.1662 16.0985 58.166 16.1421H60.9004V11.5483C60.9004 11.3028 60.9181 11.0567 60.9902 10.8813C61.1879 10.3898 61.638 9.88135 62.3936 9.88135C63.3828 9.88137 63.7783 10.6356 63.7783 11.7417V16.1421H66.5127V11.4253C66.5127 8.89839 65.1643 7.72223 63.3652 7.72217ZM55.3037 3.94873C54.3677 3.94873 53.7568 4.56317 53.7568 5.37061C53.7568 6.16011 54.3498 6.7915 55.2676 6.7915H55.2852L55.46 6.78467C56.3108 6.71238 56.832 6.11079 56.832 5.37061C56.8141 4.56319 56.239 3.94875 55.3037 3.94873Z" fill="white"/>
</svg>
