<svg width="106" height="28" viewBox="0 0 106 28" fill="none" xmlns="http://www.w3.org/2000/svg">
<path d="M0.222168 23.4541H11.8337V19.6416H4.42503V5.09773H0.222168V23.4541ZM17.7126 23.4541V10.8106H13.5101V23.4541H17.7126ZM15.6117 9.08467C17.0769 9.08467 17.9891 8.11373 17.9891 6.89969C17.962 5.65922 17.0769 4.71582 15.6396 4.71582C14.202 4.71582 13.2619 5.65958 13.2619 6.89969C13.2619 8.11373 14.1741 9.08467 15.5842 9.08467H15.6117ZM19.6637 23.4541H23.8662V16.3931C23.8662 16.0153 23.8933 15.6374 24.0046 15.3682C24.3079 14.6132 24.9994 13.831 26.1606 13.831C27.6816 13.831 28.2901 14.9907 28.2901 16.6895V23.4537H32.4918V16.2044C32.4918 12.3206 30.4185 10.5135 27.6533 10.5135C25.3865 10.5135 24.3909 11.7808 23.8379 12.6442H23.8662V10.8106H19.6637C19.7191 11.9971 19.6637 23.4541 19.6637 23.4541ZM38.4207 5.09773H34.2182V23.4541H38.4207V19.3548L39.4709 18.0324L42.7612 23.4541H47.931L42.4021 15.6054L47.2399 10.266H42.181C42.181 10.266 38.7251 15.0429 38.4207 15.6098V5.09773Z" fill="white"/>
<path d="M59.1692 18.1801C59.2246 17.8555 59.3076 17.2327 59.3076 16.5283C59.3076 13.26 57.6485 9.94181 53.2804 9.94181C48.6079 9.94181 46.4512 13.6372 46.4512 16.9888C46.4512 21.134 49.0779 23.7226 53.6671 23.7226C55.4922 23.7226 57.1781 23.4538 58.5611 22.8871L58.008 20.1117C56.8741 20.4877 55.7129 20.6761 54.2756 20.6761C52.3128 20.6761 50.599 19.87 50.4605 18.1529L59.1692 18.1794V18.1801ZM50.433 15.337C50.5435 14.2581 51.2629 12.6662 53.0597 12.6662C54.9671 12.6662 55.4099 14.3657 55.4099 15.337H50.433ZM69.6806 5.09778V11.4522H69.6251C69.0166 10.5628 67.7449 9.96935 66.0594 9.96935C62.8242 9.96935 59.9767 12.5583 60.0039 16.9811C60.0039 21.0808 62.5755 23.7509 65.7821 23.7509C67.5242 23.7509 69.1826 22.9951 70.0125 21.5387H70.0952L70.2615 23.4541H73.9936C73.9385 22.564 73.8827 21.0268 73.8827 19.5164V5.09741H69.6802L69.6806 5.09778ZM69.6806 17.6017C69.6806 17.9249 69.653 18.2491 69.5972 18.5179C69.3493 19.6784 68.3538 20.4866 67.1372 20.4866C65.3958 20.4866 64.2618 19.0846 64.2618 16.8731C64.2618 14.7969 65.2302 13.1245 67.1651 13.1245C68.4643 13.1245 69.3765 14.0143 69.6255 15.1197C69.6806 15.3631 69.6806 15.633 69.6806 15.8754V17.6017Z" fill="white"/>
<path d="M103.877 0C105.013 1.23675e-05 105.934 0.898691 105.934 2.00586V25.9941C105.934 27.1017 105.013 28 103.877 28H80.166C79.0307 28 78.1095 27.1022 78.1094 25.9951V2.00586C78.1094 0.898712 79.0306 4.70542e-05 80.166 0H103.877ZM82.3418 23.4385H86.5439V10.7949H82.3418V23.4385ZM96.8604 10.499C94.6296 10.499 93.6306 11.7264 93.0723 12.5879V10.7959H88.8701C88.9247 11.9803 88.8704 23.3777 88.8701 23.4385H93.0723V16.3789C93.0723 16.0014 93.1 15.6231 93.2109 15.3535C93.5147 14.5982 94.2061 13.8164 95.3672 13.8164C96.8873 13.8165 97.4961 14.976 97.4961 16.6758V23.4385H101.698V16.1895C101.698 12.3062 99.625 10.4992 96.8604 10.499ZM84.4717 4.7002C83.0334 4.7002 82.0939 5.64407 82.0938 6.88477C82.0938 8.09807 83.0055 9.06934 84.416 9.06934H84.4434L84.7119 9.05762C86.0193 8.9464 86.8213 8.02216 86.8213 6.88477C86.7936 5.64413 85.9087 4.7003 84.4717 4.7002Z" fill="white"/>
</svg>
