<svg width="209" height="48" viewBox="0 0 209 48" fill="none" xmlns="http://www.w3.org/2000/svg">
<g clip-path="url(#clip0_4734_160)">
<path d="M24.48 0C11.2673 0 0.51618 10.7069 0.47998 23.9095V24.0182C0.47998 37.257 11.2673 48 24.48 48C37.7289 48 48.48 37.2208 48.48 24.0182C48.48 10.743 37.7289 0 24.48 0ZM18.471 2.27883C20.2809 1.77241 22.1994 1.48304 24.1903 1.44687C24.2989 1.44687 24.3714 1.44687 24.48 1.44687C24.5886 1.44687 24.6972 1.44687 24.7696 1.44687C27.8464 1.5554 30.489 3.50867 31.6111 6.18538C31.8646 6.76413 32.0094 7.34288 32.118 7.99397C32.1904 8.35569 32.1904 8.75358 32.1904 9.15147C32.1904 10.8877 31.6111 12.4793 30.67 13.7815C29.6565 13.1665 28.5343 12.6963 27.3759 12.4069C28.2808 11.6112 28.8238 10.4536 28.8238 9.15147C28.8238 8.211 28.5343 7.34288 27.9913 6.61944C27.195 5.5343 25.9279 4.81085 24.48 4.81085C21.946 4.81085 19.5568 5.28108 17.3488 6.18538C16.7334 6.43858 16.1542 6.72796 15.5749 7.01733C12.1723 8.82592 9.34876 11.6112 7.5388 15.0476C5.65645 15.4815 3.99129 16.4943 2.76052 17.9051C4.89627 10.3451 10.8691 4.37679 18.471 2.27883ZM33.6384 8.82593C36.0999 10.309 38.1633 12.3708 39.6474 14.8304C39.5388 14.8304 39.4302 14.8304 39.3216 14.8304C37.2945 14.8304 35.4121 15.4815 33.8917 16.639C33.3126 15.8794 32.6248 15.1922 31.8646 14.6134C32.9868 13.0942 33.6745 11.2133 33.6745 9.18764C33.6384 9.04296 33.6384 8.93443 33.6384 8.82593ZM41.8555 20.4732C41.1316 19.9668 40.2628 19.6413 39.3216 19.6413C38.0184 19.6413 36.8601 20.1838 36.0637 21.0882C35.376 21.8478 34.9777 22.8606 34.9777 23.9818C34.9777 25.8629 34.4709 27.6353 33.6021 29.1544C33.3487 29.5886 33.0954 29.9865 32.7696 30.3843C32.2266 31.1078 31.575 31.7228 30.8872 32.2653C30.0184 31.3971 28.9687 30.7098 27.7741 30.2759C29.041 29.6247 30.0909 28.5757 30.7425 27.3097C31.2855 26.3331 31.575 25.1756 31.575 23.9818C31.575 21.9924 32.3352 20.1839 33.5659 18.8094C33.8917 18.4476 34.2537 18.1221 34.6519 17.7966C35.9551 16.82 37.5478 16.2772 39.2854 16.2772C39.6835 16.2772 40.0818 16.3136 40.4437 16.3497C41.0953 17.6518 41.5659 19.0263 41.8555 20.4732ZM42.2175 23.8372C42.2175 23.8734 42.2175 23.9457 42.2175 23.9818C42.2175 24.0182 42.2175 24.0905 42.2175 24.1266C42.1452 25.6458 40.8781 26.8757 39.3216 26.8757C37.7289 26.8757 36.4257 25.5735 36.4257 23.9818C36.4257 22.3904 37.7289 21.0882 39.3216 21.0882C40.8781 21.0882 42.1452 22.3181 42.2175 23.8372ZM31.8646 33.3866C32.6248 32.8078 33.3126 32.1206 33.8917 31.361C35.4121 32.4824 37.2945 33.1334 39.3216 33.1334C39.4302 33.1334 39.5388 33.1334 39.6474 33.1334C38.1633 35.593 36.0999 37.6548 33.6384 39.1378C33.6384 39.0294 33.6384 38.921 33.6384 38.8124C33.6384 36.7868 32.9868 34.9058 31.8646 33.3866ZM27.3759 35.5931C26.6157 34.9058 25.6021 34.5079 24.5161 34.5079C22.6338 34.5079 20.86 34.0015 19.3398 33.1334C18.9054 32.8801 18.5071 32.6269 18.1089 32.3014C17.385 31.7589 16.7334 31.1078 16.1904 30.3843C17.0592 29.5163 17.7469 28.4671 18.2175 27.3097C18.8691 28.5757 19.9189 29.6247 21.2221 30.312C22.1994 30.8545 23.3578 31.1439 24.5524 31.1439C26.5434 31.1439 28.3533 31.9035 29.7288 33.1334C30.0909 33.459 30.4167 33.8207 30.7425 34.2186C31.7197 35.5208 32.2627 37.1123 32.2627 38.8485C32.2627 39.2464 32.2266 39.6081 32.1904 40.0061C30.8872 40.6209 29.5116 41.0911 28.0636 41.3805C28.5705 40.6571 28.8963 39.789 28.8963 38.8485C28.8238 37.5463 28.2447 36.3888 27.3759 35.5931ZM27.3759 38.8485C27.3759 40.3316 26.2537 41.5614 24.8058 41.7062C24.6972 41.7062 24.6247 41.7062 24.5161 41.7062C24.4075 41.7062 24.2989 41.7062 24.2266 41.7062C22.7787 41.5614 21.6564 40.3316 21.6564 38.8485C21.6564 37.257 22.9596 35.9548 24.5524 35.9548C26.0727 35.9548 27.3759 37.257 27.3759 38.8485ZM15.3216 39.1378C12.8601 37.6548 10.7605 35.5569 9.27636 33.0972C9.38496 33.0972 9.52975 33.0972 9.63835 33.0972C11.6655 33.0972 13.5479 32.446 15.032 31.3248C15.6474 32.0844 16.3351 32.7717 17.0953 33.3866C15.9732 34.9058 15.2854 36.7868 15.2854 38.8124C15.3216 38.9571 15.3216 39.0655 15.3216 39.1378ZM9.63835 28.2864C10.9053 28.2864 12.0637 27.7438 12.8601 26.8395C12.8963 26.8033 12.9325 26.731 12.9687 26.6947C13.0411 26.5863 13.1135 26.514 13.1859 26.4054C13.2221 26.3692 13.2583 26.297 13.2583 26.2608C13.2945 26.2245 13.2945 26.1883 13.3307 26.1522C13.3669 26.0799 13.403 26.0076 13.4755 25.9352C13.4755 25.9352 13.4755 25.9352 13.4755 25.899C13.5117 25.8629 13.5117 25.7906 13.5479 25.7544C13.5841 25.6819 13.5841 25.6458 13.6203 25.5735C13.6203 25.5373 13.6564 25.5012 13.6564 25.4649C13.6927 25.4288 13.6927 25.3564 13.6927 25.3203C13.7289 25.248 13.7289 25.1394 13.765 25.0671C13.765 25.0671 13.765 25.0671 13.765 25.0309C13.765 24.9946 13.8012 24.9585 13.8012 24.8862C13.8012 24.85 13.8375 24.8139 13.8375 24.7777V24.7415C13.8375 24.7053 13.8375 24.6692 13.8375 24.633C13.8375 24.5969 13.8375 24.5607 13.8375 24.5246C13.8375 24.4521 13.8375 24.3798 13.8736 24.3075C13.8736 24.2713 13.8736 24.2351 13.8736 24.1989C13.8736 24.1266 13.8736 24.0905 13.8736 24.0182V23.9818C13.8736 22.101 14.3804 20.3286 15.2492 18.8094C15.5026 18.3753 15.756 17.9774 16.0818 17.5795C16.6248 16.8923 17.2402 16.2411 17.9641 15.6986C18.8329 16.5667 19.8826 17.2539 21.0772 17.7241C19.8103 18.3753 18.7605 19.4242 18.1089 20.6903C17.5659 21.6669 17.2764 22.7883 17.2764 23.9818V24.0182C17.2764 26.0076 16.48 27.8162 15.2492 29.1544C14.9234 29.5163 14.5614 29.8418 14.1632 30.1311C12.8601 31.0716 11.3035 31.6503 9.56595 31.6503C9.16776 31.6503 8.76957 31.6142 8.37138 31.578C7.756 30.2759 7.28541 28.9013 6.99582 27.4543C7.82839 27.9971 8.69718 28.2864 9.63835 28.2864ZM6.74242 23.9818C6.74242 23.9095 6.74242 23.8734 6.74242 23.8011C6.81483 22.2819 8.08179 21.0521 9.63835 21.0521C11.2311 21.0521 12.5343 22.3542 12.5343 23.9457V23.9818C12.4981 25.5373 11.2311 26.8034 9.63835 26.8034C8.04559 26.8395 6.77862 25.5735 6.74242 23.9818ZM17.0953 14.6134C16.3351 15.1922 15.6835 15.8794 15.1044 16.6029C13.5841 15.4815 11.7017 14.7943 9.63835 14.7943C9.52975 14.7943 9.42115 14.7943 9.34876 14.7943C10.8329 12.3708 12.8963 10.309 15.3216 8.82593C15.3216 8.93443 15.3216 9.04296 15.3216 9.15147C15.3216 11.1771 15.9732 13.058 17.0953 14.6134ZM21.6202 12.4069C22.3804 13.0942 23.394 13.4921 24.5161 13.4921C26.3985 13.4921 28.1722 13.9985 29.6926 14.8666C30.127 15.1199 30.5253 15.3731 30.9234 15.6986C31.6474 16.2411 32.2627 16.8923 32.8057 17.5795C31.9369 18.4476 31.2492 19.4965 30.8148 20.6903C30.1632 19.4242 29.1135 18.3753 27.8464 17.7241C26.8692 17.1816 25.7107 16.8923 24.5161 16.8923C22.5252 16.8923 20.7153 16.1327 19.3398 14.9028C18.9777 14.5772 18.6519 14.2155 18.3261 13.8176C17.3488 12.5154 16.8058 10.9239 16.8058 9.18764C16.8058 8.78975 16.842 8.39185 16.8781 8.03014C18.1813 7.41522 19.5568 6.94498 21.0049 6.65562C20.4981 7.37906 20.1723 8.24718 20.1723 9.18764C20.1361 10.4537 20.7153 11.6112 21.6202 12.4069ZM21.5841 9.15147C21.5841 7.59607 22.8148 6.33008 24.3352 6.25773C24.3714 6.25773 24.4438 6.25773 24.48 6.25773C24.5161 6.25773 24.5886 6.25773 24.6247 6.25773C26.1451 6.33008 27.3759 7.59607 27.3759 9.15147C27.3759 10.743 26.0727 12.0452 24.48 12.0452C22.8873 12.0452 21.5841 10.743 21.5841 9.15147ZM30.1632 23.9818C30.1632 27.1288 27.6292 29.6608 24.48 29.6608C21.3307 29.6608 18.7968 27.1288 18.7968 23.9818V23.9457C18.8329 20.835 21.3669 18.303 24.48 18.303C27.5931 18.303 30.1632 20.8711 30.1632 23.9818ZM2.72433 29.9502C2.21754 28.1417 1.96414 26.2608 1.92794 24.3075C1.92794 24.1989 1.92794 24.1266 1.92794 24.0182V23.9457C1.92794 23.8372 1.92794 23.7649 1.92794 23.6563C2.07274 20.5818 3.99129 17.9774 6.70623 16.8561C7.28541 16.639 7.8646 16.4582 8.51619 16.3497C8.87817 16.2773 9.27635 16.2772 9.63835 16.2772C11.3759 16.2772 12.9687 16.8561 14.2718 17.8328C13.6564 18.8456 13.1859 19.9668 12.8963 21.1243C12.0999 20.22 10.9415 19.6775 9.63835 19.6775C8.69718 19.6775 7.82839 19.9668 7.10441 20.4732C6.01845 21.2691 5.29446 22.5351 5.29446 23.9457V24.0182C5.29446 26.514 5.76505 28.9012 6.63382 31.0716C6.88722 31.6864 7.14061 32.2653 7.46641 32.844C9.27636 36.3165 12.0999 39.1379 15.5388 40.9466C15.9732 42.8274 17.023 44.4914 18.4347 45.7212C10.8329 43.6231 4.82388 37.5825 2.72433 29.9502ZM30.5253 45.7212C28.7152 46.2276 26.7967 46.5169 24.8058 46.5169C24.6972 46.5169 24.6247 46.5169 24.5161 46.5169C24.4075 46.5169 24.2989 46.5169 24.2266 46.5169C21.1497 46.4085 18.5071 44.4552 17.385 41.7785C17.1316 41.1998 16.9867 40.6209 16.8781 39.9699C16.8058 39.6081 16.8058 39.2103 16.8058 38.8124C16.8058 37.0761 17.385 35.4846 18.3261 34.1823C19.3398 34.7973 20.4619 35.2675 21.6202 35.5569C20.7153 36.3526 20.1723 37.5102 20.1723 38.8124C20.1723 39.7528 20.4619 40.6209 21.0049 41.3444C21.7288 42.3572 22.851 43.0444 24.1542 43.153H24.1903C24.2989 43.153 24.4075 43.153 24.5161 43.153C24.6247 43.153 24.7333 43.153 24.8419 43.153H24.8782C27.2673 43.1167 29.5479 42.6104 31.6474 41.7785C32.2627 41.5252 32.842 41.2721 33.4212 40.9466C36.8601 39.1379 39.6835 36.3165 41.4936 32.8801C43.3759 32.446 45.0411 31.3971 46.2357 29.9865C44.1361 37.6186 38.127 43.6231 30.5253 45.7212ZM47.032 23.9818C47.032 24.0905 47.032 24.1628 47.032 24.2714C46.9234 27.3459 44.9686 29.9502 42.2899 31.0716C41.7108 31.3248 41.1316 31.4695 40.48 31.578C40.1179 31.6503 39.7198 31.6503 39.3216 31.6503C37.584 31.6503 35.9913 31.0716 34.7244 30.1311C35.3397 29.1183 35.8102 27.997 36.0999 26.8395C36.8962 27.7438 38.0547 28.2864 39.3579 28.2864C40.299 28.2864 41.1678 27.9608 41.8917 27.4543C42.9777 26.6586 43.7017 25.3926 43.7017 23.9457C43.7017 21.4499 43.2312 19.0264 42.3261 16.82C42.0727 16.205 41.7831 15.6263 41.4936 15.0476C39.6835 11.6112 36.8601 8.78975 33.4212 6.98116C32.9868 5.10022 31.9369 3.43632 30.5253 2.20648C38.127 4.30444 44.1361 10.309 46.2357 17.9051C46.7424 19.7136 47.032 21.6308 47.032 23.6202C47.032 23.7649 47.032 23.8734 47.032 23.9818Z" fill="white"/>
<path fill-rule="evenodd" clip-rule="evenodd" d="M66.8525 15.2582H71.5805L75.9965 27.3302H76.0685L80.4365 15.2582H85.1885V32.2502H82.1885V18.5942H82.1405L76.9805 32.2502H74.8685L69.7805 18.5942H69.7325V32.2502H66.8525V15.2582ZM93.4658 15.2582H104.722V17.8982H96.4898V22.2182H104.29V24.7622H96.4898V29.5622H105.154V32.2502H93.4658V15.2582ZM118.135 22.5782C118.567 22.5782 118.999 22.5462 119.431 22.4822C119.863 22.4181 120.251 22.2981 120.595 22.1222C120.939 21.9462 121.223 21.6942 121.447 21.3662C121.671 21.0381 121.783 20.6181 121.783 20.1062C121.783 19.6422 121.679 19.2621 121.471 18.9662C121.263 18.6702 120.999 18.4341 120.679 18.2582C120.359 18.0822 119.995 17.9622 119.587 17.8982C119.179 17.8341 118.783 17.8022 118.399 17.8022H115.663V22.5782H118.135ZM112.639 15.2582H118.543C119.343 15.2582 120.119 15.3422 120.871 15.5102C121.623 15.6782 122.291 15.9542 122.875 16.3382C123.459 16.7222 123.927 17.2262 124.279 17.8502C124.631 18.4742 124.807 19.2342 124.807 20.1302C124.807 21.3621 124.459 22.3662 123.763 23.1422C123.067 23.9181 122.119 24.4422 120.919 24.7142L125.455 32.2502H121.807L117.871 25.0502H115.663V32.2502H112.639V15.2582ZM144.533 19.2422C144.085 18.6342 143.501 18.1902 142.781 17.9102C142.061 17.6301 141.356 17.4902 140.669 17.4902C139.789 17.4902 138.989 17.6502 138.269 17.9702C137.549 18.2901 136.928 18.7302 136.409 19.2902C135.889 19.8501 135.488 20.5062 135.209 21.2582C134.929 22.0101 134.789 22.8261 134.789 23.7062C134.789 24.6342 134.924 25.4822 135.197 26.2502C135.469 27.0182 135.857 27.6782 136.361 28.2302C136.865 28.7822 137.468 29.2101 138.173 29.5142C138.877 29.8182 139.669 29.9702 140.549 29.9702C141.461 29.9702 142.268 29.7902 142.973 29.4302C143.677 29.0702 144.245 28.5942 144.677 28.0022L147.101 29.7062C146.348 30.6501 145.429 31.3821 144.341 31.9022C143.252 32.4222 141.98 32.6822 140.525 32.6822C139.196 32.6822 137.977 32.4621 136.865 32.0222C135.752 31.5822 134.797 30.9662 133.997 30.1742C133.196 29.3822 132.572 28.4382 132.125 27.3422C131.677 26.2461 131.453 25.0341 131.453 23.7062C131.453 22.3461 131.689 21.1182 132.161 20.0222C132.632 18.9261 133.28 17.9942 134.105 17.2262C134.929 16.4582 135.901 15.8661 137.021 15.4502C138.14 15.0342 139.357 14.8262 140.669 14.8262C141.212 14.8262 141.781 14.8782 142.373 14.9822C142.965 15.0861 143.533 15.2462 144.077 15.4622C144.62 15.6782 145.133 15.9462 145.613 16.2662C146.093 16.5861 146.501 16.9701 146.837 17.4182L144.533 19.2422ZM167.042 26.0102C167.042 27.0342 166.867 27.9582 166.514 28.7822C166.162 29.6061 165.682 30.3062 165.074 30.8822C164.467 31.4582 163.747 31.9022 162.914 32.2142C162.082 32.5262 161.179 32.6822 160.202 32.6822C159.226 32.6822 158.323 32.5262 157.49 32.2142C156.658 31.9022 155.935 31.4582 155.318 30.8822C154.702 30.3062 154.222 29.6061 153.878 28.7822C153.535 27.9582 153.362 27.0342 153.362 26.0102V15.2582H156.386V25.8902C156.386 26.3862 156.451 26.8782 156.578 27.3662C156.706 27.8541 156.919 28.2902 157.214 28.6742C157.51 29.0582 157.903 29.3702 158.39 29.6102C158.878 29.8502 159.482 29.9702 160.202 29.9702C160.922 29.9702 161.527 29.8502 162.014 29.6102C162.502 29.3702 162.895 29.0582 163.19 28.6742C163.486 28.2902 163.699 27.8541 163.826 27.3662C163.954 26.8782 164.018 26.3862 164.018 25.8902V15.2582H167.042V26.0102ZM180.671 22.5782C181.103 22.5782 181.535 22.5462 181.967 22.4822C182.399 22.4181 182.788 22.2981 183.131 22.1222C183.475 21.9462 183.76 21.6942 183.983 21.3662C184.207 21.0381 184.319 20.6181 184.319 20.1062C184.319 19.6422 184.216 19.2621 184.007 18.9662C183.799 18.6702 183.535 18.4341 183.215 18.2582C182.896 18.0822 182.531 17.9622 182.123 17.8982C181.715 17.8341 181.319 17.8022 180.935 17.8022H178.199V22.5782H180.671ZM175.175 15.2582H181.079C181.879 15.2582 182.656 15.3422 183.407 15.5102C184.159 15.6782 184.828 15.9542 185.411 16.3382C185.995 16.7222 186.463 17.2262 186.815 17.8502C187.168 18.4742 187.343 19.2342 187.343 20.1302C187.343 21.3621 186.995 22.3662 186.299 23.1422C185.603 23.9181 184.655 24.4422 183.455 24.7142L187.991 32.2502H184.343L180.407 25.0502H178.199V32.2502H175.175V15.2582ZM198.74 24.8822L192.356 15.2582H196.052L200.324 22.4102L204.644 15.2582H208.148L201.764 24.8822V32.2502H198.74V24.8822Z" fill="white"/>
</g>
<defs>
<clipPath id="clip0_4734_160">
<rect width="208.5" height="48" fill="white" transform="translate(0.47998)"/>
</clipPath>
</defs>
</svg>
