<svg width="121" height="24" viewBox="0 0 121 24" fill="none" xmlns="http://www.w3.org/2000/svg">
<g clip-path="url(#clip0_7755_8694)">
<path d="M44.9497 0.77124H49.4635L57.1387 14.655L64.8137 0.77124H69.2298V23.5848H65.5471V6.09992L58.8171 18.2074H55.3624L48.6324 6.09992V23.5848H44.9497V0.77124Z" fill="white"/>
<path d="M81.1093 23.9924C79.4036 23.9924 77.9045 23.6146 76.6118 22.8598C75.3189 22.1048 74.3114 21.059 73.589 19.723C72.8664 18.3867 72.5054 16.855 72.5054 15.1277C72.5054 13.3787 72.8583 11.8306 73.5645 10.4835C74.2707 9.13657 75.2512 8.0827 76.5059 7.32205C77.7607 6.56182 79.2028 6.1814 80.8323 6.1814C82.4509 6.1814 83.8442 6.56432 85.0121 7.33017C86.1797 8.09623 87.0788 9.16904 87.7089 10.5486C88.3389 11.9284 88.6541 13.5469 88.6541 15.4047V16.4148H76.1555C76.3837 17.8056 76.9458 18.8999 77.8422 19.6984C78.7384 20.4969 79.8709 20.8961 81.2397 20.8961C82.3368 20.8961 83.282 20.7331 84.0751 20.4072C84.868 20.0813 85.6122 19.5871 86.3076 18.9244L88.263 21.3198C86.3182 23.1017 83.9338 23.9924 81.1093 23.9924ZM83.7981 10.4589C83.0266 9.67142 82.0162 9.27746 80.7672 9.27746C79.5503 9.27746 78.5318 9.67953 77.7118 10.4835C76.8914 11.2874 76.3727 12.3683 76.1555 13.7263H85.118C85.0093 12.3357 84.5693 11.2468 83.7981 10.4589Z" fill="white"/>
<path d="M93.1195 9.60333H89.73V6.58863H93.1195V1.60229H96.6718V6.58863H101.821V9.60333H96.6718V17.2458C96.6718 18.5167 96.889 19.4239 97.3236 19.9671C97.758 20.5104 98.5023 20.7818 99.5562 20.7818C100.023 20.7818 100.42 20.7631 100.746 20.7248C101.072 20.6869 101.43 20.6351 101.821 20.57V23.552C101.419 23.6714 100.966 23.7692 100.461 23.8454C99.9553 23.9212 99.4258 23.9595 98.8717 23.9595C95.0367 23.9595 93.1195 21.8629 93.1195 17.6695V9.60333Z" fill="white"/>
<path d="M120.332 23.5849H116.845V21.2058C116.226 22.0967 115.438 22.7839 114.482 23.2671C113.526 23.7503 112.439 23.9924 111.223 23.9924C109.724 23.9924 108.396 23.6092 107.239 22.8434C106.082 22.0775 105.172 21.0239 104.509 19.6822C103.846 18.3405 103.515 16.8061 103.515 15.0788C103.515 13.3406 103.852 11.8033 104.526 10.467C105.199 9.13095 106.131 8.0827 107.32 7.32205C108.51 6.56182 109.876 6.1814 111.418 6.1814C112.581 6.1814 113.624 6.40699 114.547 6.85776C115.47 7.30853 116.236 7.94701 116.845 8.77238V6.58888H120.332V23.5849ZM116.78 12.5367C116.399 11.5698 115.799 10.8069 114.979 10.2471C114.159 9.68765 113.211 9.40795 112.135 9.40795C110.614 9.40795 109.403 9.91865 108.502 10.9396C107.6 11.9608 107.149 13.3406 107.149 15.0788C107.149 16.8279 107.583 18.2129 108.453 19.2341C109.322 20.2553 110.5 20.7658 111.989 20.7658C113.086 20.7658 114.064 20.4834 114.922 19.9184C115.78 19.3538 116.399 18.5931 116.78 17.6371V12.5367Z" fill="white"/>
<path d="M37.9019 16C37.9019 6.66667 33.2352 0 27.2352 0C22.5685 0 19.2352 5.33333 19.2352 5.33333C16.5685 9.33333 16.5685 16.6667 20.5685 8.66667C20.5685 8.66667 23.9019 3.33333 27.2352 3.33333C31.9019 3.33333 34.3609 11.3333 34.3609 16C34.3609 17.3333 33.9019 20 31.2352 20V24C33.9019 24 37.9019 22 37.9019 16Z" fill="white"/>
<path d="M11.2355 0V4C6.96885 4.53333 4.56885 11.3333 4.56885 16C4.56885 17.3333 5.23551 20 7.23551 20C10.5688 20 14.4018 12.6399 17.9022 7.25679C19.7604 4.39906 21.61 6.85278 20.1996 9.33333C16.8578 15.2108 13.5115 24 7.23551 24C4.56885 24 0.568848 22 0.568848 16C0.568848 4 7.90218 0 11.2355 0Z" fill="white"/>
<path d="M31.2358 20C26.5692 20 21.2358 0 11.2358 0V4C19.2358 4 22.5691 24 31.2358 24V20Z" fill="white"/>
</g>
<defs>
<clipPath id="clip0_7755_8694">
<rect width="120" height="24" fill="white" transform="translate(0.568848)"/>
</clipPath>
</defs>
</svg>
