<svg width="81" height="16" viewBox="0 0 81 16" fill="none" xmlns="http://www.w3.org/2000/svg">
<g clip-path="url(#clip0_8083_377)">
<path d="M30.1616 0.514648H33.1708L38.2876 9.77045L43.4043 0.514648H46.3484V15.7237H43.8932V4.0671L39.4065 12.1388H37.1034L32.6168 4.0671V15.7237H30.1616V0.514648Z" fill="white"/>
<path d="M54.2687 15.9956C53.1316 15.9956 52.1321 15.7437 51.2703 15.2405C50.4084 14.7372 49.7367 14.04 49.2551 13.1493C48.7734 12.2584 48.5327 11.2373 48.5327 10.0858C48.5327 8.91979 48.768 7.8877 49.2388 6.98963C49.7096 6.0917 50.3633 5.38912 51.1997 4.88202C52.0363 4.3752 52.9977 4.12158 54.084 4.12158C55.1631 4.12158 56.0919 4.37686 56.8705 4.88743C57.6489 5.39814 58.2483 6.11334 58.6684 7.03306C59.0884 7.95291 59.2985 9.03189 59.2985 10.2704V10.9439H50.9662C51.1183 11.8711 51.493 12.6006 52.0906 13.1329C52.6881 13.6653 53.4431 13.9314 54.3556 13.9314C55.087 13.9314 55.7171 13.8227 56.2459 13.6055C56.7745 13.3882 57.2706 13.0587 57.7342 12.617L59.0378 14.2139C57.7413 15.4018 56.1517 15.9956 54.2687 15.9956ZM56.0612 6.97326C55.5469 6.44826 54.8733 6.18563 54.0406 6.18563C53.2294 6.18563 52.5504 6.45367 52.0037 6.98963C51.4567 7.52558 51.1109 8.2462 50.9662 9.15149H56.9412C56.8687 8.22442 56.5753 7.49853 56.0612 6.97326Z" fill="white"/>
<path d="M62.2748 6.40287H60.0151V4.39307H62.2748V1.06885H64.643V4.39307H68.0759V6.40287H64.643V11.4978C64.643 12.3451 64.7878 12.9499 65.0776 13.312C65.3671 13.6743 65.8633 13.8552 66.5659 13.8552C66.8772 13.8552 67.1417 13.8427 67.359 13.8172C67.5762 13.7919 67.8152 13.7574 68.0759 13.714V15.702C67.8079 15.7816 67.5056 15.8468 67.1688 15.8976C66.832 15.9481 66.479 15.9736 66.1096 15.9736C63.553 15.9736 62.2748 14.5759 62.2748 11.7803V6.40287Z" fill="white"/>
<path d="M80.4168 15.7239H78.092V14.1378C77.6792 14.7318 77.154 15.1899 76.5168 15.5121C75.8794 15.8342 75.1551 15.9956 74.344 15.9956C73.3446 15.9956 72.4592 15.7401 71.6879 15.2296C70.9166 14.719 70.3099 14.0166 69.8683 13.1221C69.4264 12.2276 69.2056 11.2047 69.2056 10.0532C69.2056 8.8944 69.43 7.86952 69.8792 6.97867C70.3281 6.08795 70.9492 5.38912 71.7422 4.88202C72.5353 4.3752 73.446 4.12158 74.4744 4.12158C75.2493 4.12158 75.9445 4.27198 76.5602 4.57249C77.1757 4.873 77.6863 5.29866 78.092 5.8489V4.39324H80.4168V15.7239ZM78.0485 8.35845C77.7949 7.71386 77.3949 7.20523 76.8481 6.83202C76.3012 6.45908 75.6694 6.27262 74.9524 6.27262C73.9384 6.27262 73.1309 6.61309 72.5299 7.29375C71.9286 7.97455 71.6282 8.8944 71.6282 10.0532C71.6282 11.2193 71.9177 12.1426 72.4973 12.8234C73.0766 13.5042 73.8623 13.8445 74.8547 13.8445C75.586 13.8445 76.2378 13.6563 76.8101 13.2796C77.3821 12.9032 77.7949 12.3961 78.0485 11.7587V8.35845Z" fill="white"/>
<path d="M25.4634 10.6672C25.4634 4.44493 22.3523 0.000488281 18.3523 0.000488281C15.2412 0.000488281 13.0189 3.55604 13.0189 3.55604C11.2412 6.22271 11.2412 11.1116 13.9078 5.77827C13.9078 5.77827 16.13 2.22271 18.3523 2.22271C21.4634 2.22271 23.1028 7.55604 23.1028 10.6672C23.1028 11.556 22.7967 13.3338 21.0189 13.3338V16.0005C22.7967 16.0005 25.4634 14.6672 25.4634 10.6672Z" fill="white"/>
<path d="M7.68582 0.000488281V2.66715C4.84137 3.02271 3.24137 7.55604 3.24137 10.6672C3.24137 11.556 3.68582 13.3338 5.01915 13.3338C7.24137 13.3338 9.79669 8.42712 12.1303 4.83834C13.3691 2.9332 14.6021 4.56901 13.6619 6.22271C11.434 10.141 9.20317 16.0005 5.01915 16.0005C3.24137 16.0005 0.574707 14.6672 0.574707 10.6672C0.574707 2.66715 5.4636 0.000488281 7.68582 0.000488281Z" fill="white"/>
<path d="M21.0194 13.3338C17.9083 13.3338 14.3527 0.000488281 7.68604 0.000488281V2.66716C13.0194 2.66715 15.2416 16.0005 21.0194 16.0005V13.3338Z" fill="white"/>
</g>
<defs>
<clipPath id="clip0_8083_377">
<rect width="80" height="16" fill="white" transform="translate(0.575684)"/>
</clipPath>
</defs>
</svg>
