<svg width="161" height="32" viewBox="0 0 161 32" fill="none" xmlns="http://www.w3.org/2000/svg">
<g clip-path="url(#clip0_4734_227)">
<path d="M60.1543 1.02832H66.1727L76.4062 19.5399L86.6396 1.02832H92.5278V31.4464H87.6175V8.13323L78.6441 24.2765H74.0379L65.0646 8.13323V31.4464H60.1543V1.02832Z" fill="white"/>
<path d="M108.366 31.9899C106.092 31.9899 104.093 31.4863 102.37 30.4799C100.646 29.4732 99.3025 28.0788 98.3394 26.2974C97.376 24.5157 96.8945 22.4734 96.8945 20.1703C96.8945 17.8384 97.3651 15.7742 98.3068 13.978C99.2483 12.1822 100.556 10.777 102.229 9.76282C103.902 8.74918 105.824 8.24194 107.997 8.24194C110.155 8.24194 112.013 8.75251 113.57 9.77364C115.127 10.795 116.326 12.2255 117.166 14.0649C118.006 15.9046 118.426 18.0626 118.426 20.5396V21.8865H101.761C102.066 23.7409 102.815 25.1999 104.01 26.2646C105.205 27.3293 106.715 27.8615 108.54 27.8615C110.003 27.8615 111.263 27.6443 112.321 27.2097C113.378 26.7752 114.37 26.1162 115.298 25.2327L117.905 28.4265C115.312 30.8023 112.132 31.9899 108.366 31.9899ZM111.952 13.9453C110.923 12.8953 109.576 12.37 107.91 12.37C106.288 12.37 104.93 12.9061 103.836 13.978C102.743 15.0499 102.051 16.4912 101.761 18.3018H113.711C113.566 16.4476 112.98 14.9958 111.952 13.9453Z" fill="white"/>
<path d="M124.38 12.8045H119.861V8.78493H124.38V2.13647H129.117V8.78493H135.982V12.8045H129.117V22.9945C129.117 24.6891 129.406 25.8986 129.986 26.6228C130.565 27.3473 131.557 27.7092 132.962 27.7092C133.585 27.7092 134.114 27.6842 134.548 27.6331C134.983 27.5826 135.461 27.5135 135.982 27.4267V31.4027C135.446 31.562 134.842 31.6924 134.168 31.794C133.495 31.895 132.789 31.946 132.05 31.946C126.936 31.946 124.38 29.1507 124.38 23.5594V12.8045Z" fill="white"/>
<path d="M160.665 31.4466H156.015V28.2744C155.189 29.4623 154.139 30.3786 152.865 31.0229C151.59 31.6672 150.141 31.9899 148.519 31.9899C146.52 31.9899 144.75 31.4791 143.207 30.4579C141.664 29.4368 140.451 28.0319 139.568 26.243C138.684 24.4541 138.242 22.4082 138.242 20.1051C138.242 17.7876 138.691 15.7378 139.589 13.9561C140.487 12.1747 141.729 10.777 143.316 9.76282C144.902 8.74918 146.723 8.24194 148.78 8.24194C150.33 8.24194 151.72 8.54273 152.951 9.14376C154.183 9.74478 155.204 10.5961 156.015 11.6966V8.78525H160.665V31.4466ZM155.928 16.7157C155.421 15.4265 154.621 14.4092 153.527 13.6628C152.433 12.9169 151.17 12.544 149.736 12.544C147.708 12.544 146.093 13.225 144.891 14.5863C143.688 15.9479 143.087 17.7876 143.087 20.1051C143.087 22.4373 143.667 24.284 144.826 25.6456C145.984 27.0072 147.556 27.6878 149.54 27.6878C151.003 27.6878 152.307 27.3113 153.451 26.5579C154.595 25.8051 155.421 24.7909 155.928 23.5162V16.7157Z" fill="white"/>
<path d="M50.7578 21.3333C50.7578 8.88889 44.5356 0 36.5356 0C30.3134 0 25.8689 7.11111 25.8689 7.11111C22.3134 12.4444 22.3134 22.2222 27.6467 11.5556C27.6467 11.5556 32.0911 4.44444 36.5356 4.44444C42.7578 4.44444 46.0366 15.1111 46.0366 21.3333C46.0366 23.1111 45.4245 26.6667 41.8689 26.6667V32C45.4245 32 50.7578 29.3333 50.7578 21.3333Z" fill="white"/>
<path d="M15.2022 0V5.33333C9.51331 6.04444 6.31331 15.1111 6.31331 21.3333C6.31331 23.1111 7.2022 26.6667 9.86887 26.6667C14.3133 26.6667 19.4239 16.8533 24.0911 9.67571C26.5687 5.86542 29.0348 9.13704 27.1543 12.4444C22.6986 20.2811 18.2369 32 9.86887 32C6.31331 32 0.97998 29.3333 0.97998 21.3333C0.97998 5.33333 10.7578 0 15.2022 0Z" fill="white"/>
<path d="M41.8688 26.6667C35.6466 26.6667 28.5355 0 15.2021 0V5.33333C25.8688 5.33333 30.3132 32 41.8688 32V26.6667Z" fill="white"/>
</g>
<defs>
<clipPath id="clip0_4734_227">
<rect width="160" height="32" fill="white" transform="translate(0.97998)"/>
</clipPath>
</defs>
</svg>
