<svg width="120" height="32" viewBox="0 0 120 32" fill="none" xmlns="http://www.w3.org/2000/svg">
<g clip-path="url(#clip0_4734_239)">
<path d="M113.045 15.2327L119.378 32C117.512 31.7331 115.646 31.3991 113.745 31.0992L110.178 21.8332L106.512 30.3334C104.712 30.0334 102.945 29.9325 101.145 29.6995L107.579 15.0327L101.745 0H107.146L110.412 8.39916L113.912 0H119.378L113.045 15.2327ZM97.4789 0H92.579V29.0666C94.1786 29.1666 95.8453 29.2326 97.4789 29.4326V0ZM88.3449 28.7327C83.8789 28.4328 79.4118 28.1668 74.8458 28.0659V0H79.8447V23.3329C82.7121 23.3999 85.5785 23.6328 88.3449 23.7658V28.7327ZM69.512 11.3665V16.3664H62.6795V27.7329H57.7456V0H71.7455V4.99991H62.6795V11.3665H69.512ZM49.3454 4.99991V27.9999C47.6788 27.9999 45.9792 27.9999 44.3455 28.0659V4.99991H39.1786V0H54.5453V4.99991H49.3454ZM33.7788 16.6324C31.5793 16.6324 28.9789 16.6324 27.1123 16.7333V24.1667C30.0456 23.9658 32.979 23.7328 35.9454 23.6328V28.4328L22.1124 29.5335V0H35.9454V4.99991H27.1123V11.7324C29.0459 11.7324 32.0122 11.6325 33.7788 11.6325V16.6324ZM6.07889 13.833V31.2992C4.27928 31.5001 2.67863 31.7331 0.979004 32V0H5.74596L12.2455 18.167V0H17.2454V29.9325C15.4788 30.2334 13.6792 30.3334 11.7786 30.5993L6.07889 13.833Z" fill="white"/>
</g>
<defs>
<clipPath id="clip0_4734_239">
<rect width="118.4" height="32" fill="white" transform="translate(0.97998)"/>
</clipPath>
</defs>
</svg>
