<svg width="126" height="36" viewBox="0 0 126 36" fill="none" xmlns="http://www.w3.org/2000/svg">
<mask id="mask0_4734_98" style="mask-type:luminance" maskUnits="userSpaceOnUse" x="0" y="0" width="126" height="36">
<path d="M0 0H125.075V36H0V0Z" fill="white"/>
</mask>
<g mask="url(#mask0_4734_98)">
<mask id="mask1_4734_98" style="mask-type:luminance" maskUnits="userSpaceOnUse" x="0" y="0" width="35" height="36">
<path d="M34.4568 0H0V35.994H34.4568V0Z" fill="white"/>
</mask>
<g mask="url(#mask1_4734_98)">
<path fill-rule="evenodd" clip-rule="evenodd" d="M22.0836 0.0818768L2.166 1.54948C0.5592 1.68748 0 2.73628 0 3.99148V25.7775C0 26.7567 0.348 27.5931 1.188 28.7103L5.8704 34.7859C6.6384 35.7639 7.338 35.9739 8.8068 35.9019L31.9368 34.5063C33.8928 34.3671 34.4532 33.4587 34.4532 31.9227V7.41388C34.4532 6.61948 34.1388 6.39028 33.2124 5.71468C33.1596 5.67593 33.1068 5.63713 33.054 5.59828L26.6964 1.12948C25.1592 0.0134768 24.528 -0.128123 22.0836 0.0818768ZM9.3312 7.01188C7.4424 7.13908 7.014 7.16788 5.9412 6.29668L3.2136 4.13188C2.9352 3.85228 3.0756 3.50308 3.774 3.43468L22.9224 2.03788C24.5292 1.89748 25.368 2.45788 25.9968 2.94508L29.2812 5.31988C29.4204 5.38948 29.7696 5.80828 29.3508 5.80828L9.5748 6.99628L9.3312 7.01188ZM7.128 31.7127V10.9047C7.128 9.99748 7.4076 9.57868 8.2464 9.50788L30.9576 8.18188C31.728 8.11228 32.0772 8.60188 32.0772 9.50788V30.1755C32.0772 31.0851 31.9368 31.8531 30.678 31.9227L8.946 33.1803C7.686 33.2499 7.128 32.8323 7.128 31.7127ZM28.584 12.0207C28.7232 12.6507 28.584 13.2795 27.9528 13.3503L26.9064 13.5591V28.9191C25.9968 29.4087 25.158 29.6871 24.4596 29.6871C23.3412 29.6871 23.0616 29.3391 22.2228 28.2915L15.3744 17.5395V27.9435L17.5416 28.4319C17.5416 28.4319 17.5416 29.6883 15.792 29.6883L10.9716 29.9679C10.8312 29.6883 10.9716 28.9899 11.4612 28.8507L12.7188 28.5027V14.7447L10.9716 14.6043C10.8324 13.9755 11.1804 13.0683 12.1596 12.9987L17.3316 12.6507L24.4596 23.5431V13.9071L22.6428 13.6983C22.5024 12.9291 23.0616 12.3699 23.76 12.3015L28.584 12.0207Z" fill="white"/>
</g>
<path d="M61.1941 8.42409V27.8761H58.0897L48.8869 14.5681H48.7261V27.8761H45.2305V8.42409H48.3649L57.5473 21.7285H57.7273V8.42529H61.1953L61.1941 8.42409ZM70.4521 28.1593C69.0277 28.1593 67.7929 27.8461 66.7477 27.2185C65.7042 26.5929 64.8634 25.6796 64.3261 24.5881C63.7573 23.4613 63.4717 22.1449 63.4717 20.6377C63.4717 19.1305 63.7561 17.8105 64.3261 16.6777C64.8961 15.5449 65.7037 14.6641 66.7477 14.0377C67.7917 13.4113 69.0277 13.0969 70.4521 13.0969C71.8705 13.0969 73.1017 13.4113 74.1457 14.0377C75.1897 14.6641 75.9985 15.5449 76.5673 16.6777C77.1433 17.8105 77.4313 19.1305 77.4313 20.6377C77.4313 22.1449 77.1433 23.4613 76.5673 24.5881C76.0301 25.68 75.1893 26.5938 74.1457 27.2197C73.1017 27.8461 71.8705 28.1593 70.4521 28.1593ZM70.4617 25.4233C71.2465 25.4233 71.8981 25.2121 72.4177 24.7873C72.9373 24.3577 73.3261 23.7817 73.5853 23.0593C73.8457 22.3309 73.9753 21.5209 73.9753 20.6281C73.9753 19.7353 73.8457 18.9253 73.5853 18.1969C73.3261 17.4685 72.9373 16.8889 72.4177 16.4593C71.8981 16.0225 71.2465 15.8041 70.4617 15.8041C69.6697 15.8041 69.0109 16.0225 68.4865 16.4593C67.9609 16.8901 67.5685 17.4685 67.3081 18.1969C67.0561 18.9253 66.9289 19.7353 66.9289 20.6281C66.9289 21.5209 67.0549 22.3321 67.3081 23.0593C67.5685 23.7817 67.9609 24.3577 68.4865 24.7873C69.0121 25.2121 69.6697 25.4233 70.4617 25.4233ZM86.7961 13.2889V15.9289H78.4393V13.2889H86.7961ZM80.5081 9.79209H83.9185V23.4961C83.9185 23.9581 83.9881 24.3121 84.1273 24.5605C84.2725 24.8065 84.4633 24.9745 84.6973 25.0633C84.9313 25.1521 85.1941 25.1953 85.4857 25.1953C85.6827 25.197 85.8794 25.1813 86.0737 25.1485C86.2513 25.1173 86.3905 25.0885 86.4925 25.0633L87.0613 27.7321C86.8058 27.815 86.5463 27.8847 86.2837 27.9409C85.9477 28.0165 85.5361 28.0609 85.0477 28.0729C84.1933 28.0993 83.4217 27.9697 82.7317 27.6841C82.0671 27.4085 81.4989 26.9426 81.0985 26.3449C80.6989 25.7377 80.5033 24.9745 80.5093 24.0565V9.79209H80.5081ZM88.8877 27.8749V13.2877H92.3077V27.8749H88.8877ZM90.6073 11.2069C90.0625 11.2069 89.5969 11.0269 89.2105 10.6669C89.0266 10.5017 88.8798 10.2994 88.7799 10.0733C88.68 9.84719 88.6292 9.60247 88.6309 9.35529C88.6309 8.84289 88.8241 8.40609 89.2105 8.04489C89.585 7.68476 90.0865 7.48685 90.6061 7.49409C91.1509 7.49409 91.6165 7.67769 92.0029 8.04609C92.3953 8.40609 92.5909 8.84289 92.5909 9.35529C92.5909 9.86169 92.3953 10.2985 92.0029 10.6657C91.6165 11.0269 91.1509 11.2081 90.6073 11.2081V11.2069ZM101.395 28.1593C99.9709 28.1593 98.7361 27.8461 97.6909 27.2185C96.6474 26.593 95.8065 25.6796 95.2693 24.5881C94.7005 23.4613 94.4149 22.1449 94.4149 20.6377C94.4149 19.1305 94.7005 17.8105 95.2693 16.6777C95.8393 15.5449 96.6469 14.6641 97.6909 14.0377C98.7361 13.4113 99.9709 13.0969 101.395 13.0969C102.814 13.0969 104.045 13.4113 105.089 14.0377C106.134 14.6641 106.942 15.5449 107.512 16.6777C108.088 17.8105 108.376 19.1305 108.376 20.6377C108.376 22.1449 108.088 23.4613 107.512 24.5881C106.974 25.6803 106.133 26.5941 105.089 27.2197C104.045 27.8461 102.814 28.1593 101.395 28.1593ZM101.405 25.4233C102.19 25.4233 102.841 25.2121 103.361 24.7873C103.88 24.3577 104.269 23.7817 104.53 23.0593C104.789 22.3309 104.918 21.5209 104.918 20.6281C104.918 19.7353 104.789 18.9253 104.53 18.1969C104.269 17.4685 103.88 16.8889 103.361 16.4593C102.841 16.0225 102.19 15.8041 101.405 15.8041C100.613 15.8041 99.9553 16.0225 99.4297 16.4593C98.9041 16.8901 98.5117 17.4685 98.2513 18.1969C97.9993 18.9253 97.8721 19.7353 97.8721 20.6281C97.8721 21.5209 97.9981 22.3321 98.2513 23.0593C98.5117 23.7817 98.9041 24.3577 99.4297 24.7873C99.9553 25.2121 100.613 25.4233 101.405 25.4233ZM113.892 19.3177V27.8737H110.474V13.2889H113.741V15.7573H113.912C114.236 14.9622 114.796 14.2859 115.517 13.8205C116.257 13.3393 117.173 13.0981 118.262 13.0981C119.262 13.0981 120.136 13.3141 120.883 13.7449C121.64 14.1794 122.249 14.8312 122.63 15.6157C123.048 16.4317 123.257 17.4229 123.257 18.5881V27.8761H119.849V19.1101C119.849 18.1345 119.594 17.3725 119.088 16.8217C118.58 16.2649 117.881 15.9853 116.988 15.9853C116.388 15.9853 115.853 16.1185 115.384 16.3849C114.916 16.6441 114.548 17.0233 114.282 17.5249C114.023 18.0169 113.892 18.6169 113.892 19.3189V19.3177Z" fill="white"/>
</g>
</svg>
