<svg width="125" height="28" viewBox="0 0 125 28" fill="none" xmlns="http://www.w3.org/2000/svg">
<g clip-path="url(#clip0_7755_8668)">
<path d="M24.9639 0C27.1557 0 28.9326 1.77694 28.9326 3.96875V24.0303C28.9326 26.2221 27.1557 27.999 24.9639 27.999H4.90137C2.70978 27.9988 0.933594 26.2219 0.933594 24.0303V3.96875C0.933594 1.77711 2.70978 0.000261027 4.90137 0H24.9639ZM18.4639 5.63672C16.1631 4.52893 13.6797 4.52897 11.3789 5.63672C9.47981 6.54974 7.97047 8.35163 7.34961 10.3359C7.15488 10.9689 7.06965 11.5165 7.00879 12.1738C6.97228 12.4659 6.99608 13.9382 6.99609 14.3525C6.99609 15.1801 6.96015 22.9674 7.00879 23.0811C7.09482 23.1042 7.53132 22.7285 7.62891 22.6553L10.7334 20.3184C10.9282 20.1723 11.1597 19.9767 11.3545 19.8428C11.4519 19.7823 11.6224 19.8918 11.7197 19.9404C11.8535 20.0012 11.9873 20.05 12.1211 20.0986C14.4583 20.9629 17.0147 20.7198 19.1328 19.4053C22.1519 17.5184 23.5649 13.7563 22.4814 10.3477C22.1893 9.42246 21.5919 8.25392 20.9102 7.54785C20.5329 7.15838 20.2409 6.81691 19.8027 6.48828C19.3525 6.15971 18.9628 5.88013 18.4639 5.63672Z" fill="white"/>
<path fill-rule="evenodd" clip-rule="evenodd" d="M17.563 9.27685C17.6847 9.34989 18.1108 9.24032 18.5612 9.64206C18.7073 9.77597 18.8899 10.0925 18.9264 10.2873C18.9386 10.3846 18.9143 10.5186 18.9751 10.6038H19.0725C19.1577 10.4455 19.036 10.1168 18.9751 9.95857C18.8169 9.54467 18.2812 9.15511 17.8065 9.14294C17.6726 9.14294 17.5021 9.10641 17.563 9.27685Z" fill="white"/>
<path fill-rule="evenodd" clip-rule="evenodd" d="M17.5515 9.5324C17.515 9.72718 17.7585 9.65414 17.9289 9.67848C18.1846 9.715 18.428 9.92196 18.5498 10.1654C18.635 10.3115 18.6228 10.5063 18.6715 10.6037L18.7932 10.5915C18.8541 10.2993 18.6472 9.9463 18.4524 9.77587C18.1967 9.54457 17.7098 9.43501 17.5515 9.5324Z" fill="white"/>
<path fill-rule="evenodd" clip-rule="evenodd" d="M17.5392 9.87353C17.4905 10.1048 17.7462 9.92223 18.014 10.1535C18.087 10.2144 18.1601 10.2753 18.2088 10.3483C18.2575 10.4335 18.294 10.5553 18.3427 10.604L18.4522 10.5918C18.5496 10.2631 17.8192 9.71528 17.5392 9.87353Z" fill="white"/>
<path d="M15.2986 8.70347C15.4081 8.6426 15.4572 8.55811 15.5789 8.60679C15.6152 8.72812 15.5786 8.71635 15.5056 8.76499C15.177 8.95973 14.7752 9.25135 14.4588 9.43394L13.2654 10.2015C13.2775 10.2137 13.2535 10.2138 13.3386 10.2259H16.3943C16.8325 10.2259 17.4416 10.1399 17.7703 10.4564C18.0868 10.7729 18.0008 11.3819 18.0007 11.808V13.391C18.0008 13.8291 18.074 14.34 17.6482 14.6078C17.4169 14.7538 17.2339 14.7298 16.9783 14.7298H13.0105C12.5602 14.7298 12.0974 14.7662 11.8904 14.2796C11.7687 13.9996 11.8172 13.098 11.8172 12.7572V11.1625C11.8172 10.9556 11.8294 10.6999 11.9754 10.5296C12.3525 10.1162 12.6081 10.2744 12.8757 10.2259C12.9366 10.2138 13.5208 9.83574 13.6062 9.77476C13.9349 9.57998 14.2521 9.36114 14.5808 9.16636L15.2986 8.70347ZM13.4314 14.1244C13.7274 13.8572 13.4152 13.3025 13.0339 13.4876C12.9732 13.518 12.9402 13.528 12.9129 13.5462C12.8853 13.5645 12.8635 13.5914 12.8269 13.6585C12.6627 13.94 12.9503 14.3109 13.2654 14.2181C13.2775 14.2146 13.2903 14.2114 13.3025 14.2064C13.3185 14.1997 13.3321 14.1896 13.3464 14.182C13.3789 14.1646 13.4073 14.1462 13.4314 14.1244ZM16.2283 12.5414C16.1708 12.5423 16.1118 12.5492 16.0525 12.5628C15.9492 12.5872 15.8611 12.6178 15.7791 12.6664C15.697 12.715 15.6208 12.782 15.5418 12.8792C15.5336 12.8897 15.5278 12.9018 15.5203 12.9125C15.1482 13.439 15.5364 14.2491 16.2449 14.2328C16.2501 14.2326 16.2553 14.232 16.2605 14.2318C16.3036 14.2301 16.348 14.2272 16.3933 14.2191C16.4141 14.2151 16.4347 14.2091 16.4548 14.2035C16.4715 14.1988 16.4875 14.1926 16.5037 14.1869C16.5636 14.1656 16.6207 14.1383 16.6736 14.1039C16.7425 14.0591 16.8045 14.0043 16.8582 13.9417C16.8883 13.9065 16.9158 13.869 16.9402 13.8294C16.9904 13.748 17.0275 13.6586 17.0486 13.5648C17.0512 13.5532 17.0533 13.5414 17.0554 13.5296C17.0736 13.429 17.074 13.3242 17.0515 13.2201C16.9769 12.8261 16.6323 12.5348 16.2293 12.5414H16.2283ZM14.7752 13.7435C14.7385 13.5611 14.4831 13.4027 14.3006 13.4876C14.191 13.5242 14.1543 13.5124 14.0691 13.6341C14.0656 13.6395 14.0625 13.6452 14.0593 13.6507C14.0452 13.6753 14.0341 13.7011 14.0261 13.7279C14.016 13.7621 14.0117 13.7977 14.0115 13.8334C14.0099 14.0475 14.1825 14.265 14.4949 14.2191C14.5614 14.208 14.6152 14.1762 14.6589 14.1341C14.6811 14.1129 14.7004 14.0893 14.7166 14.0628C14.7343 14.0338 14.7501 14.003 14.7605 13.9701C14.7839 13.8968 14.7889 13.8166 14.7752 13.7435ZM15.4207 11.0531C15.323 11.0318 13.3831 11.029 12.8425 11.0531C12.7652 11.0565 12.7165 11.0612 12.7058 11.0658C12.6694 11.1515 12.669 11.7704 12.7175 11.8324C12.7784 11.8932 13.8986 11.8685 14.0691 11.8685C14.2151 11.8685 15.3709 11.8936 15.4089 11.8451C15.4455 11.772 15.445 11.1626 15.4207 11.0531ZM16.3865 11.0355C16.0959 11.0355 15.8036 11.0409 15.7488 11.0531C15.7244 11.1505 15.725 11.7477 15.7615 11.8451C15.8494 11.8814 16.9047 11.8811 17.0027 11.8568C17.0042 11.8533 17.0042 11.8484 17.0056 11.8431C17.0378 11.7199 17.0387 11.1348 17.0154 11.0531C16.9667 11.0409 16.6772 11.0355 16.3865 11.0355Z" fill="white"/>
<path fill-rule="evenodd" clip-rule="evenodd" d="M118.02 18.9431C118.312 18.9431 118.409 18.931 118.592 18.8214C118.982 18.5779 119.043 18.3223 119.225 18.0545C119.262 17.9814 119.249 18.0058 119.286 17.9206C119.347 17.811 119.298 17.9206 119.359 17.8353C119.383 17.7988 119.371 17.811 119.383 17.7745C119.396 17.7623 119.42 17.7136 119.42 17.7136L119.578 17.3849C119.59 17.3849 119.59 17.3727 119.602 17.3727L121.173 14.4024C121.209 14.3415 121.27 14.2198 121.295 14.1711C121.355 14.0493 121.331 14.0615 121.404 13.9519C121.587 13.672 121.94 12.9415 122.122 12.5641C122.22 12.3572 122.269 12.272 122.451 12.1989C122.402 12.4668 122.415 19.9049 122.451 20.0875C122.451 20.1118 122.463 20.1362 122.463 20.1605C122.475 20.1849 122.475 20.2092 122.488 20.2336C122.512 20.3796 122.573 20.5014 122.67 20.6231C122.804 20.7935 122.95 20.8301 123.121 20.9153L123.437 20.9761C123.839 20.9883 124.058 20.8909 124.302 20.6353C124.326 20.6109 124.35 20.5866 124.35 20.5866C124.423 20.5257 124.362 20.6109 124.423 20.4892C124.472 20.3796 124.508 20.3675 124.533 20.2214C124.582 19.917 124.594 8.72944 124.533 8.27902C124.508 8.08424 124.423 7.91381 124.289 7.7799C124.095 7.59729 123.875 7.46338 123.608 7.42686C123.352 7.39034 123.194 7.41469 122.975 7.52425C122.427 7.7799 122.256 8.32771 121.976 8.82683C121.709 9.28943 121.526 9.71551 121.27 10.1781C121.124 10.4459 120.954 10.7259 120.844 11.0303C120.747 11.2494 120.576 11.4685 120.467 11.6755L120.26 12.1137C120.248 12.1381 120.223 12.1746 120.211 12.1989C120.15 12.3207 120.102 12.4059 120.041 12.5398C120.016 12.6128 119.992 12.625 119.956 12.6981C119.919 12.7589 119.907 12.8076 119.87 12.8685L119.262 14.0493C119.201 14.1346 119.249 14.0372 119.201 14.1224L118.556 15.4006C118.519 15.4493 118.556 15.3884 118.507 15.4737L118.276 15.8876C118.19 16.0702 118.166 16.0702 118.093 16.1797C117.971 16.131 117.91 15.9606 117.862 15.851L116.803 13.818C116.766 13.7572 116.742 13.7328 116.705 13.6598L116.62 13.5015C116.547 13.3798 116.681 13.6354 116.583 13.4285L116.474 13.2215C116.474 13.2215 116.474 13.2094 116.462 13.1972L115.025 10.4216C114.964 10.2998 114.989 10.3972 114.928 10.2512C114.891 10.1659 114.952 10.2755 114.891 10.1659L114.392 9.24074C114.295 9.00944 114.149 8.80248 114.039 8.58336C114.015 8.54684 114.015 8.52249 113.99 8.48597V8.47379C113.978 8.46162 113.978 8.46162 113.978 8.44945C113.832 8.20597 113.686 7.81642 113.43 7.65816L113.321 7.59729C112.542 7.086 111.568 7.58512 111.568 8.61988V19.9536C111.568 20.2214 111.617 20.3553 111.738 20.5501C111.848 20.7449 112.164 20.964 112.432 20.9761C112.797 21.0005 113.029 20.9761 113.297 20.757C113.637 20.477 113.662 20.2336 113.662 19.6614C113.662 18.6266 113.613 12.5398 113.686 12.272C113.796 12.3085 113.686 12.2476 113.783 12.3572C113.796 12.3572 113.796 12.3694 113.808 12.3694L115.622 15.6806C115.719 15.8267 115.804 16.0215 115.877 16.1554L115.987 16.3623C115.987 16.3745 115.999 16.3867 115.999 16.3867L116.717 17.6893C116.742 17.738 116.73 17.738 116.766 17.7988L117.119 18.4075C117.241 18.6266 117.496 18.8458 117.728 18.9066L118.02 18.9431Z" fill="white"/>
<path fill-rule="evenodd" clip-rule="evenodd" d="M38.6359 13.7568C38.5872 13.4525 38.6237 10.6769 38.6237 10.0317C38.6237 9.75167 38.5628 9.45951 38.7333 9.41081C38.7941 9.38646 42.3367 9.32559 42.7384 9.48385C43.0306 9.60559 42.848 9.49603 43.2619 9.6908C43.4688 9.78819 43.5419 9.84906 43.7123 10.0073C43.761 10.056 43.7488 10.0682 43.7975 10.1169C43.8219 10.1412 43.834 10.1534 43.8705 10.2021L44.0288 10.4334C44.0532 10.4943 44.0775 10.5308 44.1018 10.5551C44.1262 10.6282 44.2723 11.1151 44.2723 11.2734C44.2723 11.6386 44.2845 12.296 44.0775 12.649L43.6636 13.2333C43.4688 13.4281 42.994 13.6472 42.7384 13.6959C42.5923 13.7203 42.4828 13.7568 42.3732 13.7812C42.0932 13.8299 38.7941 13.842 38.6359 13.7568ZM38.6967 15.7046C38.9889 15.6437 39.6341 15.6802 39.975 15.6802C41.2654 15.6802 41.7767 15.6924 43.0793 15.595L43.8705 15.4246L44.5523 15.1568C44.8201 14.9985 45.1001 14.8281 45.307 14.6333C45.6966 14.2803 45.4896 14.4872 45.7696 14.1342C45.8305 14.0733 45.867 14.0368 45.9157 13.9638C46.0131 13.8055 46.0983 13.7203 46.1592 13.562C46.4392 12.929 46.3661 12.9533 46.5001 12.4664C46.6948 11.7482 46.5244 10.1047 46.0862 9.48385L45.9036 9.19168C45.7575 8.96038 45.4044 8.583 45.1975 8.42474L45.1123 8.37605C45.0514 8.32735 45.0757 8.3517 45.027 8.31518L44.7714 8.15692C44.3331 7.90128 44.5523 8.01084 44.0775 7.81606C43.9923 7.77954 43.9314 7.79171 43.834 7.75519C43.3227 7.57259 42.6897 7.51172 42.1419 7.51172H37.382C37.2116 7.51172 36.9924 7.51172 36.8585 7.59693C36.615 7.74302 36.749 7.59693 36.5055 7.80389C36.2985 7.99867 36.189 8.41257 36.189 8.68039V19.6976C36.189 19.8923 36.2255 20.0993 36.2742 20.2089C36.3472 20.3793 36.335 20.428 36.469 20.5862C36.6881 20.8541 36.8342 20.8541 36.9924 20.9271C37.1629 21.0001 37.5768 21.0001 37.735 20.9514L38.1489 20.781C38.3802 20.5741 38.5141 20.4402 38.5872 20.1115C38.6602 19.7828 38.6237 17.4089 38.6237 16.7515C38.6237 16.4837 38.5628 15.8872 38.6967 15.7046Z" fill="white"/>
<path fill-rule="evenodd" clip-rule="evenodd" d="M73.38 16.0459C73.4652 15.912 73.6357 15.8024 73.7574 15.6807L74.2687 15.2059C74.3783 15.1085 74.4391 15.0355 74.5487 14.9381C74.5731 14.9137 74.5974 14.8894 74.6217 14.8651C74.9261 14.6216 75.2426 14.3051 75.5348 14.0372L75.7904 13.7938C75.8026 13.7816 75.8026 13.7816 75.8148 13.7816L76.0217 13.5868C76.3626 13.2338 76.7887 12.8807 76.6547 12.3208C76.6426 12.2842 76.6304 12.2355 76.6182 12.2112L76.6061 12.1625C76.5939 12.1503 76.5817 12.126 76.5817 12.1138C76.5574 12.0286 76.533 11.9799 76.4843 11.9312C76.3748 11.7608 76.2408 11.6269 76.0461 11.5295C75.9487 11.4929 75.7052 11.4443 75.5835 11.4564C75.2426 11.4564 75.0843 11.5173 74.8044 11.8095L71.7488 14.7433L71.7366 14.7555L71.6514 14.8285C71.3714 15.0355 71.1644 15.2668 70.921 15.5103C70.8357 15.5955 70.8723 15.5711 70.7383 15.559C70.6775 15.279 70.7262 10.5312 70.7262 9.81298C70.7262 9.28951 70.7992 8.32779 70.6288 7.98693C70.434 7.59737 70.1418 7.56085 69.9349 7.47564C69.3871 7.23216 68.4132 7.60955 68.3888 8.42518C68.3401 9.69124 68.3888 11.006 68.3888 12.2721C68.3888 13.5503 68.3888 14.8285 68.3888 16.1189C68.3888 17.385 68.3523 18.6998 68.3888 19.9536C68.401 20.4771 68.7784 20.818 69.241 20.9397C69.6184 21.0371 70.1297 20.9519 70.4097 20.6597C70.4705 20.5988 70.5801 20.5015 70.641 20.4162C70.8723 20.0267 70.641 17.3972 70.7505 16.7154C71.0549 16.752 71.2009 17.0441 71.4201 17.2024L72.2114 17.9206C72.2722 17.9693 72.2479 17.9693 72.2966 18.0059L73.2461 18.858C73.2826 18.8945 73.2583 18.8702 73.307 18.9189C73.3679 18.9676 73.3435 18.9432 73.3922 19.0041C73.4044 19.0163 73.4409 19.0406 73.4409 19.0406C73.4409 19.0528 73.4531 19.0528 73.4531 19.0528L74.8165 20.2823L75.6443 20.9032C75.7661 20.9519 75.8635 20.9641 76.0095 20.9641C76.3382 20.9641 76.5695 20.7693 76.7765 20.538C76.9591 20.331 77.0565 19.9658 76.9713 19.5884C76.9104 19.2841 76.6547 19.1015 76.4478 18.8824C76.4356 18.8824 76.4356 18.8702 76.4234 18.8702L73.8061 16.4963C73.7574 16.4476 73.6965 16.4111 73.6479 16.3624L73.4896 16.2407C73.4044 16.1798 73.4044 16.1676 73.38 16.0459Z" fill="white"/>
<path fill-rule="evenodd" clip-rule="evenodd" d="M103.156 9.49647C103.387 9.37473 107.417 9.4356 108.013 9.4356C108.537 9.4356 108.78 9.49647 109.182 9.35038C109.535 9.22865 109.657 9.04604 109.742 8.69301C109.827 8.37649 109.644 7.91389 109.486 7.77998C109.243 7.57303 108.963 7.51216 108.549 7.51216C106.917 7.49999 105.262 7.51216 103.618 7.51216C103.095 7.51216 101.707 7.42694 101.305 7.64607C100.66 7.99911 100.77 8.71735 100.77 9.54516C100.77 12.8321 100.77 16.1068 100.77 19.3815C100.77 19.8684 100.77 20.3189 101.098 20.6354C101.123 20.6597 101.171 20.7084 101.184 20.7084L101.232 20.7571C101.378 20.8667 101.318 20.8302 101.451 20.8667C101.549 20.891 101.512 20.891 101.573 20.9275C101.658 20.9641 101.537 20.9275 101.658 20.9641C102.036 21.0615 102.486 20.9275 102.681 20.7815C102.937 20.5989 103.095 20.331 103.131 20.0023C103.204 19.2597 103.083 15.279 103.168 15.145C103.326 14.999 103.704 15.0598 104.008 15.0598C104.775 15.0598 108.159 15.0964 108.524 15.0233C109.036 14.9137 109.145 14.8651 109.316 14.4511C109.45 14.1346 109.34 13.6112 109.121 13.392C108.926 13.2094 108.817 13.1973 108.5 13.1364C108.244 13.0755 104.337 13.112 103.521 13.112C103.217 13.112 103.241 13.112 103.18 12.9903C103.131 12.9051 103.131 9.83733 103.156 9.49647Z" fill="white"/>
<path fill-rule="evenodd" clip-rule="evenodd" d="M50.018 16.4593C49.9815 16.0941 50.0911 15.2663 50.1641 14.9498C50.2006 14.8037 50.3711 14.3776 50.4685 14.2315L50.9189 13.6837L51.3328 13.4159C51.418 13.3794 51.491 13.3307 51.5641 13.3064C52.1241 13.1237 52.7571 13.1237 53.3049 13.3185C53.6093 13.4281 53.8771 13.6472 54.084 13.8663C54.3884 14.2072 54.1692 13.9759 54.3397 14.2072L54.3762 14.2559C54.7049 14.9133 54.5953 14.9011 54.7049 15.2785C54.8266 15.7046 54.7901 16.7393 54.6927 17.1411C54.6197 17.5063 54.7171 17.2506 54.5588 17.6767C54.4371 18.0176 54.4127 18.1515 54.1692 18.4436C54.011 18.6506 53.7919 18.8332 53.524 18.9671C53.0006 19.2106 52.6354 19.2228 52.0389 19.1862C52.0145 19.1862 51.9049 19.1741 51.8928 19.1741C51.8928 19.1741 51.7832 19.1375 51.771 19.1375C51.3206 19.0036 50.9554 18.8575 50.6632 18.468L50.4198 18.1271C50.225 17.7741 50.3345 17.9202 50.2615 17.7132C50.2615 17.701 50.2493 17.6889 50.2493 17.6889C50.0911 17.3115 50.0667 16.8732 50.018 16.4593ZM47.6807 16.2767C47.7294 16.6541 47.6929 17.0558 47.7902 17.3724C47.8876 17.701 47.8998 18.0419 48.0702 18.2976C48.1311 18.3949 48.1068 18.4315 48.1555 18.5289L48.4111 19.0158L49.1537 19.8923L49.6285 20.2575C49.7137 20.3184 49.5919 20.221 49.665 20.2819L50.6998 20.7445C50.9189 20.8175 50.6998 20.7932 51.1502 20.8784C51.2476 20.8905 51.2963 20.9271 51.3693 20.9392C51.6615 21.0123 52.1849 21.0001 52.5136 21.0001C53.0614 21.0001 53.6214 20.9392 54.1206 20.7566C54.1936 20.7323 54.291 20.7201 54.3519 20.6958C54.4127 20.6714 54.4858 20.6349 54.5466 20.6106L55.1431 20.3184C55.1797 20.294 55.2284 20.2453 55.3136 20.1845L55.7883 19.7706C55.8492 19.7219 55.8736 19.6854 55.9344 19.6245C56.2266 19.3201 56.4701 18.9428 56.6648 18.5654L56.8231 18.1515C56.8475 18.0297 57.0179 17.5915 57.0788 17.2141C57.164 16.5811 57.1761 15.5098 57.0301 14.962C56.9327 14.5968 56.8353 14.1707 56.6527 13.8298L56.324 13.2455L56.3118 13.2333C56.1292 12.9898 55.9831 12.7829 55.7762 12.5759L55.484 12.3446C55.0579 12.0159 55.1918 12.162 54.924 11.9794C54.6927 11.8333 54.5831 11.8212 54.4249 11.7481C54.2058 11.6386 54.1814 11.6629 53.9745 11.5899C53.7797 11.529 53.6336 11.5168 53.3901 11.4681C52.538 11.2733 51.9658 11.4073 51.1989 11.5046C50.9554 11.529 50.9311 11.5777 50.7241 11.6264C50.6267 11.6507 50.5902 11.6629 50.5171 11.6994L50.0789 11.882C49.9328 11.9429 49.9937 11.9064 49.8963 11.9794L49.3485 12.3446C49.1902 12.4664 49.032 12.5881 48.9102 12.7585L47.9972 14.2315C47.912 14.4994 47.7781 14.9011 47.7537 15.1567C47.7294 15.3515 47.6563 16.0454 47.6807 16.2767Z" fill="white"/>
<path fill-rule="evenodd" clip-rule="evenodd" d="M80.318 15.3882C80.2328 15.2177 80.3059 14.8769 80.3789 14.6943C80.3911 14.6577 80.4033 14.609 80.4154 14.5725C80.4885 14.2682 80.4641 14.4508 80.5372 14.2804C80.6589 13.9517 80.9389 13.5621 81.2311 13.4039C81.2798 13.3795 81.2432 13.4039 81.3163 13.3552C81.5963 13.136 82.0102 13.0386 82.3754 13.0386C83.045 13.0386 83.3006 13.0873 83.7388 13.4039C83.8606 13.4891 83.7997 13.4404 83.8971 13.5499L84.0675 13.7204C84.0675 13.7204 84.0919 13.7447 84.0919 13.7569L84.2623 14.0004C84.3597 14.2195 84.4936 14.6577 84.518 14.8647C84.5301 14.9499 84.5423 15.0473 84.5423 15.1203L84.518 15.376C84.1284 15.449 82.9232 15.3882 82.4363 15.3882H80.318ZM80.3424 16.642C80.7563 16.5934 81.4867 16.642 81.925 16.642C82.558 16.642 85.6745 16.6786 86.0884 16.6299C86.2101 16.6177 86.2466 16.569 86.344 16.5081C86.6605 16.3255 86.5753 15.6195 86.5631 15.3151L86.5266 14.9621C86.4414 14.4508 86.3805 14.2317 86.1858 13.7447L85.224 12.3569L84.4449 11.8456C84.2623 11.7117 84.0797 11.6874 83.8606 11.59C83.6658 11.5169 83.5076 11.5048 83.3249 11.4682C82.9841 11.383 82.6067 11.3708 82.2415 11.3708C81.9858 11.383 81.7058 11.4439 81.5354 11.4682C81.4259 11.4926 81.3041 11.5048 81.1824 11.5291C81.0606 11.5656 81.0363 11.6021 80.9024 11.6265C80.6711 11.6752 80.5493 11.7848 80.3424 11.87C80.0989 11.9795 80.2085 11.9552 80.0989 12.0161L79.7215 12.2474C79.4902 12.4178 79.2833 12.6004 79.1129 12.8195C79.0885 12.856 79.052 12.8926 79.0276 12.9169C78.8207 13.1239 78.6137 13.5012 78.4798 13.7569C78.3216 14.0612 78.1633 14.4143 78.1146 14.7551L78.0294 15.0716C78.0172 15.1082 78.0172 15.1325 78.0172 15.169L77.9807 15.449C77.932 16.3621 77.9442 16.1064 77.9929 16.9464C78.0051 17.2629 78.0416 17.3725 78.1146 17.6646L78.1268 17.7985C78.1633 18.0177 78.3337 18.4681 78.4555 18.6629C78.492 18.7237 78.4798 18.6872 78.5042 18.7237L78.845 19.2716C78.9911 19.5029 79.2468 19.7829 79.4659 19.9533L80.2207 20.4524C80.2328 20.4524 80.245 20.4524 80.245 20.4646C80.4641 20.562 80.6833 20.6959 80.9146 20.7446C81.0485 20.7689 81.0972 20.8176 81.2311 20.842C81.3528 20.8663 81.438 20.8785 81.5476 20.9028C81.7058 20.9394 81.7302 20.9637 81.9006 20.9759C83.1423 21.0733 83.5319 21.0002 84.7006 20.7081C84.9927 20.6472 85.5892 20.3307 85.8571 20.2089L86.1979 19.9411C86.3562 19.7707 86.4658 19.5637 86.4779 19.3203C86.4901 19.1863 86.4779 19.0403 86.4536 18.955L86.3562 18.675C86.271 18.5655 86.2101 18.4681 86.0884 18.4194L85.8571 18.3464C85.7232 18.3342 85.6501 18.3829 85.5406 18.4072C85.2362 18.4803 84.9927 18.6264 84.7493 18.7481C84.6154 18.809 84.5545 18.809 84.4206 18.8942C84.3841 18.9063 84.4206 18.8942 84.3475 18.9307C84.3475 18.9307 84.2867 18.9429 84.2745 18.9429C84.0675 18.9916 83.7875 19.1376 83.5197 19.1742C82.8137 19.2959 81.8276 19.235 81.2311 18.7968L80.7928 18.3464C80.7563 18.2977 80.7928 18.3464 80.7441 18.2977C80.6467 18.1881 80.4763 17.8229 80.4276 17.6159L80.3059 17.1655C80.2937 17.1168 80.2937 17.0438 80.2815 16.9829C80.2694 16.8247 80.2937 16.7273 80.3424 16.642Z" fill="white"/>
<path fill-rule="evenodd" clip-rule="evenodd" d="M88.9976 11.6027C88.6811 11.7123 87.0133 11.2862 87.0255 12.4914C87.0255 12.9418 87.1959 13.0757 87.3907 13.2096C87.7437 13.4775 88.6932 13.3557 88.9854 13.4044C89.095 13.587 89.0341 15.8513 89.0341 16.2409C89.0341 17.0809 88.9854 18.7608 89.4602 19.4304C89.5089 19.5034 89.5576 19.613 89.5819 19.6617C89.6306 19.7104 89.7037 19.7956 89.7402 19.8443L89.935 20.0512C90.0445 20.1608 90.1906 20.3069 90.3123 20.3678L90.5436 20.4895C90.6167 20.5382 90.5436 20.5017 90.6045 20.5382C90.6654 20.5625 90.5923 20.5382 90.6654 20.5747L90.8358 20.6234C90.848 20.6234 90.8602 20.6234 90.8602 20.6356L91.0549 20.7208C91.6636 20.8912 92.2845 20.9643 92.9297 20.9643C93.3923 20.9643 93.7697 20.8547 93.9766 20.5869C94.1836 20.3312 94.1957 19.966 94.0984 19.7226C94.0253 19.5765 93.9888 19.54 93.8671 19.4426L93.8549 19.4304C93.6114 19.2356 93.161 19.1991 92.8445 19.1991C92.4427 19.1869 91.9071 19.0774 91.688 18.7121C91.6514 18.6513 91.6393 18.6391 91.6028 18.5904C91.4567 18.3713 91.408 18.0304 91.408 17.7504C91.408 17.1417 91.3836 13.5627 91.4323 13.4653C91.4688 13.4166 91.408 13.4409 91.4932 13.3923C91.6271 13.3192 93.2827 13.4896 93.6723 13.234C93.6845 13.2218 93.7331 13.1853 93.7453 13.1731L93.8305 13.1366C94.1957 12.8688 94.3053 11.6514 93.161 11.6271C92.8688 11.6149 92.5523 11.6271 92.2601 11.6271C92.1384 11.6271 91.5419 11.6636 91.4567 11.5784C91.3228 11.4445 91.4932 10.1054 91.3715 9.61841L91.3228 9.41146C91.2984 9.31407 91.2741 9.28972 91.2375 9.22886C91.0062 8.90017 90.641 8.72974 90.215 8.72974C89.8497 8.72974 89.3993 8.91234 89.2045 9.24103C88.8393 9.83754 89.1802 11.274 88.9976 11.6027Z" fill="white"/>
<path fill-rule="evenodd" clip-rule="evenodd" d="M63.1659 13.2455C63.7381 13.136 64.2494 13.3186 64.6876 13.5134C64.7485 13.5255 64.785 13.5377 64.8337 13.5621L65.7346 14.0247C65.8928 14.0855 66.0998 14.0855 66.258 14.049C66.6354 13.9516 66.7815 13.5012 66.7815 13.1725C66.7937 12.9169 66.7085 12.6734 66.5259 12.4664L66.4163 12.3569C66.3676 12.3082 66.3676 12.3203 66.3067 12.2717C66.2702 12.2351 66.2459 12.1986 66.2094 12.1743C65.9294 11.9917 65.7224 11.9308 65.5641 11.8456C65.345 11.7117 64.9311 11.6021 64.6755 11.5291L64.0059 11.4073C63.1051 11.2978 62.9225 11.4195 62.2042 11.4925L61.5955 11.6508C61.3155 11.7482 60.7677 12.0282 60.5364 12.1986C60.293 12.369 60.159 12.4786 59.9034 12.7464L59.0999 13.8907C59.0025 14.0855 58.9173 14.402 58.8321 14.6212C58.7712 14.7673 58.7712 14.9377 58.7225 15.0838C58.4912 15.7898 58.5886 17.2263 58.8443 17.9446C58.8808 18.042 58.893 18.1759 58.9417 18.2611C58.966 18.322 58.9782 18.2976 59.0147 18.395C59.1486 18.8211 59.4043 19.1498 59.6599 19.5028L60.1469 20.0019C60.2443 20.0993 60.1712 20.0385 60.2686 20.0871C60.3173 20.1237 60.3416 20.1358 60.3782 20.1724C60.5608 20.3063 60.5851 20.3063 60.6947 20.3671C61.0599 20.5984 61.1938 20.5984 61.2912 20.6593C61.3521 20.6958 61.2668 20.6593 61.3521 20.6958C61.6077 20.8297 61.9242 20.8297 62.1799 20.9271C62.3746 21.0002 62.679 20.988 62.8859 21.0002C63.1659 21.0123 63.4094 21.0123 63.6894 21.0002C63.9207 20.988 64.6511 20.8906 64.8581 20.8054C65.0163 20.7445 65.5155 20.6106 65.6007 20.5497L65.8685 20.4037C66.0633 20.2819 66.2946 20.1967 66.465 20.0141C66.5624 19.9045 66.6598 19.8315 66.7085 19.6854C66.7572 19.5515 66.7937 19.515 66.7937 19.3811C66.818 19.0037 66.6841 18.4437 66.2702 18.3341C65.7954 18.2002 65.4911 18.5289 65.0894 18.6993C64.7242 18.8576 64.3833 19.0767 63.9572 19.1619C63.7016 19.2106 63.3485 19.2106 63.0807 19.1863C62.9833 19.1741 63.0807 19.1863 63.0077 19.1741L62.3381 18.9428C62.192 18.8941 62.2286 18.8698 62.1555 18.8333C61.7903 18.602 61.5225 18.2976 61.3399 17.8837C61.2303 17.6768 61.1086 17.2263 61.0721 16.9707C61.0234 16.642 61.0355 16.1916 61.0599 15.8507L61.1573 15.1446C61.2303 14.7551 61.3764 14.3655 61.6321 14.0612L61.766 13.9029C62.2042 13.489 62.5573 13.3673 63.1659 13.2455Z" fill="white"/>
</g>
<defs>
<clipPath id="clip0_7755_8668">
<rect width="123.636" height="28" fill="white" transform="translate(0.933105)"/>
</clipPath>
</defs>
</svg>
