<svg width="107" height="24" viewBox="0 0 107 24" fill="none" xmlns="http://www.w3.org/2000/svg">
<g clip-path="url(#clip0_8083_415)">
<path d="M21.2012 0C23.0798 0 24.6024 1.52282 24.6025 3.40137V20.5977C24.6025 22.4763 23.0799 24 21.2012 24H4.00488C2.1263 23.9999 0.603516 22.4763 0.603516 20.5977V3.40137C0.603679 1.52289 2.1264 0.00012593 4.00488 0H21.2012ZM15.6299 4.83105C13.6578 3.88152 11.5288 3.88153 9.55664 4.83105C7.92885 5.61365 6.6347 7.15854 6.10254 8.85938C5.93568 9.40178 5.86271 9.87127 5.81055 10.4346C5.77924 10.685 5.7998 11.948 5.7998 12.3027C5.7998 13.0138 5.76881 19.6903 5.81055 19.7842C5.88356 19.805 6.25908 19.4818 6.34277 19.4189L9.00391 17.415C9.17079 17.2899 9.36929 17.1235 9.53613 17.0088C9.61954 16.9567 9.76513 17.05 9.84863 17.0918C9.96341 17.144 10.0786 17.1858 10.1934 17.2275C12.1967 17.9683 14.3876 17.7596 16.2031 16.6328C18.7909 15.0155 20.0019 11.7908 19.0732 8.86914C18.8228 8.07615 18.3108 7.07487 17.7266 6.46973C17.4031 6.13586 17.1529 5.84323 16.7773 5.56152C16.3914 5.27986 16.0576 5.03971 15.6299 4.83105Z" fill="white"/>
<path fill-rule="evenodd" clip-rule="evenodd" d="M14.8566 7.95158C14.9609 8.01419 15.3261 7.92028 15.7122 8.26462C15.8374 8.3794 15.994 8.6507 16.0253 8.81765C16.0357 8.90113 16.0148 9.01591 16.067 9.08895H16.1505C16.2235 8.9533 16.1192 8.67157 16.067 8.53592C15.9314 8.18114 15.4722 7.84724 15.0653 7.8368C14.9505 7.8368 14.8044 7.8055 14.8566 7.95158Z" fill="white"/>
<path fill-rule="evenodd" clip-rule="evenodd" d="M14.8474 8.17063C14.8161 8.33758 15.0248 8.27497 15.1709 8.29584C15.39 8.32715 15.5987 8.50453 15.703 8.71322C15.7761 8.83844 15.7656 9.00539 15.8074 9.08887L15.9117 9.07843C15.9639 8.82801 15.7865 8.5254 15.6195 8.37932C15.4004 8.18106 14.983 8.08715 14.8474 8.17063Z" fill="white"/>
<path fill-rule="evenodd" clip-rule="evenodd" d="M14.8367 8.46303C14.7949 8.66129 15.0141 8.50477 15.2436 8.70302C15.3062 8.7552 15.3689 8.80737 15.4106 8.86998C15.4523 8.94302 15.4836 9.04736 15.5254 9.0891L15.6193 9.07867C15.7028 8.79694 15.0767 8.32738 14.8367 8.46303Z" fill="white"/>
<path d="M12.9161 7.46066C13.01 7.40849 13.052 7.33592 13.1563 7.37765C13.1874 7.48147 13.1562 7.47088 13.0938 7.51242C12.8121 7.67937 12.4677 7.93012 12.1964 8.08664L11.1739 8.74387C11.1843 8.7543 11.1634 8.75492 11.2364 8.76535H13.8555C14.2312 8.76535 14.7525 8.69233 15.0343 8.96359C15.3056 9.23489 15.2325 9.75659 15.2325 10.1218V11.4782C15.2325 11.8537 15.2954 12.2916 14.9307 12.5212C14.7325 12.6464 14.5756 12.6257 14.3565 12.6257H10.9552C10.5692 12.6257 10.1727 12.6569 9.99519 12.24C9.89084 12 9.93171 11.2274 9.93171 10.9353V9.56808C9.93173 9.39089 9.94258 9.17208 10.0675 9.02609C10.3909 8.67137 10.6104 8.80703 10.8399 8.76535C10.8921 8.75492 11.3929 8.4308 11.4659 8.37863C11.7476 8.21168 12.0191 8.0241 12.3009 7.85715L12.9161 7.46066ZM11.3819 12.0202C11.5066 11.7776 11.2652 11.4208 10.9757 11.5612C10.9093 11.5944 10.8825 11.5999 10.8546 11.6277C10.8384 11.6435 10.8209 11.6657 10.7979 11.7077C10.6518 11.9582 10.9234 12.2922 11.2052 12.1775C11.2164 12.1728 11.2262 12.1661 11.2364 12.1609C11.2812 12.138 11.3165 12.1105 11.3438 12.0788C11.3596 12.0604 11.3715 12.0406 11.3819 12.0202ZM14.419 11.3318C14.3467 10.9498 13.9782 10.6801 13.5762 10.7653C13.5718 10.7663 13.567 10.7673 13.5626 10.7683C13.4741 10.7891 13.3985 10.8155 13.3282 10.8571C13.284 10.8834 13.2433 10.9175 13.2012 10.9587C13.1764 10.983 13.1502 11.0088 13.1251 11.0398C12.7494 11.5198 13.1564 12.3134 13.8555 12.1882C14.051 12.1501 14.2168 12.0233 14.3204 11.8571C14.3321 11.8383 14.3416 11.8184 14.3516 11.7986C14.3894 11.7243 14.4143 11.6446 14.4249 11.5612C14.4345 11.486 14.4357 11.4088 14.419 11.3318ZM12.4581 11.7536C12.4084 11.6094 12.2078 11.4926 12.0606 11.5612C11.9668 11.5925 11.9353 11.5822 11.8624 11.6862C11.8291 11.7375 11.814 11.7974 11.8135 11.8571C11.8119 12.0408 11.9597 12.2275 12.2276 12.1882C12.4154 12.1569 12.4992 11.9479 12.4678 11.781C12.4659 11.7715 12.4613 11.7629 12.4581 11.7536ZM13.0098 9.47336C12.8197 9.45404 10.7646 9.45456 10.6934 9.48508C10.6623 9.55901 10.6626 10.0896 10.7042 10.1423C10.7303 10.1684 10.9834 10.1752 11.2481 10.1765C11.5119 10.1778 11.7877 10.1736 11.8624 10.1736C11.8641 10.1736 11.8662 10.1735 11.8682 10.1736C12.0117 10.174 12.9761 10.194 13.0108 10.153C13.0421 10.0904 13.0424 9.56825 13.0216 9.47433C13.0191 9.47379 13.0151 9.47387 13.0098 9.47336ZM13.8487 9.45871C13.6002 9.45871 13.3505 9.46395 13.3028 9.47433C13.2819 9.55781 13.2813 10.0696 13.3126 10.153C13.3491 10.1687 13.5945 10.1752 13.8409 10.1765C14.0876 10.1778 14.3362 10.1733 14.378 10.1628C14.4091 10.0877 14.4086 9.5472 14.3878 9.47433C14.3453 9.46395 14.0982 9.45871 13.8497 9.45871H13.8487Z" fill="white"/>
<path fill-rule="evenodd" clip-rule="evenodd" d="M100.964 16.237C101.214 16.237 101.298 16.2265 101.454 16.1326C101.788 15.9239 101.84 15.7048 101.997 15.4753C102.028 15.4127 102.018 15.4335 102.049 15.3605C102.101 15.2666 102.06 15.3605 102.112 15.2874C102.133 15.2561 102.122 15.2666 102.133 15.2353C102.143 15.2248 102.164 15.1831 102.164 15.1831L102.3 14.9014C102.31 14.9014 102.31 14.8909 102.32 14.8909L103.666 12.3449C103.698 12.2927 103.75 12.1884 103.771 12.1466C103.823 12.0423 103.802 12.0527 103.865 11.9588C104.021 11.7188 104.324 11.0927 104.48 10.7693C104.564 10.5919 104.606 10.5188 104.762 10.4562C104.72 10.6858 104.731 17.0613 104.762 17.2178C104.762 17.2387 104.773 17.2596 104.773 17.2804C104.783 17.3013 104.783 17.3222 104.793 17.343C104.814 17.4683 104.866 17.5726 104.95 17.677C105.065 17.823 105.19 17.8543 105.336 17.9274L105.607 17.9796C105.952 17.99 106.139 17.9065 106.348 17.6874C106.369 17.6665 106.39 17.6456 106.39 17.6456C106.453 17.5935 106.4 17.6665 106.453 17.5622C106.494 17.4683 106.526 17.4578 106.546 17.3326C106.588 17.0717 106.599 7.48238 106.546 7.0963C106.526 6.92935 106.453 6.78326 106.338 6.66848C106.171 6.51196 105.983 6.39718 105.753 6.36588C105.534 6.33458 105.399 6.35545 105.211 6.44936C104.741 6.66848 104.595 7.13804 104.355 7.56586C104.126 7.96237 103.969 8.32758 103.75 8.72409C103.625 8.95365 103.479 9.19365 103.385 9.45451C103.301 9.64233 103.155 9.83016 103.061 10.0075L102.884 10.3832C102.873 10.4041 102.853 10.4354 102.842 10.4562C102.79 10.5606 102.748 10.6336 102.696 10.7484C102.675 10.811 102.654 10.8214 102.623 10.884C102.592 10.9362 102.581 10.978 102.55 11.0301L102.028 12.0423C101.976 12.1153 102.018 12.0319 101.976 12.1049L101.423 13.2005C101.392 13.2423 101.423 13.1901 101.381 13.2631L101.183 13.6179C101.11 13.7744 101.089 13.7744 101.027 13.8683C100.922 13.8266 100.87 13.6805 100.828 13.5866L99.9205 11.844C99.8892 11.7919 99.8683 11.771 99.837 11.7084L99.7639 11.5727C99.7013 11.4684 99.8161 11.6875 99.7326 11.5101L99.6387 11.3327C99.6387 11.3327 99.6387 11.3223 99.6283 11.3119L98.397 8.93278C98.3448 8.82844 98.3657 8.91191 98.3135 8.7867C98.2822 8.71366 98.3344 8.80757 98.2822 8.71366L97.8544 7.92063C97.7709 7.72237 97.6457 7.54499 97.5518 7.35716C97.5309 7.32586 97.5309 7.30499 97.5101 7.27369V7.26325C97.4996 7.25282 97.4996 7.25282 97.4996 7.24238C97.3744 7.03369 97.2492 6.69979 97.0301 6.56414L96.9362 6.51196C96.2684 6.07371 95.4336 6.50153 95.4336 7.38847V17.1031C95.4336 17.3326 95.4753 17.4474 95.5797 17.6143C95.6736 17.7813 95.9449 17.9691 96.1744 17.9796C96.4875 18.0004 96.6857 17.9796 96.9153 17.7917C97.2075 17.5517 97.2283 17.343 97.2283 16.8526C97.2283 15.9657 97.1866 10.7484 97.2492 10.5188C97.3431 10.5501 97.2492 10.498 97.3327 10.5919C97.3431 10.5919 97.3431 10.6023 97.3536 10.6023L98.9083 13.4405C98.9918 13.5657 99.0648 13.7327 99.1274 13.8475L99.2213 14.0249C99.2213 14.0353 99.2318 14.0457 99.2318 14.0457L99.8474 15.1622C99.8683 15.204 99.8579 15.204 99.8892 15.2561L100.192 15.7779C100.296 15.9657 100.515 16.1535 100.713 16.2057L100.964 16.237Z" fill="white"/>
<path fill-rule="evenodd" clip-rule="evenodd" d="M32.9206 11.7914C32.8789 11.5305 32.9102 9.15146 32.9102 8.59843C32.9102 8.35844 32.858 8.10801 33.0041 8.06627C33.0562 8.0454 36.0927 7.99323 36.437 8.12888C36.6875 8.23322 36.531 8.13931 36.8857 8.30626C37.0631 8.38974 37.1257 8.44191 37.2718 8.57756C37.3135 8.6193 37.3031 8.62974 37.3448 8.67147C37.3657 8.69234 37.3762 8.70278 37.4075 8.74452L37.5431 8.94277C37.564 8.99495 37.5848 9.02625 37.6057 9.04712C37.6266 9.10973 37.7518 9.52711 37.7518 9.66276C37.7518 9.9758 37.7622 10.5393 37.5848 10.8419L37.2301 11.3427C37.0631 11.5097 36.6562 11.6975 36.437 11.7392C36.3118 11.7601 36.2179 11.7914 36.124 11.8123C35.884 11.854 33.0562 11.8645 32.9206 11.7914ZM32.9728 13.4609C33.2232 13.4088 33.7762 13.4401 34.0684 13.4401C35.1745 13.4401 35.6127 13.4505 36.7292 13.367L37.4075 13.2209L37.9918 12.9914C38.2214 12.8557 38.4613 12.7097 38.6387 12.5427C38.9726 12.2401 38.7953 12.4175 39.0352 12.1149C39.0874 12.0627 39.1187 12.0314 39.1605 11.9688C39.2439 11.8331 39.317 11.7601 39.3692 11.6245C39.6092 11.0819 39.5465 11.1027 39.6613 10.6853C39.8283 10.0697 39.6822 8.66104 39.3065 8.12888L39.15 7.87845C39.0248 7.68019 38.7222 7.35672 38.5448 7.22107L38.4718 7.17933C38.4196 7.13759 38.4405 7.15846 38.3987 7.12716L38.1796 6.99151C37.804 6.77238 37.9918 6.86629 37.5848 6.69934C37.5118 6.66804 37.4596 6.67847 37.3762 6.64717C36.9379 6.49065 36.3953 6.43848 35.9257 6.43848H31.8458C31.6997 6.43848 31.5119 6.43848 31.3971 6.51152C31.1885 6.63673 31.3032 6.51152 31.0945 6.68891C30.9172 6.85586 30.8232 7.21063 30.8232 7.4402V16.8835C30.8232 17.0504 30.8545 17.2278 30.8963 17.3217C30.9589 17.4678 30.9485 17.5096 31.0632 17.6452C31.2511 17.8748 31.3763 17.8748 31.5119 17.9374C31.658 18 32.0128 18 32.1484 17.9582L32.5032 17.8122C32.7015 17.6348 32.8162 17.52 32.8789 17.2383C32.9415 16.9565 32.9102 14.9218 32.9102 14.3583C32.9102 14.1288 32.858 13.6175 32.9728 13.4609Z" fill="white"/>
<path fill-rule="evenodd" clip-rule="evenodd" d="M62.7015 13.7538C62.7746 13.639 62.9206 13.5451 63.025 13.4407L63.4632 13.0338C63.5571 12.9503 63.6093 12.8877 63.7032 12.8042C63.7241 12.7834 63.745 12.7625 63.7658 12.7416C64.0267 12.5329 64.298 12.2616 64.5484 12.0321L64.7676 11.8234C64.778 11.8129 64.778 11.8129 64.7884 11.8129L64.9658 11.646C65.258 11.3434 65.6232 11.0408 65.5084 10.5608C65.498 10.5295 65.4875 10.4877 65.4771 10.4669L65.4667 10.4251C65.4562 10.4147 65.4458 10.3938 65.4458 10.3834C65.4249 10.3104 65.4041 10.2686 65.3623 10.2269C65.2684 10.0808 65.1536 9.96602 64.9867 9.88254C64.9032 9.85124 64.6945 9.8095 64.5902 9.81993C64.298 9.81993 64.1623 9.87211 63.9224 10.1225L61.3033 12.6373L61.2928 12.6477L61.2198 12.7103C60.9798 12.8877 60.8024 13.086 60.5937 13.2946C60.5207 13.3677 60.552 13.3468 60.4372 13.3364C60.385 13.0964 60.4268 9.02691 60.4268 8.41127C60.4268 7.96258 60.4894 7.13825 60.3433 6.84608C60.1763 6.51217 59.9259 6.48087 59.7485 6.40783C59.279 6.19914 58.4442 6.52261 58.4233 7.22173C58.3816 8.30692 58.4233 9.43385 58.4233 10.519C58.4233 11.6147 58.4233 12.7103 58.4233 13.8164C58.4233 14.9016 58.392 16.0285 58.4233 17.1033C58.4338 17.552 58.7572 17.8441 59.1538 17.9485C59.4772 18.0319 59.9155 17.9589 60.1555 17.7085C60.2076 17.6563 60.3016 17.5728 60.3537 17.4998C60.552 17.1659 60.3537 14.912 60.4476 14.3277C60.7085 14.359 60.8337 14.6094 61.0215 14.7451L61.6998 15.3607C61.752 15.4024 61.7311 15.4024 61.7728 15.4337L62.5867 16.1642C62.618 16.1955 62.5972 16.1746 62.6389 16.2163C62.6911 16.2581 62.6702 16.2372 62.7119 16.2894C62.7224 16.2998 62.7537 16.3207 62.7537 16.3207C62.7537 16.3311 62.7641 16.3311 62.7641 16.3311L63.9328 17.385L64.6423 17.9172C64.7467 17.9589 64.8302 17.9693 64.9554 17.9693C65.2371 17.9693 65.4354 17.8024 65.6128 17.6041C65.7693 17.4267 65.8527 17.1137 65.7797 16.7902C65.7275 16.5294 65.5084 16.3728 65.331 16.185C65.3206 16.185 65.3206 16.1746 65.3102 16.1746L63.0667 14.1398C63.025 14.0981 62.9728 14.0668 62.9311 14.0251L62.7954 13.9207C62.7224 13.8685 62.7224 13.8581 62.7015 13.7538Z" fill="white"/>
<path fill-rule="evenodd" clip-rule="evenodd" d="M88.2236 8.14011C88.4218 8.03576 91.8757 8.08794 92.387 8.08794C92.8357 8.08794 93.0443 8.14011 93.3887 8.01489C93.6913 7.91055 93.7956 7.75403 93.8687 7.45143C93.9417 7.18013 93.7852 6.78361 93.6496 6.66883C93.4409 6.49145 93.2009 6.43927 92.8461 6.43927C91.4479 6.42884 90.0288 6.43927 88.6201 6.43927C88.1714 6.43927 86.9819 6.36623 86.6375 6.55405C86.0845 6.85666 86.1784 7.4723 86.1784 8.18185C86.1784 10.9992 86.1784 13.8061 86.1784 16.613C86.1784 17.0304 86.1784 17.4164 86.4601 17.6877C86.481 17.7086 86.5227 17.7503 86.5332 17.7503L86.5749 17.7921C86.7001 17.886 86.648 17.8547 86.7627 17.886C86.8462 17.9069 86.8149 17.9069 86.8671 17.9382C86.9401 17.9695 86.8358 17.9382 86.9401 17.9695C87.2636 18.053 87.6497 17.9382 87.8166 17.813C88.0358 17.6564 88.1714 17.4269 88.2027 17.1451C88.2653 16.5086 88.161 13.0965 88.234 12.9817C88.3697 12.8565 88.6931 12.9087 88.954 12.9087C89.6114 12.9087 92.5122 12.94 92.8252 12.8774C93.2635 12.7835 93.3574 12.7418 93.5035 12.387C93.6182 12.1157 93.5243 11.667 93.3365 11.4792C93.1696 11.3227 93.0757 11.3122 92.8044 11.26C92.5852 11.2079 89.2357 11.2392 88.5366 11.2392C88.2757 11.2392 88.2966 11.2392 88.2444 11.1348C88.2027 11.0618 88.2027 8.43228 88.2236 8.14011Z" fill="white"/>
<path fill-rule="evenodd" clip-rule="evenodd" d="M42.6771 14.1083C42.6458 13.7952 42.7397 13.0857 42.8023 12.8144C42.8336 12.6892 42.9797 12.324 43.0632 12.1988L43.4492 11.7292L43.804 11.4996C43.877 11.4683 43.9397 11.4266 44.0023 11.4057C44.4823 11.2492 45.0248 11.2492 45.4944 11.4162C45.7553 11.5101 45.9848 11.6979 46.1622 11.8857C46.4231 12.1779 46.2353 11.9796 46.3813 12.1779L46.4126 12.2196C46.6944 12.7831 46.6005 12.7727 46.6944 13.0961C46.7987 13.4613 46.7674 14.3483 46.6839 14.6926C46.6213 15.0057 46.7048 14.7865 46.5692 15.1517C46.4648 15.4439 46.444 15.5587 46.2353 15.8091C46.0996 15.9865 45.9118 16.143 45.6822 16.2578C45.2335 16.4665 44.9205 16.4769 44.4092 16.4456C44.3883 16.4456 44.2944 16.4352 44.284 16.4352C44.284 16.4352 44.1901 16.4039 44.1796 16.4039C43.7936 16.2891 43.4805 16.1639 43.2301 15.83L43.0214 15.5378C42.8545 15.2352 42.9484 15.3604 42.8858 15.183C42.8858 15.1726 42.8753 15.1622 42.8753 15.1622C42.7397 14.8387 42.7188 14.4631 42.6771 14.1083ZM40.6736 13.9518C40.7154 14.2752 40.6841 14.6196 40.7675 14.8909C40.851 15.1726 40.8615 15.4648 41.0075 15.6839C41.0597 15.7674 41.0388 15.7987 41.0806 15.8822L41.2997 16.2995L41.9362 17.0508L42.3432 17.3639C42.4162 17.416 42.3119 17.3326 42.3745 17.3847L43.2614 17.7812C43.4492 17.8439 43.2614 17.823 43.6475 17.896C43.731 17.9065 43.7727 17.9378 43.8353 17.9482C44.0857 18.0108 44.5344 18.0004 44.8162 18.0004C45.2857 18.0004 45.7657 17.9482 46.1935 17.7917C46.2561 17.7708 46.3396 17.7604 46.3918 17.7395C46.444 17.7186 46.5066 17.6873 46.5587 17.6665L47.07 17.416C47.1013 17.3952 47.1431 17.3534 47.2161 17.3013L47.6231 16.9465C47.6752 16.9047 47.6961 16.8734 47.7483 16.8213C47.9987 16.5604 48.2074 16.2369 48.3743 15.9135L48.51 15.5587C48.5309 15.4543 48.6769 15.0787 48.7291 14.7552C48.8022 14.2126 48.8126 13.2944 48.6874 12.8248C48.6039 12.5118 48.5204 12.1466 48.3639 11.8544L48.0822 11.3536L48.0717 11.3431C47.9152 11.1344 47.79 10.957 47.6126 10.7796L47.3622 10.5814C46.997 10.2997 47.1118 10.4249 46.8822 10.2684C46.6839 10.1431 46.59 10.1327 46.4544 10.0701C46.2666 9.97619 46.2457 9.99706 46.0683 9.93445C45.9014 9.88228 45.7761 9.87184 45.5674 9.8301C44.837 9.66315 44.3466 9.77793 43.6892 9.86141C43.4805 9.88228 43.4597 9.92401 43.2823 9.96575C43.1988 9.98662 43.1675 9.99706 43.1049 10.0284L42.7292 10.1849C42.604 10.2371 42.6562 10.2057 42.5727 10.2684L42.1032 10.5814C41.9675 10.6857 41.8319 10.7901 41.7275 10.9362L40.9449 12.1988C40.8719 12.4283 40.7571 12.7727 40.7362 12.9918C40.7154 13.1587 40.6528 13.7535 40.6736 13.9518Z" fill="white"/>
<path fill-rule="evenodd" clip-rule="evenodd" d="M68.6482 13.1895C68.5751 13.0434 68.6377 12.7513 68.7003 12.5947C68.7108 12.5634 68.7212 12.5217 68.7316 12.4904C68.7943 12.2295 68.7734 12.386 68.836 12.24C68.9403 11.9582 69.1803 11.6243 69.4308 11.4887C69.4725 11.4678 69.4412 11.4887 69.5038 11.4469C69.7438 11.2591 70.0986 11.1756 70.4116 11.1756C70.9855 11.1756 71.2046 11.2174 71.5803 11.4887C71.6846 11.5617 71.6325 11.52 71.7159 11.6139L71.862 11.76C71.862 11.76 71.8829 11.7808 71.8829 11.7913L72.029 12C72.1124 12.1878 72.2272 12.5634 72.2481 12.7408C72.2585 12.8139 72.269 12.8973 72.269 12.9599L72.2481 13.1791C71.9142 13.2417 70.8812 13.1895 70.4638 13.1895H68.6482ZM68.669 14.2643C69.0238 14.2225 69.6499 14.2643 70.0255 14.2643C70.5681 14.2643 73.2394 14.2956 73.5942 14.2538C73.6985 14.2434 73.7298 14.2017 73.8133 14.1495C74.0846 13.993 74.0115 13.3878 74.0011 13.1269L73.9698 12.8243C73.8968 12.386 73.8446 12.1982 73.6776 11.7808L72.8533 10.5913L72.1855 10.153C72.029 10.0383 71.8725 10.0174 71.6846 9.93392C71.5177 9.87131 71.382 9.86087 71.2255 9.82957C70.9333 9.75653 70.6099 9.74609 70.2968 9.74609C70.0777 9.75653 69.8377 9.8087 69.6916 9.82957C69.5977 9.85044 69.4934 9.86087 69.389 9.88174C69.2847 9.91305 69.2638 9.94435 69.149 9.96522C68.9508 10.007 68.8464 10.1009 68.669 10.1739C68.4604 10.2678 68.5543 10.247 68.4604 10.2991L68.1369 10.4974C67.9386 10.6435 67.7612 10.8 67.6151 10.9878C67.5943 11.0191 67.563 11.0504 67.5421 11.0713C67.3647 11.2487 67.1873 11.5721 67.0726 11.7913C66.9369 12.0521 66.8013 12.3547 66.7595 12.6469L66.6865 12.9182C66.676 12.9495 66.676 12.9704 66.676 13.0017L66.6447 13.2417C66.603 14.0243 66.6134 13.8051 66.6552 14.5251C66.6656 14.7964 66.6969 14.8903 66.7595 15.1408L66.7699 15.2555C66.8013 15.4434 66.9473 15.8294 67.0517 15.9964C67.083 16.0486 67.0726 16.0173 67.0934 16.0486L67.3856 16.5181C67.5108 16.7164 67.7299 16.9564 67.9178 17.1025L68.5647 17.5303C68.5751 17.5303 68.5856 17.5303 68.5856 17.5407C68.7734 17.6242 68.9612 17.739 69.1595 17.7807C69.2742 17.8016 69.316 17.8433 69.4308 17.8642C69.5351 17.8851 69.6082 17.8955 69.7021 17.9164C69.8377 17.9477 69.8586 17.9685 70.0047 17.979C71.069 18.0624 71.4029 17.9998 72.4046 17.7494C72.655 17.6972 73.1663 17.4259 73.3959 17.3216L73.6881 17.092C73.8237 16.9459 73.9176 16.7686 73.9281 16.5599C73.9385 16.4451 73.9281 16.3199 73.9072 16.2468L73.8237 16.0068C73.7507 15.9129 73.6985 15.8294 73.5942 15.7877L73.3959 15.7251C73.2811 15.7147 73.2185 15.7564 73.1246 15.7773C72.8637 15.8399 72.655 15.9651 72.4464 16.0694C72.3316 16.1216 72.2794 16.1216 72.1646 16.1947C72.1333 16.2051 72.1646 16.1947 72.102 16.226C72.102 16.226 72.0498 16.2364 72.0394 16.2364C71.862 16.2781 71.622 16.4033 71.3925 16.4347C70.7873 16.539 69.9421 16.4868 69.4308 16.1112L69.0551 15.7251C69.0238 15.6834 69.0551 15.7251 69.0134 15.6834C68.9299 15.5895 68.7838 15.2764 68.7421 15.099L68.6377 14.7129C68.6273 14.6712 68.6273 14.6086 68.6169 14.5564C68.6064 14.4208 68.6273 14.3373 68.669 14.2643Z" fill="white"/>
<path fill-rule="evenodd" clip-rule="evenodd" d="M76.0874 9.94498C75.8161 10.0389 74.3866 9.67368 74.397 10.7067C74.397 11.0928 74.5431 11.2076 74.7101 11.3223C75.0127 11.5519 75.8266 11.4476 76.077 11.4893C76.1709 11.6458 76.1187 13.5866 76.1187 13.9206C76.1187 14.6405 76.077 16.0805 76.4839 16.6544C76.5257 16.717 76.5674 16.8109 76.5883 16.8527C76.63 16.8944 76.6926 16.9674 76.7239 17.0092L76.8909 17.1866C76.9848 17.2805 77.11 17.4057 77.2144 17.4579L77.4126 17.5622C77.4752 17.604 77.4126 17.5727 77.4648 17.604C77.517 17.6248 77.4544 17.604 77.517 17.6353L77.663 17.677C77.6735 17.677 77.6839 17.677 77.6839 17.6874L77.8509 17.7605C78.3726 17.9066 78.9048 17.9692 79.4578 17.9692C79.8543 17.9692 80.1778 17.8753 80.3552 17.6457C80.5326 17.4266 80.543 17.1135 80.4595 16.9048C80.3969 16.7796 80.3656 16.7483 80.2613 16.6648L80.2508 16.6544C80.0421 16.4875 79.6561 16.4562 79.3848 16.4562C79.0404 16.4457 78.5813 16.3518 78.3935 16.0388C78.3622 15.9866 78.3517 15.9762 78.3204 15.9344C78.1952 15.7466 78.1535 15.4544 78.1535 15.2144C78.1535 14.6927 78.1326 11.6249 78.1743 11.5415C78.2056 11.4997 78.1535 11.5206 78.2265 11.4789C78.3413 11.4163 79.7604 11.5623 80.0943 11.3432C80.1047 11.3328 80.1465 11.3015 80.1569 11.291L80.23 11.2597C80.543 11.0302 80.6369 9.98672 79.6561 9.96585C79.4056 9.95542 79.1343 9.96585 78.8839 9.96585C78.7795 9.96585 78.2683 9.99715 78.1952 9.92411C78.0804 9.80933 78.2265 8.66153 78.1222 8.24415L78.0804 8.06676C78.0596 7.98328 78.0387 7.96241 78.0074 7.91024C77.8091 7.62851 77.4961 7.48242 77.1309 7.48242C76.8178 7.48242 76.4318 7.63894 76.2648 7.92067C75.9518 8.43197 76.2439 9.66325 76.0874 9.94498Z" fill="white"/>
<path fill-rule="evenodd" clip-rule="evenodd" d="M53.9466 11.3529C54.437 11.259 54.8752 11.4155 55.2509 11.5825C55.3031 11.5929 55.3344 11.6033 55.3761 11.6242L56.1483 12.0207C56.2839 12.0729 56.4613 12.0729 56.597 12.0416C56.9204 11.9581 57.0456 11.572 57.0456 11.2903C57.0561 11.0712 56.983 10.8625 56.8265 10.6851L56.7326 10.5912C56.6909 10.5494 56.6909 10.5599 56.6387 10.5181C56.6074 10.4868 56.5865 10.4555 56.5552 10.4347C56.3152 10.2781 56.1378 10.226 56.0022 10.1529C55.8144 10.0382 55.4596 9.94424 55.2405 9.88163L54.6666 9.77729C53.8944 9.68338 53.7379 9.78772 53.1222 9.85033L52.6005 9.98598C52.3605 10.0695 51.891 10.3094 51.6927 10.4555C51.484 10.6016 51.3692 10.6955 51.1501 10.9251L50.4614 11.9059C50.3779 12.0729 50.3049 12.3442 50.2319 12.532C50.1797 12.6572 50.1797 12.8033 50.138 12.9285C49.9397 13.5337 50.0232 14.765 50.2423 15.3807C50.2736 15.4641 50.284 15.5789 50.3258 15.6519C50.3466 15.7041 50.3571 15.6833 50.3884 15.7667C50.5032 16.1319 50.7223 16.4137 50.9414 16.7163L51.3588 17.1441C51.4423 17.2276 51.3797 17.1754 51.4631 17.2171C51.5049 17.2484 51.5257 17.2589 51.5571 17.2902C51.7136 17.405 51.7344 17.405 51.8284 17.4571C52.1414 17.6554 52.2562 17.6554 52.3396 17.7076C52.3918 17.7389 52.3188 17.7076 52.3918 17.7389C52.6109 17.8536 52.8822 17.8536 53.1014 17.9371C53.2683 17.9997 53.5292 17.9893 53.7066 17.9997C53.9466 18.0102 54.1553 18.0102 54.3953 17.9997C54.5935 17.9893 55.2196 17.9058 55.397 17.8328C55.5326 17.7806 55.9604 17.6658 56.0335 17.6136L56.263 17.4884C56.43 17.3841 56.6283 17.311 56.7743 17.1545C56.8578 17.0606 56.9413 16.998 56.983 16.8728C57.0248 16.758 57.0561 16.7267 57.0561 16.6119C57.0769 16.2885 56.9622 15.8085 56.6074 15.7146C56.2004 15.5998 55.9396 15.8815 55.5952 16.0276C55.2822 16.1632 54.99 16.3511 54.6248 16.4241C54.4057 16.4658 54.1031 16.4658 53.8735 16.445C53.7901 16.4345 53.8735 16.445 53.8109 16.4345L53.237 16.2363C53.1118 16.1945 53.1431 16.1737 53.0805 16.1424C52.7675 15.9441 52.5379 15.6833 52.3814 15.3285C52.2875 15.1511 52.1831 14.765 52.1518 14.5459C52.1101 14.2642 52.1205 13.8781 52.1414 13.5859L52.2249 12.9807C52.2875 12.6468 52.4127 12.3129 52.6318 12.052L52.7466 11.9164C53.1222 11.5616 53.4248 11.4573 53.9466 11.3529Z" fill="white"/>
</g>
<defs>
<clipPath id="clip0_8083_415">
<rect width="105.973" height="24" fill="white" transform="translate(0.602539)"/>
</clipPath>
</defs>
</svg>
