<svg width="21" height="20" viewBox="0 0 21 20" fill="none" xmlns="http://www.w3.org/2000/svg">
<path fill-rule="evenodd" clip-rule="evenodd" d="M13.4143 3.50003C13.149 3.50003 12.8947 3.39467 12.7071 3.20714L11.2071 1.70711C10.8166 1.31658 10.1834 1.31658 9.79291 1.70711L8.29288 3.20714C8.10534 3.39467 7.85098 3.50003 7.58577 3.50003H5.00001C4.44773 3.50003 4.00001 3.94775 4.00001 4.50003V7.08579C4.00001 7.351 3.89466 7.60536 3.70712 7.79289L2.20711 9.29291C1.81658 9.68343 1.81658 10.3166 2.20711 10.7071L3.70712 12.2071C3.89466 12.3947 4.00001 12.649 4.00001 12.9142V15.5C4.00001 16.0523 4.44773 16.5 5.00001 16.5H7.5858C7.85102 16.5 8.10538 16.6054 8.29291 16.7929L9.79291 18.2929C10.1834 18.6834 10.8166 18.6834 11.2071 18.2929L12.7071 16.7929C12.8946 16.6054 13.149 16.5 13.4142 16.5H16C16.5523 16.5 17 16.0523 17 15.5V12.9142C17 12.649 17.1054 12.3947 17.2929 12.2071L18.7929 10.7071C19.1834 10.3166 19.1834 9.68343 18.7929 9.29291L17.2929 7.79289C17.1054 7.60536 17 7.351 17 7.08579V4.50003C17 3.94775 16.5523 3.50003 16 3.50003H13.4143Z" fill="#171923" stroke="#171923" stroke-width="2"/>
<path d="M13.5 8L9.375 12L7.5 10.1818" stroke="white" stroke-width="1.5" stroke-linecap="round" stroke-linejoin="round"/>
</svg>
