<svg width="13" height="12" viewBox="0 0 13 12" fill="none" xmlns="http://www.w3.org/2000/svg">
<path d="M6.70855 0.0877352C6.4632 -0.0292451 6.17816 -0.0292451 5.93282 0.0877352C5.72072 0.188862 5.60378 0.364445 5.5448 0.460769C5.48384 0.560349 5.42125 0.687199 5.36025 0.810841L4.06504 3.4348L1.16785 3.85826C1.03147 3.87817 0.891537 3.89859 0.778033 3.92589C0.668226 3.95229 0.465203 4.0094 0.303636 4.17994C0.116725 4.37723 0.0288239 4.64833 0.0644048 4.91776C0.0951613 5.15065 0.226047 5.31603 0.299467 5.40184C0.375362 5.49055 0.47669 5.5892 0.575443 5.68535L2.67098 7.7264L2.17653 10.6093C2.15319 10.7452 2.12924 10.8847 2.12002 11.0011C2.11111 11.1137 2.10249 11.3245 2.21466 11.5311C2.34441 11.7699 2.57505 11.9375 2.84234 11.987C3.07342 12.0299 3.27126 11.9565 3.37559 11.9132C3.48346 11.8684 3.60868 11.8026 3.73075 11.7383L6.32068 10.3763L8.91063 11.7383C9.03269 11.8026 9.15791 11.8685 9.26578 11.9132C9.37011 11.9565 9.56795 12.0299 9.79903 11.987C10.0663 11.9375 10.297 11.7699 10.4267 11.5311C10.5389 11.3245 10.5303 11.1137 10.5213 11.0011C10.5121 10.8847 10.4882 10.7453 10.4648 10.6093L9.97039 7.7264L12.0659 5.68533C12.1647 5.58919 12.266 5.49054 12.3419 5.40184C12.4153 5.31603 12.5462 5.15065 12.577 4.91776C12.6125 4.64833 12.5246 4.37723 12.3377 4.17994C12.1762 4.0094 11.9731 3.95229 11.8633 3.92589C11.7498 3.89859 11.6099 3.87817 11.4735 3.85826L8.57632 3.4348L7.28114 0.810886C7.22013 0.687236 7.15754 0.560356 7.09657 0.460769C7.03759 0.364445 6.92065 0.188862 6.70855 0.0877352Z" fill="#ED8936"/>
</svg>
