<svg width="13" height="12" viewBox="0 0 13 12" fill="none" xmlns="http://www.w3.org/2000/svg">
<path d="M6.8316 0.0877352C6.58625 -0.0292451 6.30121 -0.0292451 6.05586 0.0877352C5.84376 0.188862 5.72682 0.364445 5.66785 0.460769C5.60688 0.560349 5.5443 0.687199 5.4833 0.810841L4.18809 3.4348L1.2909 3.85826C1.15452 3.87817 1.01458 3.89859 0.90108 3.92589C0.791273 3.95229 0.58825 4.0094 0.426682 4.17994C0.239772 4.37723 0.151871 4.64833 0.187452 4.91776C0.218208 5.15065 0.349094 5.31603 0.422514 5.40184C0.498408 5.49055 0.599737 5.5892 0.69849 5.68535L2.79403 7.7264L2.29958 10.6093C2.27623 10.7452 2.25229 10.8847 2.24307 11.0011C2.23415 11.1137 2.22554 11.3245 2.33771 11.5311C2.46746 11.7699 2.6981 11.9375 2.96539 11.987C3.19647 12.0299 3.39431 11.9565 3.49863 11.9132C3.60651 11.8684 3.73173 11.8026 3.85379 11.7383L6.44373 10.3763L9.03368 11.7383C9.15574 11.8026 9.28096 11.8685 9.38883 11.9132C9.49316 11.9565 9.691 12.0299 9.92207 11.987C10.1894 11.9375 10.42 11.7699 10.5498 11.5311C10.6619 11.3245 10.6533 11.1137 10.6444 11.0011C10.6352 10.8847 10.6112 10.7453 10.5879 10.6093L10.0934 7.7264L12.189 5.68533C12.2877 5.58919 12.3891 5.49054 12.4649 5.40184C12.5384 5.31603 12.6693 5.15065 12.7 4.91776C12.7356 4.64833 12.6477 4.37723 12.4608 4.17994C12.2992 4.0094 12.0962 3.95229 11.9864 3.92589C11.8729 3.89859 11.7329 3.87817 11.5966 3.85826L8.69937 3.4348L7.40418 0.810886C7.34318 0.687236 7.28058 0.560356 7.21961 0.460769C7.16064 0.364445 7.0437 0.188862 6.8316 0.0877352Z" fill="#EFE35F"/>
</svg>
