<svg width="135" height="32" viewBox="0 0 135 32" fill="none" xmlns="http://www.w3.org/2000/svg">
<g clip-path="url(#clip0_4734_266)">
<path d="M12.1497 12.33V11.11C11.7261 11.0429 11.2984 11.0062 10.8697 11C6.71885 10.9913 3.04398 13.6811 1.79755 17.6403C0.551125 21.5996 2.02239 25.9094 5.42965 28.28C2.87737 25.5485 2.16869 21.5721 3.62015 18.127C5.07162 14.682 8.41218 12.4116 12.1497 12.33Z" fill="white"/>
<path d="M12.3799 26.15C14.7006 26.1469 16.6083 24.3185 16.7099 22V1.31H20.4899C20.4127 0.877682 20.3759 0.439131 20.3799 0H15.2099V20.67C15.1239 23.0003 13.2118 24.8462 10.8799 24.85C10.183 24.8441 9.49755 24.6727 8.87988 24.35C9.6918 25.4749 10.9926 26.1439 12.3799 26.15Z" fill="white"/>
<path d="M27.5497 8.33V7.18C26.1585 7.18048 24.7983 6.76996 23.6396 6C24.6553 7.18072 26.0278 7.99861 27.5497 8.33Z" fill="white"/>
<path d="M23.6397 6.00005C22.4984 4.70038 21.8693 3.0297 21.8697 1.30005H20.4897C20.85 3.23273 21.989 4.93228 23.6397 6.00005Z" fill="white"/>
<path d="M10.8694 16.1698C8.87787 16.18 7.14886 17.5444 6.67586 19.479C6.20286 21.4136 7.10726 23.4218 8.86941 24.3498C7.9146 23.0316 7.77972 21.2893 8.52028 19.8398C9.26084 18.3903 10.7517 17.4786 12.3794 17.4798C12.8134 17.4852 13.2444 17.5526 13.6594 17.6798V12.4198C13.2356 12.3563 12.8079 12.3229 12.3794 12.3198H12.1494V16.3198C11.7323 16.208 11.3011 16.1574 10.8694 16.1698Z" fill="white"/>
<path d="M27.5497 8.33008V12.3301C24.9744 12.3251 22.4659 11.5099 20.3797 10.0001V20.5101C20.3687 25.7545 16.1141 30.0001 10.8697 30.0001C8.92205 30.0035 7.02133 29.4026 5.42969 28.2801C8.08591 31.1369 12.2197 32.0773 15.8504 30.6506C19.481 29.224 21.8689 25.721 21.8697 21.8201V11.3401C23.9629 12.84 26.4745 13.6446 29.0497 13.6401V8.49008C28.5455 8.48847 28.0429 8.43486 27.5497 8.33008Z" fill="white"/>
<path d="M20.379 20.5098V9.9998C22.4716 11.501 24.9836 12.3057 27.559 12.2998V8.2998C26.0375 7.97852 24.6617 7.17128 23.639 5.9998C21.9883 4.93204 20.8492 3.23249 20.489 1.2998H16.709V21.9998C16.6334 23.8466 15.3964 25.4428 13.627 25.977C11.8576 26.5112 9.94393 25.8662 8.85899 24.3698C7.09683 23.4418 6.19243 21.4336 6.66544 19.499C7.13844 17.5644 8.86744 16.2 10.859 16.1898C11.2931 16.1937 11.7244 16.2611 12.139 16.3898V12.3898C8.38056 12.4535 5.01476 14.7318 3.55917 18.1975C2.10358 21.6632 2.83317 25.6616 5.41899 28.3898C7.02632 29.4753 8.92981 30.0376 10.869 29.9998C16.1134 29.9998 20.368 25.7542 20.379 20.5098Z" fill="white"/>
</g>
<g clip-path="url(#clip1_4734_266)">
<path d="M38.1499 10.3401H54.2699L52.7899 15.0001H48.6099V32.0001H43.3799V15.0001H38.1599L38.1499 10.3401Z" fill="white"/>
<path d="M80.6699 10.3401H97.1599L95.6799 15.0001H91.1399V32.0001H85.9199V15.0001H80.6799L80.6699 10.3401Z" fill="white"/>
<path d="M55.25 17.23H60.42V32H55.29L55.25 17.23Z" fill="white"/>
<path d="M62.4697 10.28H67.6297V20.37L72.7497 15.37H78.9097L72.4397 21.65L79.6897 32H73.9997L69.1597 24.81L67.6297 26.29V32H62.4697V10.28Z" fill="white"/>
<path d="M117.16 10.28H122.38V20.37L127.49 15.37H133.65L127.18 21.65L134.38 32H128.69L123.86 24.81L122.38 26.29V32H117.21L117.16 10.28Z" fill="white"/>
<path d="M57.8397 15.5401C59.2757 15.5401 60.4397 14.376 60.4397 12.9401C60.4397 11.5041 59.2757 10.3401 57.8397 10.3401C56.4038 10.3401 55.2397 11.5041 55.2397 12.9401C55.2397 14.376 56.4038 15.5401 57.8397 15.5401Z" fill="white"/>
<path d="M96.4999 23.1594C96.5015 18.5459 100.051 14.7095 104.65 14.3494C104.42 14.3494 104.11 14.3494 103.88 14.3494C99.2056 14.622 95.5547 18.4921 95.5547 23.1744C95.5547 27.8566 99.2056 31.7267 103.88 31.9994C104.11 31.9994 104.42 31.9994 104.65 31.9994C100.039 31.6384 96.4858 27.7843 96.4999 23.1594Z" fill="white"/>
<path d="M106.66 14.32C106.42 14.32 106.11 14.32 105.88 14.32C110.464 14.6987 113.992 18.5299 113.992 23.13C113.992 27.7301 110.464 31.5614 105.88 31.94C106.11 31.94 106.42 31.94 106.66 31.94C111.542 31.94 115.5 27.9822 115.5 23.1C115.5 18.2178 111.542 14.26 106.66 14.26V14.32Z" fill="white"/>
<path d="M105.26 27.4601C102.885 27.4601 100.96 25.5349 100.96 23.1601C100.96 20.7852 102.885 18.8601 105.26 18.8601C107.635 18.8601 109.56 20.7852 109.56 23.1601C109.554 25.5326 107.632 27.4546 105.26 27.4601ZM105.26 14.3201C100.378 14.3201 96.4199 18.2779 96.4199 23.1601C96.4199 28.0423 100.378 32.0001 105.26 32.0001C110.142 32.0001 114.1 28.0423 114.1 23.1601C114.1 20.8156 113.169 18.5671 111.511 16.9092C109.853 15.2514 107.604 14.3201 105.26 14.3201Z" fill="white"/>
</g>
<defs>
<clipPath id="clip0_4734_266">
<rect width="29" height="32" fill="white" transform="translate(0.379883)"/>
</clipPath>
<clipPath id="clip1_4734_266">
<rect width="97" height="22" fill="white" transform="translate(37.3799 10)"/>
</clipPath>
</defs>
</svg>
