<svg width="48" height="48" viewBox="0 0 48 48" fill="none" xmlns="http://www.w3.org/2000/svg">
<rect width="48" height="48" rx="16" fill="#3182CE" fill-opacity="0.1"/>
<path d="M24 13C17.9249 13 13 17.9249 13 24C13 24.0992 13 24.1488 13.0101 24.2195C13.0556 24.5362 13.3064 24.8656 13.5996 24.9938C13.665 25.0223 13.7229 25.0383 13.8387 25.0703C14.0202 25.1204 14.1838 25.1643 14.3204 25.1999C15.1811 25.3961 16.0778 25.5 17 25.5C20.3056 25.5 23.2993 24.164 25.4706 22H24C23.4477 22 23 21.5523 23 21C23 20.4477 23.4477 20 24 20H28C28.5523 20 29 20.4477 29 21V25C29 25.5523 28.5523 26 28 26C27.4477 26 27 25.5523 27 25V23.2978C24.4598 25.8899 20.918 27.5 17 27.5C16.7399 27.5 16.4809 27.4931 16.2229 27.4791C15.2108 27.4244 14.7047 27.3971 14.4261 27.5856C14.1889 27.7461 14.0243 28.0187 13.9927 28.3033C13.9555 28.6376 14.1531 28.9686 14.5484 29.6307C16.4682 32.8464 19.9826 35 24 35C30.0751 35 35 30.0751 35 24C35 17.9249 30.0751 13 24 13Z" fill="#3182CE"/>
</svg>
