<svg width="49" height="49" viewBox="0 0 49 49" fill="none" xmlns="http://www.w3.org/2000/svg">
<rect x="0.603516" y="0.267822" width="48" height="48" rx="16" transform="rotate(-0.0796189 0.603516 0.267822)" fill="#3182CE" fill-opacity="0.06"/>
<path fill-rule="evenodd" clip-rule="evenodd" d="M22.1221 13.2379C21.5698 13.2387 21.1227 13.687 21.1235 14.2393C21.1242 14.7916 21.5726 15.2387 22.1248 15.2379L23.1248 15.2365L23.1263 16.2885C18.3503 16.7949 14.6326 20.8394 14.6394 25.7483C14.6467 30.995 18.9059 35.2424 24.1526 35.2351C29.3993 35.2278 33.6467 30.9686 33.6394 25.7219C33.6326 20.813 29.9037 16.7788 25.1263 16.2858L25.1248 15.2338L26.1248 15.2324C26.6771 15.2316 27.1242 14.7833 27.1234 14.231C27.1227 13.6787 26.6743 13.2316 26.1221 13.2324L22.1221 13.2379ZM25.1339 21.7338C25.1331 21.1815 24.6848 20.7344 24.1325 20.7351C23.5802 20.7359 23.1331 21.1842 23.1339 21.7365L23.1394 25.7365C23.1399 26.0878 23.3247 26.413 23.6261 26.5933L26.1282 28.0899C26.6022 28.3734 27.2162 28.2189 27.4997 27.745C27.7832 27.271 27.6288 26.6569 27.1548 26.3735L25.1386 25.1676L25.1339 21.7338Z" fill="#3182CE"/>
<path d="M30.2474 15.6113C30.6373 15.2203 31.2705 15.2194 31.6616 15.6094L33.1637 17.1073C33.5547 17.4973 33.5556 18.1304 33.1656 18.5215C32.7756 18.9126 32.1425 18.9134 31.7514 18.5235L30.2493 17.0255C29.8583 16.6356 29.8574 16.0024 30.2474 15.6113Z" fill="#3182CE"/>
<path d="M18.0034 15.6283C18.3945 16.0183 18.3953 16.6515 18.0054 17.0426L16.5074 18.5446C16.1175 18.9357 15.4843 18.9366 15.0932 18.5466C14.7022 18.1566 14.7013 17.5235 15.0913 17.1324L16.5892 15.6303C16.9792 15.2392 17.6123 15.2384 18.0034 15.6283Z" fill="#3182CE"/>
</svg>
