<svg width="52" height="52" viewBox="0 0 52 52" fill="none" xmlns="http://www.w3.org/2000/svg">
<rect x="0.129883" y="3.9939" width="48" height="48" rx="16" transform="rotate(-4.20003 0.129883 3.9939)" fill="#D69E2E" fill-opacity="0.06"/>
<path fill-rule="evenodd" clip-rule="evenodd" d="M21.8344 26.4647C21.794 25.9139 22.2077 25.4346 22.7585 25.3941L34.7263 24.5153C35.2771 24.4748 35.7564 24.8885 35.7968 25.4393C35.8373 25.9901 35.4236 26.4694 34.8728 26.5099L22.905 27.3888C22.3542 27.4292 21.8749 27.0155 21.8344 26.4647Z" fill="#D69E2E"/>
<path fill-rule="evenodd" clip-rule="evenodd" d="M21.395 20.4808C21.3546 19.93 21.7683 19.4507 22.3191 19.4102L34.2869 18.5314C34.8377 18.4909 35.317 18.9047 35.3574 19.4555C35.3979 20.0063 34.9841 20.4856 34.4333 20.526L22.4656 21.4049C21.9148 21.4453 21.4355 21.0316 21.395 20.4808Z" fill="#D69E2E"/>
<path fill-rule="evenodd" clip-rule="evenodd" d="M22.2739 32.4486C22.2334 31.8978 22.6472 31.4185 23.198 31.378L35.1657 30.4992C35.7165 30.4587 36.1958 30.8724 36.2363 31.4232C36.2767 31.974 35.863 32.4533 35.3122 32.4938L23.3444 33.3726C22.7936 33.4131 22.3143 32.9994 22.2739 32.4486Z" fill="#D69E2E"/>
<path fill-rule="evenodd" clip-rule="evenodd" d="M15.8506 26.9041C15.7697 25.8025 16.5971 24.8439 17.6987 24.763C18.8003 24.6821 19.7589 25.5096 19.8398 26.6112C19.9207 27.7128 19.0933 28.6714 17.9917 28.7523C16.8901 28.8332 15.9315 28.0057 15.8506 26.9041Z" fill="#D69E2E"/>
<path fill-rule="evenodd" clip-rule="evenodd" d="M15.4111 20.9202C15.3302 19.8186 16.1577 18.86 17.2593 18.7791C18.3609 18.6982 19.3195 19.5257 19.4004 20.6273C19.4813 21.7289 18.6538 22.6875 17.5522 22.7684C16.4506 22.8493 15.492 22.0218 15.4111 20.9202Z" fill="#D69E2E"/>
<path fill-rule="evenodd" clip-rule="evenodd" d="M16.29 32.888C16.2091 31.7864 17.0365 30.8278 18.1381 30.7469C19.2397 30.666 20.1984 31.4934 20.2792 32.595C20.3601 33.6966 19.5327 34.6553 18.4311 34.7362C17.3295 34.817 16.3709 33.9896 16.29 32.888Z" fill="#D69E2E"/>
</svg>
