<svg width="316" height="105" viewBox="0 0 316 105" fill="none" xmlns="http://www.w3.org/2000/svg">
<g clip-path="url(#clip0_8038_141)">
<path d="M0 12C0 5.37258 5.37258 0 12 0H304C310.627 0 316 5.37258 316 12V93C316 99.6274 310.627 105 304 105H12C5.37257 105 0 99.6274 0 93V12Z" fill="url(#paint0_linear_8038_141)"/>
<g clip-path="url(#clip1_8038_141)">
<circle cx="80" cy="66" r="59" stroke="#171923" stroke-width="2"/>
<path d="M139 66C139 98.5848 112.585 125 80 125C47.4152 125 21 98.5848 21 66C21 33.4152 47.4152 7 80 7" stroke="#A0AEC0" stroke-width="2" stroke-linecap="round"/>
</g>
<path d="M44.8511 54V51.1289L50.1597 46.1836C52.6441 43.8984 53.3003 43.0547 53.3003 42.0234V41.9766C53.3003 40.7109 52.4448 39.8789 51.0152 39.8789C49.562 39.8789 48.5425 40.8633 48.5425 42.2578V42.3398H44.605V42.2695C44.605 38.9062 47.2417 36.6328 51.1909 36.6328C54.9527 36.6328 57.4722 38.6367 57.4722 41.6367V41.6953C57.4722 43.6055 56.4058 45.293 53.3003 47.9883L50.5581 50.3906V50.6484H57.7066V54H44.8511ZM68.3533 54V51.1172H60.0447V47.8711C62.1072 44.0859 64.2517 40.5352 66.4431 37.0898H72.4197V47.7656H74.5291V51.1172H72.4197V54H68.3533ZM63.7712 47.918H68.4587V40.1602H68.2478C66.7361 42.5156 65.1306 45.1641 63.7712 47.707V47.918ZM80.125 43.7578C78.7305 43.7578 77.7812 42.7734 77.7812 41.4492C77.7812 40.125 78.7305 39.1523 80.125 39.1523C81.5312 39.1523 82.4805 40.125 82.4805 41.4492C82.4805 42.7734 81.5312 43.7578 80.125 43.7578ZM80.125 51.9258C78.7305 51.9258 77.7812 50.9531 77.7812 49.6289C77.7812 48.3047 78.7305 47.3203 80.125 47.3203C81.5312 47.3203 82.4805 48.3047 82.4805 49.6289C82.4805 50.9531 81.5312 51.9258 80.125 51.9258ZM92.9748 54.457C89.1077 54.457 86.635 52.2305 86.4592 49.3477L86.4475 49.1602H90.2912L90.303 49.2305C90.5725 50.2734 91.5803 51.1172 92.9748 51.1172C94.5686 51.1172 95.6819 50.0156 95.6819 48.4453V48.4219C95.6819 46.8633 94.5452 45.7852 92.9748 45.7852C92.26 45.7852 91.6623 45.9844 91.1819 46.3477C90.842 46.5938 90.5725 46.9219 90.385 47.2617H86.717L87.4436 37.0898H98.635V40.3945H90.7717L90.4319 44.7422H90.6545C91.2991 43.6055 92.5998 42.8438 94.2639 42.8438C97.4045 42.8438 99.678 45.1406 99.678 48.3398V48.3633C99.678 52.0078 96.9475 54.457 92.9748 54.457ZM109 36.6328C113.36 36.6328 116.313 39.7266 116.313 45.457V45.4805C116.313 51.082 113.5 54.4453 109.047 54.4453C105.555 54.4453 102.954 52.3711 102.45 49.6406L102.438 49.5469H106.61L106.645 49.6406C106.997 50.5078 107.84 51.1289 109.024 51.1289C111.145 51.1289 112.118 49.043 112.247 46.207C112.247 46.0898 112.258 45.9609 112.258 45.832H112.012C111.403 47.0977 110.09 48.2344 107.723 48.2344C104.372 48.2344 102.227 45.9258 102.227 42.75V42.7266C102.227 39.2344 104.981 36.6328 109 36.6328ZM109.012 45.2227C110.524 45.2227 111.708 44.168 111.708 42.6562V42.6328C111.708 41.0977 110.524 39.9375 109.024 39.9375C107.536 39.9375 106.329 41.0859 106.329 42.5625V42.5859C106.329 44.1211 107.465 45.2227 109.012 45.2227Z" fill="#CBD5E0"/>
<g filter="url(#filter0_d_8038_141)">
<rect x="12" y="71" width="138.667" height="32" rx="8" fill="black" fill-opacity="0.48" shape-rendering="crispEdges"/>
<rect x="12.4" y="71.4" width="137.867" height="31.2" rx="7.6" stroke="#171923" stroke-width="0.8" shape-rendering="crispEdges"/>
<path d="M30.7679 90.5V83.1723H33.2815C34.006 83.1723 34.6256 83.3178 35.1401 83.609C35.6581 83.8967 36.0542 84.3132 36.3284 84.8582C36.6026 85.4033 36.7397 86.06 36.7397 86.8285V86.8387C36.7397 87.6072 36.6026 88.2656 36.3284 88.8141C36.0542 89.3591 35.6598 89.7772 35.1452 90.0684C34.6306 90.3561 34.0094 90.5 33.2815 90.5H30.7679ZM31.6819 89.6773H33.2206C33.7657 89.6773 34.2312 89.5656 34.6171 89.3422C35.003 89.1187 35.2976 88.7954 35.5007 88.3723C35.7038 87.9491 35.8054 87.4413 35.8054 86.8488V86.8387C35.8054 86.2428 35.7021 85.7333 35.4956 85.3102C35.2925 84.8836 34.9979 84.5586 34.612 84.3352C34.2261 84.1083 33.7623 83.9949 33.2206 83.9949H31.6819V89.6773ZM40.4073 90.5965C39.8859 90.5965 39.4373 90.4814 39.0616 90.2512C38.6892 90.021 38.4014 89.696 38.1983 89.2762C37.9985 88.853 37.8987 88.3553 37.8987 87.7832V87.7781C37.8987 87.2128 37.9985 86.7168 38.1983 86.2902C38.4014 85.8637 38.6875 85.5302 39.0565 85.2898C39.4255 85.0495 39.8571 84.9293 40.3514 84.9293C40.8491 84.9293 41.2756 85.0444 41.6311 85.2746C41.9899 85.5048 42.2642 85.8264 42.4537 86.2395C42.6467 86.6491 42.7432 87.1264 42.7432 87.6715V88.0168H38.3557V87.3109H42.2912L41.8545 87.9559V87.6055C41.8545 87.1755 41.7902 86.8217 41.6616 86.5441C41.5329 86.2665 41.3552 86.06 41.1284 85.9246C40.9015 85.7858 40.6409 85.7164 40.3463 85.7164C40.0518 85.7164 39.7877 85.7892 39.5541 85.9348C39.3239 86.077 39.1411 86.2885 39.0057 86.5695C38.8703 86.8505 38.8026 87.1958 38.8026 87.6055V87.9559C38.8026 88.3452 38.8686 88.6786 39.0006 88.9562C39.1326 89.2305 39.3205 89.4421 39.5643 89.591C39.808 89.7366 40.0958 89.8094 40.4276 89.8094C40.6747 89.8094 40.8897 89.7755 41.0725 89.7078C41.2553 89.6401 41.406 89.5538 41.5244 89.4488C41.6429 89.3439 41.7259 89.2372 41.7733 89.1289L41.7936 89.0832H42.6772L42.667 89.1238C42.6196 89.31 42.535 89.4911 42.4131 89.6672C42.2946 89.8398 42.1406 89.9973 41.951 90.1395C41.7614 90.2783 41.5363 90.39 41.2756 90.4746C41.0183 90.5559 40.7289 90.5965 40.4073 90.5965ZM45.9537 90.5965C45.5474 90.5965 45.1886 90.5355 44.8771 90.4137C44.5657 90.2884 44.3151 90.1141 44.1256 89.8906C43.9394 89.6672 43.8293 89.4048 43.7955 89.1035H44.6994C44.7739 89.3303 44.9194 89.5132 45.1361 89.652C45.3528 89.7908 45.6354 89.8602 45.9841 89.8602C46.2313 89.8602 46.4479 89.8246 46.6341 89.7535C46.8237 89.679 46.9727 89.5792 47.081 89.4539C47.1894 89.3253 47.2435 89.178 47.2435 89.0121V89.002C47.2435 88.8158 47.169 88.6583 47.0201 88.5297C46.8711 88.3977 46.6274 88.291 46.2888 88.2098L45.4408 88.0066C45.0989 87.9254 44.8179 87.8204 44.5978 87.6918C44.3778 87.5598 44.2153 87.399 44.1103 87.2094C44.0054 87.0164 43.9529 86.7896 43.9529 86.5289V86.5238C43.9529 86.2191 44.0409 85.9466 44.217 85.7062C44.3964 85.4659 44.6401 85.2763 44.9482 85.1375C45.2563 84.9987 45.6033 84.9293 45.9892 84.9293C46.3718 84.9293 46.7103 84.9902 47.0048 85.1121C47.3028 85.2306 47.5414 85.3999 47.7209 85.6199C47.9037 85.84 48.0154 86.099 48.056 86.3969H47.1877C47.1301 86.1802 46.9981 86.0042 46.7916 85.8687C46.5851 85.7333 46.3159 85.6656 45.9841 85.6656C45.7675 85.6656 45.5745 85.7012 45.4052 85.7723C45.236 85.84 45.1022 85.9348 45.0041 86.0566C44.9059 86.1785 44.8568 86.3207 44.8568 86.4832V86.4934C44.8568 86.6152 44.889 86.7236 44.9533 86.8184C45.0176 86.9132 45.1175 86.9961 45.2529 87.0672C45.3883 87.1383 45.5627 87.2009 45.7759 87.2551L46.6189 87.4582C47.1335 87.5835 47.516 87.7629 47.7666 87.9965C48.0205 88.2301 48.1474 88.5432 48.1474 88.9359V88.9461C48.1474 89.2711 48.0509 89.5589 47.858 89.8094C47.665 90.0565 47.4026 90.2495 47.0709 90.3883C46.7425 90.5271 46.3701 90.5965 45.9537 90.5965ZM49.4993 90.5V85.0258H50.3829V90.5H49.4993ZM49.9462 83.9695C49.7803 83.9695 49.6364 83.9103 49.5145 83.7918C49.3961 83.6699 49.3368 83.526 49.3368 83.3602C49.3368 83.1909 49.3961 83.047 49.5145 82.9285C49.6364 82.81 49.7803 82.7508 49.9462 82.7508C50.1155 82.7508 50.2593 82.81 50.3778 82.9285C50.4963 83.047 50.5556 83.1909 50.5556 83.3602C50.5556 83.526 50.4963 83.6699 50.3778 83.7918C50.2593 83.9103 50.1155 83.9695 49.9462 83.9695ZM54.2637 92.4297C53.8236 92.4297 53.4394 92.3671 53.111 92.2418C52.7826 92.1199 52.5202 91.9456 52.3239 91.7188C52.1309 91.4953 52.0107 91.2346 51.9633 90.9367L51.9735 90.9316H52.8875L52.8926 90.9367C52.94 91.1432 53.0822 91.3125 53.3192 91.4445C53.5561 91.5799 53.871 91.6477 54.2637 91.6477C54.7546 91.6477 55.1371 91.5359 55.4114 91.3125C55.689 91.0924 55.8278 90.781 55.8278 90.3781V89.2711H55.7465C55.6314 89.4708 55.4875 89.6418 55.3149 89.784C55.1422 89.9262 54.9476 90.0345 54.7309 90.109C54.5142 90.1801 54.2806 90.2156 54.0301 90.2156C53.5595 90.2156 53.1516 90.1039 52.8063 89.8805C52.4644 89.6536 52.2003 89.3422 52.0141 88.9461C51.8279 88.55 51.7348 88.0964 51.7348 87.5852V87.575C51.7348 87.0638 51.8279 86.6102 52.0141 86.2141C52.2037 85.8146 52.4711 85.5014 52.8164 85.2746C53.1617 85.0444 53.5731 84.9293 54.0504 84.9293C54.3077 84.9293 54.5447 84.9699 54.7614 85.0512C54.978 85.1324 55.1693 85.2475 55.3352 85.3965C55.5045 85.5454 55.6449 85.7232 55.7567 85.9297H55.8176V85.0258H56.7012V90.4238C56.7012 90.8301 56.6013 91.1839 56.4016 91.4852C56.2052 91.7865 55.9242 92.0184 55.5586 92.1809C55.193 92.3467 54.7614 92.4297 54.2637 92.4297ZM54.2231 89.4336C54.5616 89.4336 54.8511 89.3557 55.0914 89.2C55.3352 89.0409 55.5214 88.8225 55.65 88.5449C55.7821 88.2673 55.8481 87.9474 55.8481 87.5852V87.575C55.8481 87.2128 55.7821 86.8911 55.65 86.6102C55.5214 86.3292 55.3352 86.1091 55.0914 85.95C54.8511 85.7909 54.5616 85.7113 54.2231 85.7113C53.8845 85.7113 53.5968 85.7909 53.3598 85.95C53.1262 86.1091 52.9468 86.3292 52.8215 86.6102C52.6996 86.8911 52.6387 87.2128 52.6387 87.575V87.5852C52.6387 87.9474 52.6996 88.2673 52.8215 88.5449C52.9468 88.8225 53.1262 89.0409 53.3598 89.2C53.5968 89.3557 53.8845 89.4336 54.2231 89.4336ZM58.307 90.5V85.0258H59.1906V85.8484H59.2718C59.4106 85.5573 59.6104 85.3322 59.8711 85.173C60.1317 85.0105 60.4635 84.9293 60.8664 84.9293C61.4825 84.9293 61.9548 85.1053 62.2832 85.4574C62.6149 85.8061 62.7808 86.3055 62.7808 86.9555V90.5H61.8972V87.1687C61.8972 86.6745 61.7923 86.3089 61.5824 86.0719C61.3759 85.8315 61.0543 85.7113 60.6175 85.7113C60.3264 85.7113 60.0742 85.774 59.8609 85.8992C59.6476 86.0245 59.4817 86.2022 59.3632 86.4324C59.2481 86.6626 59.1906 86.9385 59.1906 87.2602V90.5H58.307ZM67.3381 90.5V83.1723H68.2522V89.6773H71.7865V90.5H67.3381ZM74.6009 90.5965C74.2556 90.5965 73.9442 90.5305 73.6666 90.3984C73.3923 90.2664 73.174 90.0785 73.0115 89.8348C72.8524 89.591 72.7728 89.3033 72.7728 88.9715V88.9613C72.7728 88.6363 72.8507 88.3587 73.0064 88.1285C73.1621 87.8949 73.389 87.7121 73.6869 87.5801C73.9848 87.448 74.3453 87.3702 74.7685 87.3465L76.7794 87.2246V87.9305L74.8752 88.0523C74.4587 88.076 74.1541 88.1624 73.9611 88.3113C73.7715 88.4603 73.6767 88.6702 73.6767 88.941V88.9512C73.6767 89.2288 73.7817 89.4454 73.9916 89.6012C74.2015 89.7535 74.4655 89.8297 74.7837 89.8297C75.085 89.8297 75.3525 89.7704 75.5861 89.652C75.8197 89.5301 76.0025 89.3659 76.1345 89.1594C76.2699 88.9529 76.3377 88.7193 76.3377 88.4586V86.7523C76.3377 86.4138 76.2344 86.1565 76.0279 85.9805C75.8248 85.801 75.5184 85.7113 75.1087 85.7113C74.7804 85.7113 74.5112 85.7706 74.3013 85.8891C74.0914 86.0042 73.9509 86.1684 73.8798 86.3816L73.8748 86.3969H72.9912L72.9962 86.3664C73.0436 86.0786 73.1621 85.8281 73.3517 85.6148C73.5447 85.3982 73.7935 85.2306 74.0982 85.1121C74.4029 84.9902 74.7499 84.9293 75.1392 84.9293C75.5861 84.9293 75.9636 85.0021 76.2716 85.1477C76.5831 85.2932 76.8184 85.5031 76.9775 85.7773C77.14 86.0482 77.2212 86.3732 77.2212 86.7523V90.5H76.3377V89.6926H76.2564C76.1413 89.8855 76.0008 90.0497 75.8349 90.1852C75.6724 90.3206 75.4879 90.4238 75.2814 90.4949C75.0749 90.5626 74.8481 90.5965 74.6009 90.5965ZM78.7966 90.5V85.0258H79.6802V85.8484H79.7614C79.9002 85.5573 80.1 85.3322 80.3606 85.173C80.6213 85.0105 80.9531 84.9293 81.3559 84.9293C81.9721 84.9293 82.4444 85.1053 82.7727 85.4574C83.1045 85.8061 83.2704 86.3055 83.2704 86.9555V90.5H82.3868V87.1687C82.3868 86.6745 82.2819 86.3089 82.072 86.0719C81.8654 85.8315 81.5438 85.7113 81.1071 85.7113C80.816 85.7113 80.5638 85.774 80.3505 85.8992C80.1372 86.0245 79.9713 86.2022 79.8528 86.4324C79.7377 86.6626 79.6802 86.9385 79.6802 87.2602V90.5H78.7966ZM86.8516 90.5965C86.3912 90.5965 85.9883 90.4797 85.643 90.2461C85.2977 90.0125 85.0302 89.6841 84.8406 89.2609C84.6511 88.8344 84.5563 88.3367 84.5563 87.768V87.7578C84.5563 87.1857 84.6511 86.688 84.8406 86.2648C85.0302 85.8417 85.296 85.5133 85.6379 85.2797C85.9832 85.0461 86.3878 84.9293 86.8516 84.9293C87.1021 84.9293 87.3374 84.9699 87.5574 85.0512C87.7809 85.129 87.9789 85.2391 88.1516 85.3812C88.3242 85.5234 88.4597 85.6927 88.5578 85.8891H88.6391V82.8523H89.5227V90.5H88.6391V89.6266H88.5578C88.4461 89.8297 88.3056 90.004 88.1363 90.1496C87.9671 90.2918 87.7741 90.4018 87.5574 90.4797C87.3408 90.5576 87.1055 90.5965 86.8516 90.5965ZM87.0547 89.8145C87.3865 89.8145 87.6725 89.7315 87.9129 89.5656C88.1533 89.3997 88.3378 89.1645 88.4664 88.8598C88.5951 88.5517 88.6594 88.1878 88.6594 87.768V87.7578C88.6594 87.3346 88.5951 86.9707 88.4664 86.666C88.3378 86.3613 88.1533 86.126 87.9129 85.9602C87.6725 85.7943 87.3865 85.7113 87.0547 85.7113C86.7229 85.7113 86.4369 85.7943 86.1965 85.9602C85.9595 86.1227 85.7767 86.3562 85.6481 86.6609C85.5228 86.9656 85.4602 87.3312 85.4602 87.7578V87.768C85.4602 88.1911 85.5228 88.5568 85.6481 88.8648C85.7767 89.1695 85.9595 89.4048 86.1965 89.5707C86.4369 89.7332 86.7229 89.8145 87.0547 89.8145ZM91.1996 90.5V85.0258H92.0832V90.5H91.1996ZM91.6464 83.9695C91.4806 83.9695 91.3367 83.9103 91.2148 83.7918C91.0963 83.6699 91.0371 83.526 91.0371 83.3602C91.0371 83.1909 91.0963 83.047 91.2148 82.9285C91.3367 82.81 91.4806 82.7508 91.6464 82.7508C91.8157 82.7508 91.9596 82.81 92.0781 82.9285C92.1966 83.047 92.2558 83.1909 92.2558 83.3602C92.2558 83.526 92.1966 83.6699 92.0781 83.7918C91.9596 83.9103 91.8157 83.9695 91.6464 83.9695ZM93.7093 90.5V85.0258H94.5929V85.8484H94.6741C94.8129 85.5573 95.0126 85.3322 95.2733 85.173C95.534 85.0105 95.8658 84.9293 96.2686 84.9293C96.8848 84.9293 97.357 85.1053 97.6854 85.4574C98.0172 85.8061 98.1831 86.3055 98.1831 86.9555V90.5H97.2995V87.1687C97.2995 86.6745 97.1945 86.3089 96.9847 86.0719C96.7781 85.8315 96.4565 85.7113 96.0198 85.7113C95.7287 85.7113 95.4764 85.774 95.2632 85.8992C95.0499 86.0245 94.884 86.2022 94.7655 86.4324C94.6504 86.6626 94.5929 86.9385 94.5929 87.2602V90.5H93.7093ZM101.998 92.4297C101.558 92.4297 101.174 92.3671 100.845 92.2418C100.517 92.1199 100.254 91.9456 100.058 91.7188C99.8651 91.4953 99.7449 91.2346 99.6975 90.9367L99.7076 90.9316H100.622L100.627 90.9367C100.674 91.1432 100.816 91.3125 101.053 91.4445C101.29 91.5799 101.605 91.6477 101.998 91.6477C102.489 91.6477 102.871 91.5359 103.146 91.3125C103.423 91.0924 103.562 90.781 103.562 90.3781V89.2711H103.481C103.366 89.4708 103.222 89.6418 103.049 89.784C102.876 89.9262 102.682 90.0345 102.465 90.109C102.248 90.1801 102.015 90.2156 101.764 90.2156C101.294 90.2156 100.886 90.1039 100.54 89.8805C100.199 89.6536 99.9345 89.3422 99.7483 88.9461C99.5621 88.55 99.469 88.0964 99.469 87.5852V87.575C99.469 87.0638 99.5621 86.6102 99.7483 86.2141C99.9378 85.8146 100.205 85.5014 100.551 85.2746C100.896 85.0444 101.307 84.9293 101.785 84.9293C102.042 84.9293 102.279 84.9699 102.496 85.0512C102.712 85.1324 102.903 85.2475 103.069 85.3965C103.239 85.5454 103.379 85.7232 103.491 85.9297H103.552V85.0258H104.435V90.4238C104.435 90.8301 104.335 91.1839 104.136 91.4852C103.939 91.7865 103.658 92.0184 103.293 92.1809C102.927 92.3467 102.496 92.4297 101.998 92.4297ZM101.957 89.4336C102.296 89.4336 102.585 89.3557 102.826 89.2C103.069 89.0409 103.256 88.8225 103.384 88.5449C103.516 88.2673 103.582 87.9474 103.582 87.5852V87.575C103.582 87.2128 103.516 86.8911 103.384 86.6102C103.256 86.3292 103.069 86.1091 102.826 85.95C102.585 85.7909 102.296 85.7113 101.957 85.7113C101.619 85.7113 101.331 85.7909 101.094 85.95C100.86 86.1091 100.681 86.3292 100.556 86.6102C100.434 86.8911 100.373 87.2128 100.373 87.575V87.5852C100.373 87.9474 100.434 88.2673 100.556 88.5449C100.681 88.8225 100.86 89.0409 101.094 89.2C101.331 89.3557 101.619 89.4336 101.957 89.4336ZM108.927 92.3281V85.0258H109.81V85.8992H109.891C110.003 85.6961 110.144 85.5234 110.313 85.3812C110.482 85.2357 110.675 85.124 110.892 85.0461C111.109 84.9682 111.344 84.9293 111.598 84.9293C112.062 84.9293 112.464 85.0478 112.806 85.2848C113.152 85.5184 113.419 85.8467 113.609 86.2699C113.798 86.6931 113.893 87.1891 113.893 87.7578V87.768C113.893 88.3401 113.798 88.8378 113.609 89.2609C113.419 89.6841 113.152 90.0125 112.806 90.2461C112.464 90.4797 112.062 90.5965 111.598 90.5965C111.347 90.5965 111.11 90.5576 110.887 90.4797C110.667 90.3984 110.47 90.2867 110.298 90.1445C110.128 90.0023 109.993 89.8331 109.891 89.6367H109.81V92.3281H108.927ZM111.395 89.8145C111.73 89.8145 112.016 89.7332 112.253 89.5707C112.49 89.4048 112.671 89.1695 112.796 88.8648C112.925 88.5568 112.989 88.1911 112.989 87.768V87.7578C112.989 87.3312 112.925 86.9656 112.796 86.6609C112.671 86.3562 112.49 86.1227 112.253 85.9602C112.016 85.7943 111.73 85.7113 111.395 85.7113C111.063 85.7113 110.777 85.7943 110.536 85.9602C110.296 86.126 110.112 86.3613 109.983 86.666C109.854 86.9707 109.79 87.3346 109.79 87.7578V87.768C109.79 88.1878 109.854 88.5517 109.983 88.8598C110.112 89.1645 110.296 89.3997 110.536 89.5656C110.777 89.7315 111.063 89.8145 111.395 89.8145ZM116.738 90.5965C116.393 90.5965 116.081 90.5305 115.804 90.3984C115.529 90.2664 115.311 90.0785 115.148 89.8348C114.989 89.591 114.91 89.3033 114.91 88.9715V88.9613C114.91 88.6363 114.988 88.3587 115.143 88.1285C115.299 87.8949 115.526 87.7121 115.824 87.5801C116.122 87.448 116.482 87.3702 116.905 87.3465L118.916 87.2246V87.9305L117.012 88.0523C116.596 88.076 116.291 88.1624 116.098 88.3113C115.908 88.4603 115.814 88.6702 115.814 88.941V88.9512C115.814 89.2288 115.919 89.4454 116.129 89.6012C116.338 89.7535 116.602 89.8297 116.921 89.8297C117.222 89.8297 117.489 89.7704 117.723 89.652C117.957 89.5301 118.139 89.3659 118.271 89.1594C118.407 88.9529 118.475 88.7193 118.475 88.4586V86.7523C118.475 86.4138 118.371 86.1565 118.165 85.9805C117.962 85.801 117.655 85.7113 117.246 85.7113C116.917 85.7113 116.648 85.7706 116.438 85.8891C116.228 86.0042 116.088 86.1684 116.017 86.3816L116.012 86.3969H115.128L115.133 86.3664C115.181 86.0786 115.299 85.8281 115.489 85.6148C115.682 85.3982 115.93 85.2306 116.235 85.1121C116.54 84.9902 116.887 84.9293 117.276 84.9293C117.723 84.9293 118.101 85.0021 118.409 85.1477C118.72 85.2932 118.955 85.5031 119.114 85.7773C119.277 86.0482 119.358 86.3732 119.358 86.7523V90.5H118.475V89.6926H118.393C118.278 89.8855 118.138 90.0497 117.972 90.1852C117.809 90.3206 117.625 90.4238 117.418 90.4949C117.212 90.5626 116.985 90.5965 116.738 90.5965ZM123.188 92.4297C122.748 92.4297 122.364 92.3671 122.035 92.2418C121.707 92.1199 121.445 91.9456 121.248 91.7188C121.055 91.4953 120.935 91.2346 120.888 90.9367L120.898 90.9316H121.812L121.817 90.9367C121.865 91.1432 122.007 91.3125 122.244 91.4445C122.481 91.5799 122.796 91.6477 123.188 91.6477C123.679 91.6477 124.062 91.5359 124.336 91.3125C124.613 91.0924 124.752 90.781 124.752 90.3781V89.2711H124.671C124.556 89.4708 124.412 89.6418 124.239 89.784C124.067 89.9262 123.872 90.0345 123.655 90.109C123.439 90.1801 123.205 90.2156 122.955 90.2156C122.484 90.2156 122.076 90.1039 121.731 89.8805C121.389 89.6536 121.125 89.3422 120.939 88.9461C120.752 88.55 120.659 88.0964 120.659 87.5852V87.575C120.659 87.0638 120.752 86.6102 120.939 86.2141C121.128 85.8146 121.396 85.5014 121.741 85.2746C122.086 85.0444 122.498 84.9293 122.975 84.9293C123.232 84.9293 123.469 84.9699 123.686 85.0512C123.903 85.1324 124.094 85.2475 124.26 85.3965C124.429 85.5454 124.569 85.7232 124.681 85.9297H124.742V85.0258H125.626V90.4238C125.626 90.8301 125.526 91.1839 125.326 91.4852C125.13 91.7865 124.849 92.0184 124.483 92.1809C124.118 92.3467 123.686 92.4297 123.188 92.4297ZM123.148 89.4336C123.486 89.4336 123.776 89.3557 124.016 89.2C124.26 89.0409 124.446 88.8225 124.575 88.5449C124.707 88.2673 124.773 87.9474 124.773 87.5852V87.575C124.773 87.2128 124.707 86.8911 124.575 86.6102C124.446 86.3292 124.26 86.1091 124.016 85.95C123.776 85.7909 123.486 85.7113 123.148 85.7113C122.809 85.7113 122.521 85.7909 122.284 85.95C122.051 86.1091 121.871 86.3292 121.746 86.6102C121.624 86.8911 121.563 87.2128 121.563 87.575V87.5852C121.563 87.9474 121.624 88.2673 121.746 88.5449C121.871 88.8225 122.051 89.0409 122.284 89.2C122.521 89.3557 122.809 89.4336 123.148 89.4336ZM129.466 90.5965C128.945 90.5965 128.496 90.4814 128.12 90.2512C127.748 90.021 127.46 89.696 127.257 89.2762C127.057 88.853 126.957 88.3553 126.957 87.7832V87.7781C126.957 87.2128 127.057 86.7168 127.257 86.2902C127.46 85.8637 127.746 85.5302 128.115 85.2898C128.484 85.0495 128.916 84.9293 129.41 84.9293C129.908 84.9293 130.334 85.0444 130.69 85.2746C131.049 85.5048 131.323 85.8264 131.512 86.2395C131.705 86.6491 131.802 87.1264 131.802 87.6715V88.0168H127.414V87.3109H131.35L130.913 87.9559V87.6055C130.913 87.1755 130.849 86.8217 130.72 86.5441C130.592 86.2665 130.414 86.06 130.187 85.9246C129.96 85.7858 129.699 85.7164 129.405 85.7164C129.11 85.7164 128.846 85.7892 128.613 85.9348C128.383 86.077 128.2 86.2885 128.064 86.5695C127.929 86.8505 127.861 87.1958 127.861 87.6055V87.9559C127.861 88.3452 127.927 88.6786 128.059 88.9562C128.191 89.2305 128.379 89.4421 128.623 89.591C128.867 89.7366 129.154 89.8094 129.486 89.8094C129.733 89.8094 129.948 89.7755 130.131 89.7078C130.314 89.6401 130.465 89.5538 130.583 89.4488C130.702 89.3439 130.785 89.2372 130.832 89.1289L130.852 89.0832H131.736L131.726 89.1238C131.678 89.31 131.594 89.4911 131.472 89.6672C131.353 89.8398 131.199 89.9973 131.01 90.1395C130.82 90.2783 130.595 90.39 130.334 90.4746C130.077 90.5559 129.788 90.5965 129.466 90.5965Z" fill="#CBD5E0"/>
</g>
<path d="M172 57.5H296C300.142 57.5 303.5 60.8579 303.5 65V77C303.5 81.1421 300.142 84.5 296 84.5H172C167.858 84.5 164.5 81.1421 164.5 77V65C164.5 60.8579 167.858 57.5 172 57.5Z" stroke="url(#paint1_linear_8038_141)"/>
<path d="M174.133 75H173.078V66.5449H178.211V67.4941H174.133V70.4004H177.877V71.3379H174.133V75ZM184.585 74.2383C184.065 74.8203 183.356 75.1113 182.458 75.1113C181.559 75.1113 180.848 74.8203 180.325 74.2383C179.805 73.6523 179.546 72.8535 179.546 71.8418C179.546 70.8262 179.805 70.0273 180.325 69.4453C180.844 68.8633 181.555 68.5723 182.458 68.5723C183.36 68.5723 184.071 68.8633 184.591 69.4453C185.11 70.0273 185.37 70.8262 185.37 71.8418C185.37 72.8535 185.108 73.6523 184.585 74.2383ZM181.075 73.5879C181.399 73.998 181.86 74.2031 182.458 74.2031C183.055 74.2031 183.516 73.998 183.841 73.5879C184.165 73.1738 184.327 72.5918 184.327 71.8418C184.327 71.0918 184.165 70.5117 183.841 70.1016C183.516 69.6875 183.055 69.4805 182.458 69.4805C181.86 69.4805 181.399 69.6875 181.075 70.1016C180.751 70.5117 180.589 71.0918 180.589 71.8418C180.589 72.5918 180.751 73.1738 181.075 73.5879ZM192.224 70.6172H191.204C191.119 70.2852 190.933 70.0137 190.648 69.8027C190.367 69.5879 190.009 69.4805 189.576 69.4805C189.009 69.4805 188.558 69.6914 188.222 70.1133C187.89 70.5352 187.724 71.1035 187.724 71.8184C187.724 72.5449 187.892 73.125 188.228 73.5586C188.564 73.9883 189.013 74.2031 189.576 74.2031C190.001 74.2031 190.355 74.1074 190.636 73.916C190.921 73.7246 191.111 73.4512 191.204 73.0957H192.224C192.13 73.6934 191.851 74.1797 191.386 74.5547C190.921 74.9258 190.32 75.1113 189.581 75.1113C188.695 75.1113 187.99 74.8145 187.466 74.2207C186.943 73.623 186.681 72.8223 186.681 71.8184C186.681 70.834 186.943 70.0469 187.466 69.457C187.99 68.8672 188.693 68.5723 189.576 68.5723C190.314 68.5723 190.915 68.7656 191.38 69.1523C191.849 69.5391 192.13 70.0273 192.224 70.6172ZM198.867 68.6836V75H197.906V74.0098H197.813C197.652 74.3652 197.406 74.6387 197.074 74.8301C196.742 75.0176 196.336 75.1113 195.856 75.1113C195.152 75.1113 194.617 74.9102 194.25 74.5078C193.883 74.1055 193.699 73.5273 193.699 72.7734V68.6836H194.707V72.5273C194.707 73.1016 194.82 73.5234 195.047 73.793C195.274 74.0586 195.637 74.1914 196.137 74.1914C196.688 74.1914 197.111 74.0371 197.408 73.7285C197.709 73.416 197.859 72.9805 197.859 72.4219V68.6836H198.867ZM200.665 70.4121C200.665 69.8887 200.889 69.4512 201.339 69.0996C201.788 68.748 202.348 68.5723 203.02 68.5723C203.68 68.5723 204.225 68.7246 204.655 69.0293C205.085 69.334 205.333 69.7461 205.399 70.2656H204.403C204.333 70.0078 204.177 69.8047 203.934 69.6562C203.696 69.5039 203.389 69.4277 203.014 69.4277C202.636 69.4277 202.317 69.5156 202.059 69.6914C201.805 69.8672 201.678 70.0938 201.678 70.3711C201.678 70.5859 201.766 70.7656 201.942 70.9102C202.122 71.0508 202.399 71.166 202.774 71.2559L203.747 71.4902C204.348 71.6348 204.792 71.8438 205.077 72.1172C205.366 72.3906 205.511 72.752 205.511 73.2012C205.511 73.7598 205.27 74.2188 204.79 74.5781C204.309 74.9336 203.706 75.1113 202.979 75.1113C202.276 75.1113 201.7 74.9551 201.251 74.6426C200.802 74.3301 200.55 73.9121 200.495 73.3887H201.532C201.618 73.6621 201.788 73.877 202.042 74.0332C202.296 74.1855 202.62 74.2617 203.014 74.2617C203.44 74.2617 203.79 74.1699 204.063 73.9863C204.337 73.8027 204.473 73.5664 204.473 73.2773C204.473 72.8477 204.139 72.5508 203.471 72.3867L202.387 72.123C201.79 71.9785 201.352 71.7715 201.075 71.502C200.802 71.2285 200.665 70.8652 200.665 70.4121ZM210.424 70.4121C210.424 69.8887 210.649 69.4512 211.098 69.0996C211.547 68.748 212.108 68.5723 212.779 68.5723C213.44 68.5723 213.985 68.7246 214.414 69.0293C214.844 69.334 215.092 69.7461 215.158 70.2656H214.162C214.092 70.0078 213.936 69.8047 213.694 69.6562C213.455 69.5039 213.149 69.4277 212.774 69.4277C212.395 69.4277 212.076 69.5156 211.819 69.6914C211.565 69.8672 211.438 70.0938 211.438 70.3711C211.438 70.5859 211.526 70.7656 211.701 70.9102C211.881 71.0508 212.158 71.166 212.533 71.2559L213.506 71.4902C214.108 71.6348 214.551 71.8438 214.836 72.1172C215.125 72.3906 215.27 72.752 215.27 73.2012C215.27 73.7598 215.029 74.2188 214.549 74.5781C214.069 74.9336 213.465 75.1113 212.738 75.1113C212.035 75.1113 211.459 74.9551 211.01 74.6426C210.561 74.3301 210.309 73.9121 210.254 73.3887H211.291C211.377 73.6621 211.547 73.877 211.801 74.0332C212.055 74.1855 212.379 74.2617 212.774 74.2617C213.199 74.2617 213.549 74.1699 213.822 73.9863C214.096 73.8027 214.233 73.5664 214.233 73.2773C214.233 72.8477 213.899 72.5508 213.231 72.3867L212.147 72.123C211.549 71.9785 211.111 71.7715 210.834 71.502C210.561 71.2285 210.424 70.8652 210.424 70.4121ZM222.124 70.6172H221.104C221.018 70.2852 220.833 70.0137 220.548 69.8027C220.266 69.5879 219.909 69.4805 219.475 69.4805C218.909 69.4805 218.458 69.6914 218.122 70.1133C217.79 70.5352 217.624 71.1035 217.624 71.8184C217.624 72.5449 217.792 73.125 218.128 73.5586C218.464 73.9883 218.913 74.2031 219.475 74.2031C219.901 74.2031 220.255 74.1074 220.536 73.916C220.821 73.7246 221.011 73.4512 221.104 73.0957H222.124C222.03 73.6934 221.751 74.1797 221.286 74.5547C220.821 74.9258 220.22 75.1113 219.481 75.1113C218.595 75.1113 217.89 74.8145 217.366 74.2207C216.843 73.623 216.581 72.8223 216.581 71.8184C216.581 70.834 216.843 70.0469 217.366 69.457C217.89 68.8672 218.593 68.5723 219.475 68.5723C220.214 68.5723 220.815 68.7656 221.28 69.1523C221.749 69.5391 222.03 70.0273 222.124 70.6172ZM228.38 74.2383C227.861 74.8203 227.152 75.1113 226.253 75.1113C225.355 75.1113 224.644 74.8203 224.121 74.2383C223.601 73.6523 223.341 72.8535 223.341 71.8418C223.341 70.8262 223.601 70.0273 224.121 69.4453C224.64 68.8633 225.351 68.5723 226.253 68.5723C227.156 68.5723 227.867 68.8633 228.386 69.4453C228.906 70.0273 229.166 70.8262 229.166 71.8418C229.166 72.8535 228.904 73.6523 228.38 74.2383ZM224.871 73.5879C225.195 73.998 225.656 74.2031 226.253 74.2031C226.851 74.2031 227.312 73.998 227.636 73.5879C227.961 73.1738 228.123 72.5918 228.123 71.8418C228.123 71.0918 227.961 70.5117 227.636 70.1016C227.312 69.6875 226.851 69.4805 226.253 69.4805C225.656 69.4805 225.195 69.6875 224.871 70.1016C224.546 70.5117 224.384 71.0918 224.384 71.8418C224.384 72.5918 224.546 73.1738 224.871 73.5879ZM230.793 75V68.6836H231.754V69.6211H231.848C231.942 69.3125 232.153 69.0605 232.481 68.8652C232.809 68.6699 233.182 68.5723 233.6 68.5723C233.791 68.5723 233.959 68.582 234.104 68.6016V69.6094C233.967 69.5703 233.752 69.5508 233.459 69.5508C232.979 69.5508 232.582 69.6953 232.27 69.9844C231.957 70.2734 231.801 70.6406 231.801 71.0859V75H230.793ZM237.753 69.4629C237.249 69.4629 236.835 69.6328 236.511 69.9727C236.186 70.3125 236.005 70.7617 235.966 71.3203H239.446C239.435 70.7617 239.274 70.3125 238.966 69.9727C238.657 69.6328 238.253 69.4629 237.753 69.4629ZM239.417 73.3652H240.425C240.272 73.9121 239.962 74.3398 239.493 74.6484C239.028 74.957 238.452 75.1113 237.765 75.1113C236.89 75.1113 236.196 74.8184 235.685 74.2324C235.173 73.6426 234.917 72.8477 234.917 71.8477C234.917 70.8516 235.175 70.0566 235.69 69.4629C236.206 68.8691 236.897 68.5723 237.765 68.5723C238.616 68.5723 239.286 68.8555 239.774 69.4219C240.263 69.9883 240.507 70.7637 240.507 71.748V72.1348H235.966V72.1816C235.993 72.8066 236.169 73.3027 236.493 73.6699C236.821 74.0371 237.253 74.2207 237.788 74.2207C238.604 74.2207 239.147 73.9355 239.417 73.3652Z" fill="#718096"/>
<path d="M283.38 76.1841C281.272 76.1841 279.806 75.0923 279.806 73.5244V73.5117C279.806 72.3374 280.663 71.4297 281.882 71.1821V71.144C280.834 70.8647 280.136 70.0967 280.136 69.1128V69.1001C280.136 67.6909 281.482 66.6562 283.38 66.6562C285.278 66.6562 286.624 67.6909 286.624 69.1001V69.1128C286.624 70.0967 285.925 70.8647 284.878 71.144V71.1821C286.103 71.4297 286.954 72.3374 286.954 73.5117V73.5244C286.954 75.0923 285.487 76.1841 283.38 76.1841ZM283.38 70.6235C284.338 70.6235 285.005 70.0649 285.005 69.2651V69.2524C285.005 68.4526 284.338 67.894 283.38 67.894C282.421 67.894 281.755 68.4526 281.755 69.2524V69.2651C281.755 70.0649 282.421 70.6235 283.38 70.6235ZM283.38 74.9336C284.478 74.9336 285.259 74.2988 285.259 73.4165V73.4038C285.259 72.5151 284.484 71.874 283.38 71.874C282.269 71.874 281.501 72.5151 281.501 73.4038V73.4165C281.501 74.2988 282.282 74.9336 283.38 74.9336ZM288.768 76V74.8955L291.776 71.8232C293.021 70.5664 293.37 70.103 293.37 69.3984V69.3794C293.37 68.5352 292.792 67.9258 291.84 67.9258C290.869 67.9258 290.215 68.5669 290.215 69.5127L290.209 69.5381L288.685 69.5317L288.679 69.5127C288.679 67.8052 290.012 66.6118 291.922 66.6118C293.706 66.6118 294.988 67.6973 294.988 69.2397V69.2588C294.988 70.2998 294.487 71.125 292.817 72.731L290.983 74.5083V74.6416H295.128V76H288.768Z" fill="#CBD5E0"/>
<path d="M172 21.5H296C300.142 21.5 303.5 24.8579 303.5 29V41C303.5 45.1421 300.142 48.5 296 48.5H172C167.858 48.5 164.5 45.1421 164.5 41V29C164.5 24.8579 167.858 21.5 172 21.5Z" stroke="url(#paint2_linear_8038_141)"/>
<path d="M175.275 39V31.4941H172.551V30.5449H179.055V31.4941H176.33V39H175.275ZM182.024 39.1113C180.225 39.1113 179.112 37.8691 179.112 35.8477V35.8359C179.112 33.8086 180.225 32.5723 182.024 32.5723C183.823 32.5723 184.936 33.8086 184.936 35.8359V35.8477C184.936 37.8691 183.823 39.1113 182.024 39.1113ZM182.024 38.209C183.219 38.209 183.893 37.3359 183.893 35.8477V35.8359C183.893 34.3418 183.219 33.4746 182.024 33.4746C180.829 33.4746 180.155 34.3418 180.155 35.8359V35.8477C180.155 37.3359 180.829 38.209 182.024 38.209ZM188.896 39.1113C187.296 39.1113 186.247 37.8164 186.247 35.8477V35.8359C186.247 33.8555 187.29 32.5723 188.896 32.5723C189.763 32.5723 190.519 33.0059 190.865 33.6797H190.958V30.1758H191.978V39H190.958V37.9922H190.865C190.478 38.6953 189.775 39.1113 188.896 39.1113ZM189.13 38.209C190.279 38.209 190.982 37.3066 190.982 35.8477V35.8359C190.982 34.377 190.279 33.4746 189.13 33.4746C187.976 33.4746 187.29 34.3652 187.29 35.8359V35.8477C187.29 37.3184 187.976 38.209 189.13 38.209ZM195.715 39.1113C194.514 39.1113 193.606 38.3848 193.606 37.2363V37.2246C193.606 36.0996 194.438 35.4492 195.908 35.3613L197.719 35.25V34.6758C197.719 33.8965 197.244 33.4746 196.301 33.4746C195.545 33.4746 195.047 33.7559 194.883 34.248L194.877 34.2656H193.858L193.863 34.2305C194.027 33.2402 194.988 32.5723 196.336 32.5723C197.877 32.5723 198.738 33.3633 198.738 34.6758V39H197.719V38.0684H197.625C197.227 38.7422 196.565 39.1113 195.715 39.1113ZM194.649 37.2129C194.649 37.8516 195.193 38.2266 195.926 38.2266C196.963 38.2266 197.719 37.5469 197.719 36.6445V36.0703L196.031 36.1758C195.07 36.2344 194.649 36.5742 194.649 37.2012V37.2129ZM200.952 41.2148C200.817 41.2148 200.641 41.2031 200.501 41.1797V40.3418C200.624 40.3652 200.782 40.3711 200.923 40.3711C201.503 40.3711 201.854 40.1074 202.083 39.3809L202.2 39.0059L199.862 32.6836H200.952L202.686 37.8809H202.78L204.509 32.6836H205.581L203.114 39.3867C202.593 40.8047 202.071 41.2148 200.952 41.2148ZM206.968 33.8789L207.478 30.5449H208.644L207.724 33.8789H206.968ZM211.988 39.1113C210.582 39.1113 209.615 38.4316 209.498 37.3887H210.541C210.711 37.916 211.215 38.2617 212.024 38.2617C212.873 38.2617 213.477 37.8574 213.477 37.2832V37.2715C213.477 36.8438 213.154 36.5449 212.375 36.3574L211.397 36.123C210.213 35.8418 209.68 35.3262 209.68 34.418V34.4121C209.68 33.3633 210.688 32.5723 212.029 32.5723C213.354 32.5723 214.274 33.2344 214.414 34.2656H213.412C213.278 33.7676 212.785 33.4219 212.024 33.4219C211.274 33.4219 210.723 33.8086 210.723 34.3652V34.377C210.723 34.8047 211.039 35.0742 211.783 35.2559L212.756 35.4902C213.945 35.7773 214.52 36.293 214.52 37.1953V37.207C214.52 38.332 213.424 39.1113 211.988 39.1113ZM221.736 39.1113C220.33 39.1113 219.363 38.4316 219.246 37.3887H220.289C220.459 37.916 220.962 38.2617 221.771 38.2617C222.621 38.2617 223.224 37.8574 223.224 37.2832V37.2715C223.224 36.8438 222.902 36.5449 222.123 36.3574L221.144 36.123C219.961 35.8418 219.427 35.3262 219.427 34.418V34.4121C219.427 33.3633 220.435 32.5723 221.777 32.5723C223.101 32.5723 224.021 33.2344 224.162 34.2656H223.16C223.025 33.7676 222.533 33.4219 221.771 33.4219C221.021 33.4219 220.47 33.8086 220.47 34.3652V34.377C220.47 34.8047 220.787 35.0742 221.531 35.2559L222.503 35.4902C223.693 35.7773 224.267 36.293 224.267 37.1953V37.207C224.267 38.332 223.171 39.1113 221.736 39.1113ZM228.473 39.1113C226.668 39.1113 225.578 37.8457 225.578 35.8652V35.8594C225.578 33.9082 226.692 32.5723 228.408 32.5723C230.125 32.5723 231.168 33.8496 231.168 35.7363V36.1348H226.621C226.651 37.4414 227.371 38.2031 228.496 38.2031C229.352 38.2031 229.879 37.7988 230.049 37.418L230.073 37.3652H231.092L231.08 37.4121C230.864 38.2676 229.961 39.1113 228.473 39.1113ZM228.403 33.4805C227.465 33.4805 226.75 34.1191 226.639 35.3203H230.131C230.026 34.0723 229.334 33.4805 228.403 33.4805ZM234.964 39.1113C233.558 39.1113 232.591 38.4316 232.474 37.3887H233.517C233.686 37.916 234.19 38.2617 234.999 38.2617C235.849 38.2617 236.452 37.8574 236.452 37.2832V37.2715C236.452 36.8438 236.13 36.5449 235.351 36.3574L234.372 36.123C233.188 35.8418 232.655 35.3262 232.655 34.418V34.4121C232.655 33.3633 233.663 32.5723 235.005 32.5723C236.329 32.5723 237.249 33.2344 237.39 34.2656H236.388C236.253 33.7676 235.761 33.4219 234.999 33.4219C234.249 33.4219 233.698 33.8086 233.698 34.3652V34.377C233.698 34.8047 234.015 35.0742 234.759 35.2559L235.731 35.4902C236.921 35.7773 237.495 36.293 237.495 37.1953V37.207C237.495 38.332 236.399 39.1113 234.964 39.1113ZM241.173 39.1113C239.767 39.1113 238.8 38.4316 238.683 37.3887H239.726C239.896 37.916 240.4 38.2617 241.209 38.2617C242.058 38.2617 242.662 37.8574 242.662 37.2832V37.2715C242.662 36.8438 242.339 36.5449 241.56 36.3574L240.582 36.123C239.398 35.8418 238.865 35.3262 238.865 34.418V34.4121C238.865 33.3633 239.873 32.5723 241.214 32.5723C242.539 32.5723 243.459 33.2344 243.599 34.2656H242.597C242.463 33.7676 241.97 33.4219 241.209 33.4219C240.459 33.4219 239.908 33.8086 239.908 34.3652V34.377C239.908 34.8047 240.224 35.0742 240.968 35.2559L241.941 35.4902C243.131 35.7773 243.705 36.293 243.705 37.1953V37.207C243.705 38.332 242.609 39.1113 241.173 39.1113ZM245.871 31.4648C245.485 31.4648 245.168 31.1484 245.168 30.7617C245.168 30.375 245.485 30.0586 245.871 30.0586C246.258 30.0586 246.575 30.375 246.575 30.7617C246.575 31.1484 246.258 31.4648 245.871 31.4648ZM245.356 39V32.6836H246.375V39H245.356ZM250.938 39.1113C249.14 39.1113 248.026 37.8691 248.026 35.8477V35.8359C248.026 33.8086 249.14 32.5723 250.938 32.5723C252.737 32.5723 253.851 33.8086 253.851 35.8359V35.8477C253.851 37.8691 252.737 39.1113 250.938 39.1113ZM250.938 38.209C252.134 38.209 252.808 37.3359 252.808 35.8477V35.8359C252.808 34.3418 252.134 33.4746 250.938 33.4746C249.743 33.4746 249.069 34.3418 249.069 35.8359V35.8477C249.069 37.3359 249.743 38.209 250.938 38.209ZM255.478 39V32.6836H256.498V33.6328H256.592C256.908 32.9648 257.5 32.5723 258.431 32.5723C259.849 32.5723 260.64 33.4102 260.64 34.9102V39H259.621V35.1562C259.621 34.0195 259.152 33.4746 258.144 33.4746C257.136 33.4746 256.498 34.1543 256.498 35.2617V39H255.478ZM264.7 39.1113C263.293 39.1113 262.327 38.4316 262.209 37.3887H263.252C263.422 37.916 263.926 38.2617 264.735 38.2617C265.584 38.2617 266.188 37.8574 266.188 37.2832V37.2715C266.188 36.8438 265.866 36.5449 265.086 36.3574L264.108 36.123C262.924 35.8418 262.391 35.3262 262.391 34.418V34.4121C262.391 33.3633 263.399 32.5723 264.741 32.5723C266.065 32.5723 266.985 33.2344 267.125 34.2656H266.123C265.989 33.7676 265.496 33.4219 264.735 33.4219C263.985 33.4219 263.434 33.8086 263.434 34.3652V34.377C263.434 34.8047 263.75 35.0742 264.495 35.2559L265.467 35.4902C266.657 35.7773 267.231 36.293 267.231 37.1953V37.207C267.231 38.332 266.135 39.1113 264.7 39.1113Z" fill="#718096"/>
<path d="M291.266 40.2285C289.393 40.2285 288.13 39.0859 288.009 37.5815L288.003 37.499H289.514L289.52 37.5435C289.641 38.2925 290.333 38.8892 291.272 38.8892C292.345 38.8892 293.081 38.1338 293.081 37.0547V37.042C293.081 35.9756 292.332 35.2266 291.285 35.2266C290.771 35.2266 290.326 35.3789 289.99 35.6836C289.825 35.8232 289.672 36.001 289.564 36.2041H288.162L288.606 30.8403H294.103V32.186H289.882L289.628 34.9727H289.736C290.117 34.3569 290.828 33.9888 291.691 33.9888C293.398 33.9888 294.636 35.2583 294.636 37.0103V37.0229C294.636 38.9272 293.246 40.2285 291.266 40.2285Z" fill="#CBD5E0"/>
</g>
<path d="M12 0.5H304C310.351 0.5 315.5 5.64873 315.5 12V93C315.5 99.3513 310.351 104.5 304 104.5H12C5.64873 104.5 0.5 99.3513 0.5 93V12C0.5 5.64873 5.64873 0.500001 12 0.5Z" stroke="#171923"/>
<defs>
<filter id="filter0_d_8038_141" x="8" y="69" width="146.667" height="42" filterUnits="userSpaceOnUse" color-interpolation-filters="sRGB">
<feFlood flood-opacity="0" result="BackgroundImageFix"/>
<feColorMatrix in="SourceAlpha" type="matrix" values="0 0 0 0 0 0 0 0 0 0 0 0 0 0 0 0 0 0 127 0" result="hardAlpha"/>
<feOffset dy="4"/>
<feGaussianBlur stdDeviation="2"/>
<feComposite in2="hardAlpha" operator="out"/>
<feColorMatrix type="matrix" values="0 0 0 0 0 0 0 0 0 0 0 0 0 0 0 0 0 0 0.25 0"/>
<feBlend mode="normal" in2="BackgroundImageFix" result="effect1_dropShadow_8038_141"/>
<feBlend mode="normal" in="SourceGraphic" in2="effect1_dropShadow_8038_141" result="shape"/>
</filter>
<linearGradient id="paint0_linear_8038_141" x1="65.5" y1="-107.5" x2="116.5" y2="117" gradientUnits="userSpaceOnUse">
<stop offset="0.078185" stop-color="#1A202C"/>
<stop offset="0.896104" stop-color="#07080A"/>
</linearGradient>
<linearGradient id="paint1_linear_8038_141" x1="141" y1="32" x2="306.5" y2="116" gradientUnits="userSpaceOnUse">
<stop stop-color="#8F6D43"/>
<stop offset="0.571609" stop-color="#24221E"/>
<stop offset="1" stop-color="#07080A"/>
</linearGradient>
<linearGradient id="paint2_linear_8038_141" x1="141" y1="-4" x2="306.5" y2="80" gradientUnits="userSpaceOnUse">
<stop stop-color="#8F6D43"/>
<stop offset="0.571609" stop-color="#24221E"/>
<stop offset="1" stop-color="#07080A"/>
</linearGradient>
<clipPath id="clip0_8038_141">
<path d="M0 12C0 5.37258 5.37258 0 12 0H304C310.627 0 316 5.37258 316 12V93C316 99.6274 310.627 105 304 105H12C5.37257 105 0 99.6274 0 93V12Z" fill="white"/>
</clipPath>
<clipPath id="clip1_8038_141">
<rect width="123" height="69" fill="white" transform="translate(19 2)"/>
</clipPath>
</defs>
</svg>
