<svg width="316" height="105" viewBox="0 0 316 105" fill="none" xmlns="http://www.w3.org/2000/svg">
<g clip-path="url(#clip0_7980_1068)">
<rect x="-0.5" y="0.5" width="315" height="104" rx="11.5" transform="matrix(-1 0 0 1 315 0)" fill="#07080A" stroke="#1A202C"/>
<line x1="16" y1="16.5" x2="300" y2="16.5" stroke="#2D3748" stroke-dasharray="2 2"/>
<line x1="16" y1="36.5" x2="300" y2="36.5" stroke="#2D3748" stroke-dasharray="2 2"/>
<line x1="16" y1="56.5" x2="300" y2="56.5" stroke="#2D3748" stroke-dasharray="2 2"/>
<line x1="16" y1="76.5" x2="300" y2="76.5" stroke="#2D3748" stroke-dasharray="2 2"/>
<line x1="19" y1="96.5" x2="294" y2="96.5" stroke="#2D3748" stroke-dasharray="2 2"/>
<path d="M19 46C19 44.3431 20.3431 43 22 43C23.6569 43 25 44.3431 25 46V97H19V46Z" fill="url(#paint0_linear_7980_1068)"/>
<path d="M45 60C45 58.3431 46.3431 57 48 57C49.6569 57 51 58.3431 51 60V97H45V60Z" fill="url(#paint1_linear_7980_1068)"/>
<path d="M71 28C71 26.3431 72.3431 25 74 25C75.6569 25 77 26.3431 77 28V97H71V28Z" fill="url(#paint2_linear_7980_1068)"/>
<mask id="path-10-inside-1_7980_1068" fill="white">
<path d="M97 43C97 41.3431 98.3431 40 100 40C101.657 40 103 41.3431 103 43V97H97V43Z"/>
</mask>
<path d="M97 43C97 41.3431 98.3431 40 100 40C101.657 40 103 41.3431 103 43V97H97V43Z" fill="url(#paint3_linear_7980_1068)"/>
<path d="M96 43C96 40.7909 97.7909 39 100 39C102.209 39 104 40.7909 104 43H102C102 41.8954 101.105 41 100 41C98.8954 41 98 41.8954 98 43H96ZM103 97H97H103ZM96 97V43C96 40.7909 97.7909 39 100 39V41C98.8954 41 98 41.8954 98 43V97H96ZM100 39C102.209 39 104 40.7909 104 43V97H102V43C102 41.8954 101.105 41 100 41V39Z" fill="white" fill-opacity="0.4" mask="url(#path-10-inside-1_7980_1068)"/>
<mask id="path-12-inside-2_7980_1068" fill="white">
<path d="M134 8C129.582 8 126 11.5817 126 16V34.0391C124.699 36.3584 122.096 40.0251 118 41.583C110.436 44.4595 107 44.5 107 44.5C107 44.5 110.436 44.5405 118 47.417C122.096 48.9748 124.699 52.6406 126 54.96V89C126 93.4183 129.582 97 134 97H300C304.418 97 308 93.4183 308 89V16C308 11.5817 304.418 8 300 8H134Z"/>
</mask>
<path d="M134 8C129.582 8 126 11.5817 126 16V34.0391C124.699 36.3584 122.096 40.0251 118 41.583C110.436 44.4595 107 44.5 107 44.5C107 44.5 110.436 44.5405 118 47.417C122.096 48.9748 124.699 52.6406 126 54.96V89C126 93.4183 129.582 97 134 97H300C304.418 97 308 93.4183 308 89V16C308 11.5817 304.418 8 300 8H134Z" fill="#0D0D0F"/>
<path d="M126 16H125H126ZM126 34.0391H127V34.3004L126.872 34.5282L126 34.0391ZM118 41.583L118.355 42.5177V42.5177L118 41.583ZM107 44.5L106.988 45.4999V43.5001L107 44.5ZM118 47.417L118.355 46.4823V46.4823L118 47.417ZM126 54.96L126.872 54.4707L127 54.6987V54.96H126ZM300 8V7V8ZM134 8V9C130.134 9 127 12.134 127 16H126H125C125 11.0294 129.029 7 134 7V8ZM126 16H127V34.0391H126H125V16H126ZM126 34.0391L126.872 34.5282C125.537 36.9088 122.787 40.8324 118.355 42.5177L118 41.583L117.645 40.6483C121.406 39.2177 123.861 35.808 125.128 33.5499L126 34.0391ZM118 41.583L118.355 42.5177C114.528 43.9732 111.726 44.7184 109.864 45.0999C108.933 45.2906 108.237 45.3904 107.765 45.4427C107.529 45.4688 107.349 45.483 107.224 45.4907C107.162 45.4946 107.113 45.4969 107.077 45.4982C107.06 45.4988 107.045 45.4992 107.034 45.4995C107.029 45.4996 107.024 45.4997 107.021 45.4998C107.019 45.4998 107.017 45.4999 107.016 45.4999C107.015 45.4999 107.014 45.4999 107.014 45.4999C107.013 45.4999 107.013 45.4999 107.013 45.4999C107.012 45.4999 107.012 45.4999 107 44.5C106.988 43.5001 106.988 43.5001 106.987 43.5001C106.987 43.5001 106.987 43.5001 106.987 43.5001C106.986 43.5001 106.986 43.5001 106.986 43.5001C106.985 43.5001 106.985 43.5001 106.984 43.5001C106.984 43.5001 106.984 43.5001 106.986 43.5001C106.988 43.5 106.994 43.4999 107.003 43.4995C107.022 43.4988 107.055 43.4974 107.101 43.4945C107.193 43.4888 107.341 43.4774 107.545 43.4548C107.954 43.4096 108.589 43.3195 109.463 43.1405C111.21 42.7827 113.908 42.0693 117.645 40.6483L118 41.583ZM107 44.5C107.012 43.5001 107.012 43.5001 107.013 43.5001C107.013 43.5001 107.013 43.5001 107.014 43.5001C107.014 43.5001 107.015 43.5001 107.016 43.5001C107.017 43.5001 107.019 43.5002 107.021 43.5002C107.024 43.5003 107.029 43.5004 107.034 43.5005C107.045 43.5008 107.06 43.5012 107.077 43.5018C107.113 43.5031 107.162 43.5054 107.224 43.5093C107.349 43.517 107.529 43.5312 107.765 43.5573C108.237 43.6096 108.933 43.7094 109.864 43.9001C111.726 44.2816 114.528 45.0268 118.355 46.4823L118 47.417L117.645 48.3517C113.908 46.9307 111.21 46.2173 109.463 45.8595C108.589 45.6805 107.954 45.5904 107.545 45.5452C107.341 45.5226 107.193 45.5112 107.101 45.5055C107.055 45.5026 107.022 45.5012 107.003 45.5005C106.994 45.5001 106.988 45.5 106.986 45.4999C106.984 45.4999 106.984 45.4999 106.984 45.4999C106.985 45.4999 106.985 45.4999 106.986 45.4999C106.986 45.4999 106.986 45.4999 106.987 45.4999C106.987 45.4999 106.987 45.4999 106.987 45.4999C106.988 45.4999 106.988 45.4999 107 44.5ZM118 47.417L118.355 46.4823C122.786 48.1674 125.537 52.0901 126.872 54.4707L126 54.96L125.128 55.4492C123.861 53.1911 121.406 49.7821 117.645 48.3517L118 47.417ZM126 54.96H127V89H126H125V54.96H126ZM126 89H127C127 92.866 130.134 96 134 96V97V98C129.029 98 125 93.9706 125 89H126ZM134 97V96H300V97V98H134V97ZM300 97V96C303.866 96 307 92.866 307 89H308H309C309 93.9706 304.971 98 300 98V97ZM308 89H307V16H308H309V89H308ZM308 16H307C307 12.134 303.866 9 300 9V8V7C304.971 7 309 11.0294 309 16H308ZM300 8V9H134V8V7H300V8Z" fill="#1A202C" mask="url(#path-12-inside-2_7980_1068)"/>
<path d="M135.483 32L139.831 23.5371V23.4277H134.663V22.1357H141.383V23.4619L137.09 32H135.483ZM147.214 32V22.1357H148.978L152.122 30.0039H152.231L155.376 22.1357H157.14V32H155.745V24.7607H155.643L152.744 32H151.609L148.718 24.7607H148.608V32H147.214ZM161.48 32.123C160.065 32.123 159.02 31.2617 159.02 29.915V29.9014C159.02 28.5752 160.018 27.8027 161.788 27.6934L163.798 27.5771V26.9209C163.798 26.1074 163.285 25.6562 162.28 25.6562C161.46 25.6562 160.92 25.957 160.742 26.4834L160.735 26.5107H159.307L159.313 26.4629C159.491 25.2461 160.66 24.4326 162.349 24.4326C164.215 24.4326 165.268 25.3623 165.268 26.9209V32H163.798V30.9473H163.682C163.244 31.6992 162.465 32.123 161.48 32.123ZM160.496 29.8535C160.496 30.5371 161.077 30.9404 161.877 30.9404C162.984 30.9404 163.798 30.2158 163.798 29.2588V28.623L161.986 28.7393C160.961 28.8008 160.496 29.1699 160.496 29.8398V29.8535ZM167.838 34.6113C167.653 34.6113 167.435 34.5977 167.243 34.5771V33.4082C167.387 33.4287 167.571 33.4355 167.742 33.4355C168.433 33.4355 168.843 33.1416 169.068 32.3896L169.178 32.0068L166.484 24.5762H168.084L169.943 30.5098H170.073L171.926 24.5762H173.484L170.723 32.2871C170.094 34.0645 169.342 34.6113 167.838 34.6113Z" fill="#718096"/>
<path d="M137.275 61V53.4941H134.551V52.5449H141.055V53.4941H138.33V61H137.275ZM143.979 61.1113C142.18 61.1113 141.066 59.8691 141.066 57.8477V57.8359C141.066 55.8086 142.18 54.5723 143.979 54.5723C145.777 54.5723 146.891 55.8086 146.891 57.8359V57.8477C146.891 59.8691 145.777 61.1113 143.979 61.1113ZM143.979 60.209C145.174 60.209 145.848 59.3359 145.848 57.8477V57.8359C145.848 56.3418 145.174 55.4746 143.979 55.4746C142.783 55.4746 142.109 56.3418 142.109 57.8359V57.8477C142.109 59.3359 142.783 60.209 143.979 60.209ZM150.717 61.0469C149.416 61.0469 148.871 60.5664 148.871 59.3594V55.5273H147.875V54.6836H148.871V53.0488H149.926V54.6836H151.309V55.5273H149.926V59.1016C149.926 59.8457 150.184 60.1445 150.84 60.1445C151.021 60.1445 151.121 60.1387 151.309 60.1211V60.9883C151.109 61.0234 150.916 61.0469 150.717 61.0469ZM154.566 61.1113C153.365 61.1113 152.457 60.3848 152.457 59.2363V59.2246C152.457 58.0996 153.289 57.4492 154.76 57.3613L156.57 57.25V56.6758C156.57 55.8965 156.096 55.4746 155.152 55.4746C154.396 55.4746 153.898 55.7559 153.734 56.248L153.729 56.2656H152.709L152.715 56.2305C152.879 55.2402 153.84 54.5723 155.188 54.5723C156.729 54.5723 157.59 55.3633 157.59 56.6758V61H156.57V60.0684H156.477C156.078 60.7422 155.416 61.1113 154.566 61.1113ZM153.5 59.2129C153.5 59.8516 154.045 60.2266 154.777 60.2266C155.814 60.2266 156.57 59.5469 156.57 58.6445V58.0703L154.883 58.1758C153.922 58.2344 153.5 58.5742 153.5 59.2012V59.2129ZM159.512 61V52.1758H160.531V61H159.512ZM166.285 61V55.5273H165.236V54.6836H166.285V53.9805C166.285 52.7207 166.918 52.1172 168.119 52.1172C168.365 52.1172 168.588 52.1348 168.799 52.1758V52.9902C168.676 52.9668 168.506 52.9609 168.324 52.9609C167.598 52.9609 167.305 53.3184 167.305 54.0098V54.6836H168.74V55.5273H167.305V61H166.285ZM172.537 61.1113C170.738 61.1113 169.625 59.8691 169.625 57.8477V57.8359C169.625 55.8086 170.738 54.5723 172.537 54.5723C174.336 54.5723 175.449 55.8086 175.449 57.8359V57.8477C175.449 59.8691 174.336 61.1113 172.537 61.1113ZM172.537 60.209C173.732 60.209 174.406 59.3359 174.406 57.8477V57.8359C174.406 56.3418 173.732 55.4746 172.537 55.4746C171.342 55.4746 170.668 56.3418 170.668 57.8359V57.8477C170.668 59.3359 171.342 60.209 172.537 60.209ZM179.615 61.1113C177.846 61.1113 176.715 59.8281 176.715 57.8242V57.8125C176.715 55.8496 177.84 54.5723 179.609 54.5723C181.145 54.5723 182.064 55.457 182.252 56.582L182.258 56.6172H181.244L181.238 56.5996C181.08 55.9785 180.518 55.4746 179.609 55.4746C178.473 55.4746 177.758 56.3887 177.758 57.8125V57.8242C177.758 59.2773 178.484 60.209 179.609 60.209C180.459 60.209 180.998 59.834 181.232 59.1309L181.244 59.0957L182.252 59.0898L182.24 59.1543C181.982 60.2969 181.133 61.1113 179.615 61.1113ZM185.861 61.1113C184.426 61.1113 183.688 60.2676 183.688 58.7734V54.6836H184.707V58.5273C184.707 59.6641 185.117 60.209 186.125 60.209C187.238 60.209 187.83 59.5293 187.83 58.4219V54.6836H188.85V61H187.83V60.0566H187.736C187.426 60.7305 186.787 61.1113 185.861 61.1113ZM192.922 61.1113C191.516 61.1113 190.549 60.4316 190.432 59.3887H191.475C191.645 59.916 192.148 60.2617 192.957 60.2617C193.807 60.2617 194.41 59.8574 194.41 59.2832V59.2715C194.41 58.8438 194.088 58.5449 193.309 58.3574L192.33 58.123C191.146 57.8418 190.613 57.3262 190.613 56.418V56.4121C190.613 55.3633 191.621 54.5723 192.963 54.5723C194.287 54.5723 195.207 55.2344 195.348 56.2656H194.346C194.211 55.7676 193.719 55.4219 192.957 55.4219C192.207 55.4219 191.656 55.8086 191.656 56.3652V56.377C191.656 56.8047 191.973 57.0742 192.717 57.2559L193.689 57.4902C194.879 57.7773 195.453 58.293 195.453 59.1953V59.207C195.453 60.332 194.357 61.1113 192.922 61.1113ZM202.578 61.1113C201.172 61.1113 200.205 60.4316 200.088 59.3887H201.131C201.301 59.916 201.805 60.2617 202.613 60.2617C203.463 60.2617 204.066 59.8574 204.066 59.2832V59.2715C204.066 58.8438 203.744 58.5449 202.965 58.3574L201.986 58.123C200.803 57.8418 200.27 57.3262 200.27 56.418V56.4121C200.27 55.3633 201.277 54.5723 202.619 54.5723C203.943 54.5723 204.863 55.2344 205.004 56.2656H204.002C203.867 55.7676 203.375 55.4219 202.613 55.4219C201.863 55.4219 201.312 55.8086 201.312 56.3652V56.377C201.312 56.8047 201.629 57.0742 202.373 57.2559L203.346 57.4902C204.535 57.7773 205.109 58.293 205.109 59.1953V59.207C205.109 60.332 204.014 61.1113 202.578 61.1113ZM209.27 61.1113C207.465 61.1113 206.375 59.8457 206.375 57.8652V57.8594C206.375 55.9082 207.488 54.5723 209.205 54.5723C210.922 54.5723 211.965 55.8496 211.965 57.7363V58.1348H207.418C207.447 59.4414 208.168 60.2031 209.293 60.2031C210.148 60.2031 210.676 59.7988 210.846 59.418L210.869 59.3652H211.889L211.877 59.4121C211.66 60.2676 210.758 61.1113 209.27 61.1113ZM209.199 55.4805C208.262 55.4805 207.547 56.1191 207.436 57.3203H210.928C210.822 56.0723 210.131 55.4805 209.199 55.4805ZM215.715 61.1113C214.309 61.1113 213.342 60.4316 213.225 59.3887H214.268C214.438 59.916 214.941 60.2617 215.75 60.2617C216.6 60.2617 217.203 59.8574 217.203 59.2832V59.2715C217.203 58.8438 216.881 58.5449 216.102 58.3574L215.123 58.123C213.939 57.8418 213.406 57.3262 213.406 56.418V56.4121C213.406 55.3633 214.414 54.5723 215.756 54.5723C217.08 54.5723 218 55.2344 218.141 56.2656H217.139C217.004 55.7676 216.512 55.4219 215.75 55.4219C215 55.4219 214.449 55.8086 214.449 56.3652V56.377C214.449 56.8047 214.766 57.0742 215.51 57.2559L216.482 57.4902C217.672 57.7773 218.246 58.293 218.246 59.1953V59.207C218.246 60.332 217.15 61.1113 215.715 61.1113ZM221.879 61.1113C220.473 61.1113 219.506 60.4316 219.389 59.3887H220.432C220.602 59.916 221.105 60.2617 221.914 60.2617C222.764 60.2617 223.367 59.8574 223.367 59.2832V59.2715C223.367 58.8438 223.045 58.5449 222.266 58.3574L221.287 58.123C220.104 57.8418 219.57 57.3262 219.57 56.418V56.4121C219.57 55.3633 220.578 54.5723 221.92 54.5723C223.244 54.5723 224.164 55.2344 224.305 56.2656H223.303C223.168 55.7676 222.676 55.4219 221.914 55.4219C221.164 55.4219 220.613 55.8086 220.613 56.3652V56.377C220.613 56.8047 220.93 57.0742 221.674 57.2559L222.646 57.4902C223.836 57.7773 224.41 58.293 224.41 59.1953V59.207C224.41 60.332 223.314 61.1113 221.879 61.1113ZM226.531 53.4648C226.145 53.4648 225.828 53.1484 225.828 52.7617C225.828 52.375 226.145 52.0586 226.531 52.0586C226.918 52.0586 227.234 52.375 227.234 52.7617C227.234 53.1484 226.918 53.4648 226.531 53.4648ZM226.016 61V54.6836H227.035V61H226.016ZM231.553 61.1113C229.754 61.1113 228.641 59.8691 228.641 57.8477V57.8359C228.641 55.8086 229.754 54.5723 231.553 54.5723C233.352 54.5723 234.465 55.8086 234.465 57.8359V57.8477C234.465 59.8691 233.352 61.1113 231.553 61.1113ZM231.553 60.209C232.748 60.209 233.422 59.3359 233.422 57.8477V57.8359C233.422 56.3418 232.748 55.4746 231.553 55.4746C230.357 55.4746 229.684 56.3418 229.684 57.8359V57.8477C229.684 59.3359 230.357 60.209 231.553 60.209ZM236.047 61V54.6836H237.066V55.6328H237.16C237.477 54.9648 238.068 54.5723 239 54.5723C240.418 54.5723 241.209 55.4102 241.209 56.9102V61H240.189V57.1562C240.189 56.0195 239.721 55.4746 238.713 55.4746C237.705 55.4746 237.066 56.1543 237.066 57.2617V61H236.047ZM245.223 61.1113C243.816 61.1113 242.85 60.4316 242.732 59.3887H243.775C243.945 59.916 244.449 60.2617 245.258 60.2617C246.107 60.2617 246.711 59.8574 246.711 59.2832V59.2715C246.711 58.8438 246.389 58.5449 245.609 58.3574L244.631 58.123C243.447 57.8418 242.914 57.3262 242.914 56.418V56.4121C242.914 55.3633 243.922 54.5723 245.264 54.5723C246.588 54.5723 247.508 55.2344 247.648 56.2656H246.646C246.512 55.7676 246.02 55.4219 245.258 55.4219C244.508 55.4219 243.957 55.8086 243.957 56.3652V56.377C243.957 56.8047 244.273 57.0742 245.018 57.2559L245.99 57.4902C247.18 57.7773 247.754 58.293 247.754 59.1953V59.207C247.754 60.332 246.658 61.1113 245.223 61.1113Z" fill="#718096"/>
<path d="M296.18 61.1582C294.375 61.1582 293.197 60.168 293.086 58.7676L293.08 58.6973H294.334L294.34 58.7559C294.422 59.5234 295.131 60.0625 296.18 60.0625C297.211 60.0625 297.908 59.4824 297.908 58.6504V58.6387C297.908 57.6836 297.217 57.1504 296.092 57.1504H295.061V56.1309H296.051C297.018 56.1309 297.674 55.5625 297.674 54.7773V54.7656C297.674 53.9453 297.123 53.4648 296.168 53.4648C295.23 53.4648 294.574 53.9629 294.492 54.7598L294.486 54.8184H293.256L293.262 54.7539C293.391 53.3301 294.516 52.3867 296.168 52.3867C297.85 52.3867 298.951 53.2891 298.951 54.5957V54.6074C298.951 55.6562 298.201 56.3594 297.17 56.5762V56.6055C298.412 56.7168 299.244 57.4668 299.244 58.6504V58.6621C299.244 60.1152 297.973 61.1582 296.18 61.1582Z" fill="#718096"/>
<path d="M135.078 85V76.5449H140.211V77.4941H136.133V80.4004H139.877V81.3379H136.133V85H135.078ZM144.412 85.1113C142.613 85.1113 141.5 83.8691 141.5 81.8477V81.8359C141.5 79.8086 142.613 78.5723 144.412 78.5723C146.211 78.5723 147.324 79.8086 147.324 81.8359V81.8477C147.324 83.8691 146.211 85.1113 144.412 85.1113ZM144.412 84.209C145.607 84.209 146.281 83.3359 146.281 81.8477V81.8359C146.281 80.3418 145.607 79.4746 144.412 79.4746C143.217 79.4746 142.543 80.3418 142.543 81.8359V81.8477C142.543 83.3359 143.217 84.209 144.412 84.209ZM151.49 85.1113C149.721 85.1113 148.59 83.8281 148.59 81.8242V81.8125C148.59 79.8496 149.715 78.5723 151.484 78.5723C153.02 78.5723 153.939 79.457 154.127 80.582L154.133 80.6172H153.119L153.113 80.5996C152.955 79.9785 152.393 79.4746 151.484 79.4746C150.348 79.4746 149.633 80.3887 149.633 81.8125V81.8242C149.633 83.2773 150.359 84.209 151.484 84.209C152.334 84.209 152.873 83.834 153.107 83.1309L153.119 83.0957L154.127 83.0898L154.115 83.1543C153.857 84.2969 153.008 85.1113 151.49 85.1113ZM157.736 85.1113C156.301 85.1113 155.562 84.2676 155.562 82.7734V78.6836H156.582V82.5273C156.582 83.6641 156.992 84.209 158 84.209C159.113 84.209 159.705 83.5293 159.705 82.4219V78.6836H160.725V85H159.705V84.0566H159.611C159.301 84.7305 158.662 85.1113 157.736 85.1113ZM164.797 85.1113C163.391 85.1113 162.424 84.4316 162.307 83.3887H163.35C163.52 83.916 164.023 84.2617 164.832 84.2617C165.682 84.2617 166.285 83.8574 166.285 83.2832V83.2715C166.285 82.8438 165.963 82.5449 165.184 82.3574L164.205 82.123C163.021 81.8418 162.488 81.3262 162.488 80.418V80.4121C162.488 79.3633 163.496 78.5723 164.838 78.5723C166.162 78.5723 167.082 79.2344 167.223 80.2656H166.221C166.086 79.7676 165.594 79.4219 164.832 79.4219C164.082 79.4219 163.531 79.8086 163.531 80.3652V80.377C163.531 80.8047 163.848 81.0742 164.592 81.2559L165.564 81.4902C166.754 81.7773 167.328 82.293 167.328 83.1953V83.207C167.328 84.332 166.232 85.1113 164.797 85.1113ZM174.453 85.1113C173.047 85.1113 172.08 84.4316 171.963 83.3887H173.006C173.176 83.916 173.68 84.2617 174.488 84.2617C175.338 84.2617 175.941 83.8574 175.941 83.2832V83.2715C175.941 82.8438 175.619 82.5449 174.84 82.3574L173.861 82.123C172.678 81.8418 172.145 81.3262 172.145 80.418V80.4121C172.145 79.3633 173.152 78.5723 174.494 78.5723C175.818 78.5723 176.738 79.2344 176.879 80.2656H175.877C175.742 79.7676 175.25 79.4219 174.488 79.4219C173.738 79.4219 173.188 79.8086 173.188 80.3652V80.377C173.188 80.8047 173.504 81.0742 174.248 81.2559L175.221 81.4902C176.41 81.7773 176.984 82.293 176.984 83.1953V83.207C176.984 84.332 175.889 85.1113 174.453 85.1113ZM181.145 85.1113C179.34 85.1113 178.25 83.8457 178.25 81.8652V81.8594C178.25 79.9082 179.363 78.5723 181.08 78.5723C182.797 78.5723 183.84 79.8496 183.84 81.7363V82.1348H179.293C179.322 83.4414 180.043 84.2031 181.168 84.2031C182.023 84.2031 182.551 83.7988 182.721 83.418L182.744 83.3652H183.764L183.752 83.4121C183.535 84.2676 182.633 85.1113 181.145 85.1113ZM181.074 79.4805C180.137 79.4805 179.422 80.1191 179.311 81.3203H182.803C182.697 80.0723 182.006 79.4805 181.074 79.4805ZM187.59 85.1113C186.184 85.1113 185.217 84.4316 185.1 83.3887H186.143C186.312 83.916 186.816 84.2617 187.625 84.2617C188.475 84.2617 189.078 83.8574 189.078 83.2832V83.2715C189.078 82.8438 188.756 82.5449 187.977 82.3574L186.998 82.123C185.814 81.8418 185.281 81.3262 185.281 80.418V80.4121C185.281 79.3633 186.289 78.5723 187.631 78.5723C188.955 78.5723 189.875 79.2344 190.016 80.2656H189.014C188.879 79.7676 188.387 79.4219 187.625 79.4219C186.875 79.4219 186.324 79.8086 186.324 80.3652V80.377C186.324 80.8047 186.641 81.0742 187.385 81.2559L188.357 81.4902C189.547 81.7773 190.121 82.293 190.121 83.1953V83.207C190.121 84.332 189.025 85.1113 187.59 85.1113ZM193.754 85.1113C192.348 85.1113 191.381 84.4316 191.264 83.3887H192.307C192.477 83.916 192.98 84.2617 193.789 84.2617C194.639 84.2617 195.242 83.8574 195.242 83.2832V83.2715C195.242 82.8438 194.92 82.5449 194.141 82.3574L193.162 82.123C191.979 81.8418 191.445 81.3262 191.445 80.418V80.4121C191.445 79.3633 192.453 78.5723 193.795 78.5723C195.119 78.5723 196.039 79.2344 196.18 80.2656H195.178C195.043 79.7676 194.551 79.4219 193.789 79.4219C193.039 79.4219 192.488 79.8086 192.488 80.3652V80.377C192.488 80.8047 192.805 81.0742 193.549 81.2559L194.521 81.4902C195.711 81.7773 196.285 82.293 196.285 83.1953V83.207C196.285 84.332 195.189 85.1113 193.754 85.1113ZM198.406 77.4648C198.02 77.4648 197.703 77.1484 197.703 76.7617C197.703 76.375 198.02 76.0586 198.406 76.0586C198.793 76.0586 199.109 76.375 199.109 76.7617C199.109 77.1484 198.793 77.4648 198.406 77.4648ZM197.891 85V78.6836H198.91V85H197.891ZM203.428 85.1113C201.629 85.1113 200.516 83.8691 200.516 81.8477V81.8359C200.516 79.8086 201.629 78.5723 203.428 78.5723C205.227 78.5723 206.34 79.8086 206.34 81.8359V81.8477C206.34 83.8691 205.227 85.1113 203.428 85.1113ZM203.428 84.209C204.623 84.209 205.297 83.3359 205.297 81.8477V81.8359C205.297 80.3418 204.623 79.4746 203.428 79.4746C202.232 79.4746 201.559 80.3418 201.559 81.8359V81.8477C201.559 83.3359 202.232 84.209 203.428 84.209ZM207.922 85V78.6836H208.941V79.6328H209.035C209.352 78.9648 209.943 78.5723 210.875 78.5723C212.293 78.5723 213.084 79.4102 213.084 80.9102V85H212.064V81.1562C212.064 80.0195 211.596 79.4746 210.588 79.4746C209.58 79.4746 208.941 80.1543 208.941 81.2617V85H207.922ZM220.549 85.0469C219.248 85.0469 218.703 84.5664 218.703 83.3594V79.5273H217.707V78.6836H218.703V77.0488H219.758V78.6836H221.141V79.5273H219.758V83.1016C219.758 83.8457 220.016 84.1445 220.672 84.1445C220.854 84.1445 220.953 84.1387 221.141 84.1211V84.9883C220.941 85.0234 220.748 85.0469 220.549 85.0469ZM223.203 77.4648C222.816 77.4648 222.5 77.1484 222.5 76.7617C222.5 76.375 222.816 76.0586 223.203 76.0586C223.59 76.0586 223.906 76.375 223.906 76.7617C223.906 77.1484 223.59 77.4648 223.203 77.4648ZM222.688 85V78.6836H223.707V85H222.688ZM225.629 85V78.6836H226.648V79.6445H226.742C227.023 78.9648 227.621 78.5723 228.447 78.5723C229.303 78.5723 229.9 79.0234 230.193 79.6797H230.287C230.627 79.0117 231.348 78.5723 232.221 78.5723C233.51 78.5723 234.23 79.3105 234.23 80.6348V85H233.211V80.8691C233.211 79.9375 232.783 79.4746 231.893 79.4746C231.014 79.4746 230.434 80.1367 230.434 80.9395V85H229.414V80.7109C229.414 79.9609 228.898 79.4746 228.102 79.4746C227.275 79.4746 226.648 80.1953 226.648 81.0859V85H225.629ZM238.648 85.1113C236.844 85.1113 235.754 83.8457 235.754 81.8652V81.8594C235.754 79.9082 236.867 78.5723 238.584 78.5723C240.301 78.5723 241.344 79.8496 241.344 81.7363V82.1348H236.797C236.826 83.4414 237.547 84.2031 238.672 84.2031C239.527 84.2031 240.055 83.7988 240.225 83.418L240.248 83.3652H241.268L241.256 83.4121C241.039 84.2676 240.137 85.1113 238.648 85.1113ZM238.578 79.4805C237.641 79.4805 236.926 80.1191 236.814 81.3203H240.307C240.201 80.0723 239.51 79.4805 238.578 79.4805Z" fill="#718096"/>
<path d="M260.479 85V77.8984H260.379L258.252 79.416V78.127L260.479 76.5449H261.791V85H260.479ZM264.246 85V76.1406H265.518V79.6035H265.611C265.922 78.9238 266.531 78.5137 267.457 78.5137C268.881 78.5137 269.666 79.3633 269.666 80.8809V85H268.4V81.1797C268.4 80.125 267.961 79.6035 267.029 79.6035C266.098 79.6035 265.518 80.2422 265.518 81.2676V85H264.246ZM277.699 85.1582C275.895 85.1582 274.717 84.168 274.605 82.7676L274.6 82.6973H275.854L275.859 82.7559C275.941 83.5234 276.65 84.0625 277.699 84.0625C278.73 84.0625 279.428 83.4824 279.428 82.6504V82.6387C279.428 81.6836 278.736 81.1504 277.611 81.1504H276.58V80.1309H277.57C278.537 80.1309 279.193 79.5625 279.193 78.7773V78.7656C279.193 77.9453 278.643 77.4648 277.688 77.4648C276.75 77.4648 276.094 77.9629 276.012 78.7598L276.006 78.8184H274.775L274.781 78.7539C274.91 77.3301 276.035 76.3867 277.688 76.3867C279.369 76.3867 280.471 77.2891 280.471 78.5957V78.6074C280.471 79.6562 279.721 80.3594 278.689 80.5762V80.6055C279.932 80.7168 280.764 81.4668 280.764 82.6504V82.6621C280.764 84.1152 279.492 85.1582 277.699 85.1582ZM285.393 85.2051C283.441 85.2051 282.27 83.5 282.27 80.7754V80.7637C282.27 78.0391 283.441 76.3398 285.393 76.3398C287.338 76.3398 288.516 78.0391 288.516 80.7637V80.7754C288.516 83.5 287.338 85.2051 285.393 85.2051ZM285.393 84.1152C286.523 84.1152 287.191 82.8438 287.191 80.7754V80.7637C287.191 78.6953 286.523 77.4355 285.393 77.4355C284.256 77.4355 283.594 78.6953 283.594 80.7637V80.7754C283.594 82.8438 284.256 84.1152 285.393 84.1152ZM290.203 85V78.6367H291.475V79.6152H291.568C291.85 78.918 292.471 78.5137 293.303 78.5137C294.17 78.5137 294.785 78.9648 295.066 79.6504H295.166C295.488 78.9648 296.221 78.5137 297.105 78.5137C298.389 78.5137 299.139 79.2871 299.139 80.6113V85H297.873V80.916C297.873 80.0371 297.475 79.6035 296.643 79.6035C295.834 79.6035 295.301 80.207 295.301 80.9746V85H294.035V80.7871C294.035 80.0605 293.561 79.6035 292.811 79.6035C292.043 79.6035 291.475 80.2598 291.475 81.0918V85H290.203Z" fill="#007AFF"/>
</g>
<defs>
<linearGradient id="paint0_linear_7980_1068" x1="22" y1="43" x2="22" y2="97" gradientUnits="userSpaceOnUse">
<stop stop-color="#276749"/>
<stop offset="1" stop-color="#0D2419"/>
</linearGradient>
<linearGradient id="paint1_linear_7980_1068" x1="48" y1="57" x2="48" y2="97" gradientUnits="userSpaceOnUse">
<stop stop-color="#276749"/>
<stop offset="1" stop-color="#0D2419"/>
</linearGradient>
<linearGradient id="paint2_linear_7980_1068" x1="74" y1="25" x2="74" y2="97" gradientUnits="userSpaceOnUse">
<stop stop-color="#276749"/>
<stop offset="1" stop-color="#0D2419"/>
</linearGradient>
<linearGradient id="paint3_linear_7980_1068" x1="100" y1="40" x2="100" y2="97" gradientUnits="userSpaceOnUse">
<stop stop-color="#276749"/>
<stop offset="1" stop-color="#0D2419"/>
</linearGradient>
<clipPath id="clip0_7980_1068">
<rect width="316" height="105" fill="white"/>
</clipPath>
</defs>
</svg>
