<svg width="316" height="105" viewBox="0 0 316 105" fill="none" xmlns="http://www.w3.org/2000/svg">
<path d="M12 0.5H105.5V104.5H12C5.64873 104.5 0.5 99.3513 0.5 93V12C0.5 5.64873 5.64873 0.5 12 0.5Z" fill="#07080A" stroke="#1A202C"/>
<rect x="10" y="9" width="10" height="10" rx="3" fill="#171923"/>
<rect x="21" y="9" width="10" height="10" rx="3" fill="#171923"/>
<rect x="32" y="9" width="10" height="10" rx="3" fill="#171923"/>
<rect x="43" y="9" width="10" height="10" rx="3" fill="#171923"/>
<rect x="54" y="9" width="10" height="10" rx="3" fill="#171923"/>
<rect x="65" y="9" width="10" height="10" rx="3" fill="#171923"/>
<rect x="76" y="9" width="10" height="10" rx="3" fill="#171923"/>
<rect x="87" y="9" width="10" height="10" rx="3" fill="#171923"/>
<rect x="10" y="20" width="10" height="10" rx="3" fill="#171923"/>
<path d="M21 23C21 21.3431 22.3431 20 24 20H28C29.6569 20 31 21.3431 31 23V27C31 28.6569 29.6569 30 28 30H24C22.3431 30 21 28.6569 21 27V23Z" fill="#171923"/>
<rect x="32" y="20" width="10" height="10" rx="3" fill="#171923"/>
<path d="M43 23C43 21.3431 44.3431 20 46 20H50C51.6569 20 53 21.3431 53 23V27C53 28.6569 51.6569 30 50 30H46C44.3431 30 43 28.6569 43 27V23Z" fill="#171923"/>
<path d="M54 23C54 21.3431 55.3431 20 57 20H61C62.6569 20 64 21.3431 64 23V27C64 28.6569 62.6569 30 61 30H57C55.3431 30 54 28.6569 54 27V23Z" fill="#1A365D"/>
<rect x="65" y="20" width="10" height="10" rx="3" fill="#171923"/>
<rect x="76" y="20" width="10" height="10" rx="3" fill="#171923"/>
<rect x="87" y="20" width="10" height="10" rx="3" fill="#171923"/>
<path d="M10 34C10 32.3431 11.3431 31 13 31H17C18.6569 31 20 32.3431 20 34V38C20 39.6569 18.6569 41 17 41H13C11.3431 41 10 39.6569 10 38V34Z" fill="#171923"/>
<path d="M21 34C21 32.3431 22.3431 31 24 31H28C29.6569 31 31 32.3431 31 34V38C31 39.6569 29.6569 41 28 41H24C22.3431 41 21 39.6569 21 38V34Z" fill="#2A4365"/>
<path d="M32 34C32 32.3431 33.3431 31 35 31H39C40.6569 31 42 32.3431 42 34V38C42 39.6569 40.6569 41 39 41H35C33.3431 41 32 39.6569 32 38V34Z" fill="#171923"/>
<path d="M43 34C43 32.3431 44.3431 31 46 31H50C51.6569 31 53 32.3431 53 34V38C53 39.6569 51.6569 41 50 41H46C44.3431 41 43 39.6569 43 38V34Z" fill="#171923"/>
<rect x="54" y="31" width="10" height="10" rx="3" fill="#171923"/>
<rect x="65" y="31" width="10" height="10" rx="3" fill="#3182CE"/>
<rect x="76" y="31" width="10" height="10" rx="3" fill="#171923"/>
<rect x="87" y="31" width="10" height="10" rx="3" fill="#3182CE"/>
<path d="M10 45C10 43.3431 11.3431 42 13 42H17C18.6569 42 20 43.3431 20 45V49C20 50.6569 18.6569 52 17 52H13C11.3431 52 10 50.6569 10 49V45Z" fill="#171923"/>
<path d="M21 45C21 43.3431 22.3431 42 24 42H28C29.6569 42 31 43.3431 31 45V49C31 50.6569 29.6569 52 28 52H24C22.3431 52 21 50.6569 21 49V45Z" fill="#171923"/>
<rect x="32" y="42" width="10" height="10" rx="3" fill="#3182CE"/>
<rect x="43" y="42" width="10" height="10" rx="3" fill="#171923"/>
<path d="M54 45C54 43.3431 55.3431 42 57 42H61C62.6569 42 64 43.3431 64 45V49C64 50.6569 62.6569 52 61 52H57C55.3431 52 54 50.6569 54 49V45Z" fill="#1A365D"/>
<path d="M65 45C65 43.3431 66.3431 42 68 42H72C73.6569 42 75 43.3431 75 45V49C75 50.6569 73.6569 52 72 52H68C66.3431 52 65 50.6569 65 49V45Z" fill="#171923"/>
<path d="M76 45C76 43.3431 77.3431 42 79 42H83C84.6569 42 86 43.3431 86 45V49C86 50.6569 84.6569 52 83 52H79C77.3431 52 76 50.6569 76 49V45Z" fill="#2A4365"/>
<path d="M87 45C87 43.3431 88.3431 42 90 42H94C95.6569 42 97 43.3431 97 45V49C97 50.6569 95.6569 52 94 52H90C88.3431 52 87 50.6569 87 49V45Z" fill="#1A365D"/>
<path d="M10 56C10 54.3431 11.3431 53 13 53H17C18.6569 53 20 54.3431 20 56V60C20 61.6569 18.6569 63 17 63H13C11.3431 63 10 61.6569 10 60V56Z" fill="#171923"/>
<path d="M21 56C21 54.3431 22.3431 53 24 53H28C29.6569 53 31 54.3431 31 56V60C31 61.6569 29.6569 63 28 63H24C22.3431 63 21 61.6569 21 60V56Z" fill="#171923"/>
<rect x="32" y="53" width="10" height="10" rx="3" fill="#171923"/>
<path d="M43 56C43 54.3431 44.3431 53 46 53H50C51.6569 53 53 54.3431 53 56V60C53 61.6569 51.6569 63 50 63H46C44.3431 63 43 61.6569 43 60V56Z" fill="#171923"/>
<rect x="54" y="53" width="10" height="10" rx="3" fill="#171923"/>
<path d="M65 56C65 54.3431 66.3431 53 68 53H72C73.6569 53 75 54.3431 75 56V60C75 61.6569 73.6569 63 72 63H68C66.3431 63 65 61.6569 65 60V56Z" fill="#2A4365"/>
<path d="M76 56C76 54.3431 77.3431 53 79 53H83C84.6569 53 86 54.3431 86 56V60C86 61.6569 84.6569 63 83 63H79C77.3431 63 76 61.6569 76 60V56Z" fill="#1A202C"/>
<path d="M87 56C87 54.3431 88.3431 53 90 53H94C95.6569 53 97 54.3431 97 56V60C97 61.6569 95.6569 63 94 63H90C88.3431 63 87 61.6569 87 60V56Z" fill="#1A365D"/>
<path d="M10 67C10 65.3431 11.3431 64 13 64H17C18.6569 64 20 65.3431 20 67V71C20 72.6569 18.6569 74 17 74H13C11.3431 74 10 72.6569 10 71V67Z" fill="#171923"/>
<rect x="21" y="64" width="10" height="10" rx="3" fill="#3182CE"/>
<path d="M32 67C32 65.3431 33.3431 64 35 64H39C40.6569 64 42 65.3431 42 67V71C42 72.6569 40.6569 74 39 74H35C33.3431 74 32 72.6569 32 71V67Z" fill="#1A365D"/>
<path d="M43 67C43 65.3431 44.3431 64 46 64H50C51.6569 64 53 65.3431 53 67V71C53 72.6569 51.6569 74 50 74H46C44.3431 74 43 72.6569 43 71V67Z" fill="#171923"/>
<path d="M54 67C54 65.3431 55.3431 64 57 64H61C62.6569 64 64 65.3431 64 67V71C64 72.6569 62.6569 74 61 74H57C55.3431 74 54 72.6569 54 71V67Z" fill="#2A4365"/>
<path d="M65 67C65 65.3431 66.3431 64 68 64H72C73.6569 64 75 65.3431 75 67V71C75 72.6569 73.6569 74 72 74H68C66.3431 74 65 72.6569 65 71V67Z" fill="#171923"/>
<path d="M76 67C76 65.3431 77.3431 64 79 64H83C84.6569 64 86 65.3431 86 67V71C86 72.6569 84.6569 74 83 74H79C77.3431 74 76 72.6569 76 71V67Z" fill="#171923"/>
<path d="M87 67C87 65.3431 88.3431 64 90 64H94C95.6569 64 97 65.3431 97 67V71C97 72.6569 95.6569 74 94 74H90C88.3431 74 87 72.6569 87 71V67Z" fill="#2A4365"/>
<rect x="10" y="75" width="10" height="10" rx="3" fill="#171923"/>
<rect x="10" y="86" width="10" height="10" rx="3" fill="#171923"/>
<rect x="21" y="75" width="10" height="10" rx="3" fill="#171923"/>
<rect x="21" y="86" width="10" height="10" rx="3" fill="#171923"/>
<rect x="32" y="75" width="10" height="10" rx="3" fill="#171923"/>
<rect x="32" y="86" width="10" height="10" rx="3" fill="#171923"/>
<rect x="43" y="75" width="10" height="10" rx="3" fill="#3182CE"/>
<rect x="43" y="86" width="10" height="10" rx="3" fill="#171923"/>
<rect x="54" y="75" width="10" height="10" rx="3" fill="#171923"/>
<rect x="54" y="86" width="10" height="10" rx="3" fill="#171923"/>
<rect x="65" y="75" width="10" height="10" rx="3" fill="#171923"/>
<rect x="65" y="86" width="10" height="10" rx="3" fill="#171923"/>
<rect x="76" y="75" width="10" height="10" rx="3" fill="#171923"/>
<rect x="76" y="86" width="10" height="10" rx="3" fill="#171923"/>
<path d="M87 78C87 76.3431 88.3431 75 90 75H94C95.6569 75 97 76.3431 97 78V82C97 83.6569 95.6569 85 94 85H90C88.3431 85 87 83.6569 87 82V78Z" fill="#171923"/>
<path d="M87 89C87 87.3431 88.3431 86 90 86H94C95.6569 86 97 87.3431 97 89V93C97 94.6569 95.6569 96 94 96H90C88.3431 96 87 94.6569 87 93V89Z" fill="#171923"/>
<path d="M304 0.5H210.5V104.5H304C310.351 104.5 315.5 99.3513 315.5 93V12C315.5 5.64873 310.351 0.5 304 0.5Z" fill="#07080A" stroke="#1A202C"/>
<line x1="218" y1="24.5" x2="308" y2="24.5" stroke="#2D3748" stroke-dasharray="2 2"/>
<line x1="218" y1="48.5" x2="308" y2="48.5" stroke="#2D3748" stroke-dasharray="2 2"/>
<line x1="218" y1="72.5" x2="308" y2="72.5" stroke="#2D3748" stroke-dasharray="2 2"/>
<line x1="218" y1="96.5" x2="308" y2="96.5" stroke="#2D3748" stroke-dasharray="2 2"/>
<g clip-path="url(#clip0_7980_935)">
<path d="M237.5 69.4997C232.037 79.1645 230 87 217 92.1598V97.9997H309V41.0001C304 38 291.5 35.9998 281 50.9997C274.861 59.7696 270.366 58.5067 260 56.4997C249.634 54.4927 244 58 237.5 69.4997Z" fill="url(#paint0_linear_7980_935)" stroke="url(#paint1_linear_7980_935)" stroke-linecap="round"/>
</g>
<path d="M283 47C283.828 47 284.5 47.6716 284.5 48.5C284.5 49.3284 283.828 50 283 50C282.172 50 281.5 49.3284 281.5 48.5C281.5 47.6716 282.172 47 283 47Z" fill="#01D33E" stroke="white"/>
<rect x="-0.5" y="0.5" width="105" height="104" transform="matrix(-1 0 0 1 210 0)" fill="#07080A" stroke="#1A202C"/>
<line x1="113" y1="24.5" x2="203" y2="24.5" stroke="#2D3748" stroke-dasharray="2 2"/>
<line x1="113" y1="48.5" x2="203" y2="48.5" stroke="#2D3748" stroke-dasharray="2 2"/>
<line x1="113" y1="72.5" x2="203" y2="72.5" stroke="#2D3748" stroke-dasharray="2 2"/>
<line x1="113" y1="96.5" x2="203" y2="96.5" stroke="#2D3748" stroke-dasharray="2 2"/>
<path d="M136 60C136 58.3431 137.343 57 139 57C140.657 57 142 58.3431 142 60V97H136V60Z" fill="url(#paint2_linear_7980_935)"/>
<path d="M155 28C155 26.3431 156.343 25 158 25C159.657 25 161 26.3431 161 28V97H155V28Z" fill="url(#paint3_linear_7980_935)"/>
<path d="M174 53C174 51.3431 175.343 50 177 50C178.657 50 180 51.3431 180 53V97H174V53Z" fill="url(#paint4_linear_7980_935)"/>
<path d="M193 69C193 67.3431 194.343 66 196 66C197.657 66 199 67.3431 199 69V97H193V69Z" fill="url(#paint5_linear_7980_935)"/>
<path d="M117 46C117 44.3431 118.343 43 120 43C121.657 43 123 44.3431 123 46V97H117V46Z" fill="url(#paint6_linear_7980_935)"/>
<defs>
<linearGradient id="paint0_linear_7980_935" x1="262.917" y1="-0.474991" x2="262.917" y2="98.0017" gradientUnits="userSpaceOnUse">
<stop stop-color="#00E417" stop-opacity="0.2"/>
<stop offset="1" stop-color="#0092D1" stop-opacity="0.04"/>
</linearGradient>
<linearGradient id="paint1_linear_7980_935" x1="262.917" y1="-1.96335" x2="262.917" y2="98.0017" gradientUnits="userSpaceOnUse">
<stop stop-color="#00E417"/>
<stop offset="1" stop-color="#0092D1"/>
</linearGradient>
<linearGradient id="paint2_linear_7980_935" x1="139" y1="57" x2="139" y2="97" gradientUnits="userSpaceOnUse">
<stop stop-color="#276749"/>
<stop offset="1" stop-color="#0D2419"/>
</linearGradient>
<linearGradient id="paint3_linear_7980_935" x1="158" y1="25" x2="158" y2="97" gradientUnits="userSpaceOnUse">
<stop stop-color="#276749"/>
<stop offset="1" stop-color="#0D2419"/>
</linearGradient>
<linearGradient id="paint4_linear_7980_935" x1="177" y1="50" x2="177" y2="97" gradientUnits="userSpaceOnUse">
<stop stop-color="#276749"/>
<stop offset="1" stop-color="#0D2419"/>
</linearGradient>
<linearGradient id="paint5_linear_7980_935" x1="196" y1="66" x2="196" y2="97" gradientUnits="userSpaceOnUse">
<stop stop-color="#276749"/>
<stop offset="1" stop-color="#0D2419"/>
</linearGradient>
<linearGradient id="paint6_linear_7980_935" x1="120" y1="43" x2="120" y2="97" gradientUnits="userSpaceOnUse">
<stop stop-color="#276749"/>
<stop offset="1" stop-color="#0D2419"/>
</linearGradient>
<clipPath id="clip0_7980_935">
<rect width="90" height="72" fill="white" transform="translate(218 25)"/>
</clipPath>
</defs>
</svg>
